<svg width="84" height="76" viewBox="0 0 84 76" fill="none" xmlns="http://www.w3.org/2000/svg">
<path fill-rule="evenodd" clip-rule="evenodd" d="M22.0177 30.9343L15.3159 34.7876L20.3626 29.5112L17.7065 30.9364H17.2217C16.1455 30.9364 15.2636 30.0604 15.2636 28.9869V23.6272C15.2636 22.5557 16.1434 21.6777 17.2217 21.6777H22.1682C22.6091 19.826 23.3092 18.0741 24.2287 16.4638L26.2035 17.4354L21.1003 12.3546C20.3396 11.5972 20.3396 10.3572 21.1003 9.59779L24.9058 5.80902C25.6664 5.05169 26.9119 5.05169 27.6747 5.80902L31.173 9.29194C32.7591 8.31822 34.4915 7.55672 36.3305 7.05114L37.0368 9.13173V1.94952C37.0368 0.878011 37.9166 0 38.9949 0H44.3782C45.4544 0 46.3363 0.875931 46.3363 1.94952V6.87429C48.1961 7.31329 49.9557 8.01029 51.5732 8.92575L50.5973 10.8919L55.7005 5.8111C56.4611 5.05377 57.7066 5.05377 58.4673 5.8111L62.2728 9.59987C63.0334 10.3572 63.0334 11.5972 62.2728 12.3567L58.7745 15.8396C59.7525 17.4187 60.5174 19.1456 61.0252 20.9766L58.9354 21.6819C61.3407 21.6819 63.746 21.6819 66.1534 21.6819C67.2297 21.6819 68.1116 22.5578 68.1116 23.6314V28.991C68.1116 30.0625 67.2318 30.9405 66.1534 30.9405H65.6686L63.0125 29.5153L68.0593 34.7917L61.3574 30.9385L41.6907 19.6325L35.9188 22.951V18.5652L31.2545 21.039V25.6329L22.024 30.9385L22.0177 30.9343Z" fill="#FFB81C"/>
<path fill-rule="evenodd" clip-rule="evenodd" d="M46.3342 50.6645C46.3342 51.736 45.4544 52.614 44.3761 52.614H38.9929C37.9166 52.614 37.0347 51.7381 37.0347 50.6645V45.7397C35.1749 45.3007 33.4153 44.6037 31.7978 43.6882L32.7737 41.7221L27.6705 46.8029C26.9099 47.5602 25.6644 47.5602 24.9016 46.8029L21.0961 43.0141C20.3355 42.2568 20.3355 41.0167 21.0961 40.2594L23.5934 37.7731L17.1444 39.3127L23.8463 35.4595L41.6824 25.2063L59.5185 35.4574L66.2203 39.3107L59.7713 37.771L62.2686 40.2573C63.0293 41.0147 63.0293 42.2547 62.2686 43.012L58.4631 46.8008C57.7025 47.5581 56.457 47.5581 55.6963 46.8008L52.198 43.3179C50.6119 44.2916 48.8795 45.051 47.0405 45.5587L46.3342 43.4781V50.6645ZM37.0034 32.1097H40.7503V35.8402H37.0034V32.1097ZM42.6228 37.7044H46.3697V41.4349H42.6228V37.7044ZM37.0034 37.7044H40.7503V41.4349H37.0034V37.7044ZM42.6228 32.1097H46.3697V35.8402H42.6228V32.1097Z" fill="#001E4F"/>
<path d="M3.29555 55.5894L2.54324 59.4343H2.74177L4.90467 55.5894H6.72485L4.04787 59.6715C4.54941 60.0002 4.73331 60.8012 4.80018 62.1516C4.82735 63.1877 4.86496 63.8452 4.99871 64.4361H3.41676C3.32481 63.9638 3.2851 63.2688 3.27256 62.2577C3.2454 61.1945 3.1012 60.6431 2.46801 60.6431H2.37606L1.61121 64.4361H0L1.68853 55.5894H3.29764H3.29555Z" fill="#001E4F"/>
<path d="M8.79372 64.436C8.80626 64.0948 8.82088 63.7411 8.84596 63.3603H8.79372C8.29217 64.2134 7.65898 64.5421 7.15952 64.5421C6.22331 64.5421 5.76147 63.7411 5.76147 62.6259C5.76147 60.6701 6.73739 57.9133 9.4917 57.9133C10.1374 57.9133 10.7832 58.0319 11.1928 58.1755L10.4676 61.7583C10.3234 62.4927 10.2043 63.739 10.2043 64.436H8.79372ZM9.38721 59.1721C9.25555 59.1471 9.13644 59.1326 9.04449 59.1326C7.96408 59.1326 7.38313 61.286 7.37059 62.2181C7.37059 62.7819 7.45 63.1897 7.8575 63.1897C8.30471 63.1897 8.72684 62.4678 8.96508 61.286L9.38721 59.1721Z" fill="#001E4F"/>
<path d="M13.9095 58.0173L13.4999 60.1437C13.4727 60.2873 13.4476 60.4849 13.4476 60.6555C13.4476 60.9177 13.5521 61.1674 13.9095 61.1674C14.1999 61.1674 14.4361 61.0238 14.6346 60.8386L15.1759 58.0173H16.8247L15.5855 64.463H13.9513L14.4382 61.9684H14.3985C14.108 62.191 13.5939 62.3616 13.1592 62.3616C12.1436 62.3616 11.7487 61.7062 11.7487 60.9572C11.7487 60.668 11.8531 60.1562 11.9075 59.8815L12.2627 58.0173H13.9116H13.9095Z" fill="#001E4F"/>
<path d="M21.1087 64.1593C20.5423 64.3944 19.9885 64.513 19.2634 64.513C17.6689 64.513 17.0608 63.4769 17.0608 62.0975C17.0608 60.2332 18.1015 57.8967 20.1599 57.8967C21.3323 57.8967 21.861 58.7768 21.861 59.6548C21.8735 61.4129 20.4504 62.0704 18.6574 62.0184C18.6574 62.2015 18.6699 62.5302 18.8162 62.7674C18.9604 63.0296 19.2634 63.2272 19.7002 63.2272C20.2414 63.2272 20.6092 63.0961 21.0063 62.913L21.1107 64.1593H21.1087ZM19.9488 59.2241C19.4473 59.2241 19.0001 59.8546 18.8141 60.7867C19.6834 60.8262 20.4086 60.485 20.4086 59.8026C20.4086 59.4343 20.2644 59.2241 19.9467 59.2241H19.9488Z" fill="#001E4F"/>
<path d="M25.3028 64.3444C25.1043 64.4089 24.6822 64.515 24.143 64.515C22.7199 64.515 22.1264 63.3853 22.1264 62.2181C22.1264 59.9086 23.5767 57.9258 25.5933 57.9258C25.9883 57.9258 26.2516 57.9778 26.4104 58.0444L26.0008 59.3843C25.8295 59.3447 25.6853 59.3198 25.5264 59.3198C24.5631 59.3198 23.7857 60.6056 23.7857 61.985C23.7857 62.707 24.0762 63.1793 24.6153 63.1793C24.9183 63.1793 25.1963 63.0877 25.4073 63.0357L25.3028 64.3486V64.3444Z" fill="#001E4F"/>
<path d="M25.9214 64.4362L26.7385 60.1044C26.8827 59.3553 26.9893 58.6334 27.0812 58.0175H28.4918L28.427 58.883H28.4542C28.9014 58.2401 29.4824 57.8989 30.2075 57.8989C30.8261 57.8989 31.196 58.3192 31.2879 58.883C31.71 58.2922 32.3432 57.8989 33.0538 57.8989C33.8583 57.8989 34.2407 58.4628 34.2407 59.3033C34.2407 59.5655 34.1739 60.0773 34.0819 60.5891L33.3442 64.4341H31.7226L32.4477 60.6287C32.5125 60.2604 32.5522 59.9587 32.5522 59.6695C32.5522 59.3803 32.4206 59.2243 32.1698 59.2243C31.7999 59.2243 31.313 59.7631 31.0622 61.0094L30.4039 64.4362H28.822L29.5471 60.6307C29.6119 60.302 29.6516 60.0003 29.6516 59.7111C29.6516 59.4219 29.5471 59.2263 29.2817 59.2263C28.9662 59.2263 28.4124 59.8172 28.1867 61.0115L27.541 64.4382H25.9193L25.9214 64.4362Z" fill="#001E4F"/>
<path d="M39.8727 59.3678C39.8727 60.3124 39.1872 60.7722 38.5018 61.0344V61.0739C39.0159 61.1259 39.5696 61.5337 39.5696 62.3472C39.5696 63.8432 38.2113 64.5131 36.7735 64.5131C35.3358 64.5131 34.876 63.6996 34.876 62.6094C34.876 61.3485 35.363 59.1701 36.5249 58.3837C36.947 58.082 37.4485 57.9114 38.0671 57.9114C38.9908 57.9114 39.8727 58.3046 39.8727 59.3678ZM36.4977 61.8083C36.458 61.9665 36.3932 62.3326 36.3932 62.5969C36.3932 62.9381 36.5249 63.2918 37.0118 63.2918C37.5384 63.2918 37.9605 62.9111 37.9605 62.3347C37.9605 61.8229 37.6575 61.6252 37.2751 61.6128C37.0368 61.6128 36.761 61.6918 36.4977 61.8104V61.8083ZM36.6962 60.6411C37.1831 60.5371 37.6324 60.4185 37.948 60.2208C38.1862 60.0627 38.3701 59.8671 38.3701 59.605C38.3701 59.3158 38.1862 59.1056 37.8289 59.1056C37.156 59.1056 36.8132 60.0898 36.6941 60.6411H36.6962Z" fill="#001E4F"/>
<path d="M44.4346 64.1593C43.8683 64.3944 43.3145 64.513 42.5893 64.513C40.9948 64.513 40.3867 63.4769 40.3867 62.0975C40.3867 60.2332 41.4274 57.8967 43.4858 57.8967C44.6582 57.8967 45.1869 58.7768 45.1869 59.6548C45.1994 61.4129 43.7763 62.0704 41.9833 62.0184C41.9833 62.2015 41.9958 62.5302 42.1421 62.7674C42.2863 63.0296 42.5893 63.2272 43.0261 63.2272C43.5673 63.2272 43.9351 63.0961 44.3322 62.913L44.4367 64.1593H44.4346ZM43.2748 59.2241C42.7732 59.2241 42.326 59.8546 42.14 60.7867C43.0094 60.8262 43.7345 60.485 43.7345 59.8026C43.7345 59.4343 43.5903 59.2241 43.2727 59.2241H43.2748Z" fill="#001E4F"/>
<path d="M48.0331 58.0173L47.5462 60.512H48.8899L49.3769 58.0173H51.0257L49.7864 64.436H48.1376L48.6517 61.7458H47.3331L46.819 64.436H45.1702L46.3697 58.0173H48.031H48.0331Z" fill="#001E4F"/>
<path d="M53.8615 58.0173L53.3746 60.512H54.7183L55.2052 58.0173H56.854L55.6148 64.436H53.966L54.4801 61.7458H53.1614L52.6474 64.436H50.9985L52.1981 58.0173H53.8594H53.8615Z" fill="#001E4F"/>
<path d="M59.7818 58.0173L59.1486 60.4329H59.1611C59.5435 60.0917 60.0305 59.9211 60.5592 59.9211C61.4557 59.9211 61.9969 60.539 61.9969 61.5627C61.9969 62.9005 61.021 64.515 58.9918 64.515C58.135 64.515 57.1069 64.3174 57.1069 63.0836C57.1069 62.7299 57.1988 62.243 57.2782 61.8893L58.1622 58.0173H59.7839H59.7818ZM60.3481 61.9164C60.3481 61.4711 60.137 61.2339 59.8068 61.2339C59.3325 61.2339 58.9772 61.7187 58.8581 62.114C58.8058 62.2846 58.7536 62.4948 58.7536 62.6779C58.7536 62.9796 58.925 63.2292 59.2802 63.2292C59.8466 63.2292 60.3481 62.6654 60.3481 61.9164ZM64.8954 58.0173L63.6562 64.436H62.0074L63.2466 58.0173H64.8954Z" fill="#001E4F"/>
<path d="M67.6915 58.0174L66.9936 61.6668C66.9288 62.06 66.8744 62.3887 66.8744 62.7029C66.8744 63.0171 66.9936 63.2023 67.2694 63.2023C67.679 63.2023 68.1137 62.6509 68.285 61.7458L68.983 58.0174H70.6318L69.8001 62.3492C69.6559 63.0982 69.564 63.8202 69.4699 64.4361H68.0593L68.1116 63.556H68.0865C67.6121 64.2384 67.0186 64.5401 66.4126 64.5401C65.5558 64.5401 65.1859 63.8972 65.1859 63.0566C65.1859 62.6488 65.2507 62.2161 65.3447 61.7313L66.0427 58.0174H67.6915ZM68.1931 55.5894C68.1659 56.1282 68.3247 56.4299 68.7343 56.4299C69.1439 56.4299 69.3675 56.0492 69.4323 55.5894H70.473C70.3017 56.613 69.6956 57.1769 68.6675 57.1769C67.6393 57.1769 67.1775 56.5589 67.19 55.5894H68.1931Z" fill="#001E4F"/>
<path d="M56.7328 73.3869C56.5343 73.4514 56.1122 73.5575 55.573 73.5575C54.1499 73.5575 53.5564 72.4277 53.5564 71.2605C53.5564 68.9511 55.0067 66.9683 57.0233 66.9683C57.4183 66.9683 57.6816 67.0203 57.8404 67.0869L57.4308 68.4268C57.2595 68.3872 57.1153 68.3623 56.9564 68.3623C55.9931 68.3623 55.2157 69.6481 55.2157 71.0275C55.2157 71.7495 55.5061 72.2218 56.0453 72.2218C56.3483 72.2218 56.6263 72.1302 56.8373 72.0782L56.7328 73.3911V73.3869Z" fill="#001E4F"/>
<path d="M61.6124 73.2038C61.0461 73.4389 60.4923 73.5575 59.7672 73.5575C58.1727 73.5575 57.5646 72.5213 57.5646 71.1419C57.5646 69.2777 58.6053 66.9412 60.6637 66.9412C61.836 66.9412 62.3648 67.8213 62.3648 68.6993C62.3773 70.4574 60.9542 71.1148 59.1612 71.0628C59.1612 71.2459 59.1737 71.5746 59.32 71.8118C59.4642 72.074 59.7672 72.2716 60.2039 72.2716C60.7452 72.2716 61.113 72.1406 61.51 71.9575L61.6145 73.2038H61.6124ZM60.4526 68.2686C59.9511 68.2686 59.5039 68.899 59.3179 69.8311C60.1872 69.8706 60.9124 69.5294 60.9124 68.847C60.9124 68.4787 60.7682 68.2686 60.4505 68.2686H60.4526Z" fill="#001E4F"/>
<path d="M61.8632 76.0002L63.1819 69.1737C63.3135 68.4247 63.4201 67.6903 63.5246 67.0598H64.9226L64.8307 67.9919H64.8558C65.2507 67.3615 65.8714 66.9558 66.4649 66.9558C67.6247 66.9558 67.8483 67.967 67.8483 68.9386C67.8483 71.092 66.6885 73.5846 64.8035 73.5846C64.513 73.5846 64.1975 73.5326 64.0115 73.4265H63.9718L63.4974 75.9981H61.8632V76.0002ZM64.21 72.2072C64.3417 72.2988 64.4733 72.3654 64.6719 72.3654C65.6749 72.3654 66.1619 70.187 66.1619 69.2278C66.1619 68.7951 66.1221 68.3477 65.6875 68.3477C65.2528 68.3477 64.8035 69.0177 64.6593 69.7917L64.21 72.2072Z" fill="#001E4F"/>
<path d="M73.4112 68.4122C73.4112 69.3568 72.7258 69.8166 72.0403 70.0788V70.1183C72.5544 70.1703 73.1082 70.5781 73.1082 71.3916C73.1082 72.8876 71.7499 73.5575 70.3142 73.5575C68.8785 73.5575 68.4167 72.744 68.4167 71.6538C68.4167 70.393 68.9036 68.2146 70.0655 67.4281C70.4876 67.1264 70.9892 66.9558 71.6077 66.9558C72.5314 66.9558 73.4133 67.349 73.4133 68.4122H73.4112ZM70.0363 70.8528C69.9965 71.0109 69.9318 71.3771 69.9318 71.6413C69.9318 71.9825 70.0634 72.3362 70.5524 72.3362C71.079 72.3362 71.5012 71.9555 71.5012 71.3771C71.5012 70.8653 71.1982 70.6676 70.8157 70.6551C70.5775 70.6551 70.3016 70.7342 70.0383 70.8528H70.0363ZM70.2348 69.6856C70.7217 69.5815 71.171 69.4629 71.4865 69.2653C71.7227 69.1071 71.9087 68.9116 71.9087 68.6494C71.9087 68.3602 71.7248 68.1501 71.3674 68.1501C70.6945 68.1501 70.3518 69.1342 70.2327 69.6856H70.2348Z" fill="#001E4F"/>
<path d="M76.4852 67.0618L75.7873 70.7111C75.7225 71.1044 75.6681 71.4331 75.6681 71.7473C75.6681 72.0614 75.7873 72.2466 76.0631 72.2466C76.4852 72.2466 76.9074 71.6953 77.0787 70.7902L77.7767 67.0618H79.4255L78.5938 71.3936C78.4496 72.1426 78.3577 72.8646 78.2636 73.4804H76.853L76.9053 72.6003H76.8802C76.4058 73.2827 75.8123 73.5844 75.2063 73.5844C74.3495 73.5844 73.9796 72.9415 73.9796 72.101C73.9796 71.6932 74.0444 71.2604 74.1384 70.7756L74.8364 67.0618H76.4852Z" fill="#001E4F"/>
<path d="M82.8924 73.3869C82.6939 73.4514 82.2739 73.5575 81.7326 73.5575C80.3095 73.5575 79.716 72.4277 79.716 71.2605C79.716 68.9511 81.1663 66.9683 83.1829 66.9683C83.5779 66.9683 83.8412 67.0203 84 67.0869L83.5925 68.4268C83.4212 68.3872 83.277 68.3623 83.1181 68.3623C82.1548 68.3623 81.3774 69.6481 81.3774 71.0275C81.3774 71.7495 81.6678 72.2218 82.2091 72.2218C82.5121 72.2218 82.788 72.1302 82.999 72.0782L82.8945 73.3911L82.8924 73.3869Z" fill="#001E4F"/>
</svg>
