<svg width="421" height="626" viewBox="0 0 421 626" fill="none" xmlns="http://www.w3.org/2000/svg">
<g clip-path="url(#clip0_51_436)">
<mask id="mask0_51_436" style="mask-type:luminance" maskUnits="userSpaceOnUse" x="-1" y="0" width="422" height="626">
<path d="M421 0H-0.000244141V626H421V0Z" fill="white"/>
</mask>
<g mask="url(#mask0_51_436)">
<path d="M167.239 22.2318C185.743 19.1573 211.948 21.77 227.456 33.016C227.811 33.2729 228.161 33.5374 228.505 33.8097C233.063 38.3475 237.422 44.8336 243.094 47.9103C246.771 49.9053 251.156 49.7026 255.21 50.2461C269.754 52.1988 273.836 63.5004 273.849 76.5215C273.858 85.7703 272.217 95.1089 271.14 104.286C270.029 113.744 269.234 123.238 268.139 132.693C266.993 135.555 265.139 161.932 265.026 166.386C263.725 185.036 266.293 206.59 250.673 220.1C248.348 222.111 245.831 223.866 243.456 225.807C243.455 229.79 243.656 233.916 243.242 237.878C243.313 241.041 243.327 244.217 243.606 247.371C238.233 258.098 221.634 268.745 210.608 272.414C210.057 272.601 209.501 272.771 208.94 272.924C205.913 273.665 203.278 273.218 200.259 272.739C197.349 270.865 193.569 269.502 190.439 267.914C180.338 262.782 172.507 256.732 165.437 247.88C165.553 240.772 165.582 233.605 164.886 226.523C162.63 223.545 156.463 219.956 153.007 215.467C144.428 204.319 143.489 189.604 142.829 176.096C142.677 172.993 142.996 169.509 142.469 166.477C142.433 166.267 142.391 166.059 142.353 165.851C142.299 158.987 142.792 137.486 139.664 132.144C138.127 131.493 136.563 130.895 135.013 130.274C134.966 130.199 134.921 130.122 134.872 130.049C134.607 129.663 134.377 129.378 134.27 128.911C133.618 126.077 133.732 106.109 135.119 103.606C133.622 93.6826 131.792 83.5719 131.13 73.5614L130.425 72.1388C129.08 74.0952 127.553 75.6217 125.833 77.2373C125.413 75.4851 125.213 73.7863 125.271 71.9822C125.625 60.9137 131.081 53.475 138.825 46.147C135.524 47.7544 131.838 48.7723 128.362 49.9491C129.423 47.7359 130.89 45.7743 132.294 43.7712C134.304 41.4814 136.648 39.5332 138.65 37.2361C140.359 35.8811 141.997 34.4118 143.659 32.9974L146.319 31.0076C152.804 26.6687 159.812 24.3582 167.239 22.2318ZM135.013 130.274C136.563 130.895 138.127 131.493 139.664 132.144C139.965 127.882 136.098 109.645 135.119 103.606C133.732 106.109 133.618 126.077 134.27 128.911C134.377 129.378 134.607 129.663 134.872 130.049C134.921 130.122 134.966 130.199 135.013 130.274Z" fill="#B46A49"/>
<path d="M257.8 57.4131C259.294 57.6863 260.335 58.3894 261.564 59.2581C264.176 61.1024 267.139 63.8494 267.696 67.1088C267.323 67.114 267.107 67.1363 266.721 67.039C263.325 66.1807 259.229 60.4527 257.8 57.4131Z" fill="#914E31"/>
<path d="M249.907 62.144C251.094 62.0757 252.305 61.9791 253.474 62.2464C259.12 63.5361 262.718 68.5647 265.613 73.1753C265.506 75.0968 265.488 77.0294 265.434 78.9531C262.845 77.1556 262.576 72.8197 260.502 70.429C257.633 67.1221 253.464 64.6587 249.907 62.144Z" fill="#914E31"/>
<path d="M130.425 72.1388C130.396 71.977 130.343 71.8188 130.337 71.6547C130.266 69.6761 132.1 67.428 133.503 66.2192C140.005 60.6197 151.53 58.9046 159.771 59.7502C164.734 60.2588 171.703 61.8358 175.001 65.874C172.519 65.7701 170.052 65.7715 167.568 65.8057C164.016 62.9324 158.193 62.7416 153.807 63.2212C146.577 64.0112 135.92 67.9083 131.13 73.5613L130.425 72.1388Z" fill="#914E31"/>
<path d="M154.435 42.5853C156.093 42.2913 158.061 42.3752 159.735 42.4896C171.381 43.2847 194.505 51.7093 202.149 60.8215C203.151 62.0161 204.278 63.3763 204.14 65.0156C202.49 65.1366 201.876 64.2197 200.654 63.2204C190.374 54.8536 172.673 47.2264 159.511 45.1542C155.682 44.5521 151.742 44.8825 147.885 44.5462L147.587 44.0918C149.116 42.7917 152.48 42.7709 154.435 42.5853Z" fill="#914E31"/>
<path d="M179.562 189.914C179.595 193.12 181.924 196.671 184.055 198.903C184.365 199.227 184.682 199.544 185.008 199.853C185.332 200.161 185.665 200.462 186.005 200.754C186.345 201.046 186.692 201.33 187.046 201.604C187.4 201.879 187.761 202.145 188.128 202.402C188.496 202.659 188.869 202.906 189.249 203.144C189.629 203.383 190.014 203.611 190.405 203.83C190.796 204.049 191.192 204.259 191.593 204.458C191.995 204.658 192.401 204.847 192.812 205.026C193.223 205.205 193.638 205.374 194.057 205.533C194.476 205.691 194.899 205.839 195.325 205.977C195.752 206.114 196.182 206.241 196.614 206.358C197.047 206.473 197.482 206.579 197.92 206.673C198.358 206.768 198.799 206.851 199.241 206.924C199.683 206.996 200.127 207.058 200.572 207.108C201.017 207.159 201.463 207.198 201.91 207.227C202.358 207.255 202.805 207.272 203.253 207.278C210.183 207.382 217.863 204.801 222.848 199.839C224.86 197.837 226.356 195.368 228.415 193.385C228.084 195.916 225.506 199.337 224.033 201.405C219.925 207.17 214.819 212.12 207.559 213.206C201.993 214.038 196.57 212.051 192.131 208.781C185.569 203.946 178.603 195.469 177.38 187.181L179.562 189.914Z" fill="#FEAA82"/>
<path d="M177.38 187.181L177.843 187.182C182.753 187.237 187.649 188.126 192.552 188.423C205.451 189.204 219.456 188.816 232.147 186.233C225.777 194.048 218.101 199.878 207.796 200.949C198.466 201.919 190.358 198.972 183.166 193.077C181.931 192.064 180.745 190.987 179.562 189.914L177.38 187.181Z" fill="#FEFEFE"/>
<path d="M164.886 226.523C165.054 226.571 165.222 226.615 165.388 226.667C168.36 227.592 172.074 230.821 174.706 232.623C188.442 242.037 200.564 249.763 216.959 241.832C224.553 238.158 236.292 230.956 243.162 225.999C243.131 229.934 242.924 233.955 243.242 237.878C243.313 241.041 243.327 244.217 243.606 247.371C238.233 258.098 221.634 268.745 210.608 272.414C210.057 272.601 209.501 272.771 208.94 272.924C205.913 273.665 203.278 273.218 200.259 272.739C197.349 270.865 193.569 269.502 190.439 267.913C180.338 262.782 172.508 256.732 165.438 247.88C165.553 240.772 165.582 233.605 164.886 226.523Z" fill="#FEAA82"/>
<path d="M167.568 65.8055C170.052 65.7713 172.519 65.7698 175.001 65.8738C181.702 67.7002 188.385 69.396 195.378 69.462C210.943 69.6083 231.323 62.5602 245.905 69.2557C252.284 72.1846 256.07 78.0849 258.366 84.4893C264.971 102.916 262.81 159.761 254.411 177.528C250.134 186.578 243.153 192.239 233.877 195.589L233.889 181.23L174.544 180.948C174.577 185.393 174.87 189.856 174.959 194.306C173.445 193.789 171.966 193.189 170.521 192.503C169.075 191.817 167.674 191.052 166.316 190.206C156.43 183.988 151.342 174.055 148.912 162.908C145.996 149.537 146.325 136.407 145.966 122.845C145.711 113.215 144.906 103.426 146.404 93.8598C147.351 87.8185 149.271 81.7564 152.624 76.6045C156.097 71.2655 161.258 67.1152 167.568 65.8055Z" fill="#FEAA82"/>
<path d="M205.582 141.893C208.372 147.087 210.778 159.763 210.871 165.79C208.46 169.099 203.934 169.27 200.185 169.917L198.69 168.957L198.789 167.967C201.434 166.037 205.587 165.376 208.734 164.483C206.85 157.184 206.21 149.39 205.582 141.893Z" fill="#B36948"/>
<path d="M163.049 132.629C162.796 131.845 162.489 131.385 163.006 130.621C164.767 128.012 170.42 127.215 173.409 127.071C177.115 126.891 181.996 127.309 184.883 129.83C185.942 130.754 186.409 131.738 186.529 133.133C183.921 132.128 181.452 131.19 178.715 130.587C177.552 130.294 176.595 130.176 175.467 130.761C175.364 130.815 175.271 130.884 175.173 130.946C174.718 130.969 174.277 130.737 173.85 130.587C169.674 130.049 166.727 130.66 163.049 132.629Z" fill="#B46A49"/>
<path d="M221.71 133.556C221.556 132.674 221.616 132.637 222.11 131.921C223.696 129.618 227.727 128.59 230.369 128.237C235.259 127.584 241.173 128.521 245.074 131.668C245.999 132.414 246.987 133.287 247.234 134.492C246.997 134.937 246.928 135.143 246.498 135.425C242.521 133.258 238.809 132.349 234.351 131.759C232.317 131.34 230.385 130.919 228.323 131.356C226.111 132.065 223.888 132.745 221.71 133.556Z" fill="#B46A49"/>
<path d="M227.003 103.754C231.754 103.749 236.598 104.356 240.739 106.857C245.945 110 248.505 115.24 249.867 120.938L247.032 118.233C238.829 111.383 233.83 116.091 225.591 113.774C224.129 113.363 222.473 112.532 221.863 111.04C221.284 109.623 221.733 107.463 222.487 106.187C223.373 104.688 225.453 104.174 227.003 103.754Z" fill="#B46A49"/>
<path d="M178.017 103.022C180.077 102.877 182.35 102.555 184.368 103.08C186.018 103.51 187.643 104.382 188.47 105.94C189.101 107.129 189.458 108.908 188.843 110.165C186.853 114.227 178.142 112.983 174.44 113.259C171.733 113.46 169.241 113.957 166.631 114.688C163.949 115.958 161.606 117.55 159.191 119.259C159.964 116.755 160.962 114.247 162.429 112.062C166.235 106.389 171.636 104.269 178.017 103.022Z" fill="#B46A49"/>
<path d="M163.049 132.629C166.727 130.66 169.674 130.049 173.85 130.587C174.277 130.737 174.718 130.969 175.173 130.946C175.271 130.884 175.364 130.815 175.467 130.761C176.595 130.176 177.552 130.294 178.715 130.587C181.452 131.19 183.921 132.128 186.529 133.133C186.949 135.146 187.642 137.501 187.32 139.551C187.012 141.508 185.85 143.27 184.242 144.406C181.273 146.505 177.025 146.589 173.58 145.936C169.841 145.227 166.003 143.507 163.898 140.179C162.342 137.72 162.36 135.362 163.049 132.629Z" fill="#FEFEFE"/>
<path d="M175.173 130.946C175.271 130.884 175.364 130.815 175.466 130.761C176.595 130.176 177.552 130.294 178.715 130.587C180.783 132.96 182.533 135.163 182.301 138.521C182.284 138.765 182.254 139.008 182.212 139.249C182.169 139.491 182.114 139.729 182.046 139.964C181.978 140.2 181.898 140.431 181.806 140.658C181.713 140.885 181.609 141.106 181.494 141.322C181.378 141.538 181.251 141.747 181.113 141.95C180.976 142.152 180.828 142.347 180.669 142.534C180.511 142.72 180.343 142.898 180.165 143.067C179.988 143.236 179.803 143.395 179.608 143.544C178.224 144.609 176.427 145.144 174.688 144.92C172.678 144.661 171.017 143.421 169.853 141.811C169.493 141.312 169.197 140.826 168.97 140.252C169.952 140.442 170.951 140.605 171.925 140.828C172.533 141.225 173.19 141.69 173.896 141.892C175.636 142.39 177.228 141.621 178.731 140.831C179.039 140.154 179.132 140.203 178.978 139.425C179.579 138.263 180.045 137.045 180.536 135.834C180.683 134.8 179.841 133.931 179.305 133.049C177.971 132.135 176.678 131.531 175.173 130.946Z" fill="#918765"/>
<path d="M173.85 130.587C174.277 130.737 174.718 130.969 175.173 130.946C176.678 131.531 177.971 132.135 179.305 133.049C179.841 133.931 180.683 134.8 180.536 135.834C180.045 137.045 179.579 138.263 178.978 139.425C179.132 140.203 179.039 140.154 178.731 140.831C177.228 141.621 175.636 142.39 173.897 141.892C173.19 141.69 172.533 141.225 171.925 140.828C170.951 140.605 169.952 140.442 168.97 140.251C168.678 138.723 168.524 136.979 168.948 135.462C169.671 132.88 171.666 131.773 173.85 130.587Z" fill="#914E31"/>
<path d="M176.842 137.199C177.042 136.172 177.02 135.724 177.736 134.939C178.769 134.742 179.644 135.378 180.536 135.834C180.046 137.045 179.579 138.263 178.978 139.425C178.145 138.788 177.516 137.995 176.842 137.199Z" fill="#FEFEFE"/>
<path d="M171.925 140.828C171.772 140.056 171.618 139.317 171.698 138.527C171.833 137.204 172.762 135.469 173.915 134.76C174.801 134.215 175.085 134.269 176.028 134.467C176.915 135.479 176.761 135.886 176.841 137.198C177.516 137.994 178.145 138.788 178.978 139.425C179.132 140.203 179.039 140.154 178.731 140.831C177.228 141.621 175.636 142.39 173.896 141.892C173.19 141.69 172.533 141.225 171.925 140.828Z" fill="#1A170F"/>
<path d="M228.323 131.356C230.384 130.919 232.316 131.34 234.351 131.758C238.809 132.349 242.521 133.258 246.498 135.425C244.002 138.845 244.071 142.248 240.049 144.936C236.57 147.262 231.85 147.913 227.797 147.04C223.814 146.181 221.62 144.203 219.56 140.862C219.827 138.986 219.941 136.964 220.454 135.143C220.744 134.114 220.828 134.053 221.71 133.556C223.888 132.745 226.11 132.064 228.323 131.356Z" fill="#FEFEFE"/>
<path d="M228.323 131.356C230.384 130.919 232.316 131.34 234.351 131.758C234.116 132.258 238.402 135.156 238.821 137.727C239.125 139.593 238.73 141.729 237.577 143.251C236.492 144.685 234.803 145.497 233.033 145.661C231.102 145.84 229.078 145.267 227.613 143.97C226.033 142.571 225.416 140.453 225.289 138.399C225.101 135.353 226.424 133.511 228.323 131.356Z" fill="#918765"/>
<path d="M235.084 134.87C236.01 135.857 237.052 136.928 236.959 138.406C236.917 139.075 236.52 139.555 236.154 140.08L235.327 140.511C234.313 139.724 233.779 139.311 233.482 138.018C233.627 136.705 234.333 135.898 235.084 134.87Z" fill="#FEFEFE"/>
<path d="M235.327 140.511C236.017 140.542 235.727 140.408 236.198 140.905C235.738 141.853 235.17 142.314 234.211 142.713C232.851 143.28 231.318 143.358 229.99 142.67C228.828 142.068 227.822 140.988 227.601 139.66C227.421 138.584 227.82 137.476 228.399 136.581C229.221 135.312 230.718 134.121 232.256 133.93C233.417 133.787 234.225 134.144 235.084 134.87C234.332 135.898 233.626 136.705 233.482 138.018C233.779 139.311 234.312 139.724 235.327 140.511Z" fill="#1A170F"/>
<path d="M268.139 132.693C271.337 132.122 273.985 131.875 277.135 132.953C281.736 135.727 284.124 138.657 286.319 143.535C287.4 148.946 286.933 154.594 283.698 159.25C280.963 163.19 276.698 165.441 272.037 166.203C269.716 166.583 267.365 166.571 265.026 166.386C265.139 161.932 266.993 135.555 268.139 132.693Z" fill="#FEAA82"/>
<path d="M126.787 131.94C129.682 130.877 131.876 130.233 135.013 130.274C136.563 130.895 138.127 131.493 139.664 132.144C142.792 137.486 142.299 158.987 142.353 165.851C139.07 166.574 135.909 166.918 132.594 166.102C132.306 166.031 132.02 165.952 131.736 165.866C131.452 165.781 131.171 165.688 130.891 165.589C130.612 165.489 130.335 165.383 130.061 165.269C129.787 165.156 129.516 165.036 129.247 164.91C128.979 164.783 128.714 164.65 128.453 164.51C128.191 164.37 127.933 164.224 127.679 164.072C127.424 163.919 127.173 163.761 126.927 163.596C126.68 163.431 126.437 163.26 126.199 163.084C125.961 162.907 125.728 162.724 125.498 162.536C125.269 162.347 125.044 162.153 124.825 161.954C124.605 161.754 124.391 161.549 124.181 161.34C123.971 161.13 123.767 160.915 123.568 160.694C123.369 160.474 123.176 160.249 122.988 160.019C122.8 159.79 122.618 159.556 122.441 159.317C122.265 159.079 122.094 158.836 121.93 158.588C121.766 158.341 121.607 158.09 121.456 157.835C118.681 153.112 117.853 147.044 119.31 141.757C120.489 137.477 122.983 134.178 126.787 131.94Z" fill="#FEAA82"/>
<path d="M243.606 247.371C246.386 250.844 249.123 254.351 251.817 257.892C254.651 258.827 257.672 259.206 260.585 259.859C264.953 260.834 269.286 261.942 273.585 263.183L275.351 263.702L305.018 270.999C328.657 276.775 355.047 283.506 368.441 305.944C373.344 314.155 376.068 323.208 378.002 332.506L378.347 334.625C382.965 360.264 386.686 386.06 391.376 411.687C391.742 418.684 393.347 425.96 394.412 432.908C396.548 446.367 398.523 459.85 400.335 473.357L400.588 474.55C402.696 486.62 405.529 498.746 407.043 510.882C417.375 510.94 427.716 511.305 438.05 511.44C443.434 511.51 449.211 511.892 454.534 511.141L454.838 510.663C462.312 512.273 469.421 511.703 476.967 511.707C483.101 511.71 489.217 512.1 495.359 511.966C500.269 511.857 505.14 511.276 510.039 511.045C510.188 511.129 510.335 511.219 510.487 511.297C512.594 512.386 529.229 512.166 531.706 511.341L531.048 510.227L531.487 509.723C535.882 508.308 550.966 506.039 555.041 507.663C564.888 505.177 575.412 503.641 585.432 501.371V511.683V517.584V626H-174.002V519.127C-144.24 519.443 -114.477 519.584 -84.7129 519.55C-74.772 519.605 -64.7807 520.17 -54.8584 520.13C-35.2429 520.052 -15.6741 519.178 3.96288 519.558C3.96065 515.097 4.87434 510.34 5.43353 505.914C6.72003 495.551 8.19736 485.216 9.86554 474.908C10.1538 473.053 10.3936 471.192 10.5849 469.324L10.7548 467.098L11.3236 460.732L11.7115 458.844C12.2907 456.698 12.5347 454.476 12.8491 452.278C14.0825 443.467 27.6195 367.905 27.4742 367.264C27.443 367.125 27.3785 366.995 27.3303 366.861L27.7056 366.393C29.1718 362.542 29.5849 358.096 30.3932 354.053L34.5583 334.029L34.9209 331.987C35.98 324.225 37.5856 316.319 40.8978 309.189C43.406 303.788 46.5097 298.46 51.047 294.51C67.469 280.217 113.069 271.405 134.972 263.431L136.138 262.799C137.574 262.848 154.799 258.141 157.996 257.44C160.807 254.693 163.093 251.039 165.437 247.88C172.507 256.732 180.338 262.782 190.439 267.914C193.569 269.502 197.349 270.865 200.259 272.739C203.278 273.218 205.913 273.665 208.94 272.924C209.501 272.771 210.057 272.601 210.608 272.414C221.634 268.745 238.233 258.098 243.606 247.371ZM165.437 247.88C163.093 251.039 160.807 254.693 157.996 257.44C154.799 258.141 137.574 262.848 136.138 262.799L134.972 263.431C113.069 271.405 67.469 280.217 51.047 294.51C46.5097 298.46 43.406 303.788 40.8978 309.189C37.5856 316.319 35.98 324.225 34.9209 331.987L34.5583 334.029L30.3932 354.053C29.5849 358.096 29.1718 362.542 27.7056 366.393L27.3303 366.861C27.3785 366.995 27.443 367.125 27.4742 367.264C27.6195 367.905 14.0825 443.467 12.8491 452.278C12.5347 454.476 12.2907 456.698 11.7115 458.844L11.3236 460.732L10.7548 467.098L10.5849 469.324C10.3936 471.192 10.1538 473.053 9.86554 474.908C8.19736 485.216 6.72003 495.551 5.43353 505.914C4.87434 510.34 3.96065 515.097 3.96288 519.558C3.43187 532.56 3.50677 550.989 12.884 561.292C15.3173 563.965 18.998 565.875 22.2145 567.408C34.0629 573.052 46.6566 577.151 58.9202 581.781C75.4206 588.041 91.8372 594.513 108.17 601.198C108.365 592.865 107.214 584.337 106.503 576.036C105.215 561.607 104.023 547.17 102.93 532.725C103.063 526.211 101.754 519.683 101.483 513.172C100.666 503.626 99.8406 493.965 99.6278 484.383C100.472 482.844 101.319 481.177 102.692 480.036C104.331 478.676 108.148 478.763 110.203 478.673C116.012 478.419 121.844 478.765 127.655 478.839C136.181 478.947 144.735 478.797 153.263 478.776L174.657 478.617C178.497 478.606 182.478 478.392 186.285 478.852C187.147 478.744 187.39 478.845 188.076 478.269C188.742 475.652 187.903 472.975 187.365 470.395C188.106 469.161 188.861 431.518 189.061 426.609L194.312 320.728C194.678 313.475 195.544 306.258 195.831 299.005C195.385 293.562 195.4 288.07 195.31 282.611L195.421 281.918C196.886 278.779 198.829 275.901 200.259 272.739C197.349 270.865 193.569 269.502 190.439 267.914C180.338 262.782 172.507 256.732 165.437 247.88ZM330.763 483.706C330.484 493.195 329.826 503.032 328.831 512.475C331.923 508.918 335.073 506.21 339.189 503.903C338.039 500.054 333.403 485.712 331.198 483.272L330.763 483.706ZM321.632 462.928C320.713 468.28 320.501 473.919 320.296 479.347C323.676 479.667 326.981 480.145 330.323 480.745C328.733 476.334 326.563 472.127 324.548 467.899L321.632 462.928Z" fill="#618BE4"/>
<path d="M321.632 462.928C321.664 462.781 321.704 462.636 321.73 462.488C321.989 460.992 321.84 459.381 321.945 457.858C322.219 453.869 322.605 449.882 322.944 445.897C323.747 436.45 324.454 427.056 324.948 417.588C325.088 414.919 325.679 412.446 325.623 409.756L326.048 409.879L325.795 409.177C325.476 409.633 325.548 409.422 325.472 409.765L326.06 410.066C326.044 410.205 326.025 410.344 326.013 410.483C325.763 413.25 325.883 416.112 325.759 418.9C325.335 429.265 325.132 439.633 325.152 450.006C325.178 454.221 325.46 458.472 325.314 462.683C325.261 464.214 325.307 466.572 324.548 467.899L321.632 462.928Z" fill="#466ABC"/>
<path d="M273.585 263.183L275.351 263.702C275.335 269.246 276.503 274.675 277.613 280.08C280.102 292.195 283.869 304.362 285.206 316.651C278.228 319.526 271.763 323.072 265.178 326.725C271.515 330.017 278.378 332.557 284.961 335.33C279.69 355.79 273.88 376.095 267.531 396.246C261.183 416.396 254.304 436.364 246.896 456.149C244.153 463.484 241.247 473.971 236.665 480.226C238.854 472.234 242.007 464.489 244.977 456.761C248.707 447.055 252.394 437.369 255.813 427.547C266.319 397.372 275.254 366.955 283.927 336.219C276.346 333.109 268.784 329.952 261.242 326.747C268.65 322.73 276.596 319.565 283.869 315.377C282.613 308.808 272.22 266.79 273.585 263.183Z" fill="#466ABC"/>
<path d="M243.606 247.371C246.386 250.844 249.123 254.351 251.817 257.892C253.108 262.358 251.65 269.251 251.414 273.939C250.228 294.857 248.474 315.726 246.152 336.548C243.829 357.37 240.942 378.113 237.49 398.778C235.026 414.219 233.192 430.053 229.308 445.21C227.343 441.503 226.214 416.444 225.66 410.423C223.546 387.122 221.196 363.846 218.61 340.593C217.169 327.124 216.439 313.2 213.362 299.991C209.208 300.367 204.963 300.672 200.792 300.469C199.049 300.384 197.06 300.343 195.831 299.005C195.385 293.562 195.4 288.07 195.31 282.611L195.421 281.918C196.886 278.779 198.829 275.901 200.259 272.739C203.278 273.218 205.913 273.665 208.94 272.924C209.501 272.771 210.057 272.601 210.608 272.414C221.634 268.745 238.232 258.098 243.606 247.371Z" fill="#FEFEFE"/>
<path d="M200.259 272.739C203.278 273.217 205.913 273.664 208.94 272.923C210.768 275.962 212.66 279.001 214.33 282.128C214.232 287.859 214.726 294.442 213.362 299.99C209.208 300.367 204.963 300.672 200.792 300.469C199.049 300.384 197.06 300.343 195.831 299.004C195.385 293.561 195.4 288.07 195.31 282.611L195.421 281.918C196.886 278.779 198.829 275.901 200.259 272.739Z" fill="#A5A5A4"/>
<path d="M195.831 299.004C197.06 300.343 199.049 300.384 200.793 300.469C204.963 300.672 209.208 300.367 213.362 299.99C216.44 313.199 217.169 327.124 218.61 340.593C221.195 363.846 223.545 387.122 225.66 410.423C226.214 416.443 227.343 441.503 229.308 445.21C227.284 456.661 224.489 467.92 220.921 478.988C214.718 478.967 208.514 478.996 202.311 479.075C197.312 479.166 191.189 479.868 186.285 478.852C187.146 478.744 187.39 478.845 188.076 478.268C188.742 475.652 187.903 472.975 187.365 470.395C188.106 469.161 188.86 431.518 189.061 426.608L194.311 320.728C194.678 313.475 195.544 306.257 195.831 299.004Z" fill="#97BEFD"/>
<path d="M99.6279 484.383C100.472 482.844 101.319 481.177 102.692 480.035C104.331 478.676 108.149 478.763 110.203 478.673C116.012 478.419 121.844 478.765 127.655 478.839C136.181 478.947 144.735 478.797 153.263 478.775L174.658 478.617C178.497 478.606 182.478 478.392 186.285 478.852C191.189 479.868 197.312 479.166 202.312 479.075C208.515 478.996 214.718 478.967 220.922 478.988L282.611 479.093C295.142 479.184 307.771 479.686 320.296 479.347C323.676 479.667 326.981 480.145 330.323 480.745C330.522 481.729 330.796 482.699 330.764 483.705C330.484 493.195 329.826 503.032 328.831 512.475C326.638 517.607 326.225 532.135 325.66 538.24C324.441 551.552 323.115 564.854 321.685 578.145C321.038 584.28 320.7 590.657 319.675 596.731C319.124 601.531 319.099 618.82 315.076 621.382C314.338 621.849 313.499 621.953 312.651 622.094C307.033 623.03 300.959 622.384 295.271 622.332L265.388 622.154C235.91 621.931 206.432 621.872 176.954 621.975L130.506 621.968C126.204 621.975 116.571 622.985 112.997 621.916C111.776 621.552 111.14 620.646 110.638 619.54C108.454 614.707 109.033 606.596 108.17 601.198C108.365 592.865 107.214 584.337 106.504 576.035C105.215 561.607 104.024 547.17 102.93 532.724C103.063 526.211 101.754 519.683 101.483 513.172C100.666 503.625 99.8408 493.965 99.6279 484.383Z" fill="#CCDFFD"/>
<path d="M165.437 247.88C172.507 256.732 180.338 262.782 190.439 267.913C193.569 269.502 197.349 270.865 200.259 272.739C198.829 275.901 196.886 278.779 195.421 281.918L195.31 282.611C195.4 288.07 195.385 293.562 195.831 299.005C195.544 306.258 194.678 313.475 194.312 320.728L189.062 426.609C188.861 431.518 188.106 469.161 187.365 470.395C187.903 472.975 188.742 475.652 188.076 478.269C187.39 478.845 187.147 478.744 186.285 478.852C182.478 478.392 178.497 478.606 174.657 478.617L153.263 478.776C144.735 478.797 136.181 478.947 127.655 478.839C121.844 478.765 116.012 478.419 110.203 478.673C108.148 478.763 104.33 478.676 102.692 480.036C101.319 481.177 100.472 482.844 99.6278 484.383C99.8406 493.965 100.666 503.626 101.483 513.172C101.754 519.683 103.063 526.211 102.93 532.725C104.023 547.17 105.215 561.607 106.504 576.036C107.214 584.337 108.365 592.865 108.17 601.198C91.8372 594.513 75.4206 588.041 58.9202 581.781C46.6566 577.151 34.0628 573.052 22.2145 567.408C18.998 565.875 15.3173 563.965 12.884 561.292C3.50676 550.989 3.43185 532.56 3.96286 519.558C3.96064 515.097 4.87433 510.34 5.43353 505.914C6.72002 495.551 8.19735 485.216 9.86553 474.908C10.1538 473.053 10.3936 471.192 10.5849 469.324L10.7548 467.098L11.3236 460.732L11.7115 458.844C12.2907 456.698 12.5347 454.476 12.8491 452.278C14.0825 443.467 27.6195 367.905 27.4742 367.264C27.443 367.125 27.3785 366.995 27.3303 366.861L27.7055 366.393C29.1718 362.542 29.5849 358.096 30.3933 354.053L34.5583 334.029L34.9209 331.987C35.98 324.225 37.5856 316.319 40.8978 309.189C43.406 303.788 46.5097 298.46 51.047 294.51C67.469 280.217 113.069 271.405 134.972 263.431L136.138 262.799C137.574 262.848 154.799 258.141 157.996 257.44C160.807 254.693 163.093 251.039 165.437 247.88ZM87.307 456.584C85.1333 461.631 83.9749 467.131 82.3959 472.391C78.7345 484.588 75.1858 496.692 72.1836 509.07L71.8284 509.688L71.8862 511.065C72.7532 511.525 73.6179 512.058 74.5435 512.383C80.4714 513.102 96.9264 530.065 102.915 530.206C102.232 520.229 90.6244 492.642 89.6558 482.673C88.8133 474 88.4039 465.215 87.307 456.584Z" fill="#618BE4"/>
<path d="M39.9514 499.67C45.7458 498.178 51.8309 497.707 57.6809 499.172C63.4115 500.607 69.0643 503.934 72.1836 509.07L71.8283 509.688C69.6109 508.336 67.667 506.578 65.4139 505.234C57.5089 500.521 48.8844 500.253 39.9514 499.67Z" fill="#466ABC"/>
<path d="M33.3992 513.837C36.365 512.016 39.3538 510.484 42.7045 509.497C51.2399 506.982 63.8982 506.633 71.8863 511.065C72.7533 511.525 73.618 512.058 74.5436 512.383L77.4308 515.575C73.5142 514.278 69.7941 512.43 65.8405 511.276C55.4094 508.232 43.5603 510.767 33.3992 513.837Z" fill="#466ABC"/>
<path d="M134.972 263.431L136.138 262.799C136.553 269.377 134.9 276.671 133.799 283.157C131.779 295.064 129.269 307.003 127.627 318.959C133.977 322.058 140.447 325.494 147.189 327.641C140.569 331.927 134.003 336.296 127.494 340.75C133.669 362.296 139.594 384.107 147.321 405.162C150.905 414.926 155.152 424.547 159.32 434.073C162.769 441.957 166.546 449.971 170.612 457.552C174.534 464.866 179.23 472.224 181.882 480.123C176.52 475.103 172.19 464.403 168.913 457.737C158.005 435.553 148.002 412.895 140.403 389.332C136.94 378.567 133.621 367.759 130.445 356.907C128.805 351.227 127.538 345.245 125.589 339.679C131.488 336.149 137.065 332.483 142.407 328.129C136.8 325.24 130.897 322.887 125.351 319.922C128.762 305.185 131.227 289.917 133.509 274.96C134.094 271.133 134.335 267.243 134.972 263.431Z" fill="#466ABC"/>
<path d="M165.437 247.88C172.507 256.732 180.338 262.782 190.439 267.913C193.569 269.502 197.349 270.865 200.259 272.739C198.829 275.901 196.886 278.779 195.421 281.918L195.31 282.611C195.4 288.07 195.385 293.562 195.831 299.005C195.544 306.258 194.678 313.475 194.311 320.728L189.061 426.609C188.86 431.518 188.106 469.161 187.365 470.395C184.749 460.578 183.905 450.136 182.171 440.126C176.882 410.61 172.057 381.018 167.696 351.35C163.884 326.298 160.204 301.384 158.149 276.117C157.79 271.706 156.17 261.267 157.996 257.44C160.807 254.693 163.093 251.039 165.437 247.88Z" fill="#FEFEFE"/>
<path d="M181.736 306.047C176.965 298.105 170.647 290.967 165.124 283.514C163.537 281.374 161.105 278.802 160.147 276.329C162.95 277.711 177.413 298.812 180.794 302.811L181.069 303.133C186.393 297.228 189.834 286.732 195.421 281.919L195.31 282.611C193.49 285.023 192.028 288.044 190.52 290.675L181.736 306.047Z" fill="#CCDFFD"/>
<path d="M585.432 501.371V511.683V517.584V626H-174.002V519.127C-144.24 519.443 -114.477 519.584 -84.7129 519.55C-74.772 519.605 -64.7807 520.17 -54.8584 520.13C-35.2429 520.052 -15.6741 519.178 3.96286 519.558C3.43185 532.56 3.50677 550.989 12.884 561.292C15.3173 563.965 18.998 565.875 22.2145 567.407C34.0628 573.052 46.6565 577.151 58.9202 581.781C75.4206 588.041 91.8372 594.513 108.17 601.198C109.033 606.596 108.454 614.707 110.638 619.54C111.139 620.647 111.776 621.552 112.997 621.916C116.57 622.985 126.203 621.976 130.506 621.968L176.954 621.976C206.432 621.872 235.91 621.931 265.388 622.154L295.271 622.332C300.959 622.384 307.033 623.03 312.651 622.094C313.499 621.953 314.338 621.849 315.076 621.382C319.099 618.82 319.123 601.531 319.675 596.731C335.403 589.939 350.81 582.419 366.38 575.278C376.446 570.661 386.91 566.604 396.66 561.344C399.172 559.988 402.732 558.109 404.498 555.8C411.038 547.253 409.437 527.699 408.182 517.596L407.043 510.882C417.375 510.94 427.716 511.305 438.05 511.44C443.434 511.51 449.211 511.892 454.534 511.141L454.838 510.663C462.312 512.273 469.421 511.703 476.967 511.707C483.101 511.71 489.217 512.1 495.359 511.965C500.269 511.857 505.14 511.276 510.039 511.045C510.188 511.129 510.335 511.219 510.487 511.297C512.594 512.386 529.229 512.166 531.706 511.341L531.048 510.227L531.487 509.723C535.882 508.308 550.966 506.038 555.041 507.663C564.888 505.176 575.412 503.641 585.432 501.371Z" fill="#EDF4FF"/>
</g>
</g>
<defs>
<clipPath id="clip0_51_436">
<rect width="421" height="626" fill="white"/>
</clipPath>
</defs>
</svg>
