<svg width="592" height="422" viewBox="0 0 592 422" fill="none" xmlns="http://www.w3.org/2000/svg">
<g clip-path="url(#clip0_78_2061)">
<path d="M0 2.7356C0 1.22477 1.22477 0 2.7356 0H261.014H363.558H589.813C590.859 0 591.922 0.542643 591.972 1.58754C592.182 5.94349 592.009 10.3788 592.013 14.7426V39.838L592.009 52.5539C592.005 54.4706 592.219 56.6993 591.918 58.5839C591.829 59.1473 591.703 59.7266 591.764 60.2938C592.297 65.2285 592.294 87.8916 591.749 89.1674C591.655 89.3744 591.645 89.6087 591.719 89.8234C591.975 90.5631 592.049 91.2599 591.996 91.9765C591.917 93.0314 591.895 94.1033 592.026 95.1529C592.188 96.4504 592.211 98.0417 592.034 99.3486C591.883 100.469 591.952 101.67 591.98 102.8C592.463 119.222 592.017 135.793 592.017 152.228C592.017 156.265 592.508 178.449 591.777 180.562C591.678 180.841 591.679 181.146 591.774 181.426C591.922 181.865 591.968 182.269 591.984 182.79C592.186 190.326 592.013 197.913 592.013 205.453V249.012C592.013 253.119 592.537 279.057 591.74 281.384C591.669 281.593 591.673 281.82 591.746 282.03C591.89 282.445 591.959 282.836 591.976 283.304C592.157 288.58 592.009 293.911 592.013 299.193L592.017 329.533C592.017 334.441 592.459 365.53 591.843 373.161C591.762 374.165 591.936 375.222 591.98 376.229C592.19 380.98 592.368 419.713 591.823 421.337C591.672 421.774 591.212 422 590.75 422H554.053H33.3063H20C8.95431 422 0 413.046 0 402V142.576V2.7356Z" fill="#92BAFD"/>
<path d="M290.909 98.9656C290.782 97.721 290.592 96.6232 290.833 95.3753L291.285 94.957C292.784 96.6125 294.129 100.714 295.515 102.924C302.72 114.419 307.786 120.638 320.81 125.675C323.313 126.643 325.858 127.905 328.573 128.035L328.88 128.049C332.23 128.216 335.976 129.153 338.969 130.681C342.768 132.621 355.316 143.258 357.467 143.344C360.446 143.462 370.575 133.584 374.35 131.95C379.824 129.58 386.395 129.116 392.279 128.682C404.583 127.774 416.848 128.745 429.146 128.668L513.884 128.405C517.636 128.427 521.311 129.444 525.043 129.628C527.631 129.756 530.29 129.54 532.882 129.482C540.218 129.315 547.889 129.172 555.134 127.931C563.506 126.495 571.602 123.565 578.03 117.875C581.778 114.553 584.651 110.023 587.583 105.979C588.623 104.541 589.618 102.858 590.947 101.679C591.166 101.485 591.376 101.274 591.591 101.073C591.884 101.674 591.963 102.134 591.979 102.8C592.462 119.222 592.016 135.793 592.016 152.228C592.016 156.265 592.508 178.449 591.777 180.562C591.694 180.794 591.69 180.797 591.599 180.993C591.154 180.216 546.209 147.881 541.539 144.59C536.965 141.363 532.234 138.49 527.71 135.167C527.07 134.696 525.716 133.519 525.026 133.314C523.16 132.758 513.789 133.406 511.498 133.451L475.883 134.138C472.275 134.195 468.65 133.788 465.029 133.784L407.564 133.414C400.61 133.401 393.651 133.386 386.702 133.721C384.658 133.82 382.368 133.752 380.368 134.094C377.735 134.544 373.969 135.918 371.746 137.429C368.216 139.83 362.096 147.418 358.359 147.802C357.125 147.929 355.733 147.197 354.699 146.583C348.947 143.169 344.62 137.66 338.395 134.907C335.193 133.49 332.003 133.238 328.575 132.858C321.253 132.044 314.172 130.347 308.374 125.555C303.871 121.833 298.955 116.943 296.19 111.767C294.96 109.465 294.146 106.993 293.124 104.6C292.424 102.958 291.067 100.724 290.909 98.9656Z" fill="url(#paint0_linear_78_2061)"/>
<path d="M146.79 56.0315C147.736 54.3929 148.247 52.5265 149.182 50.8492C153.217 43.6084 159.46 38.8003 167.487 36.5931C169.377 36.0732 171.28 35.8276 173.234 35.7136C181.581 35.2267 190.156 35.6617 198.533 35.6731C205.656 35.6827 214.198 35.0749 221.125 36.0868C224.979 36.6499 228.473 38.1035 231.821 40.0437C238.107 43.6867 243.176 50.2368 244.99 57.2806C246.855 64.5238 246.09 72.5736 242.304 79.096C241.028 81.2946 239.335 83.199 238.064 85.4005L237.896 85.6947L237.848 92.2654L237.614 92.4113C238.031 103.607 235.451 115.131 234.025 126.2C233.591 129.571 233.382 136.049 232.223 139.012C231.349 140.301 229.477 148.398 229.14 150.293C228.805 147.168 228.87 143.916 228.433 140.833C228.158 126.822 221.967 114.759 220.035 101.16C216.442 100.223 211.939 100.155 208.188 99.5284C198.584 97.9245 171.352 92.3754 164.415 87.1656C156.196 87.1112 145.54 88.1431 139.409 94.2163C136.581 97.0179 135.381 100.318 135.373 104.267C135.365 108.483 136.371 112.664 135.621 116.872C134.964 120.562 132.746 123.164 131.318 126.485C130.279 128.901 130.499 140.943 130.669 144.096L130.385 144.369L130.093 144.319C128.829 142.465 127.231 141.082 125.413 139.791C125.404 139.507 125.385 139.224 125.358 138.942C125.22 137.372 125.32 135.827 124.041 134.756C123.992 132.479 123.426 130.073 123.067 127.819C122.061 121.495 120.554 114.72 120.232 108.353C118.993 102.023 118.018 95.594 117.772 89.1412C117.429 80.1354 119.373 71.9233 125.764 65.1593C131.173 59.4351 138.981 56.2215 146.79 56.0315Z" fill="#904D30"/>
<path d="M164.416 87.1653C182.908 87.2514 201.393 93.0593 219.695 95.4602C219.742 97.3749 219.835 99.2537 220.036 101.16C216.444 100.223 211.94 100.155 208.19 99.5282C198.585 97.9242 171.353 92.3752 164.416 87.1653Z" fill="#B36948"/>
<path d="M130.671 144.095C130.5 140.943 130.28 128.9 131.319 126.485C132.748 123.164 134.966 120.562 135.623 116.872C136.373 112.664 135.366 108.483 135.375 104.267C135.383 100.318 136.582 97.0176 139.411 94.2161C145.542 88.1428 156.197 87.1109 164.416 87.1653C171.353 92.3752 198.585 97.9243 208.19 99.5282C211.94 100.155 216.444 100.223 220.037 101.16C221.969 114.759 228.16 126.822 228.434 140.833C228.872 143.915 228.806 147.168 229.142 150.293C229.479 148.397 231.351 140.301 232.224 139.012C235.985 138.948 239.542 139.076 242.391 141.894C244.861 144.337 245.579 147.75 246.131 151.047C246.124 156.41 244.734 162.493 240.795 166.403C240.443 166.752 240.075 167.082 239.716 167.423C237.698 169.429 235.762 171.288 232.945 172.095C231.047 172.358 229.201 172.329 227.297 172.168C226.951 176.283 226.558 180.38 225.851 184.451C223.471 196.878 216.337 210.379 205.664 217.683C205.353 217.896 205.076 218.053 204.732 218.202C197.328 224.608 185.735 228.414 175.947 227.75C167.626 227.185 160.525 223.847 153.475 219.667C145.757 214.543 138.853 205.432 135.13 197.045C134.007 194.477 133.016 191.859 132.156 189.193C131.295 186.526 130.57 183.823 129.98 181.083C129.643 179.507 129.328 174.217 128.419 173.418C124.209 173.229 120.384 171.957 117.346 168.976C116.546 168.458 115.803 167.511 115.227 166.763C111.718 162.199 110.294 156.832 111.108 151.13C111.63 147.473 113.148 143.799 116.195 141.54C119.025 139.443 121.948 139.27 125.319 139.767C124.755 138.095 124.32 136.499 124.042 134.756C125.322 135.827 125.222 137.372 125.359 138.942C125.387 139.224 125.405 139.507 125.415 139.791C127.233 141.082 128.831 142.464 130.095 144.319L130.387 144.369L130.671 144.095Z" fill="#FEAA81"/>
<path d="M117.346 168.976C121.276 170.476 124.438 171.379 128.7 171.137C128.705 171.969 128.833 172.678 128.419 173.418C124.209 173.229 120.383 171.957 117.346 168.976Z" fill="#B36948"/>
<path d="M174.417 212.221C173.888 211.807 173.421 211.484 173.109 210.869L173.315 210.478C173.813 210.534 174.103 210.686 174.543 210.9C177.601 212.393 185.425 211.166 185.894 211.577C185.584 211.952 185.348 212.262 184.938 212.536C183.818 213.555 182.625 214.244 181.096 214.423C178.556 214.721 176.383 213.744 174.417 212.221Z" fill="#B36948"/>
<path d="M174.113 169.941C175.277 170.954 175.031 172.977 176.437 174.048C177.71 175.018 179.936 175.438 181.472 175.15C183.804 174.714 185.052 172.897 186.358 171.117C186.79 171.935 186.623 172.997 186.6 173.901C186.301 174.981 185.826 176.146 185.024 176.949C183.761 178.213 182.064 178.952 180.265 178.92C178.565 178.89 176.912 178.28 175.752 177.01C173.817 174.893 173.976 172.604 174.113 169.941Z" fill="#B36948"/>
<path d="M141.769 141.108C141.314 140.816 141.312 140.802 141.129 140.293C141.447 138.667 143.103 136.732 144.454 135.823C147.552 133.738 152.703 133.215 156.29 133.969C158.639 134.464 161.691 135.853 162.947 138.012C163.416 138.818 163.461 139.315 163.246 140.191C159.971 137.283 156.53 135.475 152.045 135.71C148.432 135.9 145.061 137.316 142.649 140.054C142.348 140.399 142.054 140.75 141.769 141.108Z" fill="#B36948"/>
<path d="M194.39 141.691C194.017 140.724 194.392 139.455 194.79 138.508C195.63 136.509 198.026 135.21 199.955 134.436C203.346 133.076 207.719 133.011 211.092 134.458C214.566 135.949 215.883 138.353 217.206 141.701L217.03 141.82L216.066 140.763C215.908 140.581 215.746 140.403 215.579 140.229C215.413 140.055 215.242 139.885 215.067 139.72C214.892 139.554 214.713 139.393 214.53 139.236C214.346 139.079 214.16 138.927 213.969 138.779C213.779 138.631 213.585 138.488 213.387 138.35C213.19 138.212 212.989 138.079 212.785 137.951C212.581 137.823 212.374 137.699 212.164 137.581C211.953 137.463 211.74 137.35 211.525 137.243C211.309 137.135 211.091 137.033 210.87 136.936C210.649 136.839 210.426 136.747 210.201 136.661C209.976 136.575 209.748 136.495 209.519 136.42C209.29 136.346 209.059 136.277 208.826 136.213C208.594 136.15 208.36 136.092 208.124 136.04C207.889 135.988 207.652 135.942 207.414 135.902C207.177 135.861 206.938 135.827 206.699 135.798C206.459 135.77 206.219 135.747 205.979 135.73C202.562 135.502 199.234 136.488 196.658 138.775C195.701 139.625 195.01 140.579 194.39 141.691Z" fill="#B36948"/>
<path d="M151.203 120.487C154.334 120.241 159.708 120.068 162.614 121.31C163.52 121.696 164.23 122.305 164.568 123.249C164.985 124.414 164.733 125.622 164.268 126.724C162.787 127.737 151.449 126.949 148.923 126.956C144.301 126.968 141.085 127.352 136.789 129.181C136.785 128.886 136.789 128.595 136.791 128.3C136.8 126.624 137.145 125.609 138.231 124.31C141.098 120.88 147.107 120.815 151.203 120.487Z" fill="#904D30"/>
<path d="M199.046 120.247C199.35 120.206 199.649 120.167 199.956 120.145C204.775 119.789 214.067 119.413 217.77 122.827C218.618 123.61 219.097 124.611 219.125 125.768C219.145 126.585 218.946 127.376 218.391 127.982C216.435 128.276 213.682 127.331 211.662 127.077C209.223 126.839 206.778 126.71 204.327 126.689C201.876 126.668 199.429 126.755 196.987 126.951C195.537 127.067 192.664 127.972 191.386 127.291C191.242 127.005 191.109 126.743 191.042 126.427C190.773 125.162 190.9 123.095 191.564 121.97C193.449 120.437 196.71 120.501 199.046 120.247Z" fill="#904D30"/>
<path d="M161.65 187.387C170.348 186.937 179.288 187.348 188.01 187.335C191.345 187.329 194.795 187.5 198.11 187.139C197.678 188.98 197.261 190.406 195.545 191.465C194.776 191.94 193.96 192.272 193.066 192.429C188.803 193.176 170.433 193.347 166.625 192.341C165.9 192.149 165.202 191.836 164.52 191.527C163.399 190.22 162.524 188.869 161.65 187.387Z" fill="#FEFEFE"/>
<path d="M228.697 153.698C229.055 151.716 231.362 146.392 233.029 145.345C234.577 144.373 236.754 144.406 238.462 144.919C239.937 145.362 241.159 146.295 241.867 147.671C242.995 149.859 242.759 152.648 241.96 154.901C240.97 157.693 238.876 160.768 236.11 162.047C234.077 162.988 231.674 162.812 229.626 161.977C229.224 161.813 228.876 161.619 228.537 161.347C228.841 158.886 228.668 156.187 228.697 153.698Z" fill="#B36948"/>
<path d="M124.841 162.504C122.429 162.579 120.315 162.627 118.169 161.361C116.4 160.318 115.399 158.57 114.976 156.616C114.393 153.924 114.781 150.908 116.335 148.598C117.413 146.997 119.083 145.655 121.023 145.323C122.492 145.071 123.795 145.478 124.972 146.36C127.563 148.303 129.132 151.61 129.573 154.733L129.327 158.615C127.765 159.491 126.36 161.372 124.841 162.504Z" fill="#B36948"/>
<path d="M194.39 141.691C195.011 140.579 195.702 139.625 196.659 138.775C199.234 136.488 202.562 135.502 205.979 135.73C206.22 135.747 206.46 135.769 206.699 135.798C206.938 135.827 207.177 135.861 207.415 135.901C207.653 135.942 207.889 135.988 208.125 136.04C208.36 136.092 208.594 136.15 208.827 136.213C209.06 136.276 209.291 136.346 209.52 136.42C209.749 136.495 209.976 136.575 210.202 136.661C210.427 136.747 210.65 136.839 210.871 136.936C211.091 137.033 211.31 137.135 211.525 137.242C211.741 137.35 211.954 137.463 212.164 137.581C212.374 137.699 212.581 137.822 212.785 137.95C212.99 138.079 213.19 138.212 213.388 138.35C213.585 138.488 213.779 138.631 213.97 138.779C214.16 138.927 214.347 139.079 214.53 139.236C214.713 139.393 214.892 139.554 215.067 139.72C215.242 139.885 215.413 140.055 215.58 140.229C215.746 140.403 215.909 140.581 216.067 140.763C216.935 143.079 217.141 145.089 216.103 147.394C214.932 149.996 212.51 151.972 209.856 152.932C206.517 154.141 202.323 154.156 199.096 152.59C196.897 151.524 195.12 149.792 194.316 147.453C193.727 145.74 193.685 144.18 194.177 142.43C194.246 142.182 194.314 141.937 194.39 141.691Z" fill="#FEFEFE"/>
<path d="M210.627 147.878C210.12 148.797 209.555 149.572 208.798 150.3C207.651 151.401 206.159 152.163 204.538 152.079C202.867 151.991 201.287 151.099 200.186 149.868C198.643 148.143 197.931 145.914 198.114 143.614C198.261 141.772 198.964 139.911 200.455 138.741C202.344 137.257 204.666 137.213 206.938 137.439C209.235 138.566 210.754 140.235 211.571 142.679C212 143.964 212.122 145.879 211.371 147.078C211.179 147.384 210.895 147.641 210.627 147.878Z" fill="#B36948"/>
<path d="M201.939 145.699C203.536 146.361 204.47 146.799 205.331 148.375C205.463 148.617 205.613 148.762 205.829 148.928C205.076 148.967 204.139 149.041 203.474 148.626C202.492 148.013 202.245 146.734 201.939 145.699Z" fill="#492B1C"/>
<path d="M201.505 141.165C202.609 141.298 203.173 141.841 203.932 142.606C203.599 143.38 203.281 143.884 202.672 144.471L202.052 144.334C201.199 144.041 200.813 143.926 200.316 143.159C200.395 142.247 200.911 141.807 201.505 141.165Z" fill="#FEFEFE"/>
<path d="M201.506 141.165C201.235 140.934 201.201 140.821 201.07 140.5C201.271 139.75 201.493 139.374 202.186 138.946C203.653 138.042 205.225 138.142 206.814 138.567C208.197 139.306 208.751 139.929 209.182 141.438C209.536 142.676 209.8 144.488 209.36 145.716C209.241 144.491 209.083 143.697 208.41 142.643C207.993 142.329 207.572 142.033 207.097 141.811C206.397 141.485 205.566 141.188 204.811 141.512C204.18 141.783 204.178 142.029 203.932 142.606C203.174 141.841 202.61 141.297 201.506 141.165Z" fill="#904D30"/>
<path d="M203.932 142.606C204.178 142.029 204.18 141.784 204.811 141.512C205.566 141.189 206.398 141.486 207.097 141.812C207.572 142.033 207.993 142.33 208.41 142.643C209.083 143.697 209.241 144.491 209.36 145.716L209.214 146.195C208.168 147.408 207.329 148.274 205.829 148.929C205.613 148.762 205.463 148.618 205.331 148.376C204.469 146.799 203.535 146.361 201.939 145.699C201.899 145.251 201.999 144.78 202.052 144.334L202.673 144.471C203.281 143.884 203.599 143.381 203.932 142.606Z" fill="#352016"/>
<path d="M141.769 141.108C142.054 140.75 142.347 140.399 142.649 140.054C145.06 137.316 148.432 135.9 152.045 135.71C156.529 135.475 159.971 137.283 163.246 140.19C164.658 142.421 165.076 143.861 165.264 146.493C163.926 149.562 162.13 151.858 158.932 153.132C155.47 154.512 150.849 154.277 147.452 152.803C144.901 151.697 142.487 149.711 141.466 147.063C140.738 145.177 140.698 143.327 141.587 141.472C141.645 141.349 141.708 141.229 141.769 141.108Z" fill="#FEFEFE"/>
<path d="M147.435 140.551C147.574 140.842 147.696 141.199 147.906 141.441C147.887 141.889 147.892 142.344 147.807 142.784C148.673 143.32 149.329 143.569 150.338 143.717L149.482 143.898C148.954 145.251 149.693 146.573 150.189 147.864C149.552 147.869 148.89 147.961 148.254 148.014C148.884 149.148 149.226 149.921 149.353 151.234C147.949 150.277 146.785 148.766 146.278 147.136C145.54 144.759 146.317 142.637 147.435 140.551Z" fill="#B36948"/>
<path d="M148.253 148.014C147.903 147.259 147.574 146.511 147.381 145.698C147.119 144.59 147.194 143.742 147.807 142.785C148.673 143.32 149.329 143.569 150.337 143.717L149.481 143.899C148.953 145.251 149.693 146.574 150.188 147.864C149.551 147.869 148.889 147.961 148.253 148.014Z" fill="#904D30"/>
<path d="M147.434 140.551C148.866 138.846 150.419 137.452 152.768 137.268C154.579 137.125 156.25 137.806 157.579 139.01C159.066 140.356 159.93 142.478 159.956 144.466C159.989 147.046 158.693 149.149 156.891 150.885C156.533 151.228 156.171 151.567 155.805 151.9C153.778 152.292 151.509 152.775 149.677 151.477C149.566 151.399 149.46 151.315 149.352 151.234C149.224 149.921 148.882 149.148 148.252 148.014C148.888 147.961 149.55 147.869 150.187 147.864C149.691 146.574 148.952 145.251 149.48 143.898L150.336 143.717C149.328 143.569 148.671 143.32 147.806 142.785C147.89 142.344 147.885 141.889 147.904 141.442C147.694 141.199 147.572 140.842 147.434 140.551Z" fill="url(#paint1_linear_78_2061)"/>
<path d="M147.905 141.441C148.726 141.007 149.351 140.513 150.333 140.732C150.779 140.832 151.233 141.051 151.653 141.231C151.479 142.477 151.364 142.936 150.337 143.717C149.329 143.569 148.672 143.32 147.807 142.785C147.891 142.344 147.886 141.889 147.905 141.441Z" fill="#FEFEFE"/>
<path d="M151.652 141.231C152.294 140.878 153.093 140.783 153.796 141.036C154.643 141.341 155.342 142.216 155.67 143.025C156.204 144.341 156.295 146.055 155.736 147.376C155.446 148.061 154.933 148.671 154.2 148.897C153.162 149.218 151.564 148.755 150.667 148.199C150.501 148.096 150.345 147.979 150.188 147.864C149.692 146.574 148.953 145.251 149.481 143.899L150.337 143.717C151.364 142.936 151.479 142.477 151.652 141.231Z" fill="#352016"/>
<path d="M198.108 187.14L198.493 186.645C199.77 186.592 201.016 186.631 202.292 186.703C200.878 193.022 197.906 197.466 193.184 201.808C187.913 205.806 182.11 206.937 175.605 206.061C172.61 205.658 168.201 204.436 166.129 202.091C165.275 201.456 164.465 200.794 163.719 200.033C161.281 197.542 157.853 191.547 158.153 187.999C158.214 187.281 158.429 187.102 158.984 186.692C162.511 186.212 161.471 189.977 164.311 191.426C164.38 191.461 164.45 191.494 164.519 191.527C165.2 191.836 165.899 192.15 166.624 192.341C170.431 193.347 188.801 193.177 193.065 192.429C193.958 192.272 194.775 191.94 195.544 191.465C197.26 190.406 197.676 188.98 198.108 187.14Z" fill="#B36948"/>
<path d="M166.131 202.091C166.843 201.622 167.436 200.92 168.137 200.409C170.901 198.393 173.994 197.654 177.36 197.466C183.621 197.118 188.342 197.474 193.186 201.808C187.915 205.806 182.112 206.937 175.607 206.061C172.611 205.658 168.202 204.436 166.131 202.091Z" fill="#F96449"/>
<path d="M430.349 26.4737L518.538 26.5333C524.929 26.557 531.319 26.5394 537.71 26.4805C545.099 26.416 552.291 25.9833 559.557 27.6701C567.434 29.4984 574.444 34.0089 580.083 39.7247C583.963 43.653 591.254 53.8758 591.617 59.2283C591.621 59.2934 591.613 59.3589 591.609 59.424C592.294 61.0148 592.344 87.7776 591.749 89.1672C591.7 89.2769 591.646 89.3815 591.593 89.4887C592.175 90.8948 592.092 92.1188 591.708 93.5677C592.27 95.3402 592.385 99.3665 591.593 101.073C591.378 101.274 591.167 101.485 590.949 101.679C589.619 102.858 588.624 104.541 587.584 105.979C584.653 110.023 581.78 114.553 578.031 117.875C571.603 123.565 563.508 126.495 555.135 127.931C547.89 129.172 540.22 129.315 532.884 129.481C530.291 129.54 527.633 129.756 525.044 129.628C521.312 129.444 517.638 128.426 513.885 128.405L429.148 128.668C416.849 128.745 404.584 127.774 392.28 128.682C386.396 129.116 379.825 129.58 374.351 131.95C370.576 133.584 360.447 143.462 357.468 143.344C355.318 143.258 342.77 132.621 338.971 130.681C335.978 129.153 332.232 128.216 328.882 128.049L328.574 128.035C325.86 127.905 323.314 126.643 320.811 125.675C307.787 120.638 302.721 114.418 295.516 102.923C294.131 100.714 292.786 96.6124 291.287 94.957L290.834 95.3753C290.593 96.6231 290.783 97.721 290.91 98.9656C290.881 99.7094 290.771 100.325 290.55 101.036C290.108 100.456 288.737 92.4946 288.686 91.3683C288.586 89.1565 288.831 86.8813 288.868 84.6625C288.436 80.6436 288.263 76.6337 288.636 72.6025C290.029 57.5502 296.89 45.2133 308.462 35.6034C314.843 31.3721 321.112 28.5242 328.673 27.1483C336.667 25.6935 349.224 26.4657 357.648 26.4727L405.726 26.5273C413.897 26.5326 422.191 26.8665 430.349 26.4737Z" fill="#4783F1"/>
<path d="M591.592 89.4888C592.174 90.8949 592.092 92.1189 591.708 93.5678C591.225 94.3616 591.101 94.5911 590.304 95.0477L589.73 95.0028C590.663 93.6276 591.535 91.1368 591.592 89.4888Z" fill="#255CCC"/>
<path d="M288.866 84.6626C291.4 96.9855 298.244 108.767 308.925 115.77C314.308 119.299 322.243 122.351 328.722 122.754C332.557 122.993 336.609 122.667 340.446 122.414C342.49 124.322 344.045 126.674 345.817 128.824L357.655 143.267L368.152 131.192C370.721 128.205 373.226 125.075 376.091 122.363C390.133 122.677 404.176 122.776 418.222 122.659L495.083 122.45L534.554 122.642C541.423 122.642 548.755 123.185 555.513 122.01C556.039 121.916 556.563 121.813 557.086 121.7C557.612 121.587 558.133 121.465 558.651 121.333C559.168 121.202 559.684 121.061 560.199 120.911C560.713 120.761 561.224 120.602 561.73 120.434C562.239 120.266 562.744 120.088 563.245 119.902C563.746 119.715 564.244 119.52 564.74 119.316C565.235 119.112 565.725 118.898 566.21 118.676C566.697 118.455 567.18 118.224 567.659 117.985C568.137 117.746 568.612 117.498 569.083 117.242C569.551 116.986 570.014 116.721 570.474 116.448C570.936 116.175 571.392 115.894 571.841 115.605C572.292 115.316 572.736 115.019 573.174 114.714C573.614 114.409 574.048 114.096 574.474 113.775C574.904 113.454 575.326 113.126 575.742 112.79C576.157 112.455 576.567 112.111 576.972 111.761C577.377 111.41 577.774 111.053 578.165 110.688C581.852 107.213 588.387 99.8633 589.729 95.0028L590.302 95.0478C591.099 94.5911 591.223 94.3616 591.706 93.5679C592.267 95.3404 592.383 99.3667 591.59 101.073C591.376 101.274 591.165 101.485 590.946 101.679C589.617 102.858 588.622 104.541 587.582 105.979C584.651 110.023 581.777 114.553 578.029 117.875C571.601 123.565 563.505 126.495 555.133 127.931C547.888 129.173 540.218 129.315 532.882 129.482C530.289 129.541 527.63 129.756 525.042 129.628C521.31 129.445 517.636 128.427 513.883 128.405L429.145 128.668C416.847 128.745 404.582 127.774 392.278 128.682C386.394 129.116 379.823 129.58 374.349 131.95C370.574 133.584 360.445 143.462 357.466 143.344C355.315 143.258 342.768 132.621 338.968 130.681C335.975 129.153 332.229 128.216 328.88 128.049L328.572 128.036C325.858 127.905 323.312 126.643 320.809 125.675C307.785 120.638 302.719 114.419 295.514 102.924C294.129 100.714 292.784 96.6126 291.285 94.9571L290.832 95.3754C290.591 96.6233 290.781 97.7211 290.908 98.9657C290.879 99.7096 290.769 100.325 290.547 101.036C290.106 100.456 288.735 92.4947 288.684 91.3685C288.584 89.1567 288.829 86.8814 288.866 84.6626Z" fill="#5379BE"/>
<path d="M204.731 218.202L204.609 226.477C204.696 232.392 204.971 238.545 204.543 244.435C208.372 244.525 213.038 244.954 216.619 246.338C221.045 247.462 225.576 248.443 229.924 249.828C254.536 257.669 279.298 271.706 292.821 294.418C302.871 311.299 303.473 327.437 304.595 346.441C305.001 353.335 305.657 360.235 305.856 367.138C305.895 368.483 305.486 373.546 306.613 374.198C307.221 376.556 306.857 379.69 306.764 382.131L455.789 382.097C462.956 382.359 470.192 382.124 477.367 382.095C487.732 382.053 498.097 382.068 508.462 382.139C514.506 382.148 522.436 381.57 528.282 382.297C529.764 382.481 531.036 382.745 532.076 383.925C533.488 385.532 533.983 388.016 533.781 390.101C533.686 391.111 533.57 392.014 533.005 392.879C533.038 394.443 531.911 396.079 530.862 397.178C529.793 398.295 528.526 399.199 527.465 400.294L532.026 400.035C541.588 400.241 551.186 400.072 560.747 399.97C564.76 399.927 569.404 399.371 573.322 399.913C573.846 403.412 570.758 407.985 568.768 410.668C564.863 415.934 559.769 419.07 554.051 422H33.3044C30.9472 420.628 28.3795 419.771 26.0436 418.267C25.6476 418.006 25.2581 417.736 24.8753 417.459C24.4925 417.179 24.1168 416.89 23.7481 416.593C23.3795 416.294 23.0184 415.986 22.6648 415.67C22.3112 415.357 21.9656 415.034 21.6279 414.702C21.2903 414.369 20.9609 414.029 20.64 413.68C20.3191 413.331 20.0069 412.975 19.7035 412.612C19.4 412.248 19.1057 411.877 18.8205 411.499C18.5353 411.12 18.2595 410.735 17.9933 410.343C17.727 409.952 17.4704 409.554 17.2237 409.149C16.977 408.745 16.7403 408.335 16.5138 407.919C16.2872 407.504 16.0709 407.083 15.865 406.656C15.6591 406.23 15.4639 405.798 15.2791 405.362C15.0945 404.926 14.9206 404.486 14.7575 404.041C14.5945 403.597 14.4424 403.149 14.3014 402.697C14.1604 402.245 14.0305 401.79 13.9119 401.331C13.7932 400.873 13.6859 400.412 13.5898 399.948C18.9362 399.643 24.4422 399.884 29.8078 399.877C36.8831 399.869 44.0599 399.652 51.1165 400.09C51.2176 394.461 51.6738 388.798 51.9768 383.174L53.3383 357.079C55.3236 321.666 55.6031 300.179 82.4669 273.671C98.3188 259.736 117.918 251.14 138.463 246.821L139.474 246.564C143.073 245.943 146.694 245.499 150.336 245.231C151.342 245.032 152.491 245.059 153.521 244.994C153.586 240.144 153.6 235.294 153.562 230.443L153.474 219.667C160.524 223.847 167.625 227.185 175.946 227.75C185.734 228.414 197.327 224.607 204.731 218.202Z" fill="#908664"/>
<path d="M138.465 246.822L139.477 246.564C146.58 258.822 152.814 265.108 166.86 268.875C167.226 268.973 167.592 269.068 167.96 269.157C168.328 269.247 168.697 269.332 169.067 269.413C169.437 269.493 169.808 269.569 170.18 269.64C170.552 269.712 170.925 269.779 171.299 269.84C171.672 269.902 172.046 269.96 172.421 270.013C172.796 270.065 173.172 270.114 173.548 270.157C173.924 270.201 174.301 270.239 174.678 270.273C175.055 270.308 175.433 270.337 175.811 270.362C176.189 270.386 176.567 270.406 176.945 270.421C177.324 270.437 177.702 270.448 178.081 270.454C178.46 270.459 178.838 270.461 179.217 270.457C179.596 270.454 179.974 270.445 180.353 270.433C180.731 270.42 181.11 270.402 181.488 270.38C181.866 270.358 182.243 270.331 182.62 270.299C182.998 270.267 183.375 270.231 183.751 270.19C184.128 270.149 184.504 270.104 184.879 270.053C185.254 270.003 185.629 269.948 186.003 269.888C186.377 269.829 186.75 269.764 187.123 269.695C187.495 269.627 187.867 269.553 188.237 269.475C188.607 269.397 188.977 269.314 189.346 269.227C189.714 269.139 190.081 269.048 190.448 268.951C190.814 268.855 191.179 268.754 191.542 268.649C191.906 268.543 192.268 268.433 192.629 268.318C192.99 268.204 193.35 268.085 193.708 267.962C194.066 267.838 194.422 267.71 194.777 267.578C195.132 267.446 195.485 267.31 195.836 267.169C196.188 267.027 196.537 266.882 196.885 266.732C197.233 266.583 197.578 266.429 197.922 266.271C198.267 266.112 198.608 265.949 198.948 265.783C199.288 265.616 199.626 265.445 199.961 265.27C200.297 265.095 200.631 264.916 200.962 264.732C201.293 264.549 201.622 264.361 201.948 264.17C209.107 260.062 213.4 254.071 216.952 246.819C217.485 247.308 217.526 247.384 217.715 248.082C217.433 249.932 216.246 251.661 215.254 253.213C209.154 262.76 199.381 268.476 188.45 270.844C176.741 273.381 163.614 271.249 153.518 264.749C148.057 261.233 139.884 253.346 138.465 246.822Z" fill="#B36948"/>
<path d="M260.944 332.16C260.958 332.243 260.98 332.324 260.986 332.408C261.144 334.623 259.341 338.842 258.877 341.231C258.261 344.402 257.984 347.678 257.921 350.906C257.683 363.103 258.093 375.324 258.065 387.525C258.057 391.158 258.628 395.161 258.129 398.729C257.992 399.712 257.906 399.797 257.158 400.37C256.532 400.211 255.93 400.015 255.319 399.805C254.658 396.087 255.242 387.019 255.24 382.775L255.205 361.66C255.199 357.043 254.942 352.175 255.64 347.608C255.852 346.256 256.123 344.916 256.453 343.587C256.783 342.258 257.17 340.947 257.614 339.652C258.059 338.357 258.559 337.084 259.115 335.833C259.671 334.582 260.28 333.358 260.944 332.16Z" fill="#B36948"/>
<path d="M95.9902 327.261C98.2377 331.886 102.085 343.29 102.861 348.442C103.314 351.452 103.078 354.727 103.064 357.77L103.002 373.797L103.107 390.482C103.133 393.651 103.323 396.939 103.05 400.097L99.1472 400.133C99.4166 388.635 99.51 377.136 99.4275 365.634C99.4316 358.619 99.787 351.327 99.0972 344.353C98.5329 338.645 97.1119 332.887 95.9902 327.261Z" fill="#B36948"/>
<path d="M204.732 218.202L204.61 226.477C204.698 232.392 204.972 238.545 204.544 244.435C203.198 250.189 199.495 254.488 194.506 257.559C187.167 262.075 178.698 263.215 170.357 261.193C164.738 259.83 158.18 256.284 155.1 251.216C153.887 249.221 153.427 247.323 153.522 244.994C153.587 240.144 153.601 235.294 153.563 230.443L153.475 219.667C160.525 223.847 167.626 227.185 175.947 227.75C185.735 228.414 197.328 224.607 204.732 218.202Z" fill="#FEAA81"/>
<path d="M204.732 218.202L204.61 226.477C204.464 228.094 204.425 229.667 204.456 231.29C195.075 239.554 188.278 242.083 175.796 241.325C168.812 240.901 162.813 238.866 157.263 234.532C156.255 233.744 155.027 232.915 154.19 231.946C153.805 231.5 153.67 231.01 153.563 230.443L153.475 219.667C160.525 223.847 167.626 227.185 175.947 227.75C185.735 228.414 197.328 224.607 204.732 218.202Z" fill="#B36948"/>
<path d="M306.764 382.131L455.789 382.097C462.956 382.36 470.192 382.124 477.367 382.095C487.732 382.053 498.097 382.068 508.462 382.139C514.506 382.148 522.436 381.57 528.282 382.297C529.764 382.482 531.036 382.745 532.076 383.925C533.488 385.532 533.983 388.016 533.781 390.101C533.686 391.111 533.57 392.014 533.005 392.879C533.038 394.443 531.911 396.079 530.862 397.178C529.793 398.295 528.526 399.199 527.465 400.294L532.026 400.035C541.588 400.241 551.186 400.072 560.747 399.97C564.76 399.927 569.404 399.371 573.322 399.913C573.846 403.412 570.758 407.985 568.768 410.668C564.863 415.934 559.769 419.07 554.051 422H33.3044C30.9472 420.628 28.3795 419.771 26.0436 418.267C25.6476 418.006 25.2581 417.736 24.8753 417.459C24.4925 417.179 24.1168 416.89 23.7481 416.594C23.3795 416.294 23.0184 415.986 22.6648 415.67C22.3112 415.357 21.9656 415.034 21.6279 414.702C21.2903 414.37 20.9609 414.029 20.64 413.68C20.3191 413.331 20.0069 412.975 19.7035 412.613C19.4 412.248 19.1057 411.877 18.8205 411.499C18.5353 411.12 18.2595 410.735 17.9933 410.343C17.727 409.952 17.4704 409.554 17.2237 409.15C16.977 408.745 16.7403 408.335 16.5138 407.919C16.2872 407.504 16.0709 407.083 15.865 406.656C15.6591 406.23 15.4639 405.798 15.2791 405.362C15.0945 404.926 14.9206 404.486 14.7575 404.042C14.5945 403.597 14.4424 403.149 14.3014 402.697C14.1604 402.245 14.0305 401.79 13.9119 401.331C13.7932 400.873 13.6859 400.412 13.5898 399.948C18.9362 399.643 24.4422 399.884 29.8078 399.878C36.8831 399.869 44.0599 399.653 51.1165 400.09L99.1457 400.133L103.049 400.097L257.953 400.295C274.318 400.387 290.657 400.028 307.026 400.344C307.215 394.268 306.714 388.206 306.764 382.131Z" fill="#FEFEFE"/>
<path d="M306.765 382.131L455.79 382.097C462.957 382.36 470.194 382.124 477.369 382.095C487.734 382.053 498.098 382.068 508.463 382.139C514.507 382.148 522.438 381.57 528.283 382.297C529.765 382.482 531.037 382.745 532.077 383.925C533.489 385.532 533.984 388.016 533.782 390.101C533.687 391.111 533.572 392.014 533.006 392.879C533.039 394.443 531.912 396.079 530.863 397.178C529.794 398.295 528.527 399.199 527.466 400.294C519.374 401.089 510.8 400.464 502.655 400.436L455.996 400.361L307.027 400.344C307.216 394.268 306.715 388.206 306.765 382.131Z" fill="#E2ECFE"/>
<path d="M319.809 151.027C332.312 151.257 344.804 150.877 357.302 150.874L432.676 150.975L459.234 150.991C464.861 150.968 471.008 150.469 476.56 151.361C480.936 152.065 484.408 154.111 487.476 157.293C490.023 159.936 493.173 164.539 493.045 168.41C493.032 168.666 492.962 168.861 492.871 169.098C493.565 170.98 493.85 210.519 493.198 212.393C494.052 215.302 493.482 221.868 493.482 225.114V251.203L493.144 378.751C493.131 379.714 493.235 380.771 492.756 381.642C492.714 381.718 492.661 381.788 492.615 381.861C484.593 381.92 476.569 381.938 468.543 381.914C464.332 381.92 459.985 381.756 455.791 382.097L306.766 382.131C306.859 379.69 307.223 376.556 306.615 374.198C305.488 373.546 305.897 368.483 305.858 367.138C305.659 360.234 305.003 353.335 304.597 346.441C303.475 327.437 302.874 311.299 292.823 294.418C279.3 271.706 254.538 257.669 229.926 249.828C225.578 248.443 221.047 247.462 216.621 246.338C213.04 244.954 208.374 244.525 204.545 244.435C204.973 238.545 204.698 232.392 204.611 226.477L204.733 218.202C205.076 218.053 205.354 217.896 205.665 217.683C216.337 210.379 223.472 196.878 225.851 184.451C226.559 180.38 226.951 176.283 227.297 172.168C229.202 172.329 231.047 172.358 232.945 172.095C235.763 171.288 237.699 169.429 239.717 167.423C240.075 167.082 240.444 166.752 240.796 166.403C244.734 162.493 246.125 156.41 246.132 151.047C263.775 150.698 281.508 151.111 299.164 151.128C306.026 151.134 312.959 151.351 319.809 151.027Z" fill="#FEFEFE"/>
<path d="M323.02 208.512C323.921 208.447 324.838 208.297 325.715 208.561C326.124 209.274 325.956 209.695 325.881 210.5C325.12 210.543 324.566 210.444 323.843 210.213C323.237 209.557 323.196 209.394 323.02 208.512Z" fill="#FEFEFE"/>
<path d="M228.381 197.879C230.08 197.797 231.736 197.825 233.342 198.431C233.482 198.483 233.62 198.538 233.757 198.597C233.894 198.656 234.029 198.718 234.163 198.783C234.297 198.848 234.428 198.917 234.559 198.988C234.689 199.06 234.817 199.135 234.943 199.212C235.069 199.29 235.193 199.371 235.315 199.455C235.437 199.539 235.557 199.626 235.674 199.715C235.791 199.805 235.906 199.897 236.018 199.993C236.131 200.088 236.24 200.186 236.348 200.286C236.455 200.387 236.56 200.49 236.662 200.595C236.763 200.701 236.862 200.809 236.958 200.919C237.055 201.03 237.148 201.142 237.238 201.257C237.328 201.372 237.415 201.489 237.499 201.608C237.583 201.727 237.664 201.848 237.742 201.971C237.82 202.095 237.894 202.219 237.965 202.346C238.036 202.473 238.104 202.601 238.168 202.731C238.232 202.861 238.293 202.992 238.35 203.125C238.413 203.268 238.472 203.412 238.527 203.557C238.582 203.703 238.634 203.849 238.682 203.997C238.729 204.145 238.773 204.294 238.813 204.444C238.853 204.594 238.889 204.745 238.922 204.897C238.954 205.048 238.982 205.201 239.006 205.354C239.031 205.507 239.051 205.66 239.068 205.814C239.084 205.968 239.096 206.123 239.105 206.277C239.113 206.432 239.118 206.587 239.118 206.741C239.119 206.896 239.115 207.051 239.108 207.205C239.1 207.36 239.089 207.515 239.074 207.669C239.058 207.823 239.039 207.976 239.015 208.129C238.992 208.283 238.965 208.435 238.933 208.587C238.902 208.739 238.867 208.89 238.828 209.04C238.789 209.191 238.746 209.34 238.7 209.488C238.653 209.636 238.602 209.783 238.548 209.929C238.494 210.075 238.436 210.219 238.374 210.362C237.117 213.199 234.996 214.501 232.137 215.635C230 215.875 227.994 215.724 226.066 214.75C225.931 214.681 225.799 214.609 225.667 214.534C225.536 214.458 225.407 214.38 225.281 214.298C225.154 214.216 225.029 214.132 224.907 214.044C224.784 213.956 224.664 213.866 224.547 213.772C224.429 213.678 224.314 213.582 224.201 213.483C224.089 213.384 223.979 213.282 223.872 213.177C223.765 213.073 223.661 212.966 223.559 212.856C223.458 212.747 223.359 212.635 223.264 212.52C223.168 212.406 223.076 212.289 222.986 212.171C222.897 212.052 222.811 211.931 222.728 211.808C222.645 211.685 222.565 211.56 222.489 211.433C222.412 211.306 222.339 211.177 222.27 211.047C222.2 210.917 222.134 210.785 222.071 210.651C222.009 210.517 221.95 210.382 221.894 210.246C221.839 210.109 221.787 209.971 221.739 209.832C221.691 209.693 221.646 209.553 221.606 209.412C221.56 209.261 221.519 209.108 221.481 208.955C221.443 208.802 221.41 208.648 221.38 208.493C221.35 208.338 221.324 208.183 221.302 208.027C221.28 207.871 221.262 207.714 221.248 207.558C221.234 207.401 221.224 207.244 221.218 207.086C221.212 206.929 221.21 206.772 221.212 206.614C221.214 206.457 221.22 206.299 221.23 206.142C221.24 205.985 221.253 205.828 221.271 205.672C221.289 205.515 221.311 205.359 221.337 205.204C221.363 205.048 221.392 204.893 221.426 204.739C221.46 204.585 221.497 204.432 221.539 204.28C221.58 204.127 221.625 203.976 221.675 203.826C221.724 203.676 221.777 203.527 221.833 203.379C221.89 203.231 221.95 203.085 222.014 202.94C222.078 202.795 222.146 202.652 222.218 202.51C222.289 202.368 222.364 202.228 222.442 202.09C223.766 199.811 225.827 198.575 228.381 197.879Z" fill="#AECEFE"/>
<path d="M227.298 172.168C229.203 172.329 231.048 172.358 232.946 172.095L233.202 172.706C236.008 173.458 241.877 172.877 245.039 172.856C250.625 172.818 288.978 172.055 291.457 173.327C292.331 175.017 292.335 180.743 291.81 182.595C291.648 183.166 291.337 183.549 290.916 183.951C287.889 184.967 272.002 184.264 267.915 184.252C253.952 184.209 239.799 184.001 225.852 184.451C226.559 180.38 226.952 176.283 227.298 172.168Z" fill="#CDDFFE"/>
<path d="M327.8 324.695C353.667 324.52 379.534 324.525 405.4 324.71L430.277 324.685C434.682 324.666 439.305 324.357 443.69 324.726C445.737 324.899 448.408 325.273 449.969 326.693C451.992 328.531 452.644 331.179 452.718 333.816C452.788 336.258 452.582 338.726 452.594 341.175C452.623 345.775 453.325 352.982 452.471 357.22C452.169 358.706 451.476 360.171 450.398 361.253C448.388 363.278 446.047 363.46 443.347 363.472L363.101 363.38L339.233 363.404C335.053 363.412 330.649 363.693 326.492 363.29C324.916 363.137 323.427 362.425 322.191 361.453C320.078 359.793 318.866 357.54 318.599 354.881C318.229 351.195 318.129 335.505 318.787 332.207C319.095 330.66 319.753 329.174 320.764 327.956C322.621 325.718 324.987 324.926 327.8 324.695Z" fill="#CDDFFE"/>
<path d="M422.743 336.153C425.125 336.947 436.755 343.151 438.159 344.809C437.25 346.131 433.729 347.622 432.214 348.211C430.761 349.717 424.663 352.88 422.611 353.766C423.771 348.25 422.463 341.813 422.743 336.153Z" fill="#92BAFD"/>
<path d="M367.549 338.57L379.804 338.51L379.577 343.05L339.197 343.067L326.699 343.021L326.776 338.705C340.357 338.843 353.966 338.628 367.549 338.57Z" fill="#AECEFE"/>
<path d="M326.699 347.914L394.87 347.945L394.845 352.582L326.68 352.566L326.699 347.914Z" fill="#AECEFE"/>
<path d="M418.421 232.925C424.176 232.938 429.931 232.905 435.686 232.828C438.918 232.797 442.613 232.427 445.78 233.019C446.113 233.084 446.44 233.172 446.762 233.283C447.084 233.393 447.397 233.526 447.699 233.681C448.002 233.836 448.292 234.011 448.57 234.207C448.848 234.402 449.111 234.617 449.359 234.849C451.733 237.044 452.331 239.575 452.397 242.693C452.484 246.706 452.364 250.731 452.385 254.746C452.402 258.683 452.975 263.371 452.059 267.186C452.007 267.403 451.949 267.619 451.885 267.833C451.819 268.047 451.745 268.258 451.663 268.467C451.583 268.675 451.496 268.881 451.403 269.084C451.306 269.287 451.204 269.486 451.097 269.681C450.987 269.877 450.871 270.069 450.75 270.256C450.629 270.444 450.501 270.627 450.366 270.806C450.231 270.985 450.091 271.159 449.945 271.328C449.797 271.497 449.644 271.661 449.487 271.82C448.149 273.173 445.883 273.394 444.062 273.559C440.698 273.863 437.168 273.646 433.787 273.626L414.842 273.538L352.873 273.476L337.336 273.471C333.564 273.465 329.396 273.807 325.715 272.912C324.079 272.515 322.665 271.766 321.444 270.602C318.652 267.941 318.644 264.565 318.593 260.952C318.528 256.252 317.897 242.893 318.981 238.785C319.3 237.574 319.937 236.55 320.822 235.67C322.178 234.319 324.086 233.509 325.963 233.243C329.301 232.769 332.904 233.006 336.277 233.002L353.894 232.984L418.421 232.925Z" fill="#92BAFD"/>
<path d="M398.877 240.664C399.122 240.662 399.368 240.662 399.613 240.688C400.514 240.781 401.094 241.161 401.656 241.841C401.471 242.349 401.406 242.277 400.96 242.531C399.974 242.566 398.865 242.742 397.953 242.317C397.971 241.529 398.385 241.262 398.877 240.664Z" fill="#92BAFD"/>
<path d="M409.278 240.998C410.23 241.052 411.367 241.091 412.128 241.745C412.643 242.187 412.889 242.727 412.873 243.406C412.848 244.365 412.008 245.12 411.392 245.77C411.039 245.841 410.68 245.913 410.32 245.933C409.608 245.971 408.904 245.721 408.399 245.211C407.945 244.754 407.792 244.119 407.822 243.491C407.876 242.339 408.47 241.748 409.278 240.998Z" fill="#92BAFD"/>
<path d="M327.612 278.522C336.402 278.708 345.246 278.373 354.045 278.377L409.086 278.518L432.073 278.562C435.941 278.586 439.983 278.39 443.826 278.756C445.845 278.949 447.736 279.273 449.375 280.534C451.348 282.055 452.264 284.189 452.529 286.608C452.859 289.67 452.591 292.991 452.615 296.086C452.661 300.945 453.305 308.262 452.5 312.863C452.244 314.314 451.666 315.718 450.704 316.845C448.834 319.036 446.489 319.426 443.748 319.594C435.541 319.897 427.222 319.634 419.007 319.635L369.971 319.632L340.823 319.679C336.116 319.689 331.011 320.086 326.352 319.59C324.68 319.411 322.928 318.344 321.673 317.253C319.437 315.309 318.511 312.557 318.37 309.667C318.196 306.105 318.428 302.443 318.433 298.872C318.439 294.65 317.9 289.785 318.747 285.661C319.096 283.966 319.833 282.274 321.024 280.999C322.876 279.017 325.031 278.622 327.612 278.522Z" fill="#CDDFFE"/>
<path d="M326.858 307.841C336.399 307.916 345.941 307.935 355.483 307.899L355.505 312.496L326.855 312.487L326.858 307.841Z" fill="#AECEFE"/>
<path d="M422.768 290.967C423.87 291.142 437.49 299.043 438.369 300.077C437.515 301.294 434.055 302.791 432.66 303.355C431.723 304.618 424.42 308.286 422.611 309.311C423.503 306.479 423.16 294.477 422.768 290.967Z" fill="#92BAFD"/>
<path d="M326.671 289.539C340.591 289.958 354.621 289.619 368.554 289.634L368.534 294.032C354.649 294.509 340.557 293.983 326.652 293.948L326.671 289.539Z" fill="#AECEFE"/>
<path d="M326.605 298.456C334.794 298.739 343.051 298.563 351.247 298.568L394.982 298.564L394.958 303.187C372.211 303.481 349.426 303.221 326.676 303.197L326.605 298.456Z" fill="#AECEFE"/>
<path d="M319.807 151.027C332.31 151.257 344.803 150.877 357.3 150.874L432.675 150.975L459.232 150.991C464.859 150.968 471.006 150.469 476.559 151.361C480.935 152.065 484.407 154.111 487.474 157.293C490.021 159.936 493.171 164.539 493.043 168.41C493.031 168.666 492.961 168.861 492.87 169.098C493.563 170.98 493.848 210.519 493.196 212.393C494.05 215.302 493.481 221.868 493.481 225.114V251.203L493.142 378.751C493.13 379.714 493.233 380.771 492.754 381.642C492.713 381.718 492.659 381.788 492.614 381.861C484.591 381.92 476.567 381.938 468.542 381.914C464.331 381.92 459.984 381.756 455.789 382.097L306.764 382.131C306.858 379.69 307.221 376.556 306.613 374.198C312.845 373.813 319.326 374.166 325.58 374.176L362.505 374.189L481.381 374.341C481.509 374.119 481.612 373.975 481.694 373.738C482.351 371.861 481.876 337.252 481.88 332.501L481.876 227.968L481.901 188.845C481.897 182.308 482.194 175.607 481.847 169.086C481.818 168.498 481.698 168.066 481.438 167.536C471.386 167.201 461.243 167.453 451.178 167.461L393.179 167.566L239.715 167.423C240.074 167.082 240.442 166.752 240.794 166.403C244.733 162.493 246.123 156.41 246.13 151.047C263.773 150.698 281.507 151.111 299.162 151.128C306.024 151.134 312.957 151.351 319.807 151.027Z" fill="#5379BE"/>
<path d="M336.518 260.097V248.818H344.919V260.097H343.623V249.975H337.829V260.097H336.518ZM355.127 255.854C355.127 256.548 355.037 257.168 354.857 257.713C354.677 258.258 354.417 258.719 354.077 259.094C353.738 259.47 353.326 259.758 352.843 259.958C352.365 260.154 351.822 260.251 351.215 260.251C350.649 260.251 350.13 260.154 349.657 259.958C349.189 259.758 348.782 259.47 348.438 259.094C348.098 258.719 347.833 258.258 347.643 257.713C347.458 257.168 347.365 256.548 347.365 255.854C347.365 254.928 347.522 254.141 347.836 253.493C348.15 252.84 348.597 252.343 349.178 252.004C349.765 251.659 350.462 251.487 351.269 251.487C352.041 251.487 352.714 251.659 353.29 252.004C353.872 252.349 354.322 252.847 354.641 253.501C354.965 254.149 355.127 254.933 355.127 255.854ZM348.692 255.854C348.692 256.533 348.782 257.122 348.962 257.621C349.142 258.12 349.42 258.505 349.795 258.778C350.171 259.05 350.654 259.187 351.246 259.187C351.832 259.187 352.313 259.05 352.689 258.778C353.069 258.505 353.35 258.12 353.53 257.621C353.71 257.122 353.8 256.533 353.8 255.854C353.8 255.18 353.71 254.599 353.53 254.11C353.35 253.616 353.072 253.236 352.696 252.968C352.321 252.701 351.835 252.567 351.238 252.567C350.359 252.567 349.713 252.858 349.302 253.439C348.895 254.02 348.692 254.825 348.692 255.854ZM363.536 251.641V259.009H364.748V263.021H363.505V260.097H357.518V263.021H356.292V259.009H356.955C357.439 258.341 357.84 257.608 358.159 256.81C358.478 256.013 358.719 255.177 358.884 254.303C359.049 253.424 359.136 252.536 359.146 251.641H363.536ZM362.294 252.66H360.288C360.242 253.411 360.131 254.174 359.956 254.951C359.787 255.728 359.56 256.468 359.277 257.173C358.995 257.873 358.665 258.485 358.29 259.009H362.294V252.66ZM373.512 251.641V260.097H372.224V252.745H367.718V260.097H366.429V251.641H373.512ZM377.447 251.641V256.957C377.447 257.06 377.444 257.194 377.439 257.358C377.434 257.518 377.426 257.69 377.416 257.875C377.406 258.055 377.395 258.23 377.385 258.4C377.38 258.564 377.372 258.701 377.362 258.809L381.976 251.641H383.549V260.097H382.354V254.913C382.354 254.748 382.356 254.537 382.361 254.28C382.366 254.023 382.374 253.771 382.384 253.524C382.395 253.272 382.402 253.076 382.408 252.937L377.809 260.097H376.228V251.641H377.447ZM389.66 260.251C388.899 260.251 388.227 260.095 387.646 259.781C387.065 259.467 386.612 258.989 386.288 258.346C385.964 257.703 385.802 256.893 385.802 255.916C385.802 254.892 385.972 254.056 386.311 253.408C386.656 252.755 387.129 252.271 387.731 251.958C388.333 251.644 389.017 251.487 389.783 251.487C390.205 251.487 390.611 251.531 391.002 251.618C391.398 251.7 391.722 251.806 391.974 251.934L391.589 253.007C391.332 252.904 391.033 252.811 390.694 252.729C390.359 252.647 390.046 252.606 389.752 252.606C389.166 252.606 388.677 252.732 388.287 252.984C387.901 253.236 387.61 253.606 387.415 254.095C387.224 254.583 387.129 255.185 387.129 255.9C387.129 256.584 387.222 257.168 387.407 257.651C387.597 258.135 387.878 258.505 388.248 258.762C388.623 259.014 389.092 259.14 389.652 259.14C390.1 259.14 390.503 259.094 390.863 259.002C391.223 258.904 391.55 258.791 391.843 258.662V259.804C391.56 259.948 391.244 260.059 390.894 260.136C390.55 260.213 390.138 260.251 389.66 260.251ZM397.012 251.502C398.021 251.502 398.769 251.729 399.258 252.181C399.746 252.634 399.991 253.357 399.991 254.349V260.097H399.057L398.81 258.847H398.748C398.512 259.156 398.265 259.416 398.008 259.627C397.751 259.832 397.452 259.989 397.113 260.097C396.778 260.2 396.367 260.251 395.878 260.251C395.364 260.251 394.906 260.161 394.505 259.981C394.109 259.801 393.795 259.529 393.564 259.164C393.337 258.798 393.224 258.336 393.224 257.775C393.224 256.931 393.559 256.283 394.227 255.831C394.896 255.378 395.914 255.131 397.282 255.09L398.741 255.028V254.511C398.741 253.781 398.584 253.269 398.27 252.976C397.956 252.683 397.514 252.536 396.943 252.536C396.501 252.536 396.079 252.601 395.678 252.729C395.277 252.858 394.896 253.009 394.536 253.184L394.142 252.212C394.523 252.017 394.96 251.85 395.454 251.711C395.948 251.572 396.467 251.502 397.012 251.502ZM398.725 255.931L397.437 255.985C396.382 256.026 395.639 256.198 395.207 256.502C394.775 256.805 394.559 257.235 394.559 257.79C394.559 258.274 394.706 258.631 394.999 258.863C395.292 259.094 395.68 259.21 396.164 259.21C396.915 259.21 397.529 259.002 398.008 258.585C398.486 258.168 398.725 257.543 398.725 256.71V255.931ZM408.392 252.729H405.607V260.097H404.342V252.729H401.595V251.641H408.392V252.729ZM411.355 255.129H413.947C414.667 255.129 415.267 255.219 415.745 255.399C416.223 255.579 416.581 255.846 416.817 256.201C417.059 256.556 417.18 256.996 417.18 257.52C417.18 258.045 417.062 258.5 416.825 258.886C416.594 259.272 416.234 259.57 415.745 259.781C415.261 259.992 414.637 260.097 413.87 260.097H410.067V251.641H411.355V255.129ZM415.892 257.582C415.892 257.063 415.706 256.702 415.336 256.502C414.971 256.296 414.459 256.193 413.801 256.193H411.355V259.056H413.808C414.426 259.056 414.927 258.942 415.313 258.716C415.699 258.485 415.892 258.107 415.892 257.582ZM422.773 260.251C422.012 260.251 421.341 260.095 420.76 259.781C420.179 259.467 419.726 258.989 419.402 258.346C419.078 257.703 418.916 256.893 418.916 255.916C418.916 254.892 419.086 254.056 419.425 253.408C419.77 252.755 420.243 252.271 420.845 251.958C421.446 251.644 422.131 251.487 422.897 251.487C423.319 251.487 423.725 251.531 424.116 251.618C424.512 251.7 424.836 251.806 425.088 251.934L424.702 253.007C424.445 252.904 424.147 252.811 423.807 252.729C423.473 252.647 423.159 252.606 422.866 252.606C422.28 252.606 421.791 252.732 421.4 252.984C421.014 253.236 420.724 253.606 420.528 254.095C420.338 254.583 420.243 255.185 420.243 255.9C420.243 256.584 420.335 257.168 420.521 257.651C420.711 258.135 420.991 258.505 421.362 258.762C421.737 259.014 422.205 259.14 422.766 259.14C423.213 259.14 423.617 259.094 423.977 259.002C424.337 258.904 424.664 258.791 424.957 258.662V259.804C424.674 259.948 424.358 260.059 424.008 260.136C423.663 260.213 423.252 260.251 422.773 260.251ZM427.372 260.097H425.875L428.313 256.533C427.958 256.456 427.629 256.324 427.325 256.139C427.022 255.949 426.775 255.689 426.585 255.36C426.4 255.031 426.307 254.622 426.307 254.133C426.307 253.321 426.577 252.703 427.117 252.282C427.662 251.855 428.38 251.641 429.27 251.641H433.012V260.097H431.731V256.702H429.586L427.372 260.097ZM427.549 254.141C427.549 254.645 427.729 255.021 428.089 255.267C428.449 255.509 428.964 255.63 429.632 255.63H431.731V252.714H429.409C428.75 252.714 428.274 252.847 427.981 253.115C427.693 253.377 427.549 253.719 427.549 254.141Z" fill="#FAFCFF"/>
<path d="M323.133 53.8212H326.966C328.657 53.8212 329.928 54.0742 330.78 54.5803C331.632 55.0864 332.058 55.9475 332.058 57.1634C332.058 57.688 331.956 58.1602 331.752 58.5799C331.555 58.9934 331.265 59.336 330.882 59.6076C330.499 59.8791 330.027 60.0674 329.466 60.1723V60.2649C330.058 60.3575 330.583 60.5272 331.039 60.7741C331.496 61.021 331.854 61.3666 332.113 61.811C332.373 62.2554 332.502 62.8202 332.502 63.5053C332.502 64.3385 332.308 65.0421 331.919 65.6161C331.536 66.1902 330.993 66.6253 330.29 66.9216C329.586 67.2116 328.753 67.3567 327.79 67.3567H323.133V53.8212ZM324.707 59.6261H327.299C328.478 59.6261 329.293 59.4316 329.743 59.0428C330.2 58.654 330.428 58.0861 330.428 57.3393C330.428 56.5678 330.157 56.0123 329.614 55.6728C329.077 55.3333 328.219 55.1636 327.04 55.1636H324.707V59.6261ZM324.707 60.95V66.0142H327.521C328.725 66.0142 329.577 65.7797 330.077 65.3106C330.577 64.8354 330.826 64.1965 330.826 63.3942C330.826 62.8819 330.712 62.4437 330.484 62.0795C330.262 61.7153 329.898 61.4376 329.391 61.2463C328.892 61.0487 328.222 60.95 327.382 60.95H324.707ZM339.224 67.5419C338.31 67.5419 337.505 67.3536 336.807 66.9771C336.11 66.6006 335.567 66.0266 335.178 65.2551C334.789 64.4836 334.595 63.5114 334.595 62.3387C334.595 61.1105 334.798 60.1075 335.206 59.3298C335.619 58.5459 336.187 57.9658 336.909 57.5893C337.631 57.2128 338.452 57.0245 339.372 57.0245C339.878 57.0245 340.366 57.077 340.835 57.1819C341.31 57.2806 341.699 57.4072 342.001 57.5615L341.538 58.8484C341.23 58.7249 340.872 58.6138 340.464 58.5151C340.063 58.4163 339.687 58.3669 339.335 58.3669C338.631 58.3669 338.045 58.5182 337.576 58.8206C337.113 59.123 336.764 59.5674 336.53 60.1538C336.301 60.7401 336.187 61.4623 336.187 62.3202C336.187 63.1411 336.298 63.8416 336.52 64.4218C336.749 65.002 337.085 65.4464 337.529 65.755C337.98 66.0575 338.542 66.2087 339.214 66.2087C339.751 66.2087 340.236 66.1531 340.668 66.042C341.1 65.9247 341.492 65.789 341.844 65.6347V67.0049C341.504 67.1777 341.125 67.3104 340.705 67.403C340.291 67.4956 339.798 67.5419 339.224 67.5419ZM348.158 57.0245C349.022 57.0245 349.763 57.2158 350.38 57.5985C350.997 57.9812 351.469 58.5182 351.796 59.2094C352.124 59.8946 352.287 60.6969 352.287 61.6166V62.5702H345.279C345.297 63.7614 345.593 64.6687 346.167 65.2921C346.741 65.9155 347.55 66.2272 348.593 66.2272C349.235 66.2272 349.803 66.1685 350.297 66.0513C350.79 65.934 351.303 65.7612 351.833 65.5328V66.8845C351.321 67.1129 350.812 67.2795 350.306 67.3845C349.806 67.4894 349.213 67.5419 348.528 67.5419C347.553 67.5419 346.701 67.3443 345.973 66.9493C345.251 66.5481 344.689 65.9618 344.288 65.1903C343.887 64.4187 343.686 63.4744 343.686 62.3572C343.686 61.2648 343.868 60.3204 344.232 59.5242C344.603 58.7218 345.121 58.1046 345.788 57.6726C346.461 57.2405 347.251 57.0245 348.158 57.0245ZM348.139 58.2836C347.318 58.2836 346.664 58.5521 346.177 59.0891C345.689 59.6261 345.399 60.376 345.306 61.3388H350.676C350.67 60.734 350.574 60.2032 350.389 59.7464C350.21 59.2835 349.935 58.9255 349.565 58.6725C349.195 58.4132 348.72 58.2836 348.139 58.2836ZM363.888 67.5419C362.974 67.5419 362.169 67.3536 361.471 66.9771C360.774 66.6006 360.231 66.0266 359.842 65.2551C359.453 64.4836 359.259 63.5114 359.259 62.3387C359.259 61.1105 359.462 60.1075 359.87 59.3298C360.283 58.5459 360.851 57.9658 361.573 57.5893C362.295 57.2128 363.116 57.0245 364.036 57.0245C364.542 57.0245 365.029 57.077 365.499 57.1819C365.974 57.2806 366.363 57.4072 366.665 57.5615L366.202 58.8484C365.894 58.7249 365.536 58.6138 365.128 58.5151C364.727 58.4163 364.351 58.3669 363.999 58.3669C363.295 58.3669 362.709 58.5182 362.24 58.8206C361.777 59.123 361.428 59.5674 361.193 60.1538C360.965 60.7401 360.851 61.4623 360.851 62.3202C360.851 63.1411 360.962 63.8416 361.184 64.4218C361.413 65.002 361.749 65.4464 362.193 65.755C362.644 66.0575 363.206 66.2087 363.878 66.2087C364.415 66.2087 364.9 66.1531 365.332 66.042C365.764 65.9247 366.156 65.789 366.508 65.6347V67.0049C366.168 67.1777 365.789 67.3104 365.369 67.403C364.955 67.4956 364.462 67.5419 363.888 67.5419ZM376.979 59.7557C376.979 60.3914 376.794 60.8883 376.423 61.2463C376.053 61.5981 375.575 61.8357 374.988 61.9591V62.0332C375.624 62.1196 376.17 62.348 376.627 62.7183C377.09 63.0825 377.321 63.6411 377.321 64.3941C377.321 64.9742 377.182 65.4865 376.905 65.9309C376.627 66.3753 376.192 66.724 375.599 66.9771C375.007 67.2302 374.235 67.3567 373.285 67.3567H368.915V57.2097H373.248C373.976 57.2097 374.618 57.293 375.173 57.4596C375.735 57.6201 376.176 57.8855 376.497 58.2558C376.818 58.6262 376.979 59.1261 376.979 59.7557ZM375.72 64.3941C375.72 63.7954 375.491 63.3633 375.035 63.0979C374.584 62.8325 373.927 62.6998 373.063 62.6998H370.461V66.1068H373.1C373.951 66.1068 374.599 65.9772 375.044 65.718C375.494 65.4526 375.72 65.0113 375.72 64.3941ZM375.414 59.9316C375.414 59.4502 375.238 59.0922 374.886 58.8576C374.535 58.6169 373.957 58.4966 373.155 58.4966H370.461V61.4129H372.887C373.72 61.4129 374.349 61.2925 374.775 61.0518C375.201 60.8111 375.414 60.4377 375.414 59.9316ZM383.709 57.0245C384.574 57.0245 385.314 57.2158 385.931 57.5985C386.549 57.9812 387.021 58.5182 387.348 59.2094C387.675 59.8946 387.839 60.6969 387.839 61.6166V62.5702H380.83C380.849 63.7614 381.145 64.6687 381.719 65.2921C382.293 65.9155 383.102 66.2272 384.145 66.2272C384.787 66.2272 385.354 66.1685 385.848 66.0513C386.342 65.934 386.854 65.7612 387.385 65.5328V66.8845C386.873 67.1129 386.364 67.2795 385.857 67.3845C385.357 67.4894 384.765 67.5419 384.08 67.5419C383.105 67.5419 382.253 67.3443 381.525 66.9493C380.802 66.5481 380.241 65.9618 379.84 65.1903C379.438 64.4187 379.238 63.4744 379.238 62.3572C379.238 61.2648 379.42 60.3204 379.784 59.5242C380.154 58.7218 380.673 58.1046 381.339 57.6726C382.012 57.2405 382.802 57.0245 383.709 57.0245ZM383.691 58.2836C382.87 58.2836 382.216 58.5521 381.728 59.0891C381.241 59.6261 380.951 60.376 380.858 61.3388H386.228C386.222 60.734 386.126 60.2032 385.941 59.7464C385.762 59.2835 385.487 58.9255 385.117 58.6725C384.746 58.4132 384.271 58.2836 383.691 58.2836ZM402.337 57.2097L398.115 62.1443L402.698 67.3567H400.939L396.495 62.2091V67.3567H395.06V62.2091L390.625 67.3567H388.866L393.449 62.1443L389.218 57.2097H390.912L395.06 62.135V57.2097H396.495V62.135L400.661 57.2097H402.337ZM405.855 57.2097V63.5886C405.855 63.712 405.852 63.8725 405.846 64.07C405.84 64.2614 405.83 64.4681 405.818 64.6903C405.806 64.9063 405.793 65.1162 405.781 65.3199C405.775 65.5174 405.766 65.6809 405.753 65.8106L411.29 57.2097H413.178V67.3567H411.743V61.1352C411.743 60.9376 411.747 60.6846 411.753 60.376C411.759 60.0674 411.768 59.7649 411.78 59.4687C411.793 59.1662 411.802 58.9317 411.808 58.7651L406.29 67.3567H404.392V57.2097H405.855ZM420.354 57.0245C421.218 57.0245 421.958 57.2158 422.576 57.5985C423.193 57.9812 423.665 58.5182 423.992 59.2094C424.319 59.8946 424.483 60.6969 424.483 61.6166V62.5702H417.474C417.493 63.7614 417.789 64.6687 418.363 65.2921C418.937 65.9155 419.746 66.2272 420.789 66.2272C421.431 66.2272 421.998 66.1685 422.492 66.0513C422.986 65.934 423.498 65.7612 424.029 65.5328V66.8845C423.517 67.1129 423.008 67.2795 422.501 67.3845C422.002 67.4894 421.409 67.5419 420.724 67.5419C419.749 67.5419 418.897 67.3443 418.169 66.9493C417.446 66.5481 416.885 65.9618 416.484 65.1903C416.082 64.4187 415.882 63.4744 415.882 62.3572C415.882 61.2648 416.064 60.3204 416.428 59.5242C416.798 58.7218 417.317 58.1046 417.983 57.6726C418.656 57.2405 419.446 57.0245 420.354 57.0245ZM420.335 58.2836C419.514 58.2836 418.86 58.5521 418.372 59.0891C417.885 59.6261 417.595 60.376 417.502 61.3388H422.872C422.866 60.734 422.77 60.2032 422.585 59.7464C422.406 59.2835 422.131 58.9255 421.761 58.6725C421.39 58.4132 420.915 58.2836 420.335 58.2836ZM433.565 57.2097V61.4685H439.222V57.2097H440.759V67.3567H439.222V62.7739H433.565V67.3567H432.019V57.2097H433.565ZM452.767 62.2647C452.767 63.0979 452.659 63.8416 452.443 64.4959C452.227 65.1501 451.915 65.7026 451.508 66.1531C451.1 66.6037 450.606 66.9493 450.026 67.19C449.452 67.4246 448.801 67.5419 448.073 67.5419C447.394 67.5419 446.77 67.4246 446.203 67.19C445.641 66.9493 445.153 66.6037 444.74 66.1531C444.332 65.7026 444.015 65.1501 443.786 64.4959C443.564 63.8416 443.453 63.0979 443.453 62.2647C443.453 61.1537 443.641 60.2093 444.018 59.4316C444.394 58.6478 444.931 58.0522 445.629 57.6448C446.332 57.2313 447.168 57.0245 448.138 57.0245C449.063 57.0245 449.872 57.2313 450.563 57.6448C451.261 58.0583 451.801 58.657 452.183 59.4409C452.572 60.2186 452.767 61.1598 452.767 62.2647ZM445.045 62.2647C445.045 63.0794 445.153 63.7861 445.369 64.3848C445.585 64.9835 445.919 65.4464 446.369 65.7735C446.82 66.1007 447.4 66.2642 448.11 66.2642C448.813 66.2642 449.39 66.1007 449.841 65.7735C450.298 65.4464 450.634 64.9835 450.85 64.3848C451.066 63.7861 451.174 63.0794 451.174 62.2647C451.174 61.4561 451.066 60.7587 450.85 60.1723C450.634 59.5798 450.301 59.123 449.85 58.8021C449.4 58.4811 448.816 58.3207 448.1 58.3207C447.045 58.3207 446.27 58.6694 445.777 59.3668C445.289 60.0643 445.045 61.0302 445.045 62.2647ZM463.488 59.7557C463.488 60.3914 463.303 60.8883 462.932 61.2463C462.562 61.5981 462.084 61.8357 461.497 61.9591V62.0332C462.133 62.1196 462.679 62.348 463.136 62.7183C463.599 63.0825 463.83 63.6411 463.83 64.3941C463.83 64.9742 463.691 65.4865 463.414 65.9309C463.136 66.3753 462.701 66.724 462.108 66.9771C461.516 67.2302 460.744 67.3567 459.794 67.3567H455.424V57.2097H459.757C460.485 57.2097 461.127 57.293 461.682 57.4596C462.244 57.6201 462.685 57.8855 463.006 58.2558C463.327 58.6262 463.488 59.1261 463.488 59.7557ZM462.229 64.3941C462.229 63.7954 462 63.3633 461.543 63.0979C461.093 62.8325 460.436 62.6998 459.571 62.6998H456.97V66.1068H459.608C460.46 66.1068 461.108 65.9772 461.553 65.718C462.003 65.4526 462.229 65.0113 462.229 64.3941ZM461.923 59.9316C461.923 59.4502 461.747 59.0922 461.395 58.8576C461.043 58.6169 460.466 58.4966 459.664 58.4966H456.97V61.4129H459.396C460.229 61.4129 460.858 61.2925 461.284 61.0518C461.71 60.8111 461.923 60.4377 461.923 59.9316ZM475.06 62.2647C475.06 63.0979 474.952 63.8416 474.736 64.4959C474.52 65.1501 474.209 65.7026 473.801 66.1531C473.394 66.6037 472.9 66.9493 472.32 67.19C471.746 67.4246 471.095 67.5419 470.367 67.5419C469.688 67.5419 469.064 67.4246 468.496 67.19C467.935 66.9493 467.447 66.6037 467.034 66.1531C466.626 65.7026 466.308 65.1501 466.08 64.4959C465.858 63.8416 465.747 63.0979 465.747 62.2647C465.747 61.1537 465.935 60.2093 466.311 59.4316C466.688 58.6478 467.225 58.0522 467.922 57.6448C468.626 57.2313 469.462 57.0245 470.431 57.0245C471.357 57.0245 472.166 57.2313 472.857 57.6448C473.554 58.0583 474.095 58.657 474.477 59.4409C474.866 60.2186 475.06 61.1598 475.06 62.2647ZM467.339 62.2647C467.339 63.0794 467.447 63.7861 467.663 64.3848C467.879 64.9835 468.212 65.4464 468.663 65.7735C469.114 66.1007 469.694 66.2642 470.404 66.2642C471.107 66.2642 471.684 66.1007 472.135 65.7735C472.592 65.4464 472.928 64.9835 473.144 64.3848C473.36 63.7861 473.468 63.0794 473.468 62.2647C473.468 61.4561 473.36 60.7587 473.144 60.1723C472.928 59.5798 472.595 59.123 472.144 58.8021C471.694 58.4811 471.11 58.3207 470.394 58.3207C469.339 58.3207 468.564 58.6694 468.07 59.3668C467.583 60.0643 467.339 61.0302 467.339 62.2647ZM481.782 67.5419C480.868 67.5419 480.063 67.3536 479.366 66.9771C478.668 66.6006 478.125 66.0266 477.736 65.2551C477.347 64.4836 477.153 63.5114 477.153 62.3387C477.153 61.1105 477.357 60.1075 477.764 59.3298C478.177 58.5459 478.745 57.9658 479.467 57.5893C480.19 57.2128 481.01 57.0245 481.93 57.0245C482.436 57.0245 482.924 57.077 483.393 57.1819C483.868 57.2806 484.257 57.4072 484.559 57.5615L484.096 58.8484C483.788 58.7249 483.43 58.6138 483.023 58.5151C482.621 58.4163 482.245 58.3669 481.893 58.3669C481.189 58.3669 480.603 58.5182 480.134 58.8206C479.671 59.123 479.322 59.5674 479.088 60.1538C478.859 60.7401 478.745 61.4623 478.745 62.3202C478.745 63.1411 478.856 63.8416 479.079 64.4218C479.307 65.002 479.643 65.4464 480.088 65.755C480.538 66.0575 481.1 66.2087 481.773 66.2087C482.31 66.2087 482.794 66.1531 483.226 66.042C483.658 65.9247 484.05 65.789 484.402 65.6347V67.0049C484.063 67.1777 483.683 67.3104 483.263 67.403C482.85 67.4956 482.356 67.5419 481.782 67.5419ZM493.725 58.5151H490.383V67.3567H488.864V58.5151H485.569V57.2097H493.725V58.5151ZM497.197 57.2097V63.5886C497.197 63.712 497.194 63.8725 497.188 64.07C497.181 64.2614 497.172 64.4681 497.16 64.6903C497.148 64.9063 497.135 65.1162 497.123 65.3199C497.117 65.5174 497.107 65.6809 497.095 65.8106L502.631 57.2097H504.52V67.3567H503.085V61.1352C503.085 60.9376 503.088 60.6846 503.094 60.376C503.101 60.0674 503.11 59.7649 503.122 59.4687C503.134 59.1662 503.144 58.9317 503.15 58.7651L497.632 67.3567H495.734V57.2097H497.197ZM330.965 85.7557C330.965 86.3914 330.78 86.8883 330.41 87.2463C330.04 87.5981 329.561 87.8357 328.975 87.9591V88.0332C329.611 88.1196 330.157 88.348 330.614 88.7183C331.076 89.0825 331.308 89.6411 331.308 90.3941C331.308 90.9742 331.169 91.4865 330.891 91.9309C330.614 92.3753 330.178 92.724 329.586 92.9771C328.993 93.2302 328.222 93.3567 327.271 93.3567H322.901V83.2097H327.234C327.963 83.2097 328.605 83.293 329.16 83.4596C329.722 83.6201 330.163 83.8855 330.484 84.2558C330.805 84.6262 330.965 85.1261 330.965 85.7557ZM329.706 90.3941C329.706 89.7954 329.478 89.3633 329.021 89.0979C328.571 88.8325 327.913 88.6998 327.049 88.6998H324.448V92.1068H327.086C327.938 92.1068 328.586 91.9772 329.03 91.718C329.481 91.4526 329.706 91.0113 329.706 90.3941ZM329.401 85.9316C329.401 85.4502 329.225 85.0922 328.873 84.8576C328.521 84.6169 327.944 84.4966 327.142 84.4966H324.448V87.4129H326.873C327.706 87.4129 328.336 87.2925 328.762 87.0518C329.188 86.8111 329.401 86.4377 329.401 85.9316ZM340.261 83.2097V87.4685H345.917V83.2097H347.454V93.3567H345.917V88.7739H340.261V93.3567H338.714V83.2097H340.261ZM354.509 83.043C355.719 83.043 356.617 83.3146 357.203 83.8577C357.79 84.4009 358.083 85.2681 358.083 86.4593V93.3567H356.962L356.666 91.8569H356.592C356.308 92.2272 356.012 92.5389 355.703 92.7919C355.395 93.0388 355.037 93.2271 354.629 93.3567C354.228 93.4801 353.734 93.5419 353.148 93.5419C352.531 93.5419 351.982 93.4338 351.5 93.2178C351.025 93.0018 350.648 92.6747 350.371 92.2364C350.099 91.7982 349.963 91.2427 349.963 90.57C349.963 89.5577 350.364 88.78 351.167 88.2369C351.969 87.6937 353.191 87.3975 354.833 87.3481L356.583 87.274V86.6537C356.583 85.7773 356.395 85.1632 356.018 84.8113C355.642 84.4595 355.111 84.2836 354.426 84.2836C353.895 84.2836 353.389 84.3608 352.907 84.5151C352.426 84.6694 351.969 84.8515 351.537 85.0613L351.065 83.8948C351.522 83.6602 352.046 83.4596 352.639 83.293C353.231 83.1263 353.855 83.043 354.509 83.043ZM356.564 88.3572L355.018 88.4221C353.753 88.4714 352.861 88.6782 352.343 89.0424C351.824 89.4065 351.565 89.9219 351.565 90.5885C351.565 91.1687 351.741 91.5976 352.093 91.8754C352.444 92.1531 352.91 92.292 353.491 92.292C354.392 92.292 355.129 92.042 355.703 91.5421C356.277 91.0421 356.564 90.2922 356.564 89.2923V88.3572ZM374.859 83.2097V93.3567H361.249V83.2097H362.786V92.0513H367.276V83.2097H368.822V92.0513H373.322V83.2097H374.859ZM382.025 83.0245C382.889 83.0245 383.629 83.2158 384.246 83.5985C384.864 83.9812 385.336 84.5182 385.663 85.2094C385.99 85.8946 386.154 86.6969 386.154 87.6166V88.5702H379.145C379.164 89.7614 379.46 90.6687 380.034 91.2921C380.608 91.9155 381.417 92.2272 382.46 92.2272C383.102 92.2272 383.669 92.1685 384.163 92.0513C384.657 91.934 385.169 91.7612 385.7 91.5328V92.8845C385.188 93.1129 384.679 93.2795 384.172 93.3845C383.672 93.4894 383.08 93.5419 382.395 93.5419C381.42 93.5419 380.568 93.3443 379.84 92.9493C379.117 92.5481 378.556 91.9618 378.155 91.1903C377.753 90.4187 377.553 89.4744 377.553 88.3572C377.553 87.2648 377.735 86.3204 378.099 85.5242C378.469 84.7218 378.988 84.1046 379.654 83.6726C380.327 83.2405 381.117 83.0245 382.025 83.0245ZM382.006 84.2836C381.185 84.2836 380.531 84.5521 380.043 85.0891C379.556 85.6261 379.266 86.376 379.173 87.3388H384.543C384.537 86.734 384.441 86.2032 384.256 85.7464C384.077 85.2835 383.802 84.9255 383.432 84.6725C383.061 84.4132 382.586 84.2836 382.006 84.2836ZM399.476 83.2097V93.3567H398.088V86.7463C398.088 86.4747 398.094 86.2001 398.106 85.9223C398.125 85.6384 398.146 85.3545 398.171 85.0706H398.115L394.745 93.3567H393.44L390.153 85.0706H390.098C390.116 85.3545 390.129 85.6384 390.135 85.9223C390.147 86.2001 390.153 86.4933 390.153 86.8019V93.3567H388.755V83.2097H390.82L394.097 91.505L397.421 83.2097H399.476ZM414.512 84.5151H411.169V93.3567H409.651V84.5151H406.355V83.2097H414.512V84.5151ZM420.428 83.0245C421.292 83.0245 422.032 83.2158 422.65 83.5985C423.267 83.9812 423.739 84.5182 424.066 85.2094C424.393 85.8946 424.557 86.6969 424.557 87.6166V88.5702H417.548C417.567 89.7614 417.863 90.6687 418.437 91.2921C419.011 91.9155 419.82 92.2272 420.863 92.2272C421.505 92.2272 422.073 92.1685 422.566 92.0513C423.06 91.934 423.572 91.7612 424.103 91.5328V92.8845C423.591 93.1129 423.082 93.2795 422.576 93.3845C422.076 93.4894 421.483 93.5419 420.798 93.5419C419.823 93.5419 418.971 93.3443 418.243 92.9493C417.521 92.5481 416.959 91.9618 416.558 91.1903C416.157 90.4187 415.956 89.4744 415.956 88.3572C415.956 87.2648 416.138 86.3204 416.502 85.5242C416.872 84.7218 417.391 84.1046 418.058 83.6726C418.73 83.2405 419.52 83.0245 420.428 83.0245ZM420.409 84.2836C419.588 84.2836 418.934 84.5521 418.446 85.0891C417.959 85.6261 417.669 86.376 417.576 87.3388H422.946C422.94 86.734 422.844 86.2032 422.659 85.7464C422.48 85.2835 422.205 84.9255 421.835 84.6725C421.465 84.4132 420.989 84.2836 420.409 84.2836ZM434.778 93.3567H433.213V84.4966H430.13C430.007 86.0952 429.849 87.4654 429.658 88.6072C429.473 89.7429 429.238 90.6718 428.954 91.3939C428.677 92.1099 428.337 92.6376 427.936 92.9771C427.541 93.3104 427.069 93.477 426.52 93.477C426.353 93.477 426.196 93.4678 426.047 93.4493C425.899 93.4308 425.773 93.3999 425.668 93.3567V92.1902C425.748 92.2148 425.831 92.2334 425.918 92.2457C426.01 92.258 426.106 92.2642 426.205 92.2642C426.483 92.2642 426.736 92.15 426.964 91.9217C427.198 91.6871 427.408 91.3353 427.594 90.8662C427.785 90.3971 427.955 89.8046 428.103 89.0886C428.251 88.3665 428.38 87.5178 428.492 86.5426C428.609 85.5613 428.711 84.4503 428.797 83.2097H434.778V93.3567ZM441.925 83.0245C442.789 83.0245 443.53 83.2158 444.147 83.5985C444.764 83.9812 445.237 84.5182 445.564 85.2094C445.891 85.8946 446.054 86.6969 446.054 87.6166V88.5702H439.046C439.064 89.7614 439.361 90.6687 439.935 91.2921C440.509 91.9155 441.317 92.2272 442.36 92.2272C443.002 92.2272 443.57 92.1685 444.064 92.0513C444.558 91.934 445.07 91.7612 445.601 91.5328V92.8845C445.088 93.1129 444.579 93.2795 444.073 93.3845C443.573 93.4894 442.981 93.5419 442.296 93.5419C441.32 93.5419 440.469 93.3443 439.74 92.9493C439.018 92.5481 438.456 91.9618 438.055 91.1903C437.654 90.4187 437.454 89.4744 437.454 88.3572C437.454 87.2648 437.636 86.3204 438 85.5242C438.37 84.7218 438.889 84.1046 439.555 83.6726C440.228 83.2405 441.018 83.0245 441.925 83.0245ZM441.907 84.2836C441.086 84.2836 440.432 84.5521 439.944 85.0891C439.456 85.6261 439.166 86.376 439.074 87.3388H444.443C444.437 86.734 444.342 86.2032 444.156 85.7464C443.977 85.2835 443.703 84.9255 443.333 84.6725C442.962 84.4132 442.487 84.2836 441.907 84.2836ZM454.822 83.2097V84.5151H450.211V93.3567H448.665V83.2097H454.822ZM461.618 83.0245C462.883 83.0245 463.892 83.4596 464.645 84.3299C465.398 85.2002 465.774 86.5087 465.774 88.2554C465.774 89.4096 465.602 90.3786 465.256 91.1625C464.91 91.9464 464.423 92.5389 463.793 92.9401C463.17 93.3413 462.432 93.5419 461.58 93.5419C461.043 93.5419 460.571 93.4709 460.164 93.3289C459.757 93.187 459.408 92.9956 459.118 92.7549C458.828 92.5142 458.587 92.2519 458.396 91.968H458.285C458.303 92.2087 458.325 92.4988 458.349 92.8382C458.38 93.1777 458.396 93.474 458.396 93.727V97.8932H456.85V83.2097H458.118L458.322 84.7095H458.396C458.593 84.4009 458.834 84.1201 459.118 83.867C459.402 83.6078 459.747 83.4041 460.155 83.256C460.568 83.1017 461.056 83.0245 461.618 83.0245ZM461.349 84.3207C460.645 84.3207 460.078 84.4564 459.646 84.728C459.22 84.9996 458.908 85.407 458.71 85.9501C458.513 86.4871 458.408 87.1629 458.396 87.9777V88.2739C458.396 89.1319 458.488 89.8571 458.673 90.4496C458.865 91.0421 459.176 91.4927 459.608 91.8013C460.047 92.1099 460.633 92.2642 461.368 92.2642C461.997 92.2642 462.522 92.0945 462.941 91.755C463.361 91.4155 463.673 90.9434 463.877 90.3385C464.086 89.7275 464.191 89.0269 464.191 88.2369C464.191 87.0395 463.957 86.089 463.488 85.3854C463.025 84.6756 462.312 84.3207 461.349 84.3207ZM472.255 83.043C473.465 83.043 474.363 83.3146 474.949 83.8577C475.536 84.4009 475.829 85.2681 475.829 86.4593V93.3567H474.709L474.412 91.8569H474.338C474.054 92.2272 473.758 92.5389 473.45 92.7919C473.141 93.0388 472.783 93.2271 472.376 93.3567C471.974 93.4801 471.481 93.5419 470.894 93.5419C470.277 93.5419 469.728 93.4338 469.246 93.2178C468.771 93.0018 468.395 92.6747 468.117 92.2364C467.845 91.7982 467.709 91.2427 467.709 90.57C467.709 89.5577 468.111 88.78 468.913 88.2369C469.715 87.6937 470.937 87.3975 472.579 87.3481L474.329 87.274V86.6537C474.329 85.7773 474.141 85.1632 473.764 84.8113C473.388 84.4595 472.857 84.2836 472.172 84.2836C471.641 84.2836 471.135 84.3608 470.654 84.5151C470.172 84.6694 469.715 84.8515 469.283 85.0613L468.811 83.8948C469.268 83.6602 469.793 83.4596 470.385 83.293C470.978 83.1263 471.601 83.043 472.255 83.043ZM474.311 88.3572L472.764 88.4221C471.499 88.4714 470.607 88.6782 470.089 89.0424C469.57 89.4065 469.311 89.9219 469.311 90.5885C469.311 91.1687 469.487 91.5976 469.839 91.8754C470.191 92.1531 470.657 92.292 471.237 92.292C472.138 92.292 472.876 92.042 473.45 91.5421C474.024 91.0421 474.311 90.2922 474.311 89.2923V88.3572ZM489.707 83.2097V93.3567H488.318V86.7463C488.318 86.4747 488.324 86.2001 488.337 85.9223C488.355 85.6384 488.377 85.3545 488.402 85.0706H488.346L484.976 93.3567H483.671L480.384 85.0706H480.328C480.347 85.3545 480.359 85.6384 480.365 85.9223C480.378 86.2001 480.384 86.4933 480.384 86.8019V93.3567H478.986V83.2097H481.051L484.328 91.505L487.652 83.2097H489.707ZM492.04 88.9498V87.5796H496.632V88.9498H492.04ZM504.928 83.2097H506.622L502.243 88.1073L506.974 93.3567H505.168L500.558 88.2091V93.3567H499.012V83.2097H500.558V88.135L504.928 83.2097ZM512.603 83.043C513.812 83.043 514.71 83.3146 515.297 83.8577C515.883 84.4009 516.176 85.2681 516.176 86.4593V93.3567H515.056L514.76 91.8569H514.686C514.402 92.2272 514.105 92.5389 513.797 92.7919C513.488 93.0388 513.13 93.2271 512.723 93.3567C512.322 93.4801 511.828 93.5419 511.242 93.5419C510.624 93.5419 510.075 93.4338 509.594 93.2178C509.118 93.0018 508.742 92.6747 508.464 92.2364C508.193 91.7982 508.057 91.2427 508.057 90.57C508.057 89.5577 508.458 88.78 509.26 88.2369C510.063 87.6937 511.285 87.3975 512.927 87.3481L514.676 87.274V86.6537C514.676 85.7773 514.488 85.1632 514.112 84.8113C513.735 84.4595 513.204 84.2836 512.519 84.2836C511.988 84.2836 511.482 84.3608 511.001 84.5151C510.519 84.6694 510.063 84.8515 509.631 85.0613L509.159 83.8948C509.615 83.6602 510.14 83.4596 510.732 83.293C511.325 83.1263 511.948 83.043 512.603 83.043ZM514.658 88.3572L513.112 88.4221C511.846 88.4714 510.955 88.6782 510.436 89.0424C509.918 89.4065 509.658 89.9219 509.658 90.5885C509.658 91.1687 509.834 91.5976 510.186 91.8754C510.538 92.1531 511.004 92.292 511.584 92.292C512.485 92.292 513.223 92.042 513.797 91.5421C514.371 91.0421 514.658 90.2922 514.658 89.2923V88.3572ZM520.889 83.2097V87.4685H526.545V83.2097H528.082V93.3567H526.545V88.7739H520.889V93.3567H519.343V83.2097H520.889ZM535.137 83.043C536.347 83.043 537.245 83.3146 537.831 83.8577C538.418 84.4009 538.711 85.2681 538.711 86.4593V93.3567H537.591L537.294 91.8569H537.22C536.936 92.2272 536.64 92.5389 536.331 92.7919C536.023 93.0388 535.665 93.2271 535.257 93.3567C534.856 93.4801 534.363 93.5419 533.776 93.5419C533.159 93.5419 532.61 93.4338 532.128 93.2178C531.653 93.0018 531.276 92.6747 530.999 92.2364C530.727 91.7982 530.591 91.2427 530.591 90.57C530.591 89.5577 530.993 88.78 531.795 88.2369C532.597 87.6937 533.819 87.3975 535.461 87.3481L537.211 87.274V86.6537C537.211 85.7773 537.023 85.1632 536.646 84.8113C536.27 84.4595 535.739 84.2836 535.054 84.2836C534.523 84.2836 534.017 84.3608 533.535 84.5151C533.054 84.6694 532.597 84.8515 532.165 85.0613L531.693 83.8948C532.15 83.6602 532.674 83.4596 533.267 83.293C533.859 83.1263 534.483 83.043 535.137 83.043ZM537.192 88.3572L535.646 88.4221C534.381 88.4714 533.489 88.6782 532.971 89.0424C532.452 89.4065 532.193 89.9219 532.193 90.5885C532.193 91.1687 532.369 91.5976 532.721 91.8754C533.073 92.1531 533.539 92.292 534.119 92.292C535.02 92.292 535.757 92.042 536.331 91.5421C536.905 91.0421 537.192 90.2922 537.192 89.2923V88.3572ZM549.487 93.3567H547.923V84.4966H544.84C544.716 86.0952 544.559 87.4654 544.368 88.6072C544.182 89.7429 543.948 90.6718 543.664 91.3939C543.386 92.1099 543.047 92.6376 542.646 92.9771C542.251 93.3104 541.778 93.477 541.229 93.477C541.062 93.477 540.905 93.4678 540.757 93.4493C540.609 93.4308 540.482 93.3999 540.377 93.3567V92.1902C540.458 92.2148 540.541 92.2334 540.627 92.2457C540.72 92.258 540.815 92.2642 540.914 92.2642C541.192 92.2642 541.445 92.15 541.673 91.9217C541.908 91.6871 542.118 91.3353 542.303 90.8662C542.494 90.3971 542.664 89.8046 542.812 89.0886C542.96 88.3665 543.09 87.5178 543.201 86.5426C543.318 85.5613 543.42 84.4503 543.507 83.2097H549.487V93.3567ZM556.635 83.0245C557.499 83.0245 558.239 83.2158 558.857 83.5985C559.474 83.9812 559.946 84.5182 560.273 85.2094C560.6 85.8946 560.764 86.6969 560.764 87.6166V88.5702H553.755C553.774 89.7614 554.07 90.6687 554.644 91.2921C555.218 91.9155 556.027 92.2272 557.07 92.2272C557.712 92.2272 558.28 92.1685 558.773 92.0513C559.267 91.934 559.779 91.7612 560.31 91.5328V92.8845C559.798 93.1129 559.289 93.2795 558.783 93.3845C558.283 93.4894 557.69 93.5419 557.005 93.5419C556.03 93.5419 555.178 93.3443 554.45 92.9493C553.728 92.5481 553.166 91.9618 552.765 91.1903C552.364 90.4187 552.163 89.4744 552.163 88.3572C552.163 87.2648 552.345 86.3204 552.709 85.5242C553.08 84.7218 553.598 84.1046 554.265 83.6726C554.937 83.2405 555.727 83.0245 556.635 83.0245ZM556.616 84.2836C555.795 84.2836 555.141 84.5521 554.653 85.0891C554.166 85.6261 553.876 86.376 553.783 87.3388H559.153C559.147 86.734 559.051 86.2032 558.866 85.7464C558.687 85.2835 558.412 84.9255 558.042 84.6725C557.672 84.4132 557.196 84.2836 556.616 84.2836Z" fill="#FAFCFF"/>
<path d="M251.542 202.626L248.849 208.623C248.615 209.151 248.377 209.593 248.136 209.947C247.894 210.302 247.608 210.568 247.276 210.745C246.944 210.922 246.523 211.011 246.014 211.011C245.795 211.011 245.592 210.994 245.403 210.96C245.218 210.93 245.052 210.89 244.905 210.841V209.885C245.056 209.957 245.218 210.013 245.392 210.055C245.569 210.092 245.756 210.111 245.952 210.111C246.242 210.111 246.491 210.068 246.699 209.981C246.906 209.891 247.089 209.749 247.248 209.557C247.406 209.361 247.557 209.102 247.7 208.782L244.509 202.626H245.562L247.915 207.248C247.945 207.305 247.977 207.371 248.011 207.446C248.045 207.518 248.079 207.594 248.113 207.673C248.147 207.748 248.177 207.824 248.204 207.899H248.243C248.266 207.842 248.291 207.776 248.317 207.701C248.347 207.626 248.377 207.55 248.407 207.475C248.438 207.399 248.464 207.335 248.487 207.282L250.518 202.626H251.542ZM258.608 210.898H257.443L253.641 206.7V210.898H252.679V202.626H253.641V206.632L257.347 202.626H258.45L254.789 206.643L258.608 210.898ZM262.077 207.752L264 205.438L264.674 205.823L263.05 207.82L264.674 209.817L264 210.207L262.077 207.905V207.752ZM264.329 207.752L266.28 205.438L266.942 205.823L265.324 207.82L266.942 209.817L266.28 210.207L264.329 207.905V207.752ZM274.439 210.898H273.274L269.471 206.7V210.898H268.51V202.626H269.471V206.632L273.177 202.626H274.281L270.62 206.643L274.439 210.898ZM277.76 204.595C278.499 204.595 279.048 204.761 279.407 205.093C279.765 205.425 279.944 205.955 279.944 206.683V210.898H279.259L279.078 209.981H279.033C278.86 210.207 278.679 210.398 278.49 210.553C278.301 210.703 278.083 210.818 277.834 210.898C277.589 210.973 277.287 211.011 276.928 211.011C276.551 211.011 276.216 210.945 275.921 210.813C275.631 210.681 275.401 210.481 275.231 210.213C275.065 209.945 274.982 209.606 274.982 209.195C274.982 208.576 275.227 208.101 275.718 207.769C276.208 207.437 276.955 207.256 277.958 207.226L279.028 207.181V206.801C279.028 206.266 278.912 205.891 278.682 205.676C278.452 205.461 278.128 205.353 277.709 205.353C277.385 205.353 277.076 205.4 276.781 205.494C276.487 205.589 276.208 205.7 275.944 205.828L275.655 205.115C275.935 204.972 276.255 204.85 276.617 204.748C276.979 204.646 277.36 204.595 277.76 204.595ZM279.016 207.842L278.071 207.882C277.298 207.912 276.753 208.039 276.436 208.261C276.119 208.484 275.961 208.799 275.961 209.206C275.961 209.561 276.068 209.823 276.283 209.992C276.498 210.162 276.783 210.247 277.138 210.247C277.689 210.247 278.139 210.094 278.49 209.789C278.841 209.483 279.016 209.025 279.016 208.414V207.842ZM282.699 204.697V206.926C282.699 207.314 282.805 207.601 283.016 207.786C283.231 207.971 283.542 208.063 283.95 208.063C284.342 208.063 284.699 208.003 285.019 207.882C285.34 207.761 285.664 207.597 285.992 207.39V204.697H286.931V210.898H285.992V208.12C285.645 208.342 285.304 208.518 284.968 208.646C284.633 208.774 284.231 208.838 283.763 208.838C283.126 208.838 282.632 208.672 282.281 208.34C281.934 208.008 281.76 207.56 281.76 206.994V204.697H282.699ZM291.305 204.584C291.833 204.584 292.286 204.701 292.663 204.934C293.04 205.168 293.329 205.496 293.528 205.919C293.728 206.338 293.828 206.828 293.828 207.39V207.973H289.545C289.557 208.701 289.738 209.255 290.089 209.636C290.439 210.017 290.933 210.207 291.571 210.207C291.963 210.207 292.31 210.172 292.612 210.1C292.914 210.028 293.227 209.923 293.551 209.783V210.609C293.238 210.749 292.927 210.851 292.618 210.915C292.312 210.979 291.95 211.011 291.531 211.011C290.935 211.011 290.415 210.89 289.97 210.649C289.528 210.404 289.185 210.045 288.94 209.574C288.695 209.102 288.572 208.525 288.572 207.842C288.572 207.175 288.684 206.598 288.906 206.111C289.132 205.621 289.449 205.244 289.857 204.98C290.268 204.716 290.75 204.584 291.305 204.584ZM291.294 205.353C290.792 205.353 290.392 205.517 290.094 205.845C289.796 206.173 289.619 206.632 289.562 207.22H292.844C292.84 206.85 292.782 206.526 292.668 206.247C292.559 205.964 292.391 205.745 292.165 205.591C291.939 205.432 291.648 205.353 291.294 205.353ZM297.908 211.011C297.349 211.011 296.857 210.896 296.431 210.666C296.005 210.436 295.673 210.085 295.435 209.613C295.198 209.142 295.079 208.548 295.079 207.831C295.079 207.081 295.203 206.468 295.452 205.992C295.705 205.513 296.052 205.159 296.493 204.929C296.934 204.699 297.436 204.584 297.998 204.584C298.307 204.584 298.605 204.616 298.892 204.68C299.183 204.74 299.42 204.817 299.605 204.912L299.322 205.698C299.133 205.623 298.915 205.555 298.666 205.494C298.421 205.434 298.191 205.404 297.976 205.404C297.546 205.404 297.187 205.496 296.901 205.681C296.618 205.866 296.405 206.138 296.261 206.496C296.122 206.854 296.052 207.296 296.052 207.82C296.052 208.322 296.12 208.75 296.256 209.104C296.395 209.459 296.601 209.73 296.872 209.919C297.148 210.104 297.491 210.196 297.902 210.196C298.23 210.196 298.526 210.162 298.79 210.094C299.054 210.023 299.294 209.94 299.509 209.845V210.683C299.301 210.788 299.069 210.869 298.813 210.926C298.56 210.983 298.258 211.011 297.908 211.011ZM305.206 205.494H303.164V210.898H302.236V205.494H300.222V204.697H305.206V205.494ZM311.362 206.253C311.362 206.641 311.249 206.945 311.022 207.164C310.796 207.379 310.504 207.524 310.145 207.599V207.644C310.534 207.697 310.868 207.837 311.147 208.063C311.43 208.286 311.571 208.627 311.571 209.087C311.571 209.442 311.486 209.755 311.317 210.026C311.147 210.298 310.881 210.511 310.519 210.666C310.157 210.82 309.685 210.898 309.104 210.898H306.434V204.697H309.082C309.527 204.697 309.919 204.748 310.259 204.85C310.602 204.948 310.872 205.11 311.068 205.336C311.264 205.562 311.362 205.868 311.362 206.253ZM310.592 209.087C310.592 208.721 310.453 208.457 310.174 208.295C309.898 208.133 309.497 208.052 308.969 208.052H307.379V210.134H308.991C309.512 210.134 309.908 210.055 310.179 209.896C310.455 209.734 310.592 209.464 310.592 209.087ZM310.406 206.36C310.406 206.066 310.298 205.847 310.083 205.704C309.868 205.557 309.516 205.483 309.025 205.483H307.379V207.265H308.861C309.37 207.265 309.755 207.192 310.015 207.045C310.276 206.898 310.406 206.669 310.406 206.36ZM315.475 204.584C316.003 204.584 316.456 204.701 316.833 204.934C317.21 205.168 317.499 205.496 317.699 205.919C317.899 206.338 317.998 206.828 317.998 207.39V207.973H313.716C313.727 208.701 313.908 209.255 314.259 209.636C314.609 210.017 315.104 210.207 315.741 210.207C316.133 210.207 316.48 210.172 316.782 210.1C317.084 210.028 317.397 209.923 317.721 209.783V210.609C317.408 210.749 317.097 210.851 316.788 210.915C316.482 210.979 316.12 211.011 315.701 211.011C315.105 211.011 314.585 210.89 314.14 210.649C313.699 210.404 313.355 210.045 313.11 209.574C312.865 209.102 312.742 208.525 312.742 207.842C312.742 207.175 312.854 206.598 313.076 206.111C313.303 205.621 313.619 205.244 314.027 204.98C314.438 204.716 314.921 204.584 315.475 204.584ZM315.464 205.353C314.962 205.353 314.562 205.517 314.264 205.845C313.966 206.173 313.789 206.632 313.733 207.22H317.014C317.01 206.85 316.952 206.526 316.839 206.247C316.729 205.964 316.561 205.745 316.335 205.591C316.109 205.432 315.818 205.353 315.464 205.353ZM320.539 204.697V207.299H323.996V204.697H324.935V210.898H323.996V208.097H320.539V210.898H319.594V204.697H320.539ZM327.871 204.697V207.299H331.328V204.697H332.267V210.898H331.328V208.097H327.871V210.898H326.927V204.697H327.871ZM334.259 210.898V204.697H335.204V207.254H336.901C337.429 207.254 337.863 207.32 338.203 207.452C338.546 207.584 338.8 207.78 338.966 208.041C339.132 208.301 339.215 208.623 339.215 209.008C339.215 209.393 339.132 209.727 338.966 210.009C338.804 210.292 338.548 210.511 338.197 210.666C337.85 210.82 337.397 210.898 336.839 210.898H334.259ZM335.204 210.134H336.748C337.216 210.134 337.59 210.051 337.869 209.885C338.148 209.719 338.287 209.442 338.287 209.053C338.287 208.672 338.157 208.408 337.897 208.261C337.637 208.11 337.263 208.035 336.777 208.035H335.204V210.134ZM340.239 210.898V204.697H341.179V210.898H340.239ZM344.058 204.697V208.595C344.058 208.67 344.056 208.768 344.053 208.889C344.049 209.006 344.043 209.132 344.036 209.268C344.028 209.4 344.021 209.529 344.013 209.653C344.009 209.774 344.004 209.874 343.996 209.953L347.379 204.697H348.534V210.898H347.657V207.096C347.657 206.975 347.659 206.82 347.662 206.632C347.666 206.443 347.672 206.258 347.679 206.077C347.687 205.892 347.693 205.749 347.696 205.647L344.324 210.898H343.164V204.697H344.058ZM348.07 202.145C348.036 202.526 347.94 202.845 347.781 203.101C347.627 203.358 347.398 203.552 347.097 203.684C346.795 203.812 346.408 203.876 345.937 203.876C345.45 203.876 345.058 203.814 344.76 203.69C344.466 203.561 344.247 203.369 344.104 203.113C343.964 202.856 343.881 202.534 343.855 202.145H344.737C344.779 202.56 344.89 202.843 345.071 202.994C345.252 203.145 345.546 203.22 345.954 203.22C346.316 203.22 346.601 203.141 346.808 202.982C347.015 202.824 347.14 202.545 347.181 202.145H348.07ZM247.859 227.011C247.3 227.011 246.808 226.896 246.382 226.666C245.956 226.436 245.624 226.085 245.386 225.613C245.149 225.142 245.03 224.548 245.03 223.831C245.03 223.081 245.154 222.468 245.403 221.992C245.656 221.513 246.003 221.159 246.444 220.929C246.886 220.699 247.387 220.584 247.949 220.584C248.258 220.584 248.556 220.616 248.843 220.68C249.134 220.74 249.371 220.817 249.556 220.912L249.273 221.698C249.085 221.623 248.866 221.555 248.617 221.494C248.372 221.434 248.142 221.404 247.927 221.404C247.497 221.404 247.138 221.496 246.852 221.681C246.569 221.866 246.356 222.138 246.212 222.496C246.073 222.854 246.003 223.296 246.003 223.82C246.003 224.322 246.071 224.75 246.207 225.104C246.346 225.459 246.552 225.73 246.823 225.919C247.099 226.104 247.442 226.196 247.853 226.196C248.181 226.196 248.477 226.162 248.741 226.094C249.005 226.023 249.245 225.94 249.46 225.845V226.683C249.252 226.788 249.02 226.869 248.764 226.926C248.511 226.983 248.209 227.011 247.859 227.011ZM253.318 220.584C253.847 220.584 254.299 220.701 254.676 220.934C255.054 221.168 255.342 221.496 255.542 221.919C255.742 222.338 255.842 222.828 255.842 223.39V223.973H251.559C251.57 224.701 251.751 225.255 252.102 225.636C252.453 226.017 252.947 226.207 253.584 226.207C253.977 226.207 254.324 226.172 254.625 226.1C254.927 226.028 255.24 225.923 255.565 225.783V226.609C255.252 226.749 254.94 226.851 254.631 226.915C254.326 226.979 253.963 227.011 253.545 227.011C252.949 227.011 252.428 226.89 251.983 226.649C251.542 226.404 251.199 226.045 250.953 225.574C250.708 225.102 250.586 224.525 250.586 223.842C250.586 223.175 250.697 222.598 250.92 222.111C251.146 221.621 251.463 221.244 251.87 220.98C252.281 220.716 252.764 220.584 253.318 220.584ZM253.307 221.353C252.805 221.353 252.406 221.517 252.108 221.845C251.81 222.173 251.632 222.632 251.576 223.22H254.857C254.854 222.85 254.795 222.526 254.682 222.247C254.573 221.964 254.405 221.745 254.178 221.591C253.952 221.432 253.662 221.353 253.307 221.353ZM260.351 220.584C261.124 220.584 261.741 220.85 262.201 221.381C262.661 221.913 262.891 222.713 262.891 223.78C262.891 224.486 262.786 225.078 262.575 225.557C262.363 226.036 262.065 226.398 261.681 226.643C261.3 226.888 260.849 227.011 260.328 227.011C260 227.011 259.712 226.967 259.463 226.881C259.214 226.794 259.001 226.677 258.823 226.53C258.646 226.383 258.499 226.223 258.382 226.049H258.314C258.326 226.196 258.339 226.373 258.354 226.581C258.373 226.788 258.382 226.969 258.382 227.124V229.67H257.437V220.697H258.212L258.337 221.613H258.382C258.503 221.425 258.65 221.253 258.823 221.098C258.997 220.94 259.208 220.816 259.457 220.725C259.71 220.631 260.008 220.584 260.351 220.584ZM260.187 221.376C259.757 221.376 259.41 221.459 259.146 221.625C258.886 221.791 258.695 222.04 258.575 222.371C258.454 222.7 258.39 223.113 258.382 223.611V223.792C258.382 224.316 258.439 224.759 258.552 225.121C258.669 225.483 258.859 225.759 259.123 225.947C259.391 226.136 259.749 226.23 260.198 226.23C260.583 226.23 260.904 226.126 261.16 225.919C261.417 225.711 261.607 225.423 261.732 225.053C261.86 224.68 261.924 224.252 261.924 223.769C261.924 223.037 261.781 222.456 261.494 222.026C261.211 221.593 260.775 221.376 260.187 221.376ZM269.46 222.253C269.46 222.641 269.347 222.945 269.121 223.164C268.894 223.379 268.602 223.524 268.244 223.599V223.644C268.632 223.697 268.966 223.837 269.245 224.063C269.528 224.286 269.67 224.627 269.67 225.087C269.67 225.442 269.585 225.755 269.415 226.026C269.245 226.298 268.979 226.511 268.617 226.666C268.255 226.82 267.784 226.898 267.203 226.898H264.532V220.697H267.18C267.625 220.697 268.017 220.748 268.357 220.85C268.7 220.948 268.97 221.11 269.166 221.336C269.362 221.562 269.46 221.868 269.46 222.253ZM268.691 225.087C268.691 224.721 268.551 224.457 268.272 224.295C267.997 224.133 267.595 224.052 267.067 224.052H265.477V226.134H267.09C267.61 226.134 268.006 226.055 268.278 225.896C268.553 225.734 268.691 225.464 268.691 225.087ZM268.504 222.36C268.504 222.066 268.396 221.847 268.182 221.704C267.967 221.557 267.614 221.483 267.123 221.483H265.477V223.265H266.959C267.469 223.265 267.853 223.192 268.114 223.045C268.374 222.898 268.504 222.669 268.504 222.36ZM272.08 220.697V224.595C272.08 224.67 272.078 224.768 272.074 224.889C272.07 225.006 272.065 225.132 272.057 225.268C272.05 225.4 272.042 225.529 272.034 225.653C272.031 225.774 272.025 225.874 272.017 225.953L275.401 220.697H276.555V226.898H275.678V223.096C275.678 222.975 275.68 222.82 275.684 222.632C275.688 222.443 275.693 222.258 275.701 222.077C275.708 221.892 275.714 221.749 275.718 221.647L272.346 226.898H271.186V220.697H272.08ZM281.036 227.011C280.478 227.011 279.986 226.896 279.559 226.666C279.133 226.436 278.801 226.085 278.564 225.613C278.326 225.142 278.207 224.548 278.207 223.831C278.207 223.081 278.332 222.468 278.581 221.992C278.833 221.513 279.18 221.159 279.622 220.929C280.063 220.699 280.565 220.584 281.127 220.584C281.436 220.584 281.734 220.616 282.02 220.68C282.311 220.74 282.549 220.817 282.733 220.912L282.45 221.698C282.262 221.623 282.043 221.555 281.794 221.494C281.549 221.434 281.319 221.404 281.104 221.404C280.674 221.404 280.316 221.496 280.029 221.681C279.746 221.866 279.533 222.138 279.39 222.496C279.25 222.854 279.18 223.296 279.18 223.82C279.18 224.322 279.248 224.75 279.384 225.104C279.524 225.459 279.729 225.73 280.001 225.919C280.276 226.104 280.619 226.196 281.03 226.196C281.359 226.196 281.655 226.162 281.919 226.094C282.183 226.023 282.422 225.94 282.637 225.845V226.683C282.43 226.788 282.198 226.869 281.941 226.926C281.689 226.983 281.387 227.011 281.036 227.011ZM288.419 223.899L286.468 226.207L285.811 225.817L287.429 223.814L285.811 221.823L286.468 221.438L288.419 223.746V223.899ZM286.151 223.899L284.216 226.207L283.554 225.817L285.172 223.814L283.554 221.823L284.216 221.438L286.151 223.746V223.899Z" fill="#92BAFD"/>
</g>
<defs>
<linearGradient id="paint0_linear_78_2061" x1="436.648" y1="71.5911" x2="457.521" y2="201.662" gradientUnits="userSpaceOnUse">
<stop stop-color="#5078AB"/>
<stop offset="1" stop-color="#97C4FF"/>
</linearGradient>
<linearGradient id="paint1_linear_78_2061" x1="154.05" y1="137.691" x2="153.716" y2="151.593" gradientUnits="userSpaceOnUse">
<stop stop-color="#855632"/>
<stop offset="1" stop-color="#98704B"/>
</linearGradient>
<clipPath id="clip0_78_2061">
<rect width="592" height="422" rx="20" fill="white"/>
</clipPath>
</defs>
</svg>
