<svg width="610" height="610" viewBox="0 0 610 610" fill="none" xmlns="http://www.w3.org/2000/svg">
<g clip-path="url(#clip0_103_816)">
<path d="M113.209 195.171C115.274 195.047 117.217 195.076 119.156 195.913C119.447 196.037 119.731 196.175 120.007 196.327C120.284 196.479 120.551 196.645 120.811 196.825C121.07 197.005 121.32 197.198 121.56 197.403C121.799 197.608 122.028 197.825 122.246 198.054C122.463 198.283 122.669 198.522 122.862 198.771C123.055 199.021 123.235 199.28 123.402 199.548C123.568 199.816 123.721 200.092 123.86 200.376C123.998 200.66 124.122 200.95 124.231 201.246C124.342 201.55 124.437 201.859 124.517 202.173C124.597 202.487 124.662 202.804 124.71 203.125C124.759 203.445 124.791 203.767 124.807 204.09C124.824 204.414 124.824 204.738 124.807 205.061C124.791 205.385 124.759 205.706 124.711 206.027C124.662 206.347 124.598 206.664 124.518 206.978C124.438 207.292 124.343 207.601 124.232 207.906C124.121 208.21 123.995 208.508 123.854 208.8C122.573 211.484 120.278 213.112 117.556 214.134C115.58 214.466 113.815 214.37 111.969 213.538C109.518 212.431 107.652 210.286 106.732 207.776C106.618 207.47 106.52 207.16 106.437 206.845C106.354 206.53 106.287 206.212 106.236 205.89C106.184 205.569 106.149 205.245 106.13 204.92C106.111 204.595 106.108 204.27 106.121 203.944C106.134 203.619 106.164 203.295 106.209 202.972C106.255 202.65 106.316 202.33 106.393 202.014C106.47 201.697 106.563 201.385 106.671 201.078C106.779 200.771 106.901 200.47 107.039 200.175C108.313 197.471 110.473 196.115 113.209 195.171Z" fill="#618BE4"/>
<path d="M454.714 70.9691C457.027 70.8083 459.146 70.9662 461.22 72.095C463.549 73.3615 465.184 75.5322 465.872 78.0824C466.592 80.7536 466.25 83.7136 464.792 86.0827C463.236 88.6085 460.97 89.7838 458.173 90.4689C455.923 90.6613 453.854 90.5076 451.833 89.4097C449.477 88.1296 447.812 85.8766 447.089 83.3133C446.38 80.7982 446.64 77.9961 447.939 75.7121C449.473 73.0136 451.826 71.7662 454.714 70.9691Z" fill="#618BE4"/>
<path d="M481 187.701C483.203 187.615 485.129 187.679 487.152 188.712C487.308 188.794 487.462 188.879 487.614 188.968C487.765 189.057 487.915 189.15 488.061 189.246C488.208 189.343 488.353 189.444 488.495 189.548C488.636 189.652 488.776 189.759 488.912 189.87C489.049 189.981 489.182 190.096 489.312 190.214C489.443 190.332 489.571 190.453 489.696 190.577C489.82 190.702 489.941 190.829 490.059 190.96C490.177 191.09 490.292 191.223 490.403 191.36C490.514 191.496 490.622 191.635 490.726 191.777C490.83 191.919 490.931 192.063 491.027 192.21C491.124 192.357 491.218 192.506 491.307 192.657C491.396 192.809 491.482 192.963 491.563 193.119C491.644 193.275 491.722 193.433 491.795 193.593C491.869 193.753 491.938 193.914 492.003 194.078C492.069 194.241 492.13 194.406 492.187 194.573C492.244 194.739 492.296 194.907 492.345 195.076C492.447 195.417 492.533 195.762 492.602 196.111C492.671 196.46 492.722 196.811 492.756 197.166C492.789 197.52 492.806 197.875 492.804 198.23C492.803 198.586 492.784 198.941 492.747 199.295C492.711 199.649 492.657 200 492.585 200.349C492.514 200.697 492.426 201.042 492.32 201.382C492.215 201.721 492.092 202.055 491.954 202.382C491.815 202.71 491.661 203.03 491.49 203.343C489.858 206.325 487.285 207.797 484.138 208.724C481.804 208.866 479.719 208.683 477.606 207.565C477.449 207.481 477.295 207.393 477.143 207.3C476.99 207.208 476.84 207.112 476.693 207.013C476.546 206.913 476.401 206.81 476.259 206.702C476.117 206.595 475.978 206.484 475.842 206.369C475.705 206.255 475.572 206.137 475.442 206.016C475.312 205.895 475.185 205.77 475.061 205.642C474.937 205.514 474.817 205.383 474.7 205.249C474.583 205.115 474.469 204.978 474.359 204.838C474.249 204.699 474.143 204.556 474.04 204.41C473.938 204.265 473.839 204.117 473.744 203.966C473.649 203.816 473.558 203.663 473.47 203.508C473.383 203.353 473.3 203.195 473.221 203.036C473.142 202.877 473.067 202.715 472.997 202.552C472.926 202.388 472.86 202.223 472.797 202.056C472.735 201.89 472.677 201.722 472.624 201.552C472.57 201.382 472.521 201.211 472.477 201.039C471.743 198.305 472.098 195.27 473.532 192.818C475.203 189.958 477.879 188.482 481 187.701Z" fill="#618BE4"/>
<path d="M158.572 95.0922C160.814 94.9206 162.854 94.9015 164.968 95.8136C165.293 95.9573 165.61 96.117 165.92 96.2925C166.23 96.468 166.53 96.6585 166.82 96.8638C167.111 97.0691 167.39 97.2885 167.659 97.522C167.928 97.7551 168.184 98.001 168.429 98.2595C168.673 98.5184 168.904 98.7887 169.121 99.0703C169.339 99.3518 169.542 99.6435 169.73 99.9453C169.918 100.247 170.091 100.558 170.249 100.877C170.406 101.196 170.547 101.522 170.672 101.855C170.741 102.035 170.805 102.216 170.864 102.399C170.924 102.582 170.978 102.766 171.028 102.952C171.078 103.137 171.124 103.324 171.164 103.512C171.205 103.7 171.24 103.889 171.271 104.079C171.302 104.269 171.328 104.459 171.349 104.65C171.37 104.841 171.386 105.033 171.398 105.225C171.409 105.417 171.416 105.609 171.417 105.801C171.419 105.993 171.416 106.186 171.407 106.378C171.399 106.57 171.386 106.762 171.368 106.953C171.35 107.145 171.327 107.335 171.299 107.526C171.272 107.716 171.239 107.905 171.202 108.094C171.164 108.283 171.122 108.47 171.075 108.657C171.028 108.843 170.976 109.028 170.92 109.212C170.864 109.396 170.803 109.578 170.737 109.759C170.672 109.94 170.601 110.119 170.526 110.296C170.452 110.473 170.372 110.648 170.289 110.821C168.765 113.897 166.209 115.447 163.082 116.529C160.938 116.607 159.009 116.646 156.967 115.843C156.789 115.772 156.612 115.696 156.437 115.616C156.262 115.536 156.09 115.452 155.92 115.363C155.749 115.274 155.581 115.181 155.415 115.083C155.249 114.986 155.086 114.884 154.925 114.778C154.765 114.673 154.607 114.563 154.452 114.449C154.297 114.335 154.146 114.218 153.997 114.096C153.848 113.975 153.702 113.849 153.559 113.72C153.417 113.591 153.277 113.459 153.141 113.323C153.005 113.187 152.873 113.047 152.744 112.905C152.616 112.762 152.491 112.616 152.37 112.466C152.248 112.318 152.131 112.165 152.018 112.01C151.904 111.855 151.795 111.697 151.689 111.537C151.583 111.376 151.482 111.212 151.385 111.046C151.288 110.88 151.195 110.712 151.106 110.542C151.018 110.371 150.934 110.198 150.854 110.023C150.774 109.848 150.699 109.671 150.628 109.493C149.579 106.857 149.557 103.904 150.733 101.305C152.302 97.8348 155.165 96.2996 158.572 95.0922Z" fill="#618BE4"/>
<path d="M95.4052 124.905C101.45 124.257 108.039 125.083 113.177 128.571C122.387 134.824 122.916 146.265 118.757 155.738C116.609 160.631 113.135 165.084 111.94 170.357C111.028 174.385 111.697 178.33 112.469 182.319C108.269 184.203 103.951 185.853 99.6812 187.575C98.8442 185.787 98.0686 183.98 97.4747 182.095C94.6451 173.111 97.3103 165.742 101.502 157.728C103.259 154.46 105.157 150.851 104.81 147.016C104.599 144.694 103.525 142.533 101.655 141.111C99.369 139.372 96.3768 139.054 93.6092 139.461C89.8884 140.008 86.2981 141.877 84.0797 144.969C81.2609 148.898 81.6129 153.135 82.4308 157.601C76.9575 159.278 71.2524 160.345 65.6516 161.5C65.49 160.542 65.3415 159.582 65.2061 158.62C64.1695 151.079 66.0132 143.863 70.6502 137.791C76.7055 129.863 85.7644 126.221 95.4052 124.905Z" fill="#618BE4"/>
<path d="M472.556 0.705439C480.161 0.043848 487.759 2.67238 494.412 6.14653C500.442 9.29542 505.062 13.7944 507.067 20.4328C508.762 26.0427 507.522 31.4481 504.8 36.494C500.126 45.1579 493.941 46.1668 485.208 48.8092C477.57 51.1206 473.833 55.0984 470.1 61.9521C465.224 60.3818 460.585 58.5103 456.038 56.1518C456.796 54.3004 457.747 52.4992 458.618 50.6969C468.535 33.307 484.579 38.5384 490.11 29.3244C491.177 27.5479 491.403 25.518 490.81 23.537C489.904 20.5138 487.394 17.7878 484.654 16.2987C484.465 16.1974 484.273 16.1009 484.079 16.0092C483.885 15.9175 483.689 15.8307 483.491 15.7488C483.292 15.6669 483.092 15.5901 482.89 15.5182C482.687 15.4464 482.483 15.3796 482.278 15.318C482.072 15.2563 481.865 15.1999 481.657 15.1486C481.448 15.0973 481.239 15.0513 481.028 15.0105C480.817 14.9697 480.606 14.9342 480.393 14.904C480.181 14.8738 479.968 14.8489 479.754 14.8294C479.54 14.8099 479.326 14.7957 479.112 14.7869C478.897 14.7781 478.683 14.7747 478.468 14.7766C478.253 14.7785 478.039 14.7858 477.825 14.7985C477.61 14.8111 477.397 14.8292 477.183 14.8526C476.97 14.8759 476.757 14.9046 476.545 14.9386C476.333 14.9726 476.122 15.0119 475.912 15.0565C475.702 15.1011 475.493 15.1509 475.286 15.2059C475.079 15.2609 474.873 15.3211 474.668 15.3864C470.076 16.8798 467.888 20.3405 465.767 24.3575C460.689 21.8873 455.636 19.3685 450.607 16.8013C451.765 14.3276 453.131 11.8805 454.832 9.73683C459.209 4.21978 465.676 1.46428 472.556 0.705439Z" fill="#618BE4"/>
<path d="M144.708 17.9894C150.187 17.9378 155.66 18.8384 160.143 22.1984C163.332 24.5881 165.63 27.9813 166.99 31.7038C172.865 47.7712 159.164 57.3701 155.853 70.3508C154.938 73.9357 155.533 77.5373 156.06 81.1253C151.364 83.0267 146.523 84.6477 141.758 86.3746C137.258 67.1947 140.527 66.5371 148.921 50.2685C150.078 47.807 150.882 45.2078 150.57 42.4542C150.538 42.1632 150.491 41.8746 150.43 41.5881C150.37 41.3018 150.296 41.0191 150.207 40.7401C150.118 40.4611 150.016 40.1872 149.901 39.9182C149.785 39.6493 149.656 39.3868 149.515 39.1306C149.373 38.8744 149.219 38.6258 149.053 38.3848C148.887 38.1438 148.709 37.9116 148.52 37.6881C148.331 37.4647 148.131 37.2512 147.921 37.0475C147.711 36.8437 147.491 36.6509 147.262 36.4689C144.762 34.4897 141.513 33.928 138.411 34.3874C134.383 34.9841 130.247 37.1892 127.865 40.5271C124.822 44.7897 125.412 49.1938 126.294 54.0108C120.339 56.1181 114.333 58.0423 108.454 60.3644C107.926 58.2984 107.564 56.2037 107.368 54.0803C106.678 45.7696 109.497 37.6659 114.9 31.348C122.336 22.6521 133.602 18.8402 144.708 17.9894Z" fill="#618BE4"/>
<path d="M499.319 109.127C507.359 108.232 516.205 110.331 523.333 114.032C529.689 117.331 535.297 122.509 537.468 129.506C538.726 133.562 538.648 138.248 537.638 142.349C535.024 152.971 525.81 157.938 516.374 161.704C512.487 163.254 508.354 164.643 505.031 167.264C501.644 169.934 499.687 173.784 497.73 177.526C492.705 175.668 487.735 173.674 482.819 171.546C483.845 169.013 484.872 166.523 486.128 164.092C494.902 147.837 513.377 152.056 519.269 140.224C520.442 137.867 520.736 135.213 519.844 132.713C518.647 129.357 515.702 126.887 512.513 125.49C508.896 123.906 504.477 123.469 500.783 125.014C496.285 126.896 494.301 130.861 492.566 135.097C486.744 132.539 480.678 130.346 474.777 127.956C476.112 124.737 477.759 121.665 479.927 118.926C485.037 112.466 491.312 110.023 499.319 109.127Z" fill="#618BE4"/>
<path d="M74.9665 331.469C73.0464 328.756 70.995 326.145 68.8123 323.638C64.5614 318.656 55.1209 309.695 56.0886 302.584C56.2689 301.259 56.946 299.633 58.1239 298.89C59.2692 298.167 60.5839 298.36 61.7931 298.796C64.3731 299.726 67.1747 301.688 69.1858 303.543C73.3575 307.393 76.1454 312.511 80.0062 316.643C89.2282 326.514 103.242 335.461 108.844 347.986C111.908 354.838 111.972 363.352 113.142 370.724C105.991 372.776 98.8488 374.877 91.6742 376.842C87.6866 377.934 83.4058 378.741 79.5278 380.137C78.7742 379.051 78.0618 378.054 76.9508 377.308C74.2106 375.466 70.8591 374.606 67.743 373.629C60.8829 371.478 45.9338 367.723 40.3381 364.416C33.1724 360.18 18.747 345.38 12.6927 338.973C10.7043 336.869 5.68971 332.001 5.77892 328.978C6.92006 327.159 8.06143 328.082 9.65089 327.239C8.08294 325.48 5.58458 324.416 3.72666 322.908C2.3466 321.789 0.94036 320.379 0.858171 318.493C0.795866 317.063 1.82749 316.68 2.24188 315.494C2.67694 314.249 2.15794 312.698 3.06779 311.717C4.26303 311.47 5.40148 311.81 6.57712 312.048C7.18706 310.67 7.07203 309.199 7.81999 307.766C9.61913 307.2 10.5343 307.442 12.2012 308.31C17.6813 311.162 22.5497 315.361 27.5621 318.96C35.3459 324.547 45.5036 328.672 54.7805 330.781L56.209 331.033C62.3769 332.134 68.742 331.919 74.9665 331.469Z" fill="#FEAA82"/>
<path d="M83.0701 352.19C84.8269 352.103 87.268 351.705 88.9426 352.271C89.6663 352.516 89.9588 352.68 90.2835 353.366C90.2096 353.621 90.1745 353.807 90.0053 354.034C89.5085 354.701 88.5548 355.177 87.7595 355.34C82.5352 356.412 73.77 355.728 67.9833 356.195C65.6941 356.297 61.6582 356.908 59.7656 355.498L59.8306 354.941C60.683 354.081 61.8649 353.568 63.0408 353.308C64.6826 352.945 66.5209 353.026 68.2008 352.914C73.1527 352.581 78.1091 352.34 83.0701 352.19Z" fill="#B46A49"/>
<path d="M6.57821 312.048C7.18815 310.67 7.07312 309.199 7.82108 307.766C7.8847 307.837 7.95005 307.907 8.01206 307.979C9.60932 309.856 9.8896 312.469 11.5609 314.277C14.1967 317.129 18.1955 319.404 21.3989 321.591L36.5311 331.927C40.2967 334.523 43.8268 337.429 47.5632 340.049C49.9071 337.045 52.1375 333.482 54.7816 330.781L56.2101 331.033C54.3865 335.32 51.6154 339.44 49.242 343.457C47.5336 346.348 45.9827 349.355 44.1976 352.196C43.5222 353.271 42.3081 355.447 41.0448 355.737C40.4297 354.253 41.2777 352.663 41.8313 351.258C32.0116 343.124 22.9203 334.778 12.067 327.973C10.2665 324.118 7.74638 321.268 4.85742 318.209C8.55356 320.488 11.4243 324.114 14.7473 326.899C22.8158 333.66 33.5471 342.075 42.5624 347.467C43.5509 346.341 44.4407 345.15 45.3428 343.955C39.7115 338.886 33.7592 334.192 27.8716 329.43C20.9901 323.864 14.2584 318.37 7.11791 313.13C7.03338 312.938 6.95475 312.743 6.85848 312.557C6.76955 312.385 6.67161 312.218 6.57821 312.048Z" fill="#B46A49"/>
<path d="M7.82031 307.766C9.61946 307.2 10.5346 307.442 12.2015 308.31C17.6816 311.162 22.55 315.361 27.5625 318.96C35.3462 324.547 45.504 328.672 54.7808 330.781C52.1367 333.482 49.9063 337.045 47.5625 340.049C43.826 337.429 40.296 334.523 36.5303 331.927L21.3982 321.591C18.1947 319.404 14.1959 317.13 11.5601 314.277C9.88883 312.469 9.60855 309.856 8.0113 307.98C7.94928 307.907 7.88393 307.837 7.82031 307.766Z" fill="#FEAA82"/>
<path d="M495.818 370.293C496.289 366.016 497.112 361.612 498.17 357.441C502.302 341.144 510.483 334.045 522.803 323.718C525.522 321.44 528.645 319.185 531.064 316.597C536.06 311.248 539.623 303.264 546.155 299.57C547.37 298.883 548.814 298.367 550.208 298.789C551.489 299.176 552.544 300.337 553.092 301.526C556.22 308.313 545.595 317.359 542.123 322.256C539.704 325.669 537.971 329.316 536.361 333.162C555.004 331.486 565.573 327.403 581.447 317.665C586.268 314.707 591.048 311.314 596.175 308.92C598.855 307.672 600.19 307.161 603.067 308.202C603.538 308.941 603.972 309.574 604.181 310.441C604.026 311.696 603.788 312.996 603.752 314.257C605.241 314.072 606.748 313.961 608.226 314.326L610.001 315.315V320.541C607.779 321.634 606.123 322.882 604.443 324.703C604.068 327.193 603.865 329.908 602.507 332.099C598.903 337.905 577.317 358.133 570.734 363.023C566.751 365.982 562.156 367.407 557.549 369.113C548.149 372.593 538.459 375.294 529.171 379.058C525.796 377.881 522.173 377.186 518.708 376.296C511.059 374.367 503.429 372.366 495.818 370.293Z" fill="#FEAA82"/>
<path d="M522.38 351.867C529.269 350.977 538.346 352.516 545.244 353.514C547.082 353.78 551.393 354.279 552.53 355.807C551.569 356.788 549.731 356.733 548.419 356.824C539.577 356.914 530.443 355.999 521.681 354.778C520.366 354.594 518.179 354.403 517.361 353.325C518.357 352.19 520.932 352.069 522.38 351.867Z" fill="#B46A49"/>
<path d="M603.067 308.203C603.537 308.941 603.972 309.574 604.181 310.441C604.026 311.696 603.788 312.996 603.752 314.257C605.241 314.072 606.748 313.961 608.226 314.326C606.063 317.415 601.881 319.291 599.046 321.793C593.333 326.843 587.824 332.14 582.186 337.278C576.961 342.039 571.627 346.589 566.639 351.609C566.741 351.997 566.834 352.387 566.921 352.78C567.219 354.104 567.643 355.457 566.877 356.67L566.34 356.701C566.106 356.487 565.967 356.373 565.767 356.145C563.001 352.99 561.477 348.047 559.507 344.305C558.513 342.42 557.143 340.681 555.915 338.943C554.808 337.375 552.384 334.408 552.286 332.457C552.281 332.344 552.303 332.232 552.312 332.12L552.682 331.831C554.886 332.285 557.49 336.608 558.715 338.323C569.727 332.866 579.908 325.085 589.906 317.983C594.361 314.818 599.099 311.987 603.067 308.203Z" fill="#B46A49"/>
<path d="M604.18 310.441C604.025 311.695 603.786 312.996 603.751 314.256C603.03 317.249 570.099 342.371 564.953 346.823C563.204 344.839 561.571 342.75 559.914 340.689C564.741 337.721 569.636 334.816 574.353 331.678C579.413 328.313 584.289 324.682 589.313 321.266C594.196 317.945 600.224 314.859 604.18 310.441Z" fill="#FEAA82"/>
<path d="M246.004 181.042C244.788 180.131 243.598 179.188 242.434 178.212C230.255 167.843 214.073 137.912 212.811 121.989C211.856 109.944 218.289 101.75 220.822 90.65C223.069 80.803 222.277 70.7923 225.558 61.0704C226.009 59.7146 226.525 58.3841 227.106 57.0789C227.688 55.7736 228.332 54.4999 229.038 53.2577C229.744 52.0155 230.509 50.8107 231.333 49.6434C232.158 48.476 233.037 47.3517 233.971 46.2704C240.903 38.2197 250.389 32.7141 260.61 29.9692C263.986 29.0623 267.699 28.8993 270.92 27.5033C273.79 26.2595 276.096 23.4624 278.756 21.7702C287.632 16.1224 298.866 12.9424 309.315 12.1775C329.773 10.6799 348.784 18.0429 364.168 31.3155C375.904 41.4418 385.317 53.1588 387.129 69.0468C387.856 75.4268 388.067 82.0135 389.921 88.1945C392.331 96.2264 397.783 103.798 398.341 112.288C398.583 115.985 397.95 119.755 396.815 123.269C395.332 127.858 392.496 131.797 390.518 136.161C386.562 144.892 384.712 154.069 379.06 162.052C374.315 168.753 367.978 173.766 362.648 179.911C362.912 176.427 363.549 173.06 364.429 169.681C373.157 165.46 375.718 159.297 378.777 150.479C381.267 143.305 384.53 126.229 381.214 119.196C380.789 118.295 380.185 117.679 379.22 117.358C376.522 116.461 371.741 118.787 369.297 120.007C368.211 116.881 367.243 113.476 365.772 110.521C359.225 107.376 352.243 105.268 345.391 102.898C336.919 100.004 328.557 96.8207 320.305 93.3474C311.209 89.4479 302.275 84.78 293.767 79.729C289.51 77.2014 285.488 74.2646 281.119 71.9366C276.647 73.7797 271.834 75.9207 269.943 80.7613C266.972 88.3667 269.091 92.3025 259.532 96.8048C253.037 99.8638 244.878 99.9686 241.973 107.755C240.498 111.708 240.218 116.29 239.67 120.446C236.747 119.241 232.613 116.994 229.483 118.368C227.969 119.033 227.092 120.463 226.601 121.983C225.718 124.717 225.744 127.926 225.714 130.768C225.604 141.01 227.105 150.933 232.066 160.024C235.115 165.614 238.957 168.137 244.761 170.44C245.142 173.933 245.931 177.536 246.004 181.042Z" fill="#B46A49"/>
<path d="M281.12 71.9365C285.489 74.2645 289.511 77.2013 293.768 79.7289C302.276 84.7799 311.21 89.4478 320.306 93.3473C328.558 96.8206 336.92 100.004 345.392 102.898C352.244 105.268 359.226 107.376 365.773 110.521C367.244 113.476 368.211 116.881 369.298 120.007C371.742 118.787 376.523 116.461 379.221 117.358C380.186 117.679 380.79 118.295 381.215 119.195C384.531 126.229 381.267 143.305 378.778 150.479C375.719 159.297 373.158 165.46 364.43 169.681C363.55 173.06 362.913 176.427 362.649 179.911L362.512 180.234C359.804 186.75 358.224 193.642 354.574 199.783C351.974 204.158 347.115 208.315 345.161 212.792C342.45 214.12 340.05 216.64 337.65 218.493C332.292 222.631 325.138 225.49 318.598 227.069C303.528 230.707 286.736 228.225 273.706 219.679C271.551 218.29 269.496 216.766 267.539 215.108C266.175 213.955 264.785 212.335 263.253 211.447C263.131 211.376 263.006 211.309 262.883 211.24C261.181 208.314 257.797 205.569 255.715 202.673C251.006 196.125 248.763 188.491 246.005 181.042C245.931 177.536 245.143 173.933 244.762 170.44C238.958 168.137 235.116 165.614 232.066 160.024C227.106 150.933 225.605 141.01 225.715 130.768C225.745 127.925 225.719 124.717 226.602 121.983C227.092 120.463 227.97 119.033 229.484 118.368C232.614 116.994 236.748 119.241 239.671 120.446C240.219 116.29 240.499 111.707 241.974 107.755C244.879 99.9685 253.038 99.8637 259.533 96.8047C269.092 92.3024 266.973 88.3666 269.944 80.7613C271.834 75.9206 276.648 73.7796 281.12 71.9365Z" fill="#FEAA82"/>
<path d="M300.483 156.144C300.926 156.235 301.317 156.329 301.744 156.475C304.47 157.406 306.779 159.387 307.965 162.026C309.004 164.336 309.118 166.977 308.142 169.326C306.909 172.291 304.739 173.636 301.915 174.787C301.305 174.514 300.956 174.276 300.492 173.795C300.538 170.926 306.001 170.023 306.536 166.812C307.295 162.261 302.184 161.367 300.368 158.42C299.859 157.593 300.243 157.001 300.483 156.144Z" fill="#B46A49"/>
<path d="M260.024 141.171C259.69 138.469 260.203 135.886 261.915 133.706C264.056 130.981 267.635 129.491 271.019 129.176C275.336 128.773 279.738 130.496 282.95 133.349C284.58 134.797 287.181 138.06 287.212 140.383C287.217 140.796 287.204 140.737 287.037 141.064C285.515 138.945 283.632 137.302 281.343 136.063C277.242 133.844 272.157 133.066 267.669 134.489C264.045 135.637 261.758 137.896 260.024 141.171Z" fill="#774B39"/>
<path d="M320.947 141.025C321.059 138.749 322.319 136.258 323.791 134.555C326.604 131.3 330.987 129.275 335.258 128.968C339.452 128.666 343.892 129.838 347.066 132.683C349.533 134.893 350.594 137.571 350.816 140.822C347.551 136.895 344.413 134.154 339.061 133.706C333.64 133.253 327.352 134.685 323.228 138.389C322.36 139.169 321.631 140.085 320.947 141.025Z" fill="#774B39"/>
<path d="M299.825 193.714C305.159 192.776 311.263 194.394 316.199 196.298C318.346 197.126 321.122 198.365 322.026 200.661C322.29 201.33 322.226 201.436 321.971 202.063C319.282 203.39 312.088 199.264 308.797 198.498C304.67 197.731 300.001 197.838 295.922 198.84C293.9 199.337 288.171 202.166 286.986 201.971C286.287 201.857 285.577 201.248 285.259 200.613C284.944 199.986 284.87 199.57 285.244 198.937C286.996 195.972 296.598 194.084 299.825 193.714Z" fill="#B46A49"/>
<path d="M260.023 141.172C261.757 137.896 264.044 135.637 267.668 134.489C272.156 133.066 277.241 133.844 281.342 136.063C283.631 137.302 285.514 138.945 287.037 141.064C287.998 142.924 288.414 145.086 288.913 147.109C284.517 147.37 278.793 148.225 274.532 147.062C272.774 147.322 271.364 147.312 269.612 147.031C268.682 147.076 267.756 147.031 266.835 146.899C264.61 146.586 261.773 146.076 260.394 144.102C259.69 143.096 259.813 142.308 260.023 141.172Z" fill="#EFF3FC"/>
<path d="M269.612 147.032C267.995 145.257 266.526 143.464 266.559 140.915C266.581 139.196 267.422 137.563 268.707 136.439C270.04 135.274 271.835 134.588 273.616 134.819C274.819 134.975 275.896 135.546 276.634 136.517C277.733 137.963 277.894 140.091 277.634 141.829C277.312 143.981 276.099 145.626 274.531 147.063C272.774 147.322 271.363 147.312 269.612 147.032Z" fill="#1A1919"/>
<path d="M320.949 141.025C321.632 140.085 322.362 139.169 323.23 138.389C327.353 134.685 333.641 133.253 339.062 133.706C344.414 134.154 347.552 136.895 350.817 140.822C350.534 142.43 349.942 143.39 348.603 144.357C345.824 146.363 340.587 147.585 337.168 147.034C336.747 146.966 336.692 146.93 336.346 146.8C334.54 147.538 332.916 147.93 330.997 147.3C326.944 147.649 322.807 147.473 318.748 147.298C319.397 145.189 320.209 143.106 320.949 141.025Z" fill="#EFF3FC"/>
<path d="M330.996 147.3C329.792 146.18 328.566 144.928 328.131 143.295C327.645 141.474 327.773 138.996 328.825 137.383C329.558 136.259 330.745 135.53 332.061 135.301C333.643 135.025 335.3 135.471 336.573 136.439C337.84 137.401 338.7 138.82 338.865 140.412C339.127 142.926 337.821 144.92 336.345 146.8C334.538 147.538 332.914 147.93 330.996 147.3Z" fill="#1A1919"/>
<path d="M315.727 102.133C320.291 102.042 324.25 106.15 327.903 108.525C330.385 110.14 333.1 111.649 335.836 112.787C342.294 115.474 348.945 116.739 355.827 117.69C354.02 118.676 352.257 119.433 350.302 120.069C347.419 120.878 344.259 121.215 341.274 121.34C332.458 121.709 321.944 119.779 315.289 113.525C313.738 112.067 312.299 110.153 312.319 107.927C312.341 105.369 313.983 103.745 315.727 102.133Z" fill="#B46A49"/>
<path d="M287.085 102.146C287.661 102.114 288.23 102.093 288.801 102.184C290.281 102.421 292.309 103.375 293.176 104.658C293.957 105.814 294.079 107.309 293.839 108.651C293.275 111.805 290.715 114.38 288.141 116.087C279.313 121.942 267.343 122.094 257.32 120.066C254.261 118.994 251.557 117.479 248.791 115.802C264.696 117.303 274.812 111.615 287.085 102.146Z" fill="#B46A49"/>
<path d="M127.704 401.662C130.191 374.908 135.975 348.246 143.495 322.493C146.474 312.295 149.479 301.706 154.731 292.403C157.016 288.355 159.64 285.161 163.152 282.133C164.498 285.681 164.303 290.595 164.788 294.417L168.577 323.015L178.965 404.968C180.711 418.71 183.333 432.505 184.305 446.322C185.064 457.103 184.597 468.056 184.656 478.865L185.277 528.88L185.596 558.757C185.73 566.259 186.187 573.835 185.615 581.33C185.582 581.766 185.565 581.588 185.692 581.983C186.112 591.3 185.988 600.671 186.187 610H156.601H150.515C147.254 608.701 144.216 607.254 141.359 605.193C129.505 596.644 117.49 579.036 111.858 565.728C102.327 543.204 98.3735 518.411 94.2297 494.441C90.0388 470.388 86.1937 446.28 82.6946 422.117C80.5965 408.469 77.3493 395.096 75.0684 381.507C76.5415 380.969 78.0159 380.543 79.5284 380.137C83.4064 378.741 87.6871 377.934 91.6748 376.842C98.8494 374.877 105.992 372.776 113.143 370.724C115.056 370.119 117.036 369.696 118.988 369.229C121.11 379.997 123.256 391.591 127.704 401.662ZM156.601 610H186.187C185.988 600.671 186.112 591.3 185.692 581.983C178.59 593.005 169.747 605.824 156.601 610Z" fill="#618BE4"/>
<path d="M262.883 211.24C263.007 211.309 263.131 211.376 263.253 211.447C264.786 212.335 266.176 213.955 267.54 215.108C269.496 216.766 271.552 218.29 273.707 219.679C286.736 228.225 303.529 230.707 318.599 227.069C325.138 225.49 332.292 222.631 337.65 218.493C340.05 216.64 342.45 214.12 345.162 212.792C345.545 220.703 346.434 233.613 349.562 240.843C350.806 240.151 351.622 239.786 353.044 240.151C357.306 241.242 368.984 249.803 372.641 252.912L374.486 254.363L374.847 254.502C381.501 256.987 388.806 258.347 395.617 260.48C413.544 266.095 431.246 273.139 447.496 282.645C461.245 291.437 469.164 323.928 472.499 339.147C475.401 352.442 477.843 365.821 479.826 379.284C480.944 386.616 482.396 394.357 482.281 401.784C486.117 391.143 488.826 380.387 491.493 369.41C492.914 369.664 494.458 369.816 495.817 370.293C503.428 372.366 511.058 374.367 518.707 376.296C522.172 377.186 525.795 377.881 529.17 379.058C538.458 375.294 548.148 372.593 557.548 369.113C562.155 367.407 566.75 365.982 570.733 363.023C577.316 358.133 598.902 337.906 602.506 332.099C603.864 329.908 604.067 327.193 604.442 324.703C606.122 322.882 607.778 321.634 610 320.541V610H461.731H452.433H423.232H186.187C185.988 600.671 186.113 591.3 185.692 581.984C185.565 581.588 185.582 581.766 185.616 581.33C186.187 573.835 185.73 566.259 185.597 558.757L185.277 528.88L184.656 478.865C184.597 468.056 185.065 457.103 184.306 446.322C183.334 432.505 180.711 418.71 178.965 404.969L168.577 323.015L164.788 294.417C164.304 290.595 164.499 285.681 163.152 282.133C168.713 278.437 175.105 275.945 181.224 273.324C193.531 268.065 205.991 263.197 218.605 258.722C224.064 256.737 231.131 255.07 236.012 252.138L236.669 251.653C239.778 249.375 252.872 241.547 255.898 240.503C256.97 240.133 257.785 240.139 258.894 240.309C262.323 234.169 262.205 223.252 262.676 216.195L262.883 211.24ZM610 320.541C607.778 321.634 606.122 322.882 604.442 324.703C604.067 327.193 603.864 329.908 602.506 332.099C598.902 337.906 577.316 358.133 570.733 363.023C566.75 365.982 562.155 367.407 557.548 369.113C548.148 372.593 538.458 375.294 529.17 379.058C531.414 379.738 533.729 380.339 535.922 381.162C534.288 388.15 532.536 395.141 531.169 402.187C528.162 417.698 525.993 433.428 523.669 449.055C520.873 468.303 517.699 487.488 514.147 506.611C510.735 524.349 507.334 542.361 500.757 559.247C494.013 576.565 480.569 598.449 464.45 608.404C463.553 608.952 462.647 609.484 461.731 610H610V320.541ZM447.496 282.645C445.509 294.684 444.31 306.767 442.723 318.858L434.672 378.051C433.082 390.276 431.41 402.489 429.656 414.692C428.33 423.565 426.54 432.401 425.875 441.359C425.206 450.375 425.507 459.556 425.358 468.602C425.109 485.984 424.766 503.363 424.328 520.741C424.079 531.772 424.078 542.809 423.774 553.838C423.535 562.519 422.815 571.307 423.253 579.987C423.16 589.991 423.153 599.996 423.232 610H452.433H461.731C462.647 609.484 463.553 608.952 464.45 608.404C480.569 598.449 494.013 576.565 500.757 559.247C507.334 542.361 510.735 524.349 514.147 506.611C517.699 487.488 520.873 468.303 523.669 449.055C525.993 433.428 528.162 417.698 531.169 402.187C532.536 395.141 534.288 388.15 535.922 381.162C533.729 380.339 531.414 379.738 529.17 379.058C525.795 377.881 522.172 377.186 518.707 376.296C511.058 374.367 503.428 372.366 495.817 370.293C494.458 369.816 492.914 369.664 491.493 369.41C488.826 380.387 486.117 391.143 482.281 401.784C482.396 394.357 480.944 386.616 479.826 379.284C477.843 365.821 475.401 352.442 472.499 339.147C469.164 323.928 461.245 291.437 447.496 282.645Z" fill="#96BEFB"/>
<path d="M262.883 211.24C263.006 211.309 263.131 211.376 263.253 211.446C264.785 212.335 266.175 213.955 267.539 215.108C269.496 216.766 271.551 218.29 273.706 219.679C286.736 228.225 303.528 230.707 318.598 227.069C325.138 225.49 332.292 222.631 337.65 218.493C340.049 216.64 342.45 214.12 345.161 212.792C345.544 220.703 346.434 233.613 349.561 240.843C350.805 240.151 351.622 239.786 353.044 240.15C357.305 241.242 368.984 249.803 372.64 252.912L374.486 254.363C372.518 257.686 372.294 261.568 370.597 264.727C367.857 275.983 363.974 286.932 360.524 297.982C348.86 335.341 336.145 372.059 319.528 407.54C314.941 417.336 310.629 427.319 304.549 436.308C281.365 394.815 265.747 349.902 251.946 304.58C248.212 292.316 243.655 279.806 241.113 267.249C239.781 263.568 238.854 259.621 237.783 255.85C237.431 254.635 236.572 253.293 236.012 252.138L236.668 251.652C239.777 249.375 252.871 241.547 255.897 240.503C256.97 240.133 257.785 240.139 258.893 240.308C262.323 234.168 262.205 223.252 262.676 216.195L262.883 211.24Z" fill="#EFF3FC"/>
<path d="M372.642 252.912L374.488 254.363C372.52 257.685 372.296 261.568 370.599 264.727C370.479 264.806 370.356 264.879 370.24 264.964C369.442 265.546 361.383 281.363 359.918 283.837C353.552 294.584 345.84 304.636 338.121 314.43C336.292 316.748 334.463 319.733 332.244 321.637C331.579 322.208 330.997 322.591 330.09 322.601C328.356 321.481 327.788 318.11 327.247 316.183C324.63 306.864 321.044 298.281 314.898 290.711C313.262 288.697 311.408 286.418 308.881 285.572C308.349 285.719 308.322 285.601 308.081 286.014C307.292 287.359 307.445 290.392 307.405 291.944C307.235 298.61 307.634 305.271 307.64 311.936L307.387 349.6C307.388 354.272 308.16 363.696 307.108 367.707C306.852 368.685 306.355 369.164 305.498 369.686C305.017 369.721 304.764 369.865 304.365 369.533C303.006 368.403 302.928 365.465 302.904 363.814C302.87 361.391 303.115 358.944 303.171 356.519L303.46 338.199L303.554 287.489C287.916 294.705 285.064 309.799 278.773 324.08C269.565 311.415 260.736 298.199 252.378 284.953C250.446 281.933 248.588 278.867 246.806 275.756C245.175 272.891 243.677 269.801 241.687 267.176C241.174 267.185 241.344 267.096 241.115 267.249C239.783 263.568 238.856 259.621 237.785 255.85C242.274 259.569 249.167 272.831 252.709 278.392C257.059 285.218 261.572 291.947 265.992 298.73C269.886 304.707 273.683 310.804 277.831 316.608C283.68 299.892 287.125 291.478 303.435 283.178L303.722 283.431C304.444 284.057 305.293 284.907 306.339 284.752C307.833 284.53 308.968 282.476 309.826 281.35C324.614 292.249 326.06 298.756 331.679 315.634C341.988 302.734 352.207 289.309 360.664 275.123C364.564 268.583 368.475 258.528 372.642 252.912Z" fill="#CBDEFB"/>
<path d="M349.561 240.843C350.805 240.151 351.621 239.786 353.043 240.15C357.305 241.242 368.983 249.803 372.64 252.912C368.473 258.528 364.562 268.583 360.662 275.124C352.205 289.309 341.986 302.734 331.677 315.634C326.058 298.756 324.611 292.249 309.824 281.35C319.423 269.671 331.899 260.382 341.71 248.83C344.028 246.936 348.204 243.453 349.561 240.843Z" fill="#EFF3FC"/>
<path d="M236.012 252.138L236.668 251.652C239.777 249.375 252.871 241.547 255.897 240.503C256.97 240.133 257.785 240.139 258.893 240.308C260.711 244.018 297.244 277.312 303.433 283.178C287.124 291.478 283.678 299.892 277.829 316.608C273.681 310.804 269.885 304.707 265.99 298.73C261.57 291.948 257.057 285.218 252.707 278.392C249.165 272.831 242.272 259.569 237.783 255.85C237.431 254.635 236.572 253.294 236.012 252.138Z" fill="#EFF3FC"/>
<path d="M262.884 211.24C263.007 211.309 263.132 211.376 263.254 211.447C264.787 212.335 266.176 213.955 267.541 215.108C269.497 216.766 271.552 218.29 273.707 219.679C286.737 228.225 303.529 230.707 318.599 227.069C325.139 225.49 332.293 222.631 337.651 218.493C340.051 216.64 342.451 214.12 345.162 212.792C345.546 220.703 346.435 233.613 349.562 240.843C348.205 243.453 344.03 246.936 341.712 248.831C331.901 260.382 319.425 269.671 309.826 281.35C308.968 282.477 307.833 284.531 306.338 284.753C305.292 284.908 304.444 284.057 303.721 283.431L303.434 283.178C297.245 277.312 260.713 244.019 258.895 240.309C262.324 234.169 262.206 223.252 262.677 216.195L262.884 211.24Z" fill="#FEAA82"/>
<path d="M262.882 211.24C263.006 211.309 263.13 211.376 263.252 211.446C264.785 212.335 266.175 213.955 267.539 215.108C269.495 216.766 271.551 218.29 273.706 219.679C286.736 228.225 303.528 230.707 318.598 227.069C325.138 225.49 332.291 222.631 337.65 218.493C340.049 216.64 342.449 214.12 345.161 212.792C345.544 220.703 346.433 233.613 349.561 240.843C348.204 243.453 344.029 246.935 341.71 248.83C331.547 250.576 321.249 251.157 311.006 249.648C295.635 247.385 279.902 239.608 270.011 227.413C267.237 223.993 265.504 219.947 262.877 216.456C262.811 216.368 262.743 216.282 262.676 216.195L262.882 211.24Z" fill="#B46A49"/>
<path d="M447.497 282.645C461.245 291.437 469.165 323.928 472.499 339.147C475.401 352.442 477.844 365.821 479.827 379.284C480.945 386.616 482.396 394.357 482.281 401.784C486.118 391.143 488.827 380.387 491.494 369.41C492.915 369.664 494.459 369.816 495.818 370.293C503.429 372.366 511.059 374.367 518.707 376.296C522.173 377.186 525.796 377.881 529.17 379.058C531.414 379.738 533.729 380.339 535.923 381.162C534.289 388.15 532.537 395.141 531.17 402.187C528.163 417.698 525.994 433.428 523.67 449.055C520.873 468.303 517.7 487.488 514.148 506.611C510.736 524.349 507.334 542.361 500.758 559.247C494.014 576.565 480.57 598.449 464.451 608.404C463.554 608.952 462.647 609.484 461.732 610H452.434H423.232C423.153 599.995 423.16 589.991 423.254 579.987C422.815 571.307 423.536 562.519 423.775 553.838C424.079 542.81 424.079 531.772 424.328 520.741C424.767 503.363 425.11 485.984 425.358 468.602C425.508 459.556 425.207 450.375 425.876 441.359C426.541 432.401 428.33 423.565 429.657 414.692C431.411 402.489 433.083 390.276 434.673 378.051L442.724 318.858C444.311 306.767 445.51 294.684 447.497 282.645ZM423.254 579.987C423.16 589.991 423.153 599.995 423.232 610H452.434C439.172 603.703 431.88 591.247 423.254 579.987Z" fill="#618BE4"/>
</g>
<defs>
<clipPath id="clip0_103_816">
<rect width="610" height="610" fill="white"/>
</clipPath>
</defs>
</svg>
