<svg width="145" height="145" viewBox="0 0 145 145" fill="none" xmlns="http://www.w3.org/2000/svg">
<path d="M57.9685 73.3C58.1436 77.445 58.0478 81.6158 58.0479 85.7657C58.0482 90.5102 58.1221 95.2694 58.0478 100.012H53.927L53.8916 77.9309C54.6445 76.7315 56.8948 74.5001 57.9685 73.3Z" fill="#001F50"/>
<path d="M44 102.697L83.2491 102.702C89.7435 102.707 96.2552 102.573 102.747 102.721C102.727 103.594 102.84 108.448 102.643 108.835L43.8655 108.822C43.8571 106.859 43.7242 104.729 43.8762 102.788L44 102.697Z" fill="#001F50"/>
<path d="M78.8524 76.522C79.249 76.5685 79.623 76.6761 80.0038 76.8072C82.2639 77.5844 84.4986 78.5255 86.7444 79.3612C87.7627 79.7402 90.9515 80.7516 91.6542 81.258C92.8786 82.1404 90.8238 84.8157 91.2894 86.6209C91.3486 86.8502 91.4663 87.0598 91.6703 87.1522C92.1573 87.3731 92.7039 86.9602 93.1156 86.7077C93.4822 86.7788 93.8565 86.8423 94.2133 86.9633C94.6693 87.1177 95.1527 87.3805 95.3672 87.8923C95.6596 88.5903 95.381 89.3679 95.1665 90.0392C96.9816 91.147 99.0485 91.7979 100.979 92.6032C103.244 93.5477 105.48 94.5982 107.713 95.6344C108.749 95.3789 109.838 95.244 110.871 95.5837C112.305 96.0552 113.452 97.3721 114.145 98.831C114.893 100.404 115.095 102.159 114.622 103.873C114.253 105.209 113.517 106.326 112.404 106.971C110.887 107.85 108.952 107.849 107.358 107.262C108.492 106.286 109.553 105.492 110.487 104.241C110.804 103.659 111.079 103.058 111.195 102.379C111.292 101.812 111.263 101.213 110.964 100.726C110.698 100.294 110.188 99.917 109.724 99.8498C108.891 99.7292 108.233 100.719 107.648 101.26C107.203 101.273 106.81 101.202 106.388 101.062C104.982 100.594 103.59 99.8427 102.222 99.2391C99.3204 97.9427 96.4072 96.6792 93.483 95.4485C93.3636 95.8399 93.2441 96.2347 93.1059 96.6179C92.8361 97.366 92.3881 97.705 91.7554 97.9924C90.8691 97.7337 89.9879 97.2913 89.2011 96.7642C89.3689 96.0544 89.736 95.0716 89.3616 94.3932C89.2438 94.1798 89.116 94.1211 88.9061 94.0772C87.9775 94.5242 88.0388 97.0067 87.1654 97.7298C86.8802 97.966 86.4714 97.8877 86.1464 97.8189C85.1059 97.5986 84.0973 97.046 83.0907 96.6763L78.5801 94.9923C77.5902 94.6279 76.5484 94.3095 75.5926 93.8439C75.1974 93.6515 74.6355 93.3807 74.4044 92.9551C74.1624 92.5098 74.2359 91.9867 74.3303 91.5033C74.5568 90.344 74.8956 89.2022 75.2005 88.067C75.7204 86.1301 76.2506 84.1969 76.791 82.2673C77.236 80.6602 77.5634 78.8413 78.1801 77.3168C78.3343 76.9358 78.547 76.7438 78.8524 76.522ZM77.7694 89.0506C77.3339 89.2619 76.9641 89.5742 76.781 90.088C76.6309 90.5091 76.6563 90.9787 76.8337 91.3833C77.0158 91.7984 77.3728 92.1359 77.7686 92.2574C77.959 92.3157 78.1663 92.3281 78.3624 92.331C78.8289 92.1074 79.1826 91.8287 79.3668 91.2715C79.3834 91.2211 79.3977 91.17 79.4097 91.118C79.4218 91.066 79.4316 91.0135 79.4392 90.9605C79.4466 90.9074 79.4518 90.854 79.4546 90.8004C79.4575 90.7467 79.458 90.693 79.4562 90.6393C79.4544 90.5856 79.4502 90.5322 79.4437 90.4789C79.4372 90.4257 79.4284 90.3729 79.4172 90.3207C79.4062 90.2685 79.3928 90.217 79.3772 90.1663C79.3616 90.1155 79.3438 90.0657 79.3239 90.0169C79.1476 89.5885 78.8011 89.2598 78.4029 89.1231C78.2003 89.0537 77.9793 89.0548 77.7694 89.0506ZM80.2596 79.1615C79.8225 79.4045 79.4776 79.6297 79.3191 80.1858C79.216 80.5477 79.2374 80.9261 79.3973 81.263C79.575 81.6375 79.897 81.9099 80.2542 82.0297C80.5239 82.1202 80.8027 82.0787 81.0774 82.0472C81.5002 81.7761 81.8994 81.4746 82.0287 80.9104C82.0379 80.8712 82.0454 80.8314 82.051 80.7912C82.0567 80.7511 82.0606 80.7108 82.0626 80.6701C82.0647 80.6295 82.065 80.5888 82.0635 80.5482C82.062 80.5076 82.0587 80.4672 82.0536 80.4269C82.0485 80.3867 82.0416 80.3469 82.0329 80.3074C82.0242 80.268 82.0138 80.2291 82.0017 80.1908C81.9897 80.1525 81.9759 80.115 81.9604 80.0782C81.9449 80.0415 81.9279 80.0058 81.9093 79.9711C81.6867 79.55 81.2818 79.2861 80.8634 79.1947C80.6596 79.1501 80.4659 79.1495 80.2596 79.1615Z" fill="#001F50"/>
<path d="M73.4227 44.5847C74.6734 45.6304 75.7943 47.1468 76.8947 48.4029C78.9987 50.8099 81.1151 53.2028 83.2439 55.5816L96.0836 69.8761C98.4885 72.5589 100.998 75.1388 103.231 78.0105C101.983 79.19 100.829 80.4887 99.6726 81.7804C97.8298 79.5219 95.8366 77.3994 93.9149 75.2255C90.2586 71.0475 86.5651 66.9122 82.8343 62.8196C79.695 59.3609 76.7003 55.7435 73.5392 52.3064C72.8075 52.9514 72.1514 53.7406 71.4853 54.4719L68.2553 58.0275L52.627 75.4814C51.5318 76.6881 48.4338 80.4178 47.3259 81.1383C46.1791 80.4709 44.6689 78.7133 43.9736 77.4908C44.8136 76.1238 46.9359 74.0733 48.0617 72.8005L59.0225 60.4548C58.9195 59.6714 58.9789 58.8007 58.9782 58.0051L58.9776 53.36C58.9094 53.3661 58.8413 53.3718 58.7731 53.3772C58.2158 53.4213 56.9848 53.6373 56.5585 53.1547C56.1944 52.7423 56.3482 50.7593 56.3939 50.2025C56.4183 49.9072 56.4214 49.5801 56.6317 49.3827C57.5773 49.2142 63.6567 49.1417 64.3008 49.4876C64.6738 50.2991 64.477 52.3876 64.4594 53.3335L62.5845 53.3116L62.5921 56.6201C63.7268 55.5569 64.7034 54.2722 65.7426 53.0924C67.2814 51.3451 68.8658 49.6494 70.3985 47.8947C71.3839 46.7666 72.3058 45.5517 73.4227 44.5847Z" fill="#001F50"/>
<path d="M73.5315 55.9976C75.4192 58.4018 77.5794 60.5775 79.6213 62.8135L88.0334 72.1715C89.7977 74.1344 91.6344 76.0582 93.3279 78.0986C93.283 78.7043 93.2408 79.3097 93.1747 79.913C91.698 79.0753 90.1634 78.5434 88.5967 77.9746L84.0263 76.3172C82.6988 75.8363 81.007 75.0577 79.6574 74.7886C79.2629 74.7098 78.8769 74.7427 78.4953 74.8814C77.6066 75.2047 76.9182 76.0481 76.5166 76.9788C75.8979 78.413 75.7201 80.0471 75.2978 81.5576L70.1125 81.544C69.2517 81.5433 68.3432 81.6122 67.4873 81.5255C67.5563 87.7086 67.5281 93.905 67.4892 100.089C64.3461 99.9837 61.1927 100.008 58.048 100.012C58.1224 95.2695 58.0485 90.5103 58.0482 85.7658C58.048 81.6158 58.1439 77.4451 57.9688 73.3001C61.1668 69.3929 64.6815 65.7735 68.0378 62.0376L71.3609 58.2949C72.05 57.5184 72.7459 56.6483 73.5315 55.9976ZM63.159 87.0283C62.4676 87.251 61.8478 87.5434 61.4788 88.2954C61.4497 88.3551 61.4234 88.4162 61.3998 88.4789C61.3762 88.5416 61.3554 88.6055 61.3376 88.6706C61.3197 88.7356 61.3048 88.8015 61.2928 88.8684C61.2809 88.9351 61.2719 89.0024 61.2659 89.0702C61.2601 89.138 61.2572 89.2059 61.2573 89.2741C61.2575 89.3423 61.2607 89.4102 61.2671 89.4779C61.2733 89.5457 61.2826 89.613 61.2948 89.6797C61.3071 89.7465 61.3223 89.8123 61.3406 89.8772C61.4958 90.4357 61.8485 90.8736 62.3091 91.132C62.679 91.3395 63.0491 91.3825 63.4557 91.3866C64.0954 91.2025 64.6134 90.9647 64.9626 90.2803C65.2304 89.7556 65.2659 89.1209 65.1103 88.5472C65.0926 88.4805 65.0721 88.415 65.0487 88.3506C65.0253 88.2862 64.9991 88.2233 64.9702 88.1619C64.9413 88.1006 64.9097 88.0409 64.8755 87.9831C64.8413 87.9252 64.8047 87.8694 64.7656 87.8156C64.7264 87.7619 64.6851 87.7106 64.6414 87.6616C64.5978 87.6125 64.5522 87.5661 64.5045 87.5222C64.4567 87.4783 64.4072 87.4372 64.3558 87.3989C64.3046 87.3606 64.2517 87.3253 64.1972 87.293C63.8816 87.1058 63.5136 87.0198 63.159 87.0283Z" fill="#FEB81D"/>
<path d="M68.1207 27.2186C70.6685 26.9753 69.6148 30.0824 71.2045 31.2139C71.8354 31.663 73.1498 31.6422 73.8574 31.4524C75.5681 30.9938 75.0791 29.1843 75.8285 27.9098C76.0586 27.5186 76.3855 27.2959 76.7895 27.2066C77.4778 27.0545 78.6842 27.1694 79.2623 27.6293C80.1545 28.3394 79.8109 29.8443 79.9852 30.8913C80.0809 31.4656 80.3184 31.9673 80.7569 32.2938C81.3998 32.7723 82.6708 33.108 83.4183 32.8951C84.4531 32.6003 84.6592 31.4195 85.1657 30.532C85.4017 30.1183 85.7239 29.7808 86.1621 29.6839C86.8696 29.5275 87.935 29.9834 88.5238 30.4378C89.9687 31.553 88.767 33.1661 89.0475 34.6473C89.2153 35.5335 89.8627 36.0943 90.4965 36.5648C93.1605 38.5417 93.1418 35.2663 94.8296 34.9533C95.5115 34.8269 96.2218 35.3884 96.7352 35.841C98.6682 37.5447 96.7763 38.6 97.0268 40.5031C97.1469 41.4163 97.7749 42.2723 98.4421 42.7766C99.7778 43.7862 100.819 42.3775 102.1 42.148C102.601 42.0583 103.059 42.2087 103.46 42.5531C103.988 43.0063 104.717 44.1224 104.784 44.8829C104.864 45.7823 104.245 46.4426 103.805 47.0978C103.425 47.6641 103.182 48.2792 103.281 49.003C103.362 49.5989 103.634 50.1234 103.958 50.5909C105.713 53.1192 107.338 50.6122 108.858 51.9417C109.429 52.4407 110.021 53.7916 110.102 54.5982C110.246 56.0409 108.448 56.4462 107.797 57.4C107.441 57.9226 107.374 58.5458 107.457 59.1847C108.005 63.4004 110.416 61.2354 111.89 62.5814C112.436 63.0793 112.659 63.9806 112.735 64.7446C112.963 67.0646 110.404 66.7784 109.499 68.2049C109.069 68.8835 109.08 69.7516 109.18 70.5432C109.485 72.9755 111.237 72.198 112.485 73.3156C112.836 73.6304 113.02 74.082 113.067 74.581C113.164 75.614 112.919 76.5125 112.334 77.3036C111.513 77.6604 110.585 77.4939 109.785 77.8835C109.133 78.2008 108.687 78.6714 108.443 79.434C107.079 83.6895 110.248 82.9081 111.001 85.0131C111.237 85.674 111.016 86.5149 110.77 87.1422C109.871 89.433 108.067 87.6134 106.559 88.3169C105.489 88.8164 105.012 90.1545 104.623 91.2861C102.898 90.7667 101.28 89.8061 99.6004 89.1281C100.157 87.7694 100.992 86.5877 101.552 85.2374C101.969 84.2347 102.156 82.9428 102.733 82.0544C103.215 81.3137 103.957 80.8704 104.556 80.2684C105.105 79.7158 105.668 78.9356 105.695 78.0715C105.735 76.7725 104.917 75.8121 104.192 74.9339C104.314 71.5616 104.262 68.2765 103.69 64.9496C102.181 56.1729 97.5399 47.9406 90.9647 42.9415C83.1923 37.0324 74.7557 35.4912 65.6504 37.528C65.2779 37.6274 64.9072 37.7346 64.5381 37.8497C64.1691 37.9647 63.8022 38.0875 63.4372 38.2181C63.0722 38.3488 62.7096 38.4871 62.3491 38.6331C61.9888 38.7792 61.631 38.9328 61.2756 39.0939C60.9203 39.2551 60.5678 39.4238 60.2182 39.6C59.8684 39.7762 59.5217 39.9597 59.1781 40.1505C58.8345 40.3413 58.4941 40.5394 58.157 40.7447C57.8199 40.95 57.4863 41.1624 57.1562 41.3818C56.8262 41.6014 56.4998 41.8278 56.1771 42.061C55.8546 42.2944 55.536 42.5344 55.2213 42.7812C54.9067 43.0281 54.5962 43.2815 54.2899 43.5416C53.9836 43.8015 53.6818 44.0679 53.3843 44.3407C53.0869 44.6135 52.794 44.8926 52.5058 45.1779C52.2175 45.4631 51.9341 45.7544 51.6555 46.0516C51.3769 46.3489 51.1032 46.652 50.8347 46.9608C50.5661 47.2697 50.3027 47.5841 50.0445 47.9042C44.6475 54.5026 41.5535 63.0687 41.8653 72.1163C41.8721 72.3488 41.8811 72.5813 41.8924 72.8136C41.9037 73.0459 41.9173 73.2781 41.933 73.5101C41.9488 73.7421 41.9668 73.9738 41.987 74.2053C42.0072 74.4369 42.0296 74.6681 42.0544 74.8991C42.079 75.1301 42.1059 75.3607 42.1351 75.5909C42.1643 75.8213 42.1956 76.0512 42.2292 76.2807C42.2629 76.5103 42.2987 76.7394 42.3367 76.968C42.3747 77.1967 42.4149 77.4248 42.4574 77.6523C42.4998 77.88 42.5444 78.1072 42.5912 78.3338C42.638 78.5602 42.687 78.7862 42.7382 79.0115C42.7893 79.2368 42.8427 79.4615 42.8982 79.6855C42.9537 79.9095 43.0113 80.1328 43.0711 80.3554C43.1309 80.5779 43.1929 80.7997 43.257 81.0208C43.3211 81.2418 43.3873 81.462 43.4557 81.6815C43.5241 81.9008 43.5946 82.1193 43.6671 82.3371C43.7397 82.5547 43.8143 82.7714 43.8911 82.9872C43.9679 83.203 44.0468 83.4178 44.1277 83.6317C44.2086 83.8455 44.2915 84.0583 44.3765 84.2701C44.4615 84.4819 44.5486 84.6926 44.6377 84.9023C44.7269 85.1119 44.818 85.3204 44.911 85.5277C45.0041 85.7351 45.0992 85.9413 45.1964 86.1464C45.2934 86.3514 45.3925 86.5552 45.4936 86.7577C45.5946 86.9603 45.6975 87.1615 45.8024 87.3615C45.9074 87.5616 46.0143 87.7603 46.123 87.9576C46.2318 88.155 46.3424 88.351 46.4549 88.5456C46.5674 88.7403 46.6819 88.9335 46.7982 89.1252C46.9145 89.3171 47.0326 89.5074 47.1526 89.6963C47.2725 89.8851 47.3942 90.0725 47.5178 90.2583C47.6414 90.4441 47.7667 90.6283 47.8939 90.8111C48.0209 90.9938 48.1498 91.175 48.2805 91.3546C48.4111 91.5341 48.5434 91.712 48.6775 91.8882C48.8115 92.0645 48.9473 92.239 49.0847 92.412C50.1904 93.8168 51.4403 95.068 52.6575 96.3461C51.7582 97.6098 50.6499 98.8769 49.5324 99.8924C49.0013 99.9391 48.4592 99.9245 47.9263 99.9321C47.9283 99.722 47.9227 99.5122 47.9096 99.3026C47.8469 98.3716 47.5172 97.7192 46.8827 97.1273C45.1866 95.5452 44.1099 97.6222 42.4695 97.7292C42.0671 97.7555 41.7147 97.5088 41.4255 97.2122C38.5408 94.2522 42.349 93.5818 42.1584 91.0166C42.1017 90.2545 41.6383 89.2455 41.1116 88.7606C39.9707 87.7101 38.6238 88.5534 37.3689 88.6315C36.937 88.6584 36.5284 88.5487 36.2093 88.2029C35.7379 87.6923 35.3464 86.4594 35.334 85.7124C35.3071 84.1048 36.9533 83.74 37.7528 82.7594C38.1354 82.2901 38.3147 81.7264 38.2822 81.088C38.0701 76.9194 34.9563 78.873 33.6322 77.4053C32.9621 76.6625 32.9361 75.3669 32.9189 74.3715C33.609 73.1983 34.5845 73.2005 35.6494 72.7485C36.2358 72.4996 36.7374 72.1107 36.9928 71.4415C37.2616 70.7378 37.2869 69.6084 37.0233 68.8926C36.5701 67.6633 35.495 67.4318 34.5042 66.9947C34.0005 66.7725 33.4849 66.5094 33.2708 65.9026C33.0246 65.2047 33.1274 63.8662 33.397 63.1893C34.0393 61.5766 36.1899 62.3156 37.3954 61.7411C37.9226 61.4901 38.2791 61.0294 38.469 60.4226C39.5428 56.9907 36.5936 57.1503 35.6799 54.9532L35.6401 54.8548C35.8133 53.9506 36.037 52.9025 36.5512 52.1619C37.5866 50.6704 39.2555 52.2208 40.5684 52.0435C41.2935 51.9455 41.8939 51.4115 42.3287 50.7731C44.2578 47.9395 41.0884 47.0945 40.921 45.0517C40.8615 44.3245 41.3155 43.7183 41.7049 43.1973C43.865 40.3071 44.6372 43.6742 46.7114 43.3953C47.4042 43.3022 48.1119 42.676 48.5076 42.043C49.4495 40.5365 48.4162 39.4627 48.2102 37.9958C48.1302 37.4271 48.237 36.8928 48.5379 36.4262C48.9116 35.8466 49.8866 35.106 50.5383 35.0366C51.4831 34.9358 52.1207 36.0131 52.7956 36.5882C53.293 37.012 53.8719 37.2194 54.4936 37.1073C55.1939 36.981 56.0932 36.4154 56.4942 35.7352C57.0185 34.8455 56.7444 33.8762 56.5939 32.9147C56.4895 32.2484 56.4697 31.5508 56.8465 30.9836C57.2617 30.3588 58.2039 29.9473 58.8848 29.8597C60.4862 29.6541 60.736 31.6842 61.7415 32.5793C62.1971 32.9846 62.7598 33.103 63.3265 33.0233C63.7642 32.9617 64.1887 32.8026 64.5867 32.5904C66.5571 31.5397 65.0227 29.508 66.0602 28.0691C66.5578 27.379 67.3971 27.3075 68.1207 27.2186Z" fill="#FEB81D"/>
</svg>
