<svg width="145" height="145" viewBox="0 0 145 145" fill="none" xmlns="http://www.w3.org/2000/svg">
<path d="M82.7725 33.8573C83.3286 33.8222 83.8335 33.884 84.3447 34.1175C86.699 35.193 89.2342 39.2506 90.0895 41.5838C91.6446 45.8259 91.4885 50.3254 89.5868 54.4252C88.9454 55.8081 88.1697 57.151 86.664 57.6969C85.9379 57.7936 85.2988 57.6816 84.6637 57.3007C84.1806 57.0108 83.7671 56.5897 83.5111 56.086C82.8631 54.8118 83.5152 53.9041 84.0925 52.8027C84.3369 52.3367 84.5503 51.8347 84.7368 51.3424C84.859 51.0171 84.9658 50.6869 85.0574 50.3517C85.149 50.0166 85.2249 49.678 85.2852 49.3359C85.3455 48.9937 85.3898 48.6494 85.4183 48.3032C85.4469 47.9569 85.4593 47.6101 85.4557 47.2627C85.4183 44.6691 84.5448 41.9914 82.7997 40.0388C81.9982 39.142 80.6896 38.1972 80.4252 36.9664C80.2936 36.3534 80.4731 35.64 80.8065 35.1188C81.269 34.3955 81.9519 34.0256 82.7725 33.8573Z" fill="#FEB81D"/>
<path d="M61.5847 33.7825C62.2021 33.7426 62.7736 33.8693 63.2957 34.2108C63.3351 34.2367 63.3739 34.2636 63.4119 34.2914C63.45 34.3193 63.4873 34.348 63.5239 34.3778C63.5606 34.4075 63.5964 34.4381 63.6316 34.4697C63.6667 34.5012 63.7009 34.5336 63.7344 34.567C63.7679 34.6002 63.8005 34.6342 63.8322 34.6691C63.8639 34.704 63.8948 34.7397 63.9248 34.7761C63.9547 34.8125 63.9837 34.8497 64.0118 34.8875C64.0399 34.9255 64.067 34.9641 64.0932 35.0034C64.1193 35.0426 64.1445 35.0825 64.1687 35.123C64.1927 35.1635 64.2158 35.2046 64.2379 35.2464C64.26 35.2881 64.281 35.3303 64.3009 35.373C64.3209 35.4157 64.3398 35.459 64.3575 35.5027C64.3754 35.5464 64.3921 35.5905 64.4075 35.6351C64.4231 35.6795 64.4376 35.7244 64.4509 35.7697C64.4642 35.8149 64.4764 35.8605 64.4874 35.9064C64.4984 35.9522 64.5083 35.9984 64.517 36.0447C64.8227 37.6896 63.5019 38.6846 62.5026 39.7346C62.0111 40.251 61.5615 40.7937 61.1695 41.3899C61.1053 41.4883 61.0428 41.5878 60.9818 41.6884C60.9208 41.7888 60.8615 41.8903 60.8038 41.9927C60.7461 42.0951 60.6901 42.1984 60.6358 42.3027C60.5815 42.4069 60.5288 42.5119 60.4778 42.6179C60.4269 42.7238 60.3777 42.8305 60.3303 42.938C60.2828 43.0455 60.237 43.1538 60.193 43.2629C60.1491 43.3719 60.1068 43.4816 60.0663 43.5919C60.0259 43.7023 59.9873 43.8133 59.9505 43.9248C59.9137 44.0365 59.8786 44.1487 59.8454 44.2614C59.8122 44.3742 59.7808 44.4875 59.7512 44.6013C59.7217 44.715 59.694 44.8292 59.6681 44.9438C59.6423 45.0585 59.6183 45.1736 59.5962 45.289C59.5741 45.4045 59.5539 45.5203 59.5355 45.6364C59.517 45.7525 59.5005 45.8688 59.4859 45.9854C59.4714 46.102 59.4587 46.2188 59.4478 46.3359C59.4369 46.4529 59.428 46.5701 59.421 46.6875C59.414 46.8048 59.4088 46.9223 59.4056 47.0398C59.4024 47.1572 59.4011 47.2747 59.4016 47.3922C59.4021 47.5099 59.4046 47.6274 59.409 47.7448C59.4133 47.8623 59.4196 47.9796 59.4278 48.0968C59.436 48.2141 59.446 48.3312 59.458 48.4482C59.4699 48.5651 59.4837 48.6819 59.4995 48.7983C59.5152 48.9148 59.5329 49.031 59.5523 49.1468C59.5718 49.2627 59.5932 49.3783 59.6164 49.4936C59.6397 49.6088 59.6647 49.7236 59.6916 49.838C59.7186 49.9524 59.7474 50.0663 59.778 50.1798C59.8087 50.2934 59.8412 50.4063 59.8754 50.5187C59.9097 50.6311 59.9458 50.743 59.9838 50.8543C60.0217 50.9656 60.0614 51.0762 60.1028 51.1862C60.1444 51.2961 60.1877 51.4054 60.2327 51.514C60.2777 51.6225 60.3245 51.7303 60.373 51.8374C60.4215 51.9444 60.4718 52.0507 60.5237 52.1561C60.9539 53.0406 61.7371 53.8824 61.9061 54.8687C62.0199 55.5322 61.8125 56.2106 61.4345 56.7528C60.8875 57.5374 60.2088 57.7629 59.3131 57.9359C58.7735 57.895 58.265 57.7684 57.7943 57.4937C55.9386 56.4106 54.6365 53.0627 54.1448 51.0916C54.1138 50.9622 54.0843 50.8324 54.0563 50.7023C54.0284 50.5722 54.002 50.4418 53.9772 50.3111C53.9524 50.1803 53.9293 50.0493 53.9078 49.918C53.8862 49.7867 53.8661 49.6551 53.8477 49.5233C53.8294 49.3916 53.8127 49.2596 53.7975 49.1274C53.7823 48.9953 53.7687 48.8629 53.7567 48.7304C53.7448 48.5978 53.7345 48.4652 53.7257 48.3323C53.717 48.1996 53.7099 48.0667 53.7044 47.9337C53.699 47.8008 53.6951 47.6678 53.6928 47.5348C53.6906 47.4017 53.6899 47.2687 53.6908 47.1357C53.6918 47.0026 53.6944 46.8695 53.6986 46.7365C53.7029 46.6035 53.7087 46.4706 53.716 46.3377C53.7235 46.2049 53.7326 46.0722 53.7432 45.9395C53.7539 45.8069 53.7662 45.6744 53.7801 45.5421C53.794 45.4097 53.8096 45.2776 53.8266 45.1456C53.8437 45.0136 53.8624 44.8819 53.8827 44.7504C53.903 44.6189 53.9249 44.4877 53.9484 44.3567C53.9719 44.2257 53.997 44.095 54.0237 43.9646C54.0504 43.8343 54.0786 43.7043 54.1084 43.5747C54.1383 43.445 54.1697 43.3156 54.2027 43.1867C54.2357 43.0578 54.2702 42.9293 54.3064 42.8012C54.3424 42.6731 54.3801 42.5455 54.4194 42.4185C54.4586 42.2913 54.4993 42.1646 54.5416 42.0384C54.5839 41.9123 54.6277 41.7867 54.673 41.6615C54.7184 41.5364 54.7653 41.4119 54.8136 41.2879C54.862 41.164 54.9119 41.0407 54.9633 40.9179C55.0146 40.7951 55.0675 40.673 55.1219 40.5516C55.1762 40.4301 55.2319 40.3093 55.2892 40.1892C55.3465 40.0692 55.4053 39.9498 55.4654 39.831C55.5256 39.7123 55.5873 39.5944 55.6503 39.4773C55.7134 39.3601 55.7779 39.2437 55.8438 39.1281C55.9096 39.0124 55.9769 38.8977 56.0455 38.7837C57.2834 36.7226 59.1422 34.3924 61.5847 33.7825Z" fill="#FEB81D"/>
<path d="M71.925 41.0204C73.6699 40.9025 75.462 41.3175 76.8771 42.3724C78.3947 43.5038 79.4762 45.3121 79.7284 47.1891C79.7433 47.3029 79.7554 47.417 79.7647 47.5314C79.7739 47.6458 79.7803 47.7604 79.7839 47.8752C79.7874 47.9899 79.7881 48.1046 79.786 48.2193C79.7839 48.3341 79.7788 48.4487 79.7709 48.5632C79.7631 48.6778 79.7524 48.792 79.7389 48.9059C79.7253 49.02 79.7089 49.1335 79.6898 49.2466C79.6705 49.3598 79.6485 49.4724 79.6236 49.5845C79.5989 49.6965 79.5713 49.8079 79.5409 49.9187C79.5106 50.0293 79.4775 50.1391 79.4417 50.2482C79.4059 50.3573 79.3674 50.4654 79.3261 50.5724C79.285 50.6796 79.2411 50.7856 79.1946 50.8906C79.1481 50.9956 79.0991 51.0993 79.0475 51.2017C78.9958 51.3042 78.9417 51.4054 78.885 51.5053C78.8283 51.6051 78.7692 51.7034 78.7076 51.8003C78.6461 51.8971 78.5821 51.9924 78.5157 52.086C78.4495 52.1797 78.3809 52.2717 78.31 52.362C77.0241 54.0213 75.2309 54.8557 73.1789 55.1108C71.3666 55.2381 69.534 54.7634 68.0738 53.664C67.9808 53.5928 67.8896 53.5194 67.8002 53.4437C67.7108 53.368 67.6234 53.2901 67.5379 53.21C67.4524 53.13 67.369 53.0479 67.2876 52.9637C67.2061 52.8794 67.1268 52.7933 67.0497 52.7051C66.9726 52.6169 66.8977 52.5269 66.825 52.4351C66.7524 52.3432 66.6821 52.2496 66.614 52.1543C66.546 52.0588 66.4805 51.9618 66.4173 51.8633C66.3541 51.7646 66.2935 51.6645 66.2352 51.5628C66.1771 51.4611 66.1215 51.3581 66.0684 51.2537C66.0152 51.1493 65.9648 51.0436 65.917 50.9368C65.8692 50.8298 65.824 50.7218 65.7815 50.6126C65.7391 50.5034 65.6994 50.3933 65.6624 50.2821C65.6254 50.171 65.5912 50.059 65.5599 49.9461C65.5285 49.8333 65.4999 49.7198 65.4741 49.6056C65.4483 49.4913 65.4254 49.3764 65.4054 49.2611C65.3853 49.1456 65.3681 49.0298 65.3539 48.9136C65.3383 48.798 65.3256 48.6822 65.3158 48.5661C65.306 48.4499 65.2991 48.3335 65.2951 48.217C65.2911 48.1005 65.2901 47.984 65.2919 47.8674C65.2937 47.7509 65.2985 47.6345 65.3062 47.5181C65.3138 47.4018 65.3243 47.2858 65.3377 47.17C65.3512 47.0542 65.3676 46.9388 65.3869 46.8238C65.406 46.7088 65.4281 46.5944 65.453 46.4806C65.478 46.3666 65.5058 46.2534 65.5364 46.141C65.567 46.0285 65.6004 45.9168 65.6365 45.806C65.6727 45.6952 65.7116 45.5854 65.7533 45.4765C65.795 45.3676 65.8393 45.2599 65.8864 45.1532C65.9335 45.0465 65.9831 44.9411 66.0354 44.837C66.0878 44.7328 66.1427 44.63 66.2001 44.5286C66.2576 44.4272 66.3175 44.3273 66.3799 44.2288C66.4424 44.1304 66.5073 44.0336 66.5746 43.9384C66.6419 43.8431 66.7116 43.7497 66.7835 43.658C68.1038 41.9815 69.852 41.264 71.925 41.0204Z" fill="#001F50"/>
<path d="M89.6968 25.8569C90.6543 25.8 91.3894 26.1013 92.1515 26.6583C93.0029 27.2806 93.7615 28.0563 94.5012 28.8054C94.7471 29.0519 94.9881 29.3033 95.2242 29.5594C95.4602 29.8155 95.6911 30.0761 95.9169 30.3413C96.1428 30.6065 96.3633 30.876 96.5785 31.1497C96.7937 31.4236 97.0035 31.7015 97.2078 31.9836C97.4121 32.2657 97.6108 32.5517 97.8039 32.8416C97.997 33.1314 98.1842 33.4249 98.3657 33.7222C98.5472 34.0194 98.7228 34.32 98.8926 34.6242C99.0623 34.9284 99.2259 35.2357 99.3835 35.5463C99.5411 35.8569 99.6927 36.1704 99.838 36.487C99.9833 36.8035 100.122 37.1228 100.255 37.4448C100.388 37.7667 100.514 38.0911 100.634 38.4181C100.754 38.745 100.868 39.0742 100.975 39.4057C101.082 39.7371 101.182 40.0705 101.276 40.4058C101.37 40.7412 101.458 41.0783 101.538 41.4171C101.619 41.7559 101.693 42.0961 101.761 42.4378C101.828 42.7795 101.888 43.1224 101.942 43.4665C101.975 43.6775 102.004 43.8888 102.031 44.1005C102.058 44.3122 102.082 44.5242 102.104 44.7365C102.126 44.9488 102.145 45.1614 102.161 45.3742C102.178 45.5868 102.192 45.7998 102.203 46.0129C102.214 46.226 102.223 46.4392 102.229 46.6525C102.235 46.8659 102.238 47.0793 102.239 47.2927C102.24 47.5061 102.238 47.7194 102.234 47.9328C102.229 48.1461 102.222 48.3594 102.212 48.5727C102.202 48.7858 102.19 48.9988 102.175 49.2117C102.16 49.4246 102.142 49.6373 102.122 49.8498C102.102 50.0622 102.079 50.2743 102.054 50.4861C102.028 50.698 102 50.9096 101.969 51.1208C101.939 51.332 101.905 51.5427 101.87 51.7532C101.834 51.9635 101.795 52.1734 101.754 52.3829C101.713 52.5923 101.67 52.8011 101.623 53.0095C101.577 53.2178 101.528 53.4256 101.477 53.6328C101.426 53.8399 101.372 54.0464 101.316 54.2522C101.259 54.458 101.2 54.6632 101.139 54.8676C101.077 55.0719 101.014 55.2755 100.947 55.4783C100.881 55.6811 100.812 55.883 100.74 56.0841C100.669 56.2852 100.595 56.4854 100.519 56.6847C100.442 56.884 100.363 57.0823 100.282 57.2796C100.201 57.4769 100.117 57.6732 100.031 57.8685C99.9451 58.0638 99.8566 58.258 99.7658 58.4511C99.6749 58.6442 99.5817 58.8362 99.4862 59.027C99.3905 59.2177 99.2926 59.4073 99.1923 59.5958C99.0921 59.7841 98.9895 59.9712 98.8846 60.1571C98.7797 60.343 98.6726 60.5275 98.5632 60.7107C98.4538 60.894 98.3422 61.0758 98.2283 61.2563C98.1144 61.4367 97.9982 61.6158 97.88 61.7934C97.7617 61.971 97.6412 62.1471 97.5186 62.3217C97.3959 62.4964 97.2711 62.6695 97.1442 62.8411C95.8341 64.6086 93.6655 67.3408 91.4204 67.6773C90.8738 67.6959 90.35 67.5906 89.8595 67.3486C89.1304 66.9891 88.4979 66.333 88.2461 65.5512C88.064 64.9861 88.1182 64.3575 88.4322 63.8474C88.9615 62.9868 90.0127 62.3617 90.7547 61.6773C92.1801 60.3624 93.2636 58.8104 94.1737 57.1047C98.2975 49.3751 96.8263 39.6869 91.1474 33.1531C90.7343 32.6849 90.29 32.2483 89.8146 31.8434C88.8799 31.0581 87.6488 30.3477 87.2999 29.1006C87.2786 29.0257 87.2611 28.9499 87.2474 28.8732C87.2337 28.7965 87.2238 28.7194 87.2178 28.6418C87.2118 28.5641 87.2098 28.4863 87.2116 28.4085C87.2134 28.3307 87.2192 28.2531 87.2288 28.1758C87.2384 28.0985 87.2518 28.0219 87.2692 27.946C87.2865 27.87 87.3075 27.7951 87.3324 27.7213C87.3572 27.6474 87.3856 27.5751 87.4177 27.5042C87.4498 27.4332 87.4854 27.364 87.5244 27.2966C88.001 26.4644 88.8108 26.0934 89.6968 25.8569Z" fill="#FEB81D"/>
<path d="M54.6485 25.7922C55.248 25.7482 55.8739 25.8861 56.3912 26.1941C57.0242 26.5709 57.4971 27.2433 57.6731 27.9556C58.2132 30.1411 55.5798 31.3403 54.3031 32.6382C53.812 33.1334 53.3516 33.6558 52.9221 34.2053C52.4925 34.7548 52.0967 35.3276 51.7346 35.9238C47.3358 43.1344 47.3052 52.8606 52.482 59.7154C53.0803 60.4957 53.7196 61.2409 54.3999 61.951C54.9656 62.5314 55.6049 63.0845 56.0943 63.7295C56.3324 64.0434 56.5203 64.3747 56.6032 64.7634C56.7325 65.3704 56.5657 65.9782 56.2258 66.4874C55.6975 67.2788 54.9246 67.7034 54.013 67.8857C53.2935 67.9209 52.6811 67.717 52.0794 67.3275C51.1701 66.7387 50.3842 65.8354 49.6665 65.028C46.5945 61.5719 44.4373 57.5455 43.4448 53.0182C43.3976 52.8031 43.3531 52.5874 43.3112 52.3712C43.2693 52.155 43.23 51.9383 43.1935 51.7211C43.157 51.5039 43.1231 51.2863 43.0918 51.0682C43.0606 50.8502 43.032 50.6319 43.0062 50.4132C42.9803 50.1944 42.9571 49.9754 42.9366 49.7561C42.9162 49.5368 42.8984 49.3174 42.8834 49.0977C42.8683 48.8779 42.8559 48.658 42.8462 48.438C42.8365 48.2179 42.8296 47.9978 42.8253 47.7777C42.8211 47.5574 42.8195 47.3372 42.8207 47.117C42.8218 46.8967 42.8256 46.6765 42.8321 46.4564C42.8387 46.2362 42.848 46.0162 42.86 45.7962C42.8719 45.5764 42.8866 45.3567 42.9039 45.1371C42.9213 44.9175 42.9414 44.6982 42.9641 44.4791C42.987 44.2601 43.0124 44.0413 43.0406 43.8229C43.0687 43.6044 43.0995 43.3864 43.1329 43.1687C43.1664 42.951 43.2026 42.7338 43.2415 42.517C43.2803 42.3002 43.3218 42.0839 43.366 41.8681C43.4101 41.6524 43.4568 41.4372 43.5063 41.2225C43.5558 41.0079 43.6078 40.794 43.6625 40.5806C43.7172 40.3673 43.7745 40.1547 43.8344 39.9427C43.8943 39.7308 43.9569 39.5196 44.022 39.3092C44.0872 39.0988 44.1548 38.8892 44.2251 38.6805C44.2953 38.4718 44.3681 38.2639 44.4436 38.057C44.5189 37.85 44.5968 37.644 44.6772 37.4389C44.7576 37.234 44.8406 37.03 44.9261 36.8269C45.0116 36.624 45.0995 36.4221 45.1898 36.2213C45.2802 36.0204 45.3731 35.8207 45.4685 35.6222C45.5638 35.4236 45.6616 35.2263 45.7617 35.0301C45.8619 34.834 45.9645 34.6391 46.0694 34.4455C46.1744 34.2519 46.2817 34.0596 46.3914 33.8686C46.501 33.6776 46.613 33.488 46.7275 33.2998C46.8418 33.1115 46.9584 32.9247 47.0774 32.7393C48.6108 30.3679 51.8526 26.3872 54.6485 25.7922Z" fill="#FEB81D"/>
<path d="M96.4371 17.5769C96.8838 17.5605 97.2596 17.6167 97.6739 17.7915C98.9684 18.3376 100.127 19.4949 101.132 20.4607C105.236 24.4038 108.429 28.9291 110.505 34.2484C110.611 34.5194 110.714 34.7917 110.814 35.0652C110.914 35.3387 111.01 35.6135 111.103 35.8894C111.196 36.1653 111.285 36.4422 111.371 36.7203C111.458 36.9984 111.54 37.2776 111.62 37.5578C111.699 37.8379 111.775 38.1189 111.847 38.401C111.919 38.683 111.988 38.9658 112.054 39.2495C112.119 39.5332 112.181 39.8176 112.239 40.1029C112.298 40.3881 112.352 40.674 112.404 40.9606C112.455 41.2471 112.503 41.5342 112.547 41.822C112.592 42.1097 112.632 42.3979 112.67 42.6867C112.707 42.9755 112.741 43.2646 112.771 43.5542C112.801 43.8438 112.827 44.1337 112.85 44.4239C112.873 44.7141 112.893 45.0046 112.909 45.2953C112.925 45.586 112.937 45.8768 112.945 46.1679C112.954 46.4589 112.959 46.75 112.961 47.0411C112.962 47.3321 112.96 47.6232 112.955 47.9144C112.949 48.2054 112.94 48.4963 112.927 48.7872C112.914 49.078 112.898 49.3687 112.878 49.6592C112.858 49.9497 112.835 50.2398 112.808 50.5297C112.781 50.8196 112.75 51.109 112.716 51.3982C112.682 51.6873 112.644 51.976 112.603 52.2642C112.561 52.5524 112.517 52.8401 112.468 53.1271C112.42 53.4142 112.368 53.7007 112.313 53.9865C112.257 54.2723 112.199 54.5574 112.136 54.8418C112.074 55.1261 112.008 55.4097 111.939 55.6924C111.869 55.9752 111.796 56.2571 111.72 56.538C111.644 56.819 111.564 57.099 111.481 57.378C111.398 57.657 111.311 57.9349 111.221 58.2118C111.131 58.4887 111.038 58.7644 110.941 59.039C110.844 59.3135 110.744 59.5869 110.641 59.859C110.537 60.1311 110.43 60.4019 110.32 60.6714C110.21 60.9409 110.097 61.209 109.98 61.4757C107.968 66.063 105.266 70.1157 101.596 73.542C100.502 74.5631 99.438 75.5423 98.0252 76.0925C97.3179 76.1578 96.6701 76.1159 96.0466 75.7276C96.0073 75.7031 95.9688 75.6775 95.9309 75.6509C95.893 75.6242 95.8558 75.5967 95.8193 75.5682C95.7829 75.5397 95.7472 75.5102 95.7123 75.4798C95.6774 75.4495 95.6432 75.4183 95.6099 75.3861C95.5766 75.354 95.5441 75.321 95.5125 75.2871C95.4809 75.2533 95.4503 75.2186 95.4204 75.1832C95.3907 75.1478 95.3619 75.1116 95.3339 75.0747C95.306 75.0377 95.279 75 95.2531 74.9617C95.2272 74.9234 95.2023 74.8844 95.1783 74.8447C95.1544 74.8051 95.1315 74.7649 95.1096 74.7241C95.0878 74.6832 95.0671 74.6418 95.0475 74.5999C95.0277 74.5581 95.0091 74.5157 94.9917 74.4729C94.9742 74.4299 94.9579 74.3866 94.9427 74.3429C94.9275 74.2992 94.9134 74.2551 94.9005 74.2106C94.8875 74.1662 94.8758 74.1214 94.8652 74.0764C94.8546 74.0314 94.8451 73.9861 94.8369 73.9405C94.6997 73.2146 94.8538 72.3933 95.2715 71.779C96.0364 70.6543 97.3815 69.9323 98.3659 69.0116C99.8398 67.633 101.13 65.8908 102.232 64.2049C102.455 63.8611 102.671 63.5131 102.88 63.1608C103.089 62.8084 103.291 62.452 103.486 62.0917C103.681 61.7313 103.869 61.3673 104.05 60.9996C104.23 60.6318 104.404 60.2607 104.57 59.8861C104.736 59.5115 104.894 59.1337 105.045 58.7528C105.196 58.3719 105.339 57.9882 105.475 57.6018C105.611 57.2152 105.739 56.8261 105.86 56.4344C105.98 56.0428 106.093 55.649 106.198 55.2529C106.303 54.8569 106.4 54.4589 106.489 54.059C106.578 53.659 106.659 53.2575 106.732 52.8544C106.806 52.4513 106.871 52.0469 106.928 51.6412C106.985 51.2355 107.035 50.8289 107.076 50.4213C107.117 50.0137 107.15 49.6053 107.175 49.1963C107.2 48.7873 107.217 48.3781 107.226 47.9685C107.235 47.5589 107.236 47.1492 107.228 46.7396C107.221 46.3299 107.205 45.9206 107.182 45.5115C107.158 45.1025 107.127 44.6941 107.087 44.2863C107.047 43.8785 107 43.4717 106.944 43.0658C106.888 42.6599 106.824 42.2552 106.753 41.8518C106.681 41.4485 106.601 41.0466 106.514 40.6464C106.426 40.2462 106.33 39.8479 106.227 39.4514C106.124 39.0549 106.012 38.6607 105.893 38.2686C105.774 37.8766 105.648 37.487 105.513 37.1C105.379 36.7129 105.237 36.3287 105.087 35.9473C104.938 35.5659 104.781 35.1875 104.616 34.8123C104.452 34.4371 104.28 34.0653 104.1 33.6969C103.921 33.3284 103.735 32.9637 103.541 32.6027C103.347 32.2416 103.146 31.8845 102.939 31.5314C102.731 31.1783 102.516 30.8294 102.295 30.4848C102.073 30.1402 101.845 29.8001 101.61 29.4645C101.375 29.1289 101.133 28.7981 100.885 28.472C100.637 28.146 100.382 27.825 100.121 27.509C99.3619 26.5834 98.5433 25.6713 97.6709 24.8512C96.4864 23.7376 94.1942 22.5615 93.8787 20.8638C93.7507 20.1755 93.9298 19.3249 94.3334 18.7503C94.8274 18.0465 95.6222 17.7303 96.4371 17.5769Z" fill="#FEB81D"/>
<path d="M47.9748 17.5054C48.5449 17.4464 49.1085 17.4665 49.6491 17.6737C50.3877 17.9566 51.0296 18.616 51.328 19.345C51.6607 20.1581 51.4956 21.0044 51.005 21.714C50.2167 22.854 48.7934 23.601 47.7581 24.5081C44.3452 27.4978 41.8526 31.1795 40.1492 35.3727C40.0185 35.6959 39.8932 36.0211 39.7734 36.3485C39.6535 36.6759 39.5392 37.0052 39.4303 37.3363C39.3214 37.6675 39.218 38.0003 39.1202 38.3349C39.0225 38.6695 38.9304 39.0057 38.8438 39.3434C38.7572 39.681 38.6763 40.0201 38.6011 40.3605C38.5259 40.7009 38.4563 41.0425 38.3924 41.3851C38.3286 41.7278 38.2705 42.0715 38.2181 42.4161C38.1657 42.7608 38.119 43.1062 38.0782 43.4524C38.0373 43.7986 38.0022 44.1455 37.973 44.4929C37.9437 44.8402 37.9202 45.1879 37.9024 45.536C37.8848 45.8842 37.8729 46.2326 37.8669 46.5812C37.8608 46.9297 37.8605 47.2783 37.8661 47.6268C37.8716 47.9753 37.883 48.3237 37.9002 48.6719C37.9174 49.0201 37.9403 49.3679 37.9691 49.7153C37.9979 50.0627 38.0325 50.4095 38.0728 50.7558C38.1132 51.102 38.1593 51.4475 38.2111 51.7923C38.2631 52.137 38.3207 52.4808 38.384 52.8236C38.4474 53.1663 38.5164 53.508 38.5912 53.8485C38.6659 54.189 38.7463 54.5282 38.8323 54.866C38.9184 55.2038 39.0101 55.54 39.1073 55.8748C39.2047 56.2095 39.3075 56.5426 39.4159 56.8739C39.5243 57.2053 39.6381 57.5347 39.7574 57.8623C39.8768 58.1898 40.0017 58.5152 40.132 58.8385C40.2621 59.1619 40.3977 59.483 40.5386 59.8018C40.6796 60.1207 40.8258 60.4371 40.9773 60.7511C41.1288 61.0651 41.2855 61.3764 41.4474 61.6851C41.6093 61.9938 41.7763 62.2998 41.9484 62.603C42.1205 62.9061 42.2976 63.2063 42.4797 63.5036C42.6618 63.8008 42.8488 64.095 43.0407 64.386C43.2327 64.677 43.4294 64.9647 43.6309 65.2492C43.8325 65.5337 44.0387 65.8147 44.2496 66.0922C44.4605 66.3698 44.676 66.6438 44.896 66.9142C45.5538 67.7014 46.2458 68.4574 46.9719 69.1821C47.8897 70.1001 49.6743 71.3568 50.1266 72.5293C50.4047 73.2504 50.3637 74.0952 50.0335 74.7909C49.6415 75.6165 48.9869 76.0601 48.1523 76.3517C47.381 76.4546 46.7028 76.3529 46.0094 75.9916C44.6905 75.3042 43.6393 74.041 42.6477 72.9616C38.4982 68.4443 35.5523 63.6646 33.7462 57.7742C33.6583 57.4895 33.5739 57.2037 33.493 56.9168C33.4122 56.63 33.3349 56.3423 33.261 56.0535C33.1873 55.7647 33.1171 55.4751 33.0505 55.1846C32.9838 54.8942 32.9208 54.6029 32.8614 54.3109C32.802 54.0189 32.7461 53.7261 32.6939 53.4327C32.6417 53.1393 32.5931 52.8453 32.5481 52.5507C32.5031 52.2562 32.4618 51.9611 32.4242 51.6654C32.3864 51.3697 32.3523 51.0737 32.3219 50.7773C32.2915 50.4809 32.2648 50.1841 32.2418 49.8869C32.2187 49.5898 32.1992 49.2924 32.1834 48.9948C32.1678 48.6972 32.1557 48.3995 32.1473 48.1016C32.1389 47.8036 32.1342 47.5057 32.133 47.2078C32.132 46.9098 32.1346 46.6118 32.141 46.3139C32.1472 46.0158 32.1572 45.718 32.1708 45.4204C32.1844 45.1226 32.2017 44.8251 32.2227 44.5278C32.2437 44.2306 32.2684 43.9336 32.2966 43.6369C32.3249 43.3403 32.3569 43.044 32.3924 42.748C32.428 42.4522 32.4673 42.1568 32.5101 41.8619C32.5531 41.567 32.5996 41.2727 32.6497 40.9789C32.6999 40.6851 32.7536 40.392 32.811 40.0995C32.8683 39.8071 32.9293 39.5154 32.9938 39.2244C33.0584 38.9335 33.1266 38.6434 33.1983 38.3541C33.27 38.0649 33.3452 37.7766 33.424 37.4892C33.5028 37.2018 33.5852 36.9154 33.6711 36.63C33.757 36.3446 33.8464 36.0604 33.9393 35.7773C34.0322 35.4941 34.1285 35.2121 34.2283 34.9314C34.3282 34.6505 34.4315 34.371 34.5383 34.0928C34.645 33.8145 34.7552 33.5376 34.8688 33.262C34.9823 32.9866 35.0993 32.7125 35.2195 32.4399C35.3399 32.1672 35.4635 31.896 35.5905 31.6265C35.7176 31.3569 35.8479 31.0889 35.9815 30.8225C36.1151 30.5561 36.2519 30.2914 36.3921 30.0284C38.4599 26.1365 41.1764 22.7784 44.4644 19.8518C45.544 18.8909 46.5668 17.938 47.9748 17.5054Z" fill="#FEB81D"/>
<path d="M79.2736 55.5737C79.2806 55.5821 79.2888 55.5894 79.2945 55.5988C79.8215 56.4664 80.5276 58.9763 80.8884 60.0938L83.7493 68.9835L96.6843 109.054L100.061 119.348C100.575 120.901 101.18 122.451 101.636 124.02C101.774 124.495 102.014 125.19 101.925 125.679C101.919 125.711 101.911 125.742 101.904 125.774C101.806 126.239 101.629 126.619 101.288 126.959C100.876 127.37 100.367 127.496 99.8035 127.546C98.2517 127.681 96.6719 127.571 95.1151 127.566L86.63 127.562L58.3753 127.574L50.6436 127.564C49.1001 127.567 45.997 127.78 44.6466 127.392C44.147 127.248 43.6979 126.762 43.4675 126.311C43.1435 125.677 43.2835 124.88 43.4549 124.222C43.6785 123.364 44.0132 122.526 44.3046 121.688C44.6596 120.664 44.9955 119.632 45.3125 118.595L50.9268 101.242L65.6876 55.6427C67.2105 56.5157 68.6456 57.2824 70.343 57.7793C70.1361 58.4397 69.8797 59.0829 69.6313 59.7286L72.1796 62.3171C73.2269 61.3651 74.1947 60.2997 75.1801 59.2831L74.8165 57.7996C76.5337 57.315 77.8543 56.6464 79.2736 55.5737ZM72.6772 92.6003C68.1581 94.7807 63.6891 97.0593 59.2702 99.4361L67.1911 103.994C68.8922 104.968 70.6126 105.916 72.277 106.952C74.2253 105.972 76.1048 104.792 77.9814 103.679C80.448 102.186 82.9416 100.739 85.4622 99.3398C84.4376 98.737 73.0949 92.6515 72.6772 92.6003ZM72.3883 113.643C67.6468 116.612 62.7086 119.298 57.8437 122.06C62.721 122.128 67.6074 121.999 72.4823 122.116L87.0629 122.064C82.1434 119.312 77.3488 116.32 72.3883 113.643ZM89.2247 103.585C85.4294 105.811 81.6563 108.048 77.8117 110.19C80.9313 112.097 84.158 113.834 87.3066 115.694L91.7089 118.235C92.6144 118.757 93.5208 119.321 94.4683 119.763C93.9231 118.051 89.6505 104.06 89.2247 103.585ZM55.6952 103.56C55.116 105.609 54.4252 107.63 53.7782 109.659L50.5181 119.88C52.8377 118.445 55.1794 117.047 57.5432 115.685C59.2513 114.661 60.9688 113.653 62.6956 112.66C64.1026 111.856 65.5256 111.085 66.893 110.213C64.1127 108.497 61.2545 106.904 58.4577 105.214C57.5582 104.671 56.5492 104.162 55.6952 103.56ZM72.4309 79.0858C69.463 81.2648 66.447 83.3752 63.3832 85.417C66.4869 86.7708 69.4879 88.3501 72.5612 89.7699C75.4429 88.1517 78.4711 86.8467 81.4112 85.3477C78.3907 83.2915 75.4163 81.1906 72.4309 79.0858ZM72.3046 65.4816C71.2528 66.7914 70.0945 68.028 68.9831 69.2888C68.1042 70.2859 67.2507 71.3538 66.3057 72.2874C68.4209 73.5618 70.4768 74.9314 72.5859 76.2171C74.4187 74.7113 76.4642 73.4337 78.4745 72.1802C77.3325 70.7996 76.1161 69.5004 74.8958 68.19C74.0402 67.2714 73.2224 66.3414 72.3046 65.4816ZM60.8713 86.9165C59.8127 90.4018 58.6372 93.8551 57.6255 97.3533C59.6555 96.382 61.6378 95.3083 63.6509 94.3018C65.6703 93.2695 67.6464 92.0773 69.7673 91.2617C67.6523 90.0281 65.324 89.0379 63.1123 87.9873C62.3829 87.6408 61.5613 87.3296 60.8713 86.9165ZM83.5858 87.0864C81.5788 88.0021 79.5898 88.9552 77.6187 89.9457C76.851 90.3293 76.0395 90.6857 75.2989 91.1171C77.3302 92.3468 79.5406 93.3559 81.6612 94.4255C83.4757 95.3694 85.3569 96.2704 87.1079 97.3272C86.7248 96.1249 84.1571 87.5192 83.675 87.0903L83.5858 87.0864ZM64.8999 74.3798C63.9248 77.3723 63.0558 80.4166 62.0127 83.3837C63.147 82.679 64.2372 81.915 65.3306 81.1491L68.4229 79.0044C69.0481 78.5739 69.7091 78.1671 70.296 77.6871C68.5404 76.4964 66.768 75.3848 64.8999 74.3798ZM79.644 74.2867C77.9554 75.3252 76.4387 76.6178 74.7749 77.6831C76.3874 78.9308 78.1152 80.0539 79.7878 81.2213C80.721 81.8546 81.6901 82.4643 82.5867 83.1472C82.053 81.284 81.4433 79.436 80.8329 77.5966C80.4685 76.4989 80.1382 75.331 79.644 74.2867ZM75.9479 61.9315C75.3104 62.585 74.6819 63.2471 74.0623 63.9177L76.8103 66.6592C77.1416 66.9919 77.4861 67.3186 77.8002 67.6674C77.5432 66.776 76.3512 62.2946 75.9479 61.9315ZM68.8378 62.2182C68.3431 63.4813 67.8653 64.7507 67.4044 66.0265C67.1231 66.8253 66.898 67.6555 66.5788 68.4388C66.8443 68.0716 67.1001 67.6928 67.4068 67.3584C68.3953 66.1837 69.4206 65.0423 70.4829 63.934C69.9743 63.3356 69.4301 62.7355 68.8378 62.2182Z" fill="#001F50"/>
</svg>
