<svg width="145" height="145" viewBox="0 0 145 145" fill="none" xmlns="http://www.w3.org/2000/svg">
<path d="M40.0468 109.297C36.3652 109.332 32.6963 109.45 29.8605 106.706C29.7761 106.624 29.6931 106.54 29.6118 106.455C29.5304 106.37 29.4507 106.284 29.3726 106.196C29.2945 106.108 29.2182 106.018 29.1435 105.927C29.0688 105.836 28.9959 105.744 28.9247 105.65C28.8536 105.556 28.7843 105.461 28.7168 105.365C28.6492 105.269 28.5835 105.171 28.5197 105.072C28.4559 104.973 28.394 104.873 28.334 104.772C28.2739 104.671 28.2158 104.568 28.1597 104.465C28.1036 104.362 28.0494 104.257 27.9973 104.152C27.9451 104.046 27.8949 103.94 27.8468 103.832C27.7988 103.725 27.7527 103.617 27.7087 103.508C27.6647 103.399 27.6228 103.289 27.583 103.178C27.5431 103.067 27.5054 102.956 27.4699 102.843C27.4343 102.731 27.4008 102.618 27.3696 102.505C27.3382 102.392 27.3091 102.278 27.2822 102.163C27.2553 102.049 27.2305 101.934 27.2079 101.818C26.8658 100.017 27.013 98.0291 27.0188 96.199L27.0399 88.3801C27.0859 78.2788 27.0793 68.1776 27.0201 58.0765C26.9841 54.7158 27.2569 52.0874 29.7463 49.5744C31.1254 48.1822 32.9091 47.3863 34.8376 47.1119C37.1387 46.7844 39.6515 46.9815 41.9779 46.9883L54.701 47.0107L101.214 46.9523C105.407 46.9076 109.03 46.696 112.247 49.8819C113.587 51.2082 114.577 52.9635 114.931 54.8207C115.273 56.6138 115.135 58.5549 115.136 60.3768L115.136 68.2612L115.16 98.5524C115.171 101.569 114.58 104.156 112.38 106.351C111.166 107.563 109.683 108.441 107.99 108.761C106.05 109.128 103.999 108.984 102.032 108.98L93.993 108.972L63.8268 108.987C64.4316 106.727 64.2838 103.521 64.093 101.173L85.7938 101.161L92.4151 101.177C93.6876 101.181 95.0207 101.264 96.2832 101.112C97.0296 101.022 97.6823 100.784 98.2535 100.281C99.0883 99.5457 99.3438 98.5641 99.409 97.4951C99.5723 94.8191 99.4343 92.0824 99.4268 89.3994L99.4099 74.8129L99.4049 64.3746C99.4133 62.4754 99.5729 60.5054 99.3855 58.6169C99.2947 57.7021 99.1151 56.9801 98.4657 56.2827C97.6496 55.4065 96.6433 55.196 95.4951 55.1522C90.9016 54.9771 86.2621 55.1208 81.6647 55.1418L61.6549 55.134L46.0074 55.1319C43.4668 55.1302 40.8626 54.936 38.3335 55.1423C37.4449 55.2148 36.6479 55.4171 35.9843 56.054C35.4674 56.5501 35.1096 57.1993 35.0102 57.9108C34.8015 59.4051 34.9037 61.0071 34.904 62.5138L34.9099 70.274L34.8946 96.3674C34.8926 97.4788 34.6872 99.2679 35.5615 100.092C36.5266 101.003 38.4205 100.728 39.6405 100.699C39.5562 102.616 39.3212 107.726 40.0468 109.297ZM107.445 82.3719C106.436 82.5018 105.518 82.841 104.864 83.6649C104.301 84.3729 104.081 85.283 104.219 86.1729C104.228 86.2292 104.238 86.2853 104.249 86.3412C104.261 86.397 104.274 86.4525 104.288 86.5076C104.303 86.5628 104.318 86.6175 104.336 86.6718C104.353 86.7262 104.371 86.7801 104.391 86.8335C104.411 86.8868 104.433 86.9396 104.455 86.9919C104.478 87.0442 104.502 87.0959 104.527 87.1471C104.553 87.1981 104.579 87.2485 104.607 87.2982C104.635 87.3479 104.664 87.3968 104.695 87.4451C104.725 87.4932 104.757 87.5405 104.79 87.5871C104.823 87.6337 104.857 87.6794 104.892 87.7243C104.927 87.7691 104.964 87.8129 105.001 87.8558C105.039 87.8989 105.077 87.9408 105.117 87.9818C105.156 88.0227 105.197 88.0627 105.239 88.1016C105.28 88.1405 105.323 88.1782 105.367 88.2149C105.41 88.2517 105.455 88.2872 105.5 88.3216C105.546 88.3561 105.592 88.3893 105.639 88.4213C106.24 88.8307 106.872 88.9824 107.581 89.0591C108.66 88.8946 109.613 88.4974 110.264 87.5721C110.802 86.809 110.963 85.8708 110.769 84.9629C110.59 84.1269 110.105 83.3838 109.384 82.9173C108.78 82.5257 108.149 82.4043 107.445 82.3719ZM107.208 63.5257C106.182 63.7547 105.326 64.1066 104.738 65.0365C104.708 65.0832 104.679 65.1307 104.652 65.179C104.625 65.2271 104.598 65.2759 104.573 65.3255C104.548 65.3751 104.525 65.4253 104.502 65.476C104.48 65.5267 104.459 65.578 104.439 65.6299C104.419 65.6817 104.401 65.734 104.384 65.7868C104.367 65.8395 104.351 65.8927 104.337 65.9463C104.322 65.9999 104.309 66.0538 104.298 66.108C104.286 66.1622 104.276 66.2167 104.267 66.2715C104.258 66.3263 104.251 66.3812 104.245 66.4363C104.239 66.4914 104.234 66.5467 104.231 66.6021C104.227 66.6575 104.226 66.7129 104.225 66.7683C104.225 66.8239 104.226 66.8793 104.228 66.9347C104.231 66.9902 104.235 67.0455 104.24 67.1007C104.245 67.1559 104.252 67.2109 104.26 67.2658C104.268 67.3206 104.277 67.3753 104.288 67.4297C104.299 67.4841 104.311 67.5382 104.325 67.5919C104.34 67.6507 104.357 67.709 104.376 67.7668C104.395 67.8246 104.415 67.8819 104.436 67.9388C104.458 67.9956 104.481 68.0518 104.505 68.1074C104.529 68.163 104.555 68.218 104.582 68.2722C104.61 68.3265 104.638 68.3801 104.668 68.433C104.698 68.4858 104.729 68.5378 104.762 68.589C104.795 68.6402 104.829 68.6906 104.864 68.7401C104.899 68.7894 104.936 68.8379 104.973 68.8855C105.011 68.9331 105.05 68.9797 105.09 69.0252C105.131 69.0708 105.172 69.1154 105.214 69.1588C105.257 69.2022 105.3 69.2445 105.345 69.2857C105.39 69.3268 105.435 69.3668 105.482 69.4057C105.529 69.4445 105.576 69.4821 105.625 69.5185C105.674 69.555 105.723 69.5901 105.774 69.6238C105.824 69.6577 105.875 69.6902 105.927 69.7213C105.98 69.7526 106.033 69.7824 106.086 69.8108C106.684 70.1291 107.298 70.251 107.97 70.2321C109.13 69.809 110.054 69.2708 110.58 68.0851C110.945 67.2622 110.983 66.3396 110.646 65.5002C110.335 64.7233 109.747 64.1346 108.975 63.813C108.836 63.7558 108.693 63.7068 108.549 63.6658C108.403 63.6249 108.257 63.5924 108.108 63.5682C107.959 63.5439 107.81 63.5282 107.659 63.5212C107.509 63.5141 107.358 63.5156 107.208 63.5257ZM107.292 72.9057C106.245 73.1215 105.364 73.4874 104.743 74.4163C104.712 74.4627 104.683 74.5098 104.655 74.5576C104.626 74.6054 104.599 74.6539 104.574 74.7032C104.548 74.7524 104.523 74.8021 104.5 74.8526C104.477 74.903 104.455 74.954 104.434 75.0055C104.413 75.0571 104.394 75.1091 104.376 75.1616C104.358 75.2141 104.341 75.267 104.325 75.3204C104.31 75.3737 104.296 75.4274 104.283 75.4815C104.27 75.5355 104.259 75.5899 104.249 75.6446C104.239 75.6992 104.23 75.754 104.223 75.8091C104.216 75.8642 104.21 75.9194 104.205 75.9748C104.201 76.0302 104.198 76.0856 104.196 76.1412C104.194 76.1967 104.194 76.2522 104.195 76.3077C104.196 76.3632 104.199 76.4187 104.203 76.4741C104.207 76.5295 104.212 76.5848 104.219 76.6399C104.225 76.6951 104.233 76.7501 104.243 76.8047C104.252 76.8595 104.263 76.914 104.275 76.9682C104.287 77.0219 104.3 77.0753 104.314 77.1283C104.329 77.1815 104.344 77.2341 104.362 77.2863C104.379 77.3386 104.397 77.3904 104.417 77.4416C104.437 77.4929 104.458 77.5436 104.481 77.5938C104.503 77.6439 104.527 77.6934 104.552 77.7424C104.577 77.7914 104.603 77.8396 104.631 77.8871C104.659 77.9347 104.687 77.9815 104.717 78.0276C104.747 78.0736 104.779 78.1189 104.811 78.1633C104.843 78.2077 104.877 78.2513 104.912 78.294C104.946 78.3367 104.982 78.3784 105.019 78.4191C105.056 78.46 105.094 78.4998 105.133 78.5387C105.171 78.5775 105.211 78.6153 105.252 78.6521C105.293 78.6889 105.335 78.7245 105.378 78.7591C105.42 78.7937 105.464 78.8271 105.508 78.8594C105.553 78.8917 105.598 78.9228 105.644 78.9527C105.691 78.9827 105.737 79.0115 105.785 79.039C106.382 79.3857 107.128 79.5688 107.817 79.5196C108.816 79.3288 109.65 78.9194 110.243 78.0616C110.276 78.0151 110.306 77.9678 110.336 77.9198C110.366 77.8716 110.394 77.8228 110.422 77.7732C110.449 77.7237 110.475 77.6735 110.5 77.6226C110.525 77.5717 110.548 77.5203 110.57 77.4682C110.592 77.4161 110.613 77.3635 110.632 77.3104C110.652 77.2573 110.67 77.2037 110.686 77.1497C110.703 77.0957 110.719 77.0413 110.733 76.9865C110.746 76.9316 110.759 76.8764 110.77 76.821C110.781 76.7656 110.791 76.7099 110.799 76.6538C110.808 76.5979 110.814 76.5418 110.82 76.4855C110.825 76.4292 110.829 76.3728 110.832 76.3163C110.835 76.2599 110.836 76.2033 110.835 76.1468C110.835 76.0902 110.833 76.0337 110.83 75.9772C110.827 75.9207 110.822 75.8643 110.816 75.8082C110.81 75.7519 110.803 75.6958 110.794 75.6399C110.785 75.5841 110.775 75.5285 110.763 75.4732C110.584 74.6069 110.079 73.8343 109.318 73.374C108.716 73.0101 107.991 72.8552 107.292 72.9057Z" fill="#001F50"/>
<path d="M51.0217 75.8808C51.747 75.8363 52.4057 75.8621 53.0851 76.165C53.136 76.1875 53.1864 76.2113 53.2362 76.2363C53.2859 76.2613 53.3349 76.2875 53.3834 76.315C53.4318 76.3424 53.4795 76.3711 53.5265 76.401C53.5735 76.431 53.6197 76.4621 53.6651 76.4943C53.7105 76.5265 53.7551 76.5598 53.7989 76.5944C53.8426 76.6289 53.8854 76.6645 53.9273 76.7011C53.9692 76.7378 54.0101 76.7755 54.0503 76.8141C54.0903 76.8529 54.1293 76.8926 54.1673 76.9333C54.2052 76.9741 54.2421 77.0157 54.2781 77.0582C54.314 77.1008 54.3488 77.1443 54.3824 77.1886C54.4162 77.2329 54.4487 77.2781 54.4801 77.3241C54.5116 77.37 54.5418 77.4168 54.5709 77.4643C54.5999 77.5118 54.6278 77.56 54.6543 77.609C54.681 77.6578 54.7064 77.7073 54.7304 77.7576C54.7546 77.8078 54.7774 77.8585 54.799 77.9099C54.8205 77.9612 54.8407 78.0131 54.8596 78.0655C55.167 78.9118 55.1313 79.8774 54.7232 80.6838C54.2306 81.6566 53.3984 82.1233 52.4087 82.4568C51.6639 82.5841 50.8973 82.526 50.2099 82.1965C50.1595 82.1723 50.1098 82.1468 50.0607 82.12C50.0117 82.0934 49.9633 82.0654 49.9156 82.0361C49.868 82.007 49.8211 81.9766 49.7749 81.945C49.7288 81.9134 49.6835 81.8806 49.6392 81.8466C49.5948 81.8128 49.5512 81.7778 49.5085 81.7416C49.4659 81.7054 49.4243 81.6681 49.3835 81.6299C49.3429 81.5916 49.3032 81.5522 49.2645 81.5119C49.2258 81.4715 49.1882 81.4302 49.1517 81.388C49.115 81.3457 49.0795 81.3025 49.0453 81.2585C49.0109 81.2143 48.9777 81.1694 48.9456 81.1236C48.9135 81.0778 48.8826 81.0312 48.8529 80.9838C48.8233 80.9365 48.7949 80.8884 48.7678 80.8396C48.7405 80.7907 48.7145 80.7412 48.6899 80.691C48.6653 80.6409 48.6419 80.5902 48.6198 80.5388C48.5978 80.4874 48.5771 80.4355 48.5576 80.383C48.5382 80.3306 48.5202 80.2778 48.5035 80.2244C48.4868 80.1705 48.4713 80.1161 48.4571 80.0615C48.4431 80.0068 48.4304 79.9518 48.419 79.8965C48.4077 79.841 48.3977 79.7854 48.3892 79.7296C48.3805 79.6737 48.3733 79.6178 48.3674 79.5616C48.3617 79.5054 48.3573 79.4491 48.3543 79.3927C48.3513 79.3362 48.3497 79.2798 48.3496 79.2233C48.3494 79.1668 48.3506 79.1103 48.3532 79.054C48.3558 78.9975 48.3598 78.9411 48.3653 78.8849C48.3708 78.8286 48.3777 78.7726 48.3859 78.7168C48.394 78.6608 48.4036 78.6052 48.4146 78.5497C48.4257 78.4943 48.4381 78.4392 48.4518 78.3844C48.4655 78.3296 48.4805 78.2752 48.497 78.2211C48.5134 78.1671 48.5312 78.1135 48.5504 78.0604C48.5695 78.0072 48.5899 77.9546 48.6117 77.9024C48.6334 77.8502 48.6565 77.7986 48.6807 77.7477C48.7051 77.6967 48.7307 77.6463 48.7574 77.5966C49.2534 76.6704 50.0523 76.191 51.0217 75.8808Z" fill="#FEB81D"/>
<path d="M73.3144 71.0486C74.2741 71.0037 75.538 70.8568 76.3286 71.5182C76.928 72.0195 77.1574 72.7934 77.2027 73.5481C77.2602 74.5078 77.1221 75.654 76.4452 76.3848C75.8777 76.9973 75.1566 77.0257 74.3791 77.0729C73.4708 77.0981 72.0961 77.1556 71.358 76.5493C70.7958 76.0875 70.5768 75.2586 70.5152 74.5643C70.4378 73.6917 70.4599 72.392 71.0685 71.7104C71.6203 71.0925 72.5555 71.1004 73.3144 71.0486Z" fill="#001F50"/>
<path d="M72.7091 63.0052C73.8094 62.9674 75.2172 62.7986 76.2146 63.3555C76.7402 63.6489 77.0605 64.1824 77.1938 64.7572C77.4194 65.7303 77.3099 67.0739 76.7642 67.9183C76.3811 68.5111 75.9492 68.7397 75.2763 68.901C74.1308 68.9464 72.2499 69.1988 71.3142 68.4322C70.7946 68.0064 70.5927 67.3213 70.5183 66.6786C70.4061 65.7116 70.4522 64.4833 71.1005 63.7053C71.5644 63.1486 72.0249 63.0547 72.7091 63.0052Z" fill="#001F50"/>
<path d="M81.4177 71.0515C82.4729 71.0295 83.999 70.8979 84.8918 71.5764C85.4507 72.0011 85.7056 72.6414 85.7895 73.3217C85.9082 74.2851 85.8277 75.4515 85.1804 76.2204C84.6791 76.8158 84.1415 76.9308 83.4077 76.9729C82.356 77.0473 80.7957 77.2189 79.9106 76.5181C79.302 76.0362 79.0638 75.2667 79.0023 74.5198C78.9241 73.5694 79.0337 72.4556 79.6991 71.7208C80.2093 71.1575 80.702 71.0872 81.4177 71.0515Z" fill="#001F50"/>
<path d="M72.9899 87.5478C73.9853 87.4891 75.5295 87.2547 76.3728 87.9139C76.9522 88.3667 77.1744 89.0959 77.2514 89.7995C77.3569 90.7644 77.3053 91.99 76.6397 92.7541C76.1209 93.3494 75.5142 93.445 74.7733 93.5062C73.7692 93.5281 72.2822 93.7031 71.4492 93.03C70.8672 92.5594 70.6342 91.8126 70.5592 91.0936C70.4633 90.1736 70.5145 89.0236 71.1398 88.2909C71.6563 87.6859 72.2438 87.5981 72.9899 87.5478Z" fill="#001F50"/>
<path d="M80.9359 63.0033C82.0656 62.9269 83.7861 62.7297 84.7878 63.3347C85.3297 63.6619 85.6295 64.2518 85.755 64.8546C85.9636 65.8575 85.8878 67.2172 85.2784 68.0639C84.9227 68.5583 84.5186 68.7463 83.9319 68.853C82.8262 68.95 81.073 69.1703 80.0739 68.5619C79.5381 68.2357 79.2314 67.6774 79.0961 67.0782C78.8761 66.1046 78.9226 64.7591 79.4831 63.9127C79.858 63.3464 80.2817 63.1216 80.9359 63.0033Z" fill="#001F50"/>
<path d="M73.2096 79.1811C74.211 79.1569 75.5998 79.0278 76.4129 79.7138C76.9556 80.1716 77.156 80.9444 77.2224 81.6238C77.3145 82.5667 77.2268 83.7295 76.5804 84.4705C76.0377 85.0927 75.3413 85.1875 74.5665 85.2403C73.6059 85.257 72.1979 85.3813 71.3918 84.7483C70.8174 84.297 70.5917 83.5213 70.5154 82.8249C70.4104 81.8658 70.4417 80.6231 71.0982 79.8592C71.6418 79.2266 72.4421 79.2286 73.2096 79.1811Z" fill="#001F50"/>
<path d="M81.7199 87.4592C82.6523 87.43 84.1318 87.337 84.9071 87.925C85.4641 88.3473 85.6991 89.0554 85.7852 89.7233C85.9099 90.6887 85.8033 91.847 85.1748 92.6247C84.6254 93.304 83.9576 93.4109 83.1448 93.5003C82.056 93.5275 80.5844 93.6278 79.6962 92.8715C79.1866 92.4376 79.0393 91.5947 79.0018 90.9601C78.9485 90.0622 79.0026 88.6926 79.6598 88.0159C80.1896 87.4704 81.0196 87.4886 81.7199 87.4592Z" fill="#001F50"/>
<path d="M90.2781 63.0024C91.2961 62.9554 92.8239 62.8076 93.6592 63.5048C94.2276 63.9791 94.4528 64.7432 94.5181 65.4541C94.602 66.3688 94.5423 67.4645 93.904 68.1813C93.3459 68.8079 92.7269 68.8424 91.9465 68.8846C90.9154 68.9204 89.3256 69.1177 88.4936 68.402C87.8986 67.8901 87.6536 67.1199 87.5826 66.3612C87.5003 65.4777 87.5554 64.4499 88.1697 63.754C88.7451 63.1021 89.4705 63.0493 90.2781 63.0024Z" fill="#001F50"/>
<path d="M81.2323 79.1767C82.2724 79.1633 83.8068 79.0038 84.7298 79.5614C85.3023 79.9074 85.614 80.5274 85.7374 81.1664C85.9101 82.0607 85.9634 83.4571 85.427 84.2247C84.9449 84.9146 84.2363 85.1005 83.4551 85.2272C82.3749 85.2583 80.8959 85.4506 79.9724 84.7928C79.332 84.3367 79.033 83.6121 78.9309 82.8544C78.8043 81.9171 78.9327 80.7642 79.5409 80.0133C79.9962 79.4513 80.529 79.2408 81.2323 79.1767Z" fill="#001F50"/>
<path d="M90.5792 87.5386C91.5481 87.5241 92.967 87.4093 93.7615 88.0668C94.2998 88.5124 94.4879 89.2915 94.5374 89.9579C94.6081 90.9093 94.5199 92.071 93.8509 92.808C93.2365 93.4846 92.1318 93.394 91.2934 93.4261C90.401 93.4591 88.9932 93.5432 88.2839 92.9165C87.7378 92.4343 87.5365 91.7249 87.4824 91.0207C87.4073 90.0424 87.5153 88.8911 88.1998 88.1341C88.8146 87.454 89.7434 87.5594 90.5792 87.5386Z" fill="#001F50"/>
<path d="M89.799 71.0502C90.9472 71.0023 92.6781 70.7726 93.6562 71.481C94.1722 71.8548 94.4237 72.4698 94.512 73.0824C94.6593 74.1041 94.5718 75.4724 93.8987 76.2954C93.4454 76.8496 92.9809 76.9962 92.2878 77.071C91.1243 77.1613 89.4973 77.3159 88.52 76.5721C87.9825 76.163 87.7273 75.5434 87.6473 74.8873C87.5329 73.9487 87.5186 72.5369 88.1467 71.7777C88.5858 71.2469 89.1508 71.1251 89.799 71.0502Z" fill="#001F50"/>
<path d="M89.6159 79.248C90.8397 79.1816 92.7091 78.9322 93.7402 79.7542C94.23 80.1447 94.4516 80.7259 94.5192 81.3341C94.625 82.2844 94.6178 83.7814 93.9797 84.55C93.5947 85.0136 93.1198 85.1322 92.5434 85.187C91.3592 85.2395 89.5034 85.5002 88.4986 84.7839C87.9853 84.418 87.7222 83.8136 87.6178 83.2092C87.4466 82.2187 87.4897 80.883 88.1134 80.0581C88.5244 79.5145 88.9597 79.3527 89.6159 79.248Z" fill="#001F50"/>
<path d="M50.7326 71.3531C50.8834 71.3386 51.0345 71.3279 51.1859 71.3208C53.2154 71.2273 55.072 71.8023 56.5723 73.1917C57.6427 74.1831 58.6882 75.7044 58.7227 77.2064C58.7318 77.5989 58.6548 78.323 58.3116 78.5881C58.147 78.7153 58.0337 78.7444 57.8291 78.7125C56.8188 78.5552 56.3502 76.5547 55.8756 75.8148C55.0749 74.5672 53.7931 73.9806 52.3945 73.6817C51.4277 73.5917 50.4996 73.6498 49.5781 73.975C48.4654 74.3675 47.4946 75.157 47.0102 76.252C46.776 76.7812 46.6118 77.3463 46.3493 77.8625C46.1849 78.1856 45.9237 78.4925 45.5588 78.5842C45.3162 78.6452 45.0659 78.5886 44.8601 78.452C44.5063 78.2172 44.3073 77.7964 44.2501 77.3856C44.1077 76.3639 44.7668 75.1645 45.3626 74.3661C46.7165 72.5512 48.526 71.6719 50.7326 71.3531Z" fill="#FEB81D"/>
<path d="M50.2082 66.2001C50.5549 66.1656 50.9025 66.1444 51.2508 66.1364C51.5992 66.1284 51.9473 66.1338 52.2954 66.1523C52.6433 66.1708 52.99 66.2027 53.3355 66.2478C53.681 66.2928 54.0244 66.3509 54.3655 66.4221C57.518 67.1121 60.3868 69.162 62.118 71.8773C63.0133 73.2818 64.408 76.3128 64.0052 78.0207C63.8879 78.5179 63.631 79.0673 63.1674 79.3295C62.9536 79.4504 62.7163 79.484 62.4793 79.41C61.1343 78.9903 61.3638 77.107 61.1018 76.0093C61.0042 75.6119 60.8786 75.2236 60.7252 74.8442C60.5717 74.4649 60.3918 74.0986 60.1855 73.7451C58.6946 71.1646 56.2893 69.6675 53.4561 68.9248C51.4555 68.5856 49.508 68.787 47.6336 69.5812C45.2296 70.6 43.0083 72.6687 42.1296 75.1701C41.8358 76.0064 41.7346 76.9201 41.3874 77.7365C41.2208 78.1286 40.9521 78.6461 40.5069 78.774C40.2474 78.8487 39.989 78.7521 39.7771 78.6032C39.3683 78.3156 39.0941 77.8168 39.0472 77.3211C39.014 76.9678 39.1222 76.5367 39.1825 76.1848C39.5227 74.1978 40.3355 72.4932 41.5718 70.8959C43.7579 68.0715 46.7102 66.6486 50.2082 66.2001Z" fill="#FEB81D"/>
<path d="M39.6403 100.699C39.6741 98.2927 39.6007 95.881 39.5882 93.4744C39.5807 92.0385 39.4635 90.5163 39.773 89.108C39.9685 88.218 40.3727 87.3418 41.0441 86.711C41.5866 86.2015 42.3167 85.7729 43.0483 85.6259C44.8458 85.2643 47.3377 85.4955 49.2158 85.4776C52.3841 85.4473 55.606 85.2643 58.7674 85.4157C60.3897 85.4934 61.8472 85.831 62.975 87.0876C63.5024 87.6749 63.8092 88.3915 63.9642 89.1587C64.2238 90.4432 64.116 91.8449 64.1072 93.1513C64.0892 95.8083 63.9539 98.5204 64.0928 101.173C64.2836 103.521 64.4314 106.727 63.8266 108.987C63.1011 110.339 62.0819 111.89 60.5285 112.372C58.4485 113.017 53.4178 112.731 51.08 112.73C49.011 112.73 46.8824 112.861 44.8217 112.667C44.0492 112.594 43.2939 112.49 42.601 112.121C41.4522 111.51 40.6966 110.387 40.0466 109.296C39.321 107.726 39.556 102.616 39.6403 100.699ZM47.883 96.3694C47.7475 96.383 47.5105 96.3641 47.4196 96.4691C47.026 96.9234 47.253 98.1165 47.2569 98.6779L55.3167 98.6623C55.4294 98.6549 55.5471 98.6869 55.6205 98.5883C55.945 98.1523 55.7736 96.8988 55.7571 96.338C53.1389 96.3568 50.4982 96.2815 47.883 96.3694Z" fill="#FEB81D"/>
</svg>
