<svg width="148" height="148" viewBox="0 0 148 148" fill="none" xmlns="http://www.w3.org/2000/svg">
<g clip-path="url(#clip0_56_879)">
<path d="M130.781 74.9116C131.644 75.7349 131.491 77.1304 132.05 78.0347C132.814 79.2699 135.148 79.6894 136.484 80.0467C135.076 80.5017 133.478 80.9104 132.216 81.6819C131.663 82.7984 131.271 83.9756 130.869 85.1523C130.264 84.5735 129.684 82.4141 129.187 81.5353C127.967 80.8429 126.532 80.4562 125.207 80.0095C126.25 79.6777 127.427 79.3943 128.381 78.8568C129.936 77.9811 130.347 76.524 130.781 74.9116Z" fill="#FEB81D"/>
<path d="M25.928 114.079C26.8002 114.957 27.1599 116.251 27.537 117.395C28.8087 117.762 29.9211 118.26 31.0833 118.895C29.9626 119.538 28.8981 119.963 27.6523 120.307C27.0314 121.427 26.5517 122.662 26.0258 123.832C25.1954 123.075 24.7651 121.481 24.3868 120.436C23.1509 119.946 21.9256 119.432 20.7109 118.892C21.9328 118.227 23.2012 117.666 24.5161 117.211C24.9608 116.151 25.4136 115.107 25.928 114.079Z" fill="#FEB81D"/>
<path d="M17.3536 81.1562C18.1195 81.9453 18.5941 83.5488 19.0144 84.5554C20.2973 85.0804 21.5752 85.5953 22.8102 86.2282C21.5788 86.9703 20.3865 87.4642 19.0212 87.9135C18.5625 89.1005 18.1175 90.2745 17.5044 91.3925C16.7031 90.4835 16.3607 89.0234 16.0641 87.8766C14.6186 87.5329 13.3735 86.9008 12.0684 86.2118C13.2663 85.633 14.5219 85.1815 15.7828 84.7642C16.2918 83.5552 16.8154 82.3525 17.3536 81.1562Z" fill="#FEB81D"/>
<path d="M139.749 87.8564C140.637 88.6548 141.059 90.7167 141.415 91.8239C142.989 92.6949 144.846 93.0821 146.584 93.4955C144.835 94.1015 143.113 94.6989 141.59 95.7733C140.956 97.1125 140.526 98.5672 140.052 99.9689C139.586 99.5721 139.166 97.5714 138.775 96.8768C137.623 94.8347 135.271 94.4267 133.205 93.8092C134.854 93.3337 136.91 92.7747 138.382 91.8959C138.901 90.5809 139.269 89.19 139.749 87.8564Z" fill="#FEB81D"/>
<path d="M8.18032 94.835C9.5273 95.9591 10.2282 98.5707 10.8467 100.162C12.6489 100.681 14.3075 101.378 15.9988 102.174C14.3373 102.995 12.57 103.579 10.8261 104.197C10.0801 105.881 9.30346 107.529 8.46795 109.17L8.33477 109.187C7.0958 108.41 6.36244 105.473 5.99881 104.152C4.24056 103.543 2.49623 102.902 0.804688 102.123C2.38626 101.168 4.15918 100.75 5.81969 99.9799C6.57822 98.2498 7.28714 96.5014 8.18032 94.835Z" fill="#FEB81D"/>
<path d="M126.922 101.454C127.693 102.235 129.125 107.336 129.933 108.895C132.358 110.367 135.394 110.999 138.066 111.912C135.865 112.518 133.258 112.99 131.276 114.136C128.648 115.653 127.948 119.383 127.167 122.082L126.987 122.132C125.937 120.744 124.984 116.58 123.955 114.615C121.532 113.433 118.786 112.682 116.209 111.909C118.725 110.879 121.489 110.335 123.923 109.109C125.28 106.784 126.054 104 126.922 101.454Z" fill="#FEB81D"/>
<path d="M87.5418 125.209C90.1128 125.679 92.7318 125.888 95.3192 126.258C101.313 127.113 111.97 128.993 117.059 132.34C118.044 132.988 119.235 133.951 119.442 135.177C119.554 135.844 119.317 136.484 118.923 137.016C116.155 140.751 105.128 142.481 100.665 143.186C100.658 143.187 100.651 143.19 100.643 143.19C96.9433 143.716 93.2305 144.123 89.5048 144.413C85.7791 144.703 82.048 144.874 78.3114 144.927C67.0991 145.178 39.2297 144.49 30.4792 138.445C29.5968 137.836 28.6582 137.011 28.4937 135.89C28.3796 135.113 28.7027 134.475 29.1819 133.887C33.4273 128.677 53.7368 125.945 60.4219 125.296C60.5719 125.278 60.7743 125.239 60.9287 125.249C61.3075 125.274 61.393 125.434 61.6459 125.695C63.2649 127.368 64.7138 129.316 66.2306 131.09C68.9197 134.244 71.6744 137.339 74.4948 140.376C79.087 135.543 83.1993 130.265 87.5418 125.209Z" fill="#001F50"/>
<path d="M72.8381 -0.25203C86.3069 -0.987963 99.4118 4.18632 109.421 13.109C119.436 22.0364 124.852 35.0918 125.604 48.355C125.652 49.2923 125.665 50.2301 125.642 51.1683C125.619 52.1066 125.561 53.0426 125.468 53.9764C125.375 54.9103 125.246 55.8394 125.083 56.7635C124.919 57.6876 124.721 58.6043 124.489 59.5134C123.015 65.2714 120.499 70.6324 117.761 75.8796C110.641 89.5236 102.316 100.716 92.7385 112.606C87.1405 119.522 81.397 126.316 75.5081 132.986L74.4155 134.199C72.9437 132.679 71.6077 130.983 70.2297 129.376L62.8233 120.748C48.5277 104.033 25.0913 75.71 23.6827 53.2943C23.657 52.8853 23.6363 52.476 23.6206 52.0665C23.6048 51.6569 23.5942 51.2472 23.5886 50.8374C23.5831 50.4275 23.5825 50.0177 23.5869 49.6078C23.5913 49.198 23.6007 48.7883 23.6152 48.3787C23.6297 47.9692 23.6493 47.5598 23.6739 47.1506C23.6985 46.7416 23.7281 46.3329 23.7626 45.9245C23.7972 45.5161 23.8367 45.1082 23.8814 44.7008C23.926 44.2934 23.9756 43.8865 24.0302 43.4803C24.0848 43.074 24.1443 42.6685 24.2088 42.2639C24.2735 41.8591 24.3431 41.4552 24.4175 41.0522C24.492 40.6492 24.5714 40.2472 24.6558 39.8461C24.74 39.4451 24.8292 39.0452 24.9234 38.6464C25.0175 38.2475 25.1166 37.8498 25.2205 37.4533C25.3245 37.057 25.4333 36.6619 25.547 36.268C25.6606 35.8743 25.779 35.4821 25.9023 35.0913C26.0255 34.7006 26.1535 34.3113 26.2865 33.9237C26.4193 33.5358 26.5568 33.1498 26.699 32.7656C26.8414 32.3813 26.9884 31.9989 27.1401 31.6182C27.2917 31.2376 27.4481 30.8588 27.609 30.4819C27.7701 30.1052 27.9357 29.7305 28.1058 29.3578C28.2761 28.985 28.4509 28.6144 28.6303 28.2459C28.8095 27.8775 28.9932 27.5114 29.1816 27.1476C29.3699 26.7835 29.5626 26.422 29.7597 26.0629C29.9569 25.7038 30.1584 25.3471 30.3643 24.9929C30.5702 24.6387 30.7805 24.287 30.995 23.938C31.2096 23.589 31.4284 23.2427 31.6514 22.8991C31.8745 22.5555 32.1017 22.2147 32.3332 21.8766C32.5646 21.5385 32.8001 21.2034 33.0399 20.8712C33.2796 20.539 33.5232 20.2098 33.7709 19.8837C34.0187 19.5574 34.2704 19.2342 34.526 18.9143C34.7817 18.5942 35.0414 18.2773 35.3048 17.9637C35.5682 17.6501 35.8355 17.3398 36.1066 17.0327C45.7048 6.17997 58.4898 0.605048 72.8381 -0.25203Z" fill="#FEB81D"/>
<path d="M72.4805 15.6521C72.6751 15.6107 72.8845 15.6129 73.0829 15.6036C73.3659 15.5907 73.649 15.5814 73.9321 15.5757C74.2153 15.5699 74.4985 15.5675 74.7818 15.5686C75.0651 15.5698 75.3482 15.5744 75.6312 15.5826C75.9144 15.5907 76.1974 15.6024 76.4802 15.6176C76.7632 15.6328 77.0458 15.6514 77.3282 15.6736C77.6105 15.6957 77.8926 15.7213 78.1744 15.7505C78.4561 15.7795 78.7374 15.8121 79.0185 15.8481C79.2993 15.8842 79.5798 15.9238 79.8598 15.9668C80.1397 16.0099 80.4191 16.0564 80.698 16.1063C80.9768 16.1561 81.2549 16.2094 81.5323 16.2661C81.8099 16.3231 82.0867 16.3834 82.3627 16.447C82.6387 16.5106 82.9139 16.5776 83.1884 16.6479C83.4628 16.7184 83.7362 16.7923 84.0088 16.8694C84.2813 16.9466 84.5529 17.0271 84.8235 17.111C85.094 17.195 85.3634 17.2823 85.6319 17.3729C85.9004 17.4634 86.1677 17.5572 86.4337 17.6543C86.6997 17.7516 86.9646 17.8521 87.2284 17.9558C87.492 18.0596 87.7543 18.1666 88.0153 18.2767C88.2763 18.3868 88.5359 18.5002 88.7941 18.6169C89.0523 18.7335 89.309 18.8534 89.5641 18.9764C89.8194 19.0993 90.0731 19.2254 90.3253 19.3548C90.5773 19.484 90.8278 19.6163 91.0768 19.7517C91.3257 19.8872 91.5728 20.0256 91.8182 20.1671C92.0637 20.3087 92.3074 20.4532 92.5493 20.6007C92.7913 20.7484 93.0313 20.899 93.2695 21.0525C93.5077 21.2061 93.7439 21.3624 93.9782 21.5217C94.2126 21.6811 94.445 21.8434 94.6754 22.0085C94.9057 22.1734 95.134 22.3413 95.3601 22.5121C95.5862 22.6828 95.8103 22.8563 96.0324 23.0327C96.2543 23.2089 96.474 23.3879 96.6915 23.5697C96.9089 23.7513 97.1241 23.9356 97.3371 24.1228C97.55 24.3098 97.7607 24.4994 97.969 24.6916C98.1722 24.8785 98.3731 25.0679 98.5716 25.2596C98.7702 25.4515 98.9665 25.6457 99.1603 25.8423C99.3542 26.0389 99.5456 26.2379 99.7346 26.4392C99.9237 26.6404 100.11 26.844 100.294 27.0499C100.479 27.2556 100.66 27.4636 100.839 27.674C101.018 27.8841 101.195 28.0965 101.368 28.311C101.542 28.5256 101.714 28.7422 101.882 28.961C102.051 29.1797 102.217 29.4004 102.38 29.6233C102.543 29.846 102.704 30.0707 102.862 30.2973C103.019 30.5241 103.174 30.7527 103.327 30.9831C103.479 31.2136 103.628 31.4459 103.775 31.6799C103.921 31.914 104.065 32.1498 104.206 32.3874C104.347 32.6251 104.485 32.8644 104.62 33.1052C104.755 33.3462 104.887 33.5888 105.016 33.8331C105.145 34.0772 105.271 34.3229 105.395 34.5702C105.518 34.8174 105.638 35.0662 105.755 35.3164C105.872 35.5666 105.986 35.8181 106.097 36.071C106.208 36.324 106.316 36.5783 106.421 36.8338C106.526 37.0895 106.628 37.3464 106.726 37.6045C106.825 37.8625 106.92 38.1216 107.012 38.3821C107.105 38.6425 107.194 38.9039 107.28 39.1664C107.366 39.4291 107.449 39.6927 107.528 39.9572C107.608 40.2218 107.684 40.4874 107.757 40.7538C107.83 41.0203 107.9 41.2876 107.967 41.5558C108.033 41.8239 108.097 42.0928 108.157 42.3625C108.217 42.6322 108.274 42.9026 108.327 43.1736C108.381 43.4447 108.431 43.7165 108.478 43.9888C108.524 44.2611 108.568 44.5339 108.608 44.8072C108.649 45.0807 108.686 45.3545 108.719 45.6288C108.753 45.9031 108.783 46.1777 108.81 46.4526C108.837 46.7275 108.861 47.0028 108.881 47.2783C108.901 47.5539 108.918 47.8297 108.932 48.1058C108.943 48.3828 108.952 48.6601 108.956 48.9374C108.961 49.2146 108.963 49.4919 108.961 49.7693C108.959 50.0467 108.954 50.324 108.945 50.6012C108.936 50.8782 108.924 51.1553 108.908 51.4323C108.892 51.7092 108.873 51.9858 108.851 52.2622C108.829 52.5386 108.803 52.8147 108.774 53.0904C108.744 53.3662 108.712 53.6416 108.676 53.9167C108.64 54.1916 108.601 54.4661 108.558 54.7402C108.515 55.0142 108.469 55.2875 108.419 55.5603C108.37 55.8333 108.317 56.1055 108.261 56.377C108.205 56.6487 108.145 56.9195 108.082 57.1896C108.019 57.4596 107.953 57.7289 107.884 57.9974C107.814 58.2658 107.742 58.5333 107.665 58.8C107.589 59.0667 107.51 59.3324 107.427 59.5971C107.345 59.8617 107.259 60.1254 107.17 60.3881C107.081 60.6506 106.988 60.9121 106.893 61.1725C106.797 61.4327 106.699 61.6917 106.597 61.9495C106.495 62.2075 106.39 62.464 106.281 62.7192C106.173 62.9746 106.062 63.2285 105.947 63.4811C105.833 63.7335 105.715 63.9845 105.594 64.2341C105.474 64.4838 105.35 64.7319 105.223 64.9784C105.096 65.2249 104.967 65.4699 104.834 65.7134C104.701 65.9566 104.565 66.1983 104.427 66.4383C104.288 66.6783 104.146 66.9166 104.002 67.1532C103.857 67.3896 103.709 67.6242 103.559 67.857C103.408 68.0899 103.255 68.3208 103.099 68.5499C102.943 68.779 102.784 69.0061 102.623 69.2312C102.461 69.4564 102.296 69.6795 102.129 69.9006C101.962 70.1217 101.792 70.3407 101.619 70.5577C101.447 70.7746 101.272 70.9893 101.094 71.2019C100.916 71.4145 100.736 71.6248 100.553 71.8328C100.37 72.041 100.184 72.2468 99.9958 72.4503C99.809 72.6564 99.6196 72.8602 99.4277 73.0617C99.2358 73.263 99.0415 73.462 98.8448 73.6586C98.648 73.8552 98.4489 74.0494 98.2474 74.2411C98.0458 74.4328 97.8419 74.622 97.6357 74.8089C97.4296 74.9955 97.2212 75.1796 97.0104 75.3612C96.7997 75.5428 96.5869 75.7217 96.3718 75.898C96.1566 76.0743 95.9394 76.248 95.7201 76.419C95.5006 76.5898 95.2791 76.758 95.0556 76.9237C94.8321 77.0891 94.6066 77.2518 94.3792 77.4117C94.1518 77.5717 93.9223 77.7289 93.6908 77.883C93.4595 78.0374 93.2263 78.1888 92.9912 78.3373C92.7561 78.4859 92.5192 78.6315 92.2805 78.7741C92.0419 78.9169 91.8015 79.0566 91.5594 79.1934C91.3173 79.3303 91.0736 79.4641 90.8282 79.5947C90.5829 79.7256 90.3359 79.8534 90.0873 79.978C89.8389 80.1027 89.5889 80.2242 89.3373 80.3427C89.0858 80.4613 88.8329 80.5767 88.5785 80.689C88.3242 80.8012 88.0685 80.9104 87.8115 81.0164C87.5545 81.1223 87.2962 81.2251 87.0366 81.3248C86.777 81.4245 86.5163 81.5209 86.2543 81.6141C85.9925 81.7073 85.7295 81.7972 85.4652 81.8838C85.2012 81.9706 84.936 82.0541 84.6698 82.1342C84.4036 82.2144 84.1365 82.2914 83.8685 82.365C83.6004 82.4385 83.3314 82.5088 83.0616 82.5757C82.7918 82.6427 82.5213 82.7064 82.25 82.7666C81.9786 82.8269 81.7066 82.8839 81.4338 82.9374C81.161 82.9911 80.8876 83.0413 80.6137 83.0882C80.3397 83.135 80.0651 83.1785 79.79 83.2186C79.515 83.2587 79.2395 83.2955 78.9635 83.3287C78.6875 83.362 78.4112 83.3919 78.1346 83.4183C77.8578 83.4447 77.5807 83.4678 77.3035 83.4876C77.0262 83.5072 76.7487 83.5234 76.4711 83.5363C68.1016 84.0798 59.2964 81.5478 52.7311 76.2533C52.5164 76.0817 52.3038 75.9074 52.0933 75.7305C51.8828 75.5537 51.6746 75.3743 51.4685 75.1924C51.2624 75.0103 51.0586 74.8257 50.857 74.6388C50.6555 74.4518 50.4563 74.2624 50.2593 74.0705C50.0623 73.8786 49.8678 73.6844 49.6758 73.4878C49.4835 73.2912 49.2937 73.0922 49.1064 72.8908C48.919 72.6897 48.7342 72.4861 48.5519 72.2802C48.3696 72.0745 48.1898 71.8664 48.0126 71.6561C47.8353 71.4458 47.6607 71.2335 47.4886 71.0191C47.3166 70.8045 47.1472 70.5879 46.9803 70.3693C46.8137 70.1505 46.6496 69.9297 46.4882 69.707C46.3269 69.4843 46.1683 69.2597 46.0124 69.0332C45.8566 68.8066 45.7036 68.5781 45.5532 68.3477C45.403 68.1174 45.2556 67.8852 45.1109 67.6512C44.9664 67.4172 44.8247 67.1816 44.6859 66.9442C44.5471 66.7066 44.4112 66.4675 44.2781 66.2268C44.1451 65.986 44.0151 65.7436 43.888 65.4997C43.761 65.2556 43.637 65.0101 43.5161 64.763C43.3951 64.5162 43.277 64.2678 43.162 64.0178C43.047 63.7678 42.9351 63.5166 42.8263 63.264C42.7174 63.0113 42.6117 62.7573 42.5091 62.5021C42.4066 62.2468 42.3071 61.9903 42.2107 61.7327C42.1144 61.475 42.0213 61.2162 41.9314 60.9561C41.8413 60.6962 41.7544 60.4351 41.6709 60.1729C41.5873 59.9109 41.5069 59.6479 41.4297 59.3839C41.3524 59.1197 41.2785 58.8547 41.2078 58.5887C41.1371 58.323 41.0696 58.0563 41.0054 57.7887C40.9413 57.5211 40.8804 57.2528 40.8229 56.9837C40.7652 56.7147 40.7109 56.445 40.6599 56.1746C40.6089 55.9043 40.5612 55.6333 40.5167 55.3618C40.4724 55.0904 40.4313 54.8183 40.3935 54.5456C40.3559 54.2732 40.3215 54.0002 40.2904 53.7267C39.2535 44.0145 42.2813 35.2508 48.3444 27.7376C54.465 20.1533 63.0126 16.6599 72.4805 15.6521Z" fill="#001F50"/>
<path d="M72.3217 27.5208C78.073 26.9276 84.303 28.8045 88.8268 32.3884C88.9646 32.4979 89.1011 32.6091 89.2361 32.722C89.3712 32.8349 89.5048 32.9495 89.6369 33.0656C89.7692 33.1818 89.9 33.2995 90.0294 33.4188C90.1589 33.5382 90.2868 33.6592 90.413 33.7817C90.5395 33.9043 90.6644 34.0283 90.7879 34.1537C90.9112 34.2794 91.033 34.4065 91.1532 34.5351C91.2736 34.6636 91.3924 34.7936 91.5095 34.9249C91.6265 35.0564 91.7419 35.1893 91.8558 35.3236C91.9697 35.4579 92.0819 35.5936 92.1925 35.7306C92.303 35.8677 92.4118 36.006 92.519 36.1457C92.6262 36.2854 92.7316 36.4264 92.8352 36.5688C92.939 36.7111 93.041 36.8546 93.1412 36.9993C93.2414 37.1442 93.3398 37.2902 93.4364 37.4374C93.533 37.5846 93.6278 37.733 93.7209 37.8826C93.8139 38.0321 93.905 38.1827 93.9943 38.3344C94.0836 38.4861 94.1711 38.639 94.2568 38.793C94.3423 38.9469 94.426 39.1018 94.5077 39.2578C94.5895 39.4138 94.6694 39.5707 94.7475 39.7287C94.8253 39.8866 94.9013 40.0455 94.9755 40.2052C95.0496 40.3649 95.1217 40.5255 95.1917 40.6871C95.2619 40.8488 95.3301 41.0112 95.3963 41.1744C95.4624 41.3375 95.5266 41.5016 95.5888 41.6665C95.6511 41.8313 95.7112 41.9968 95.7692 42.1631C95.8273 42.3294 95.8835 42.4963 95.9375 42.6638C95.9916 42.8316 96.0436 42.9999 96.0935 43.1687C96.1435 43.3376 96.1914 43.5071 96.2372 43.6773C96.2829 43.8475 96.3266 44.0181 96.3681 44.1893C96.4098 44.3605 96.4493 44.5321 96.4867 44.7042C96.5241 44.8764 96.5595 45.0489 96.5927 45.2219C96.6259 45.3948 96.657 45.5682 96.6858 45.7419C96.7148 45.9157 96.7417 46.0899 96.7665 46.2645C96.7912 46.4389 96.8138 46.6135 96.8341 46.7884C96.857 46.9731 96.8776 47.1581 96.896 47.3433C96.9142 47.5286 96.9302 47.714 96.9439 47.8996C96.9576 48.0852 96.969 48.2711 96.9781 48.4571C96.9874 48.6429 96.9943 48.8288 96.9989 49.0148C97.0033 49.201 97.0055 49.3872 97.0055 49.5733C97.0055 49.7595 97.0031 49.9456 96.9984 50.1316C96.9938 50.3177 96.9869 50.5037 96.9776 50.6896C96.9683 50.8754 96.9568 51.0612 96.9431 51.2469C96.9293 51.4325 96.9132 51.618 96.8947 51.8032C96.8763 51.9883 96.8557 52.1733 96.8327 52.358C96.8097 52.5427 96.7845 52.7271 96.7569 52.9113C96.7294 53.0954 96.6996 53.2791 96.6675 53.4625C96.6356 53.6457 96.6013 53.8286 96.5646 54.0112C96.5281 54.1936 96.4893 54.3756 96.4483 54.5572C96.4072 54.7388 96.3639 54.9198 96.3183 55.1003C96.2728 55.2807 96.2251 55.4606 96.1751 55.6399C96.1251 55.8191 96.0728 55.9977 96.0184 56.1757C95.964 56.3537 95.9075 56.531 95.8488 56.7075C95.79 56.8842 95.7291 57.0601 95.6661 57.2351C95.603 57.4102 95.5378 57.5845 95.4703 57.7579C95.4029 57.9314 95.3333 58.104 95.2616 58.2758C95.1899 58.4474 95.1162 58.6183 95.0405 58.7883C94.9646 58.9581 94.8866 59.1271 94.8066 59.2951C94.7264 59.463 94.6443 59.63 94.56 59.7961C94.476 59.962 94.3898 60.1269 94.3015 60.2907C94.2132 60.4545 94.1229 60.6172 94.0307 60.7787C93.9385 60.9403 93.8443 61.1007 93.748 61.2599C93.6519 61.4193 93.5537 61.5774 93.4535 61.7342C93.3535 61.891 93.2514 62.0465 93.1473 62.2007C93.0434 62.355 92.9376 62.5081 92.8299 62.6598C92.7222 62.8114 92.6125 62.9617 92.5009 63.1106C92.3895 63.2596 92.2763 63.4072 92.1613 63.5534C88.1274 68.6271 82.7297 71.0297 76.3964 71.758C76.0319 71.7879 75.667 71.8093 75.3016 71.8224C74.9363 71.8353 74.5709 71.8398 74.2053 71.8358C73.8396 71.8318 73.4742 71.8193 73.1093 71.7984C72.7442 71.7775 72.3799 71.7482 72.0162 71.7105C71.6526 71.6727 71.29 71.6264 70.9285 71.5718C70.5669 71.5173 70.2067 71.4544 69.8482 71.3831C69.4896 71.3118 69.1328 71.2322 68.7778 71.1444C68.4228 71.0567 68.0701 70.9606 67.7197 70.8564C67.3691 70.7523 67.0211 70.6401 66.6757 70.5199C66.3305 70.3996 65.9881 70.2714 65.6486 70.1351C65.3093 69.9991 64.9733 69.8552 64.6406 69.7034C64.3078 69.5517 63.9787 69.3924 63.6533 69.2254C63.3278 69.0584 63.0064 68.8839 62.689 68.7022C62.3718 68.5203 62.0589 68.3312 61.7502 68.1349C61.4416 67.9384 61.1377 67.735 60.8384 67.5245C60.5393 67.314 60.2452 67.0968 59.956 66.8728C59.8177 66.7636 59.6807 66.6527 59.545 66.5402C59.4092 66.4277 59.275 66.3136 59.1422 66.1978C59.0095 66.0819 58.8781 65.9644 58.7481 65.8453C58.618 65.7262 58.4896 65.6056 58.3627 65.4834C58.2356 65.3612 58.1102 65.2374 57.9863 65.1121C57.8624 64.9868 57.7399 64.8599 57.6191 64.7315C57.4983 64.6031 57.3792 64.4732 57.2615 64.3419C57.1439 64.2107 57.0279 64.078 56.9136 63.9437C56.7992 63.8096 56.6865 63.6741 56.5756 63.5372C56.4645 63.4001 56.3552 63.2618 56.2476 63.1221C56.14 62.9826 56.0341 62.8417 55.93 62.6995C55.8257 62.5572 55.7233 62.4136 55.6228 62.2687C55.5221 62.124 55.4233 61.978 55.3264 61.8309C55.2293 61.6835 55.134 61.5351 55.0407 61.3857C54.9473 61.2361 54.8558 61.0853 54.766 60.9334C54.6764 60.7817 54.5887 60.6288 54.5028 60.4748C54.417 60.3207 54.333 60.1657 54.2509 60.0098C54.1688 59.8536 54.0886 59.6965 54.0104 59.5384C53.9322 59.3805 53.8559 59.2215 53.7814 59.0616C53.7071 58.9016 53.6348 58.7407 53.5644 58.579C53.4942 58.4173 53.4259 58.2548 53.3594 58.0915C53.2931 57.928 53.2288 57.7638 53.1664 57.5988C53.1041 57.4339 53.0438 57.2681 52.9855 57.1015C52.9274 56.9351 52.8712 56.7679 52.8172 56.6C52.7631 56.4322 52.711 56.2637 52.661 56.0947C52.611 55.9255 52.5631 55.7557 52.5173 55.5854C52.4715 55.415 52.4278 55.2442 52.3861 55.0729C52.3445 54.9014 52.3051 54.7294 52.2678 54.557C52.2303 54.3847 52.1951 54.2119 52.162 54.0386C52.1289 53.8653 52.098 53.6917 52.0691 53.5178C52.0403 53.3437 52.0136 53.1694 51.989 52.9948C51.9644 52.82 51.942 52.6451 51.9218 52.4698C51.9008 52.2892 51.882 52.1083 51.8656 51.9272C51.8491 51.7463 51.8349 51.5651 51.823 51.3837C51.811 51.2022 51.8013 51.0207 51.794 50.8391C51.7865 50.6575 51.7813 50.4758 51.7783 50.2941C51.7754 50.1122 51.7747 49.9303 51.7761 49.7486C51.7778 49.5668 51.7816 49.385 51.7876 49.2033C51.7936 49.0217 51.8019 48.8401 51.8125 48.6585C51.8231 48.4771 51.836 48.2958 51.8511 48.1147C51.8663 47.9334 51.8837 47.7525 51.9032 47.5718C51.9228 47.3911 51.9446 47.2105 51.9687 47.0302C51.9926 46.8501 52.0189 46.6703 52.0474 46.4908C52.0759 46.3112 52.1067 46.132 52.1398 45.9534C52.1727 45.7746 52.2079 45.5962 52.2453 45.4184C52.2826 45.2404 52.3222 45.0629 52.3641 44.8861C52.4058 44.7092 52.4498 44.5328 52.496 44.3569C52.5422 44.1811 52.5905 44.0058 52.641 43.8312C52.6916 43.6567 52.7443 43.4827 52.7991 43.3095C52.854 43.1362 52.911 42.9636 52.9701 42.7916C53.0293 42.6198 53.0905 42.4487 53.1539 42.2784C53.2173 42.1079 53.2828 41.9383 53.3504 41.7696C53.418 41.6009 53.4876 41.433 53.5593 41.2661C53.631 41.0991 53.7048 40.933 53.7807 40.7678C53.8566 40.6027 53.9346 40.4385 54.0146 40.2752C54.0944 40.112 54.1763 39.9498 54.2604 39.7886C54.3443 39.6274 54.4302 39.4674 54.5182 39.3085C54.6062 39.1494 54.6961 38.9914 54.788 38.8346C54.8799 38.6778 54.9737 38.5222 55.0695 38.3677C55.1652 38.2133 55.2627 38.0601 55.3623 37.9081C55.4618 37.756 55.5632 37.6052 55.6665 37.4558C55.7698 37.3062 55.875 37.1579 55.982 37.0111C56.0889 36.8642 56.1976 36.7187 56.3082 36.5745C56.4189 36.4304 56.5312 36.2876 56.6452 36.1462C60.5554 31.2203 66.1015 28.2325 72.3217 27.5208Z" fill="#FEFEFE"/>
</g>
<defs>
<clipPath id="clip0_56_879">
<rect width="148" height="148" fill="white"/>
</clipPath>
</defs>
</svg>
