<svg width="195" height="189" viewBox="0 0 195 189" fill="none" xmlns="http://www.w3.org/2000/svg">
<path d="M116.531 10.1385C119.455 9.8167 130.187 14.2432 132.713 15.9982C137.991 19.6648 136.402 22.7863 137.355 27.9335L137.4 28.1688C138.998 29.5928 141.093 30.73 142.853 31.9774C144.983 33.4859 147.087 35.4684 149.434 36.6056C153.243 36.5544 159.727 34.7474 163.097 36.819C165.582 38.3465 172.391 46.6551 173.998 49.2954C174.61 50.3016 175.088 51.3956 175.308 52.5551C176.128 56.877 172.467 61.5303 170.188 64.8401C172.394 69.6234 174.118 74.496 175.325 79.6185C175.438 79.6312 175.551 79.6453 175.664 79.6566C178.059 79.9004 180.711 80.6525 182.6 82.1896C182.727 82.2932 182.851 82.4 182.973 82.51C183.094 82.6197 183.213 82.7323 183.329 82.8477C183.445 82.9633 183.558 83.0818 183.669 83.2031C183.779 83.3242 183.886 83.4479 183.989 83.5744C184.093 83.7006 184.194 83.8295 184.292 83.9609C184.389 84.0921 184.483 84.2256 184.574 84.3615C184.665 84.4974 184.752 84.6354 184.836 84.7755C184.92 84.9159 185.001 85.0581 185.077 85.2023C185.154 85.3464 185.228 85.4923 185.297 85.64C185.367 85.7876 185.433 85.937 185.495 86.0879C185.557 86.2389 185.615 86.3913 185.67 86.5451C185.725 86.6988 185.775 86.8538 185.822 87.01C185.869 87.1663 185.912 87.3237 185.951 87.4819C185.99 87.6404 186.025 87.7996 186.056 87.9595C186.087 88.1197 186.114 88.2804 186.137 88.4418C186.16 88.6033 186.179 88.7652 186.194 88.9275C186.474 91.7261 186.576 100.749 185.998 103.174C185.636 104.694 184.961 106.109 183.943 107.31C181.638 110.028 178.502 110.742 175.118 111.013C174.178 116.193 171.83 120.876 169.853 125.703C171.791 128.538 175.009 131.415 175.783 134.829C176.238 136.838 175.67 139.115 174.569 140.831C173.084 143.146 166.464 150.553 164.356 152.291C163.371 153.103 162.146 153.914 160.877 154.157C157.039 154.89 154.416 153.504 151.336 151.488C149.601 152.629 147.96 154.065 146.311 155.335C143.655 157.379 140.986 159.295 138.165 161.111C138.149 164.617 138.485 168.458 136.277 171.462C135.55 172.451 134.455 173.293 133.399 173.92C130.909 175.398 120.966 179.466 118.176 179.938C111.479 181.07 109.62 175.156 105.16 172.039C105.096 171.994 105.03 171.951 104.966 171.907C101.993 171.795 99.0172 171.861 96.0426 171.825C93.6459 171.796 91.2236 171.641 88.8322 171.8C84.8852 174.932 84.02 179.225 78.4088 180.331C74.471 180.447 61.0553 175.976 58.0985 173.388C55.0327 170.705 55.874 165.663 55.7104 161.975C54.1693 160.667 52.3662 159.613 50.7527 158.383C48.6138 156.751 46.5397 154.789 44.2432 153.403C41.3328 151.647 39.0666 153.836 36.1869 154.456C34.1121 154.902 32.0887 154.665 30.2991 153.487C28.4856 152.294 21.3209 142.929 20.0717 140.871C19.5163 139.956 19.0771 139.009 18.8743 137.953C18.249 134.697 19.3188 132.289 21.6375 130.011C22.339 129.322 23.1775 128.613 23.7062 127.782C24.0227 127.286 24.2762 126.601 24.206 126.006C23.9621 123.945 22.8809 121.743 22.2342 119.767C21.1966 116.669 20.2868 113.534 19.5049 110.363C17.5136 109.441 15.2242 109.24 13.1879 108.415C10.9609 107.513 9.29042 105.777 8.40063 103.57C7.41244 101.118 7.29621 88.5287 8.44589 86.1282C11.0329 80.7263 14.7579 81.6611 19.3452 79.9361C19.4176 79.9089 19.4889 79.8795 19.5609 79.8513C20.3855 77.2413 20.9166 74.5395 21.7362 71.9218C22.5821 69.2206 23.7511 66.5905 24.4387 63.8481C23.2652 62.4597 21.9786 61.1141 20.9715 59.6014C19.4383 57.2992 18.5093 54.2815 19.1566 51.5239C19.711 49.1626 28.2974 38.3659 30.5219 37.0684C35.4418 34.1977 38.7411 36.3848 43.6026 37.5799C45.9137 36.3788 47.9739 34.4644 50.111 32.963C51.8083 31.7707 53.6784 30.7607 55.3054 29.4801C55.6601 29.201 56.2038 28.7972 56.3988 28.374C56.7535 27.6042 56.7371 26.7529 56.7481 25.9259C56.7956 22.3578 57.2187 19.8288 59.748 17.0867C60.3209 16.4656 60.969 15.8785 61.7083 15.4591C64.2302 14.0291 74.6931 10.5995 77.5386 10.495C83.8318 10.2639 84.9668 14.5311 88.8568 17.9956C88.9135 18.0465 88.972 18.0953 89.0294 18.1451C91.5826 18.2772 94.175 18.1313 96.7335 18.1415C99.0264 18.1507 101.476 18.3715 103.746 18.1373C106.203 17.8836 107.082 15.9876 108.464 14.2654C110.564 11.647 113.237 10.4773 116.531 10.1385Z" fill="#FFB81C"/>
<path d="M95.5291 30.6357C95.7951 30.6222 96.0611 30.6133 96.3273 30.6088C96.8573 30.602 97.3872 30.6015 97.9172 30.6074C98.4472 30.6133 98.9771 30.6256 99.5068 30.6445C100.037 30.6633 100.566 30.6885 101.095 30.7201C101.624 30.7519 102.153 30.7899 102.681 30.8342C103.209 30.8787 103.737 30.9296 104.263 30.9868C104.79 31.044 105.317 31.1076 105.842 31.1776C106.367 31.2478 106.892 31.3242 107.415 31.4069C107.939 31.4895 108.461 31.5785 108.982 31.6739C109.503 31.7693 110.023 31.871 110.542 31.9791C111.061 32.087 111.578 32.2012 112.094 32.3218C112.61 32.4424 113.124 32.5691 113.637 32.7019C114.15 32.835 114.661 32.9742 115.17 33.1195C115.68 33.2651 116.187 33.4166 116.693 33.5742C117.198 33.732 117.702 33.8958 118.203 34.0656C118.705 34.2354 119.204 34.4113 119.702 34.5934C120.199 34.7754 120.694 34.9635 121.186 35.1575C121.679 35.3514 122.169 35.5513 122.657 35.7574C123.144 35.9632 123.629 36.175 124.112 36.3926C124.594 36.6102 125.074 36.8337 125.551 37.0631C126.028 37.2922 126.502 37.5272 126.973 37.7678C127.444 38.0088 127.912 38.2552 128.377 38.5072C128.842 38.7595 129.304 39.0172 129.762 39.2806C130.221 39.5439 130.676 39.8127 131.128 40.0871C131.58 40.3612 132.029 40.641 132.474 40.9264C132.919 41.2117 133.361 41.5022 133.798 41.798C134.236 42.094 134.671 42.3952 135.101 42.7016C135.532 43.008 135.958 43.3196 136.381 43.6364C136.804 43.9532 137.223 44.2751 137.637 44.6022C138.052 44.9291 138.463 45.261 138.87 45.5977C139.276 45.9348 139.679 46.2766 140.077 46.6233C140.475 46.97 140.869 47.3214 141.259 47.6775C141.648 48.0338 142.033 48.3947 142.414 48.7602C155.004 60.9149 161.74 77.3784 161.964 94.7162C161.965 95.2261 161.961 95.736 161.95 96.2459C161.939 96.7555 161.922 97.2651 161.898 97.7745C161.875 98.2839 161.845 98.7929 161.808 99.3017C161.772 99.8101 161.73 100.318 161.682 100.826C161.633 101.334 161.578 101.84 161.516 102.347C161.455 102.853 161.388 103.359 161.314 103.863C161.241 104.368 161.161 104.872 161.074 105.374C160.988 105.877 160.896 106.378 160.797 106.879C160.699 107.379 160.594 107.879 160.483 108.376C160.373 108.875 160.256 109.371 160.133 109.866C160.009 110.361 159.88 110.855 159.745 111.347C159.609 111.839 159.468 112.329 159.32 112.817C159.173 113.306 159.02 113.793 158.86 114.278C158.701 114.762 158.535 115.245 158.364 115.726C158.193 116.207 158.015 116.685 157.832 117.162C157.649 117.638 157.46 118.113 157.265 118.584C157.07 119.056 156.869 119.526 156.662 119.993C156.456 120.46 156.244 120.924 156.026 121.386C155.808 121.848 155.584 122.307 155.355 122.764C155.125 123.22 154.89 123.674 154.65 124.125C154.409 124.575 154.163 125.023 153.911 125.468C153.66 125.913 153.403 126.354 153.14 126.793C152.878 127.231 152.61 127.667 152.336 128.099C152.063 128.531 151.785 128.959 151.501 129.384C151.217 129.81 150.928 130.232 150.634 130.65C150.339 131.068 150.04 131.483 149.735 131.894C149.43 132.305 149.121 132.712 148.807 133.116C148.492 133.519 148.172 133.919 147.848 134.314C147.523 134.71 147.194 135.102 146.86 135.49C146.526 135.877 146.187 136.261 145.843 136.641C145.499 137.02 145.151 137.395 144.798 137.767C144.445 138.137 144.088 138.504 143.726 138.867C141.501 141.128 139.188 143.411 136.669 145.349C126.035 153.528 112.158 158.276 98.7161 158.443C82.2491 158.488 65.9825 153.327 53.5153 142.424C53.1206 142.079 52.7302 141.728 52.3443 141.373C51.9583 141.018 51.5769 140.658 51.1999 140.293C50.823 139.929 50.4507 139.56 50.0831 139.186C49.7154 138.812 49.3525 138.434 48.9943 138.052C48.6362 137.669 48.2829 137.282 47.9345 136.891C47.5859 136.499 47.2423 136.104 46.9039 135.704C46.5652 135.304 46.2317 134.9 45.9032 134.492C45.5748 134.084 45.2516 133.673 44.9336 133.257C44.6153 132.841 44.3025 132.421 43.9949 131.997C43.6872 131.574 43.3849 131.146 43.088 130.715C42.7912 130.284 42.4997 129.849 42.2135 129.411C41.9276 128.973 41.6472 128.531 41.3722 128.086C41.0973 127.641 40.828 127.192 40.5644 126.741C40.3006 126.289 40.0425 125.834 39.7901 125.376C39.538 124.917 39.2915 124.456 39.0508 123.992C38.81 123.528 38.5751 123.061 38.346 122.591C38.1171 122.121 37.8941 121.648 37.6769 121.173C37.4596 120.697 37.2484 120.219 37.043 119.738C36.8379 119.258 36.6388 118.775 36.4455 118.289C36.2526 117.804 36.0656 117.316 35.8848 116.826C35.7039 116.335 35.5292 115.843 35.3607 115.349C35.1922 114.854 35.0299 114.358 34.8738 113.859C34.7176 113.361 34.5678 112.86 34.4242 112.358C34.2807 111.856 34.1434 111.352 34.0125 110.847C33.8815 110.341 33.757 109.834 33.6389 109.325C33.5205 108.817 33.4087 108.307 33.3034 107.796C33.1979 107.284 33.0988 106.772 33.0061 106.258C32.9137 105.744 32.8275 105.229 32.7477 104.713C32.6681 104.197 32.5949 103.681 32.5281 103.163C32.4613 102.645 32.401 102.127 32.3473 101.607C32.2936 101.088 32.2464 100.569 32.2058 100.048C32.1649 99.5279 32.1307 99.0071 32.1031 98.4859C32.0703 97.9626 32.0441 97.4391 32.0244 96.9153C32.0046 96.3913 31.9913 95.8671 31.9844 95.3429C31.9778 94.8189 31.9775 94.2947 31.9837 93.7705C31.9901 93.2462 32.003 92.7221 32.0222 92.1981C32.0417 91.6743 32.0676 91.1507 32.0999 90.6274C32.1323 90.1041 32.1711 89.5813 32.2165 89.0589C32.2619 88.5365 32.3137 88.0149 32.3719 87.4939C32.4304 86.9727 32.4953 86.4525 32.5666 85.9332C32.6379 85.4136 32.7156 84.895 32.7997 84.3774C32.8838 83.8599 32.9745 83.3435 33.0717 82.8279C33.1687 82.3126 33.2721 81.7985 33.3819 81.2855C33.4917 80.7728 33.6079 80.2614 33.7305 79.7513C33.8532 79.2414 33.9821 78.733 34.1173 78.2262C34.2523 77.7194 34.3937 77.2142 34.5415 76.7107C34.6894 76.2074 34.8434 75.7059 35.0035 75.2061C35.1637 74.7066 35.3302 74.209 35.503 73.7135C35.6755 73.218 35.8542 72.7246 36.0391 72.2333C36.224 71.742 36.415 71.2531 36.612 70.7665C36.8093 70.2802 37.0125 69.7962 37.2216 69.3146C37.4305 68.833 37.6455 68.354 37.8665 67.8778C38.0875 67.4014 38.3145 66.9278 38.5474 66.457C38.7801 65.9862 39.0187 65.5183 39.2632 65.0534C39.5078 64.5885 39.7579 64.1267 40.0137 63.6679C40.2696 63.2089 40.5313 62.7532 40.7986 62.3008C41.0658 61.8483 41.3386 61.3993 41.6171 60.9537C41.8957 60.5079 42.1797 60.0655 42.4692 59.6265C42.7586 59.1877 43.0534 58.7525 43.3536 58.3208C43.6538 57.8893 43.9594 57.4615 44.2705 57.0374C44.5813 56.6132 44.8974 56.1928 45.2188 55.7762C45.5401 55.3598 45.8666 54.9474 46.1984 54.539C46.5299 54.1304 46.8666 53.726 47.2083 53.3259C47.5501 52.9258 47.8967 52.5297 48.2482 52.1379C60.6747 38.4034 77.1863 31.5976 95.5291 30.6357Z" fill="#001E4F"/>
<path d="M94.3112 39.9941L94.5711 39.9732C97.8936 39.7291 101.304 40.0301 104.59 40.5162C105.266 40.6095 105.941 40.7152 106.614 40.8335C107.287 40.9517 107.958 41.0823 108.626 41.2252C109.294 41.3682 109.959 41.5234 110.621 41.6908C111.283 41.8583 111.942 42.0379 112.597 42.2296C113.253 42.4213 113.905 42.6249 114.552 42.8404C115.2 43.0561 115.844 43.2837 116.483 43.5233C117.122 43.7625 117.757 44.0136 118.387 44.2764C119.017 44.5393 119.641 44.8135 120.261 45.0992C120.88 45.3851 121.494 45.6822 122.103 45.9905C122.711 46.2988 123.314 46.6183 123.91 46.9489C124.507 47.2796 125.097 47.6211 125.68 47.9734C126.264 48.3257 126.841 48.6887 127.411 49.0622C127.981 49.4357 128.544 49.8197 129.099 50.2142C129.655 50.6085 130.203 51.0128 130.743 51.4274C131.284 51.8419 131.816 52.2661 132.341 52.7002C132.865 53.1342 133.382 53.5778 133.889 54.031C145.155 63.8989 151.329 77.3221 152.195 92.1168C152.978 105.479 148.424 119.887 139.331 129.923C128.752 141.598 115.629 147.843 99.8311 148.727C85.0903 148.982 71.1119 144.372 59.9388 134.705C49.2117 125.424 42.6612 112.694 41.7315 98.5883C40.734 83.4517 45.8165 69.1898 55.9262 57.8251C65.6773 46.8634 79.7679 40.9246 94.3112 39.9941Z" fill="#EDF4FF"/>
<path d="M121.975 65.5462C123.292 65.4441 123.95 65.6681 125.007 66.4708C127.776 68.5724 130.145 71.4049 132.652 73.8128C134.495 75.5837 136.678 77.2289 138.312 79.1882C138.86 79.8456 139.444 80.6772 139.527 81.5537C139.626 82.5965 139.047 83.5316 138.365 84.2682C133.841 89.1539 128.714 93.5628 123.85 98.1118C119.64 102.049 115.558 106.142 111.376 110.112L100.511 120.348C98.0023 122.754 95.5087 125.484 92.7248 127.556C91.8415 128.213 90.8775 128.449 89.7802 128.472C88.8305 128.491 88.1397 128.08 87.386 127.545C84.9498 125.815 82.8597 123.378 80.7382 121.274L71.3675 112.095C68.0168 108.741 64.6339 105.419 61.219 102.13C59.3677 100.336 57.14 98.5096 55.5822 96.4642C55.0649 95.7852 54.6285 95.0363 54.4728 94.1895C54.2571 93.0191 54.5391 91.5498 55.2421 90.578C56.5069 88.83 65.987 79.6485 67.7484 78.4216C68.3313 78.0157 68.9897 77.7836 69.6949 77.6949C70.5964 77.5815 71.5736 77.7468 72.3646 78.199C73.9567 79.1083 75.3531 80.7051 76.6771 81.9726C79.3838 84.584 82.0711 87.2147 84.7391 89.8647C86.4431 91.5413 88.1703 93.4232 90.1043 94.837C90.1542 94.8738 90.2048 94.9087 90.2554 94.9448C93.3387 92.5796 96.1136 89.6581 98.9278 86.9856L113.475 73.1281C115.642 71.0495 119.442 66.8039 121.975 65.5462Z" fill="#001E4F"/>
</svg>
