<svg id="sprite" xmlns="http://www.w3.org/2000/svg"><symbol id="sprite:airplane" viewBox="0 0 34 34">
<path fill-rule="evenodd" clip-rule="evenodd" d="M30.281 6.23593C30.6231 6.45033 30.8027 6.84942 30.7363 7.24767L27.1947 28.4977C27.1039 29.0424 26.5886 29.4105 26.0439 29.3197C25.4991 29.2289 25.1311 28.7136 25.2219 28.1689L28.3689 9.28699L13.328 19.941C12.8773 20.2602 12.2531 20.1536 11.9339 19.703C11.6147 19.2523 11.7212 18.6281 12.1719 18.3089L29.1719 6.26725C29.5014 6.03388 29.9389 6.02152 30.281 6.23593Z"></path>
<path fill-rule="evenodd" clip-rule="evenodd" d="M30.6801 6.71611C30.8829 7.22982 30.6308 7.81065 30.1171 8.01343L3.20044 18.6384C2.68673 18.8412 2.1059 18.5892 1.90312 18.0754C1.70034 17.5617 1.9524 16.9809 2.46611 16.7781L29.3828 6.15312C29.8965 5.95034 30.4773 6.2024 30.6801 6.71611Z"></path>
<path fill-rule="evenodd" clip-rule="evenodd" d="M11.9246 18.5603C12.2365 18.1045 12.8588 17.9878 13.3146 18.2996L26.773 27.508C27.2288 27.8198 27.3454 28.4422 27.0336 28.898C26.7217 29.3538 26.0994 29.4704 25.6436 29.1586L12.1853 19.9502C11.7295 19.6384 11.6128 19.0161 11.9246 18.5603Z"></path>
<path fill-rule="evenodd" clip-rule="evenodd" d="M1.84333 17.5669C1.92143 17.0201 2.42796 16.6402 2.9747 16.7183L12.8914 18.135C13.4381 18.2131 13.818 18.7196 13.7399 19.2664C13.6618 19.8131 13.1553 20.193 12.6085 20.1149L2.69185 18.6982C2.14512 18.6201 1.76522 18.1136 1.84333 17.5669Z"></path>
<path fill-rule="evenodd" clip-rule="evenodd" d="M12.7499 18.1249C13.3022 18.1249 13.7499 18.5727 13.7499 19.1249V24.5024L16.2928 21.9595C16.6834 21.569 17.3165 21.569 17.707 21.9595C18.0976 22.35 18.0976 22.9832 17.707 23.3737L13.457 27.6237C13.1711 27.9097 12.7409 27.9953 12.3673 27.8405C11.9936 27.6857 11.7499 27.3211 11.7499 26.9166V19.1249C11.7499 18.5727 12.1977 18.1249 12.7499 18.1249Z"></path>
</symbol><symbol id="sprite:cross" viewBox="0 0 44 44">
<path fill-rule="evenodd" clip-rule="evenodd" d="M10.2929 10.2929C10.6834 9.90237 11.3166 9.90237 11.7071 10.2929L22 20.5858L32.2929 10.2929C32.6834 9.90237 33.3166 9.90237 33.7071 10.2929C34.0976 10.6834 34.0976 11.3166 33.7071 11.7071L23.4142 22L33.7071 32.2929C34.0976 32.6834 34.0976 33.3166 33.7071 33.7071C33.3166 34.0976 32.6834 34.0976 32.2929 33.7071L22 23.4142L11.7071 33.7071C11.3166 34.0976 10.6834 34.0976 10.2929 33.7071C9.90237 33.3166 9.90237 32.6834 10.2929 32.2929L20.5858 22L10.2929 11.7071C9.90237 11.3166 9.90237 10.6834 10.2929 10.2929Z"></path>
</symbol><symbol id="sprite:document" viewBox="0 0 24 24">
<path d="M19.5 9H13.5V3H4.5V21H19.5V9ZM18.879 7.5L15 3.621V7.5H18.879ZM3.75 1.5H15L21 7.5V21.75C21 21.9489 20.921 22.1397 20.7803 22.2803C20.6397 22.421 20.4489 22.5 20.25 22.5H3.75C3.55109 22.5 3.36032 22.421 3.21967 22.2803C3.07902 22.1397 3 21.9489 3 21.75V2.25C3 2.05109 3.07902 1.86032 3.21967 1.71967C3.36032 1.57902 3.55109 1.5 3.75 1.5ZM7.5 12H16.5V13.5H7.5V12ZM7.5 7.5H11.25V9H7.5V7.5ZM7.5 16.5H16.5V18H7.5V16.5Z"></path>
</symbol><symbol id="sprite:logo" viewBox="0 0 40 40">
<path fill-rule="evenodd" clip-rule="evenodd" d="M5.1121 23.5179L0.0395429 26.4473L3.85939 22.4359L1.84903 23.5194H1.48207C0.667484 23.5194 0 22.8535 0 22.0373V17.9627C0 17.148 0.665903 16.4805 1.48207 16.4805H5.22599C5.55973 15.0728 6.0896 13.7409 6.78556 12.5166L8.28028 13.2553L4.41773 9.39259C3.84199 8.81683 3.84199 7.87409 4.41773 7.29674L7.29804 4.41632C7.87378 3.84056 8.81648 3.84056 9.39381 4.41632L12.0416 7.06422C13.2421 6.32395 14.5534 5.74502 15.9453 5.36064L16.4799 6.94242V1.48213C16.4799 0.66751 17.1458 0 17.962 0H22.0365C22.851 0 23.5185 0.665928 23.5185 1.48213V5.22619C24.9263 5.55995 26.2581 6.08984 27.4823 6.78582L26.7436 8.2806L30.6062 4.4179C31.1819 3.84214 32.1246 3.84214 32.7004 4.4179L35.5807 7.29832C36.1564 7.87409 36.1564 8.81683 35.5807 9.39418L32.9329 12.0421C33.6731 13.2426 34.252 14.5555 34.6364 15.9475L33.0547 16.4837C34.8752 16.4837 36.6958 16.4837 38.5179 16.4837C39.3325 16.4837 40 17.1496 40 17.9658V22.0405C40 22.8551 39.3341 23.5226 38.5179 23.5226H38.151L36.1406 22.4391L39.9605 26.4505L20.0024 14.9257L15.6337 17.4486V14.1142L12.1033 15.9949V19.4875L5.11685 23.521L5.1121 23.5179Z" style="fill: #FFB81C;"></path>
<path fill-rule="evenodd" clip-rule="evenodd" d="M23.5172 38.518C23.5172 39.3326 22.8513 40.0001 22.0352 40.0001H17.9607C17.1461 40.0001 16.4786 39.3342 16.4786 38.518V34.7739C15.0709 34.4401 13.7391 33.9102 12.5148 33.2143L13.2535 31.7195L9.39093 35.5822C8.81518 36.158 7.87248 36.158 7.29516 35.5822L4.41485 32.7018C3.83911 32.126 3.83911 31.1833 4.41485 30.6075L6.305 28.7173L1.42383 29.8878L19.9963 19.1633L38.5688 29.8862L33.6877 28.7157L35.5778 30.6059C36.1535 31.1817 36.1535 32.1244 35.5778 32.7002L32.6975 35.5806C32.1218 36.1564 31.1791 36.1564 30.6033 35.5806L27.9555 32.9327C26.755 33.673 25.4438 34.2503 24.0518 34.6363L23.5172 33.0545V38.518ZM16.4549 24.4117H19.2909V27.2478H16.4549V24.4117ZM20.7081 28.6651H23.5441V31.5012H20.7081V28.6651ZM16.4549 28.6651H19.2909V31.5012H16.4549V28.6651ZM20.7081 24.4117H23.5441V27.2478H20.7081V24.4117Z" style="fill: #001E4F;"></path>
</symbol><symbol id="sprite:sun" viewBox="0 0 100 62">
<path fill-rule="evenodd" clip-rule="evenodd" d="M12.7803 55.1259L0.0988572 61.9926L9.64847 52.5899L4.62256 55.1297H3.70517C1.66871 55.1297 0 53.5687 0 51.6555V42.1045C0 40.1951 1.66476 38.6304 3.70517 38.6304H13.065C13.8993 35.3306 15.224 32.2087 16.9639 29.339L20.7007 31.0704L11.0443 22.0163C9.60497 20.6667 9.60497 18.4569 11.0443 17.1036L18.2451 10.3519C19.6844 9.00227 22.0412 9.00227 23.4845 10.3519L30.104 16.5585C33.1053 14.8233 36.3834 13.4663 39.8632 12.5654L41.1997 16.2731V3.47411C41.1997 1.56465 42.8645 0 44.9049 0H55.0912C57.1276 0 58.7963 1.56094 58.7963 3.47411V12.2502C62.3156 13.0325 65.6451 14.2746 68.7058 15.906L66.8591 19.4098L76.5155 10.3556C77.9548 9.00598 80.3116 9.00598 81.751 10.3556L88.9517 17.1073C90.3911 18.4569 90.3911 20.6667 88.9517 22.02L82.3322 28.2266C84.1828 31.0408 85.6301 34.1182 86.591 37.3809L82.6367 38.6378C87.1881 38.6378 91.7395 38.6378 96.2948 38.6378C98.3313 38.6378 100 40.1988 100 42.1119V51.663C100 53.5724 98.3352 55.1371 96.2948 55.1371H95.3774L90.3515 52.5973L99.9011 62L87.2197 55.1334L50.0059 34.9858L39.0842 40.8995V33.0837L30.2582 37.4922V45.6787L12.7921 55.1334L12.7803 55.1259Z"></path>
</symbol><symbol id="sprite:tailless-arrow" viewBox="0 0 14 8">
<path fill-rule="evenodd" clip-rule="evenodd" d="M0.292893 0.292893C0.683417 -0.0976311 1.31658 -0.0976311 1.70711 0.292893L7 5.58579L12.2929 0.292893C12.6834 -0.0976311 13.3166 -0.0976311 13.7071 0.292893C14.0976 0.683417 14.0976 1.31658 13.7071 1.70711L7.70711 7.70711C7.31658 8.09763 6.68342 8.09763 6.29289 7.70711L0.292893 1.70711C-0.0976311 1.31658 -0.0976311 0.683417 0.292893 0.292893Z"></path>
</symbol><symbol id="sprite:telegram" viewBox="0 0 34 34">
<g clip-path="url(#clip0_2002_3266)">
<path d="M34 17C34 21.5087 32.2089 25.8327 29.0208 29.0208C25.8327 32.2089 21.5087 34 17 34C12.4913 34 8.1673 32.2089 4.97918 29.0208C1.79107 25.8327 0 21.5087 0 17C0 12.4913 1.79107 8.1673 4.97918 4.97918C8.1673 1.79107 12.4913 0 17 0C21.5087 0 25.8327 1.79107 29.0208 4.97918C32.2089 8.1673 34 12.4913 34 17ZM17.6099 12.5503C15.9552 13.2388 12.6501 14.6625 7.69463 16.8215C6.89138 17.1402 6.46992 17.4533 6.43025 17.7607C6.3665 18.2771 7.01463 18.4811 7.8965 18.7595L8.26838 18.8764C9.13538 19.159 10.3041 19.4884 10.9097 19.5011C11.4622 19.5153 12.0771 19.2886 12.7542 18.8211C17.3853 15.696 19.7753 14.1164 19.924 14.0824C20.0303 14.0569 20.179 14.0271 20.2767 14.1164C20.3745 14.2056 20.366 14.3714 20.3554 14.416C20.2916 14.6901 17.748 17.0531 16.4326 18.2771C16.0225 18.6596 15.7314 18.9295 15.6719 18.9911C15.5409 19.1251 15.4077 19.2568 15.2724 19.3864C14.4649 20.1641 13.8614 20.7464 15.3043 21.6984C15.9991 22.1574 16.5559 22.5335 17.1105 22.9117C17.714 23.324 18.3175 23.7341 19.0995 24.2484C19.2978 24.3787 19.4891 24.5112 19.6733 24.6457C20.3766 25.1472 21.012 25.5978 21.7919 25.5255C22.2466 25.483 22.7163 25.058 22.9543 23.783C23.5174 20.7719 24.6245 14.2502 24.8795 11.5621C24.8955 11.3387 24.8863 11.1141 24.8519 10.8927C24.8313 10.7143 24.7449 10.5499 24.6096 10.4316C24.416 10.2987 24.1857 10.2296 23.9509 10.234C23.3134 10.2446 22.3295 10.5868 17.6099 12.5503Z"></path>
</g>
<defs>
<clipPath id="clip0_2002_3266">
<rect width="34" height="34"></rect>
</clipPath>
</defs>
</symbol><symbol id="sprite:vk" viewBox="0 0 34 34">
<g clip-path="url(#clip0_2002_3264)">
<path d="M17 0.680176C7.98659 0.680176 0.679993 7.98678 0.679993 17.0002C0.679993 26.0136 7.98659 33.3202 17 33.3202C26.0134 33.3202 33.32 26.0136 33.32 17.0002C33.32 7.98678 26.0134 0.680176 17 0.680176ZM23.2764 19.0929C23.2764 19.0929 24.7197 20.5175 25.075 21.1788C25.0852 21.1935 25.0914 21.2048 25.0937 21.2128C25.2376 21.4542 25.2733 21.6451 25.2008 21.7857C25.0818 22.0203 24.6738 22.1359 24.5344 22.1461H21.9844C21.8076 22.1461 21.437 22.1002 20.9882 21.7908C20.6431 21.5494 20.3031 21.1533 19.9716 20.7674C19.4769 20.1928 19.0485 19.6964 18.6167 19.6964C18.5618 19.6961 18.5073 19.7047 18.4552 19.7219C18.1288 19.8273 17.7106 20.2931 17.7106 21.5341C17.7106 21.9217 17.4046 22.1444 17.1887 22.1444H16.0208C15.623 22.1444 13.5507 22.005 11.7147 20.0687C9.46729 17.6972 7.44429 12.9406 7.42729 12.8964C7.29979 12.5887 7.56329 12.4238 7.85059 12.4238H10.4261C10.7695 12.4238 10.8817 12.6329 10.9599 12.8182C11.0517 13.0341 11.3883 13.8926 11.9408 14.8582C12.8367 16.4324 13.3858 17.0716 13.8261 17.0716C13.9087 17.0706 13.9897 17.0496 14.0624 17.0104C14.637 16.6908 14.5299 14.6423 14.5044 14.2173C14.5044 14.1374 14.5027 13.301 14.2086 12.8998C13.9978 12.6091 13.6391 12.4986 13.4215 12.4578C13.5096 12.3362 13.6256 12.2377 13.7598 12.1705C14.1542 11.9733 14.8648 11.9444 15.5703 11.9444H15.963C16.728 11.9546 16.9252 12.0039 17.2023 12.0736C17.7633 12.2079 17.7752 12.57 17.7259 13.8093C17.7106 14.1612 17.6953 14.559 17.6953 15.0282L17.6902 15.3546C17.6732 15.9853 17.6528 16.701 18.0982 16.9951C18.1556 17.033 18.2232 17.0525 18.292 17.0512C18.4467 17.0512 18.9125 17.0512 20.1739 14.8871C20.5615 14.1898 20.8995 13.466 21.1854 12.7213C21.2109 12.6771 21.2857 12.5411 21.3741 12.4884C21.44 12.457 21.5119 12.4402 21.5849 12.4391H24.6126C24.9424 12.4391 25.1685 12.4884 25.211 12.6159C25.2858 12.8182 25.1974 13.4353 23.8153 15.307L23.1982 16.1213C21.9453 17.7635 21.9453 17.8468 23.2764 19.0929Z"></path>
</g>
<defs>
<clipPath id="clip0_2002_3264">
<rect width="34" height="34"></rect>
</clipPath>
</defs>
</symbol></svg>