<svg width="241" height="201" viewBox="0 0 241 201" fill="none" xmlns="http://www.w3.org/2000/svg">
<path d="M119.966 18.1594C129.519 17.1776 140.632 20.825 148.204 26.4997C154.934 31.5424 160.459 38.5226 162.743 46.6408C163.398 48.9678 163.716 51.3411 164.053 53.7274C164.836 54.315 165.625 54.921 166.311 55.6195C169.132 58.4904 170.25 62.5131 170.193 66.4394C170.135 70.4524 168.715 74.4314 165.758 77.2535C161.903 80.9327 157.576 80.516 152.611 80.3951C152.55 76.7207 152.044 52.5533 153.082 51.1185C154.601 50.0717 157.047 50.4495 158.8 50.5507C157.607 44.7969 155.237 39.8125 151.342 35.3508C144.615 27.6462 134.935 23.6187 124.809 22.8862C117.092 22.1022 108.779 24.2694 102.129 28.1069C93.3461 33.1753 87.9048 40.7223 85.3769 50.3864C87.5796 50.3846 89.774 50.5014 91.9484 50.8598C91.3383 60.6886 91.7149 70.5824 91.6163 80.4294C90.7925 80.4416 89.9687 80.4451 89.1446 80.4399C85.0709 80.4108 81.6816 79.2179 78.8095 76.2813C75.9877 73.3954 74.7857 69.4579 74.865 65.4987C74.9659 60.4926 77.0458 56.9635 80.6258 53.5762C81.4754 45.772 83.7461 39.3249 88.8897 33.2239C96.7678 23.8793 107.897 19.207 119.966 18.1594Z" fill="#FEB81D"/>
<path d="M119.477 34.5812C123.527 34.209 127.536 34.6462 131.377 35.9973C137.926 38.3019 143.716 43.2336 146.674 49.4889C146.918 50.0048 147.141 50.5295 147.344 51.0628C147.546 51.5965 147.726 52.1372 147.885 52.685C148.043 53.2325 148.18 53.7856 148.294 54.3441C148.408 54.9023 148.5 55.4643 148.568 56.0301C149.075 60.105 148.692 64.3106 148.674 68.4087C148.658 71.914 148.931 75.4789 148.63 78.9745C148.519 80.2584 148.287 81.5251 147.834 82.7369C146.013 87.6131 142.178 88.3665 138.372 91.0858C135.692 93.0014 135.008 94.7057 131.547 96.2651C131.212 96.4129 130.874 96.5527 130.533 96.6844C130.191 96.816 129.847 96.9395 129.499 97.0547C129.151 97.1699 128.801 97.2767 128.448 97.375C128.095 97.4733 127.74 97.5632 127.383 97.6446C127.026 97.7257 126.667 97.7984 126.306 97.8626C125.945 97.9266 125.583 97.9819 125.219 98.0287C124.856 98.0755 124.491 98.1135 124.126 98.1426C123.76 98.172 123.394 98.1925 123.028 98.2042C122.661 98.2159 122.295 98.2188 121.929 98.2128C121.562 98.2068 121.196 98.1921 120.83 98.1687C120.464 98.1453 120.099 98.1131 119.734 98.072C119.37 98.031 119.007 97.9813 118.645 97.9231C118.284 97.8646 117.923 97.7975 117.565 97.7219C117.206 97.6462 116.85 97.5619 116.496 97.4691C116.141 97.3763 115.789 97.2751 115.44 97.1656C115.09 97.0558 114.744 96.9378 114.4 96.8117C110.874 95.4785 108.713 92.805 105.621 90.8394C103.561 89.5286 101.091 88.8522 99.2687 87.1845C97.766 85.8095 96.9035 84.1108 96.0891 82.2897C95.6962 81.0648 95.4707 79.8776 95.2988 78.6056C100.375 80.9905 105.454 82.5652 110.992 83.4836C112.858 83.7927 114.74 83.9118 116.608 84.2452C117.072 84.6895 117.058 85.1868 117.192 85.802C120.849 85.9491 126.412 86.8843 129.681 84.9422C130.774 84.293 131.431 83.2238 131.693 82.0022C131.904 81.0188 131.712 80.0952 131.103 79.2877C129.987 77.8082 128.164 77.2179 126.38 77.0343C124.619 76.8532 118.938 76.5963 117.498 77.3613C116.814 77.7245 117.204 78.1102 116.691 78.5253C109.459 78.0367 101.686 75.4954 95.5005 71.877L95.5077 62.7665C95.527 56.0846 95.8099 50.4539 100.077 44.9398C104.937 38.6588 111.705 35.6195 119.477 34.5812Z" fill="#001F50"/>
<path d="M103.455 97.6788C103.991 97.5956 104.511 97.5817 105.008 97.8218C106.177 98.3878 107.308 99.4917 108.37 100.26C111.486 102.512 115.18 103.827 118.988 104.351C127.168 105.476 133.404 102.575 139.789 97.8061C142.973 98.0898 146.106 98.8029 149.232 99.4473C156.986 101.046 164.915 102.604 170.75 108.354C180.132 117.6 178.393 129.201 178.314 141.067C178.269 147.86 178.368 154.659 178.395 161.453C172.903 161.438 167.413 161.49 161.923 161.608C161.819 153.752 161.797 145.897 161.859 138.041C161.871 134.231 162.243 130.213 161.81 126.433C161.677 125.269 161.391 123.925 160.566 123.034C160.147 122.581 159.594 122.333 158.974 122.323C158.035 122.307 157.05 122.718 156.414 123.399C154.252 125.715 155.051 133.659 155.113 136.896L155.09 161.469C150.756 161.532 146.421 161.53 142.087 161.464C140.837 157.162 139.35 152.915 138.002 148.64C136.951 145.308 136.104 141.763 134.639 138.588C134.395 138.045 134.103 137.528 133.763 137.037C133.422 136.546 133.04 136.09 132.616 135.668C131.107 134.17 129.191 133.342 127.113 132.965C123.137 132.244 118.591 132.779 114.54 132.794L90.2807 132.878C90.4375 130.579 91.1435 126.258 89.4625 124.401C88.9722 123.859 88.2699 123.59 87.5439 123.568C86.7906 123.546 86.0472 123.73 85.5006 124.268C83.7591 125.983 84.4055 130.565 84.4651 132.818C78.9159 132.713 73.3666 132.707 67.8173 132.802C67.7675 124.482 67.851 116.671 73.2283 109.772C80.2988 100.7 92.738 99.1027 103.455 97.6788Z" fill="#001F50"/>
<path d="M53.8424 138.355C57.5259 138.093 61.336 138.296 65.0338 138.333C70.9845 138.396 76.9355 138.429 82.8867 138.432L112.168 138.473C116.831 138.471 121.519 138.293 126.176 138.431C127.04 138.456 127.924 138.466 128.689 138.916C129.314 139.284 129.572 139.754 129.857 140.392C131.237 143.488 131.988 147.045 132.943 150.297C135.027 157.363 137.06 164.443 139.042 171.537C148.879 171.321 158.718 171.21 168.557 171.203C173.705 171.163 179.115 170.802 184.241 171.189C185.147 171.258 186.071 171.428 186.926 171.734C188.634 172.345 190.035 173.548 190.759 175.21C191.4 176.681 191.436 178.407 190.768 179.876C189.913 181.756 188.216 182.797 186.355 183.527C182.001 184.193 177.175 183.682 172.772 183.662L143.837 183.512L90.8313 183.56L76.1059 183.599C73.0253 183.624 69.9115 183.752 66.8331 183.634C64.981 183.562 63.1719 183.375 61.5785 182.358C61.3833 182.234 61.1929 182.104 61.0073 181.968C60.8217 181.831 60.6413 181.688 60.466 181.538C60.291 181.389 60.1215 181.233 59.9575 181.072C59.7936 180.91 59.6358 180.743 59.4842 180.57C59.3323 180.397 59.187 180.219 59.0483 180.037C58.9095 179.853 58.7775 179.665 58.6524 179.473C58.5275 179.28 58.4096 179.084 58.2988 178.883C58.188 178.682 58.0846 178.477 57.9886 178.269C56.1777 174.413 55.7002 169.797 54.6243 165.689C52.856 158.937 50.6794 152.197 49.2673 145.362C48.924 143.701 48.7423 141.779 49.8034 140.323C50.7961 138.96 52.2769 138.645 53.8424 138.355ZM92.7137 155.313C90.5873 155.855 88.6758 156.753 87.5071 158.692C87.4501 158.786 87.3957 158.882 87.3439 158.979C87.292 159.076 87.2426 159.175 87.1958 159.274C87.1489 159.374 87.1047 159.475 87.0632 159.577C87.0216 159.679 86.9829 159.782 86.9468 159.886C86.9106 159.99 86.8771 160.095 86.8464 160.201C86.8159 160.306 86.7881 160.412 86.7629 160.52C86.7377 160.627 86.7154 160.734 86.696 160.843C86.6764 160.951 86.6596 161.06 86.6458 161.169C86.6319 161.278 86.621 161.387 86.6129 161.497C86.6048 161.606 86.5996 161.716 86.597 161.826C86.5948 161.936 86.5953 162.046 86.5986 162.156C86.6018 162.265 86.608 162.375 86.6171 162.485C86.6261 162.594 86.6381 162.704 86.6529 162.813C86.6678 162.922 86.6854 163.03 86.7058 163.138C86.7262 163.246 86.7494 163.354 86.7753 163.46C86.8015 163.567 86.8304 163.673 86.8618 163.779C86.8941 163.885 86.9291 163.99 86.9669 164.094C87.0046 164.198 87.0452 164.301 87.0885 164.402C87.1318 164.504 87.1777 164.605 87.226 164.705C87.2746 164.804 87.3257 164.903 87.3794 164.999C87.4333 165.096 87.4896 165.192 87.5482 165.286C87.6069 165.38 87.6681 165.472 87.7318 165.563C87.7955 165.654 87.8615 165.743 87.9298 165.83C87.9983 165.918 88.0689 166.004 88.1417 166.088C88.2145 166.171 88.2895 166.253 88.3668 166.333C88.4439 166.413 88.5231 166.491 88.6044 166.567C88.6858 166.643 88.769 166.716 88.8541 166.788C88.9393 166.86 89.0263 166.929 89.1152 166.996C89.2041 167.063 89.2946 167.128 89.3868 167.19C89.479 167.253 89.5728 167.313 89.6682 167.37C89.7637 167.428 89.8606 167.483 89.9591 167.536C90.0573 167.588 90.1569 167.638 90.2579 167.686C91.5374 168.3 92.705 168.388 94.0921 168.39C96.2355 167.812 98.0359 166.848 99.1333 164.842C99.1857 164.747 99.2357 164.65 99.2833 164.551C99.3306 164.453 99.3755 164.354 99.4178 164.253C99.4601 164.153 99.4997 164.052 99.5368 163.949C99.5738 163.847 99.6082 163.743 99.6399 163.639C99.6714 163.535 99.7002 163.43 99.7264 163.324C99.7526 163.219 99.776 163.112 99.7967 163.005C99.8173 162.899 99.8352 162.791 99.8503 162.684C99.8652 162.576 99.8774 162.468 99.8869 162.359C99.8963 162.251 99.9028 162.142 99.9066 162.034C99.9104 161.925 99.9114 161.816 99.9096 161.707C99.9076 161.599 99.9028 161.49 99.8953 161.381C99.888 161.273 99.8776 161.165 99.8643 161.057C99.8512 160.949 99.8352 160.841 99.8163 160.734C99.7977 160.626 99.7761 160.52 99.7517 160.414C99.7275 160.308 99.7005 160.202 99.6705 160.097C99.6408 159.993 99.6083 159.889 99.573 159.786C99.0438 158.198 97.9404 156.86 96.4248 156.101C96.1382 155.961 95.8438 155.838 95.5416 155.734C95.2394 155.63 94.9319 155.544 94.6191 155.478C94.3063 155.411 93.9905 155.364 93.6717 155.337C93.3529 155.309 93.0335 155.301 92.7137 155.313Z" fill="#FEB81D"/>
</svg>
