<svg width="241" height="201" viewBox="0 0 241 201" fill="none" xmlns="http://www.w3.org/2000/svg">
<path d="M191.142 98.0865C193.259 98.0814 195.383 98.0433 197.498 98.162C197.9 99.1154 198.133 100.156 198.404 101.154L200.229 102.201C201.523 101.729 202.785 101.197 204.051 100.654L208.253 104.97L206.546 108.11C207.435 110.262 208.872 110.682 210.842 111.615L210.835 117.294C209.82 117.82 208.643 118.078 207.546 118.391C207.239 119.274 207.044 120.126 206.882 121.045C207.319 121.976 207.822 122.882 208.3 123.793C207.365 125.024 205.994 127.421 204.472 127.904C203.17 128.316 201.724 127.295 200.622 126.701C199.892 127.036 199.167 127.383 198.447 127.742C197.983 128.7 197.732 129.779 197.371 130.783C196.539 131.154 195.608 131.145 194.713 131.179C189.378 131.382 191.936 128.102 187.959 126.827C186.923 127.256 185.912 127.769 184.897 128.245C183.224 126.926 181.78 125.401 180.35 123.83C180.781 122.809 181.386 121.844 181.843 120.824L181.168 118.578C180.09 118.055 178.965 117.626 177.855 117.177C177.813 115.914 177.43 113.209 177.9 112.16C178.418 111.003 179.954 110.611 181.027 110.197L181.861 108.281C181.419 107.294 180.938 106.32 180.475 105.342C181.725 103.697 183.218 102.272 184.701 100.842C185.781 101.335 186.854 101.804 187.97 102.21C188.696 101.976 189.33 101.693 190.004 101.342C190.468 100.289 190.663 99.1444 191.142 98.0865Z" fill="#FEB91D"/>
<path d="M193.868 109.086C194.781 109.035 195.761 109.233 196.593 109.608C197.871 110.185 198.808 111.249 199.26 112.571C199.29 112.66 199.317 112.749 199.343 112.839C199.368 112.928 199.391 113.018 199.412 113.109C199.434 113.2 199.453 113.292 199.469 113.383C199.486 113.475 199.5 113.567 199.512 113.66C199.524 113.752 199.534 113.845 199.541 113.938C199.549 114.031 199.554 114.124 199.557 114.218C199.56 114.311 199.561 114.404 199.559 114.497C199.557 114.591 199.553 114.684 199.547 114.777C199.541 114.87 199.533 114.963 199.522 115.056C199.511 115.148 199.498 115.241 199.483 115.333C199.467 115.425 199.45 115.516 199.43 115.608C199.41 115.699 199.388 115.789 199.364 115.879C199.339 115.969 199.313 116.059 199.284 116.148C199.256 116.236 199.225 116.325 199.192 116.412C199.159 116.499 199.124 116.586 199.086 116.671C199.049 116.757 199.01 116.841 198.969 116.925C198.087 118.677 196.647 119.471 194.851 120.03C193.648 119.987 192.55 119.741 191.523 119.085C191.444 119.035 191.366 118.982 191.289 118.927C191.213 118.872 191.138 118.815 191.064 118.757C190.99 118.698 190.918 118.638 190.847 118.576C190.776 118.513 190.707 118.45 190.64 118.384C190.572 118.318 190.506 118.251 190.442 118.182C190.378 118.113 190.315 118.043 190.255 117.971C190.194 117.899 190.135 117.825 190.078 117.75C190.021 117.675 189.966 117.599 189.913 117.521C189.86 117.444 189.808 117.365 189.759 117.284C189.71 117.204 189.663 117.123 189.617 117.04C189.572 116.958 189.529 116.874 189.488 116.789C189.447 116.704 189.408 116.619 189.371 116.532C189.335 116.445 189.3 116.358 189.268 116.269C189.235 116.181 189.205 116.092 189.177 116.002C189.149 115.912 189.124 115.821 189.1 115.73C189.077 115.639 189.056 115.547 189.037 115.455C189.002 115.284 188.975 115.112 188.958 114.939C188.94 114.766 188.93 114.592 188.93 114.418C188.929 114.244 188.937 114.07 188.953 113.897C188.97 113.724 188.995 113.551 189.028 113.381C189.062 113.21 189.103 113.041 189.154 112.874C189.204 112.707 189.262 112.543 189.328 112.383C189.394 112.222 189.469 112.064 189.55 111.911C189.632 111.757 189.722 111.608 189.818 111.463C190.788 110.026 192.228 109.414 193.868 109.086Z" fill="#FEFEFE"/>
<path d="M46.1644 98.1689C46.354 98.1766 46.5434 98.2763 46.7205 98.3423C47.4827 99.1699 47.5433 100.653 47.7241 101.73L49.7279 102.589C50.8267 101.892 51.9146 101.202 53.0734 100.607C54.6755 101.904 56.3975 103.308 57.6081 104.984C57.1394 106.106 56.4675 107.069 55.7793 108.064C56.051 108.908 56.3986 109.74 56.7141 110.569C57.7724 110.693 58.7939 110.844 59.7944 111.223C60.3263 113.424 60.2617 115.791 59.8562 118.005C58.8497 118.324 57.7781 118.464 56.7388 118.645C56.4584 119.515 56.1039 120.366 55.7719 121.218C56.441 122.243 57.0122 123.262 57.4851 124.391C56.4154 126.15 54.7472 127.769 53.0885 128.968C51.8055 128.614 50.7173 127.774 49.6306 127.035C48.9458 127.386 48.3041 127.651 47.5695 127.88L46.4346 131.446C44.578 131.474 42.7156 131.419 40.859 131.392L40.5791 131.283C39.8568 130.399 39.7329 129.043 39.5222 127.955C38.7242 127.669 37.9418 127.316 37.1591 126.989C36.142 127.541 35.1934 128.238 34.2364 128.888C32.4561 127.52 30.4363 125.842 29.4267 123.79C29.9136 122.791 30.6316 121.936 31.3369 121.087C31.0963 120.285 30.8896 119.471 30.6669 118.665C29.4614 118.457 28.2559 118.057 27.0746 117.735C26.7979 115.573 26.9126 113.325 26.9226 111.146C28.2018 110.871 29.4962 110.647 30.7817 110.4C31.0106 109.596 31.2597 108.824 31.5718 108.048C30.9303 107.039 30.346 106.014 29.7795 104.962C31.1393 103.396 32.3715 101.92 34.2134 100.92C35.301 101.387 36.1466 102.058 37.0725 102.782C37.903 102.43 38.7119 102.087 39.4869 101.621C39.781 100.518 40.0282 99.4181 40.2431 98.2971C42.2105 98.1894 44.1927 98.2452 46.1644 98.1689ZM43.2489 109.942C41.6505 110.237 40.2374 110.804 39.2896 112.201C39.2427 112.271 39.1976 112.343 39.1544 112.416C39.1111 112.488 39.0697 112.562 39.0302 112.637C38.9907 112.712 38.9532 112.788 38.9175 112.865C38.8818 112.942 38.8481 113.019 38.8164 113.098C38.7847 113.176 38.7551 113.256 38.7276 113.336C38.6999 113.416 38.6743 113.496 38.651 113.578C38.6274 113.659 38.606 113.741 38.5866 113.824C38.5673 113.906 38.55 113.989 38.5348 114.072C38.5198 114.155 38.5069 114.239 38.4961 114.323C38.4853 114.407 38.4765 114.491 38.4699 114.576C38.4635 114.66 38.4591 114.745 38.4568 114.829C38.4547 114.914 38.4547 114.999 38.4568 115.083C38.4589 115.168 38.4631 115.252 38.4693 115.337C38.4758 115.421 38.4844 115.506 38.4952 115.589C38.5059 115.674 38.5187 115.757 38.5337 115.841C38.5487 115.924 38.5658 116.007 38.5849 116.089C38.6051 116.173 38.6273 116.256 38.6516 116.339C38.676 116.421 38.7025 116.503 38.731 116.584C38.7597 116.666 38.7903 116.746 38.823 116.826C38.8556 116.905 38.8902 116.984 38.9269 117.062C38.9637 117.14 39.0024 117.216 39.043 117.292C39.0837 117.368 39.1262 117.443 39.1706 117.517C39.215 117.59 39.2613 117.663 39.3095 117.734C39.3578 117.806 39.4078 117.876 39.4596 117.944C39.5114 118.013 39.5649 118.08 39.6202 118.146C39.6752 118.212 39.7321 118.277 39.7907 118.34C39.8492 118.403 39.9092 118.465 39.9709 118.525C40.0326 118.585 40.0958 118.643 40.1606 118.7C40.2251 118.757 40.2912 118.812 40.3587 118.865C40.4263 118.919 40.4951 118.97 40.5651 119.02C40.6354 119.07 40.7067 119.118 40.7793 119.165C40.852 119.211 40.9257 119.255 41.0005 119.298C41.8862 119.807 42.7629 119.985 43.7708 120.044C45.4714 119.585 46.8472 118.929 47.7452 117.313C48.4108 116.115 48.533 114.713 48.1358 113.406C48.0919 113.257 48.0409 113.11 47.9826 112.966C47.9242 112.822 47.8588 112.682 47.7864 112.544C47.7141 112.407 47.6351 112.273 47.5493 112.143C47.4637 112.014 47.3718 111.888 47.2737 111.768C47.1755 111.647 47.0716 111.532 46.9619 111.422C46.8522 111.312 46.7374 111.207 46.6174 111.109C46.4974 111.01 46.3728 110.917 46.2436 110.831C46.1143 110.745 45.9811 110.665 45.8438 110.592C45.0304 110.165 44.162 109.972 43.2489 109.942Z" fill="#001F50"/>
<path d="M175.203 45.4727C175.858 45.4173 176.514 45.3905 177.171 45.3922C182.889 45.3839 187.609 47.2249 191.661 51.3009C195.426 55.0897 197.195 59.9648 197.17 65.2771C197.169 65.5941 197.159 65.9107 197.142 66.2271C197.125 66.5434 197.1 66.8592 197.067 67.1742C197.034 67.4894 196.994 67.8036 196.945 68.1168C196.897 68.4299 196.84 68.7416 196.776 69.0519C196.712 69.3622 196.64 69.6707 196.561 69.9774C196.482 70.2843 196.395 70.5889 196.3 70.8912C196.206 71.1937 196.103 71.4937 195.994 71.7911C195.884 72.0883 195.768 72.3826 195.643 72.6741C195.519 72.9656 195.388 73.2539 195.249 73.539C195.111 73.8241 194.966 74.1054 194.813 74.3831C194.661 74.6609 194.501 74.9348 194.335 75.2046C194.169 75.4743 193.996 75.7398 193.817 76.0012C193.637 76.2623 193.452 76.5189 193.26 76.7709C193.067 77.0228 192.869 77.2698 192.664 77.5119C192.46 77.7541 192.25 77.991 192.034 78.2225C191.817 78.4542 191.595 78.6803 191.368 78.9009C187.086 83.0517 181.922 84.3502 176.105 84.2787C172.697 83.9613 169.951 82.7901 166.854 81.4186C164.112 82.0372 161.377 82.7076 158.606 83.1875C159.287 80.6189 160.112 78.0767 160.877 75.5312C159.573 72.9881 158.486 70.214 158.106 67.3706C157.447 62.4295 158.753 57.1399 161.799 53.1772C165.129 48.8456 169.811 46.2075 175.203 45.4727ZM183.015 67.1278L180.503 67.1901C180.465 70.8942 180.483 74.5979 180.559 78.3013C182.629 77.601 184.467 76.7652 186.24 75.4765C189.132 73.2159 190.317 70.6797 191.29 67.2089C188.532 67.1508 185.773 67.1238 183.015 67.1278ZM164.075 67.1862C164.719 70.7187 166.341 73.8686 169.347 75.9505C170.97 77.0741 172.688 77.6284 174.543 78.2376L174.575 67.2371C171.07 67.1161 167.576 67.2548 164.075 67.1862ZM180.496 51.3445L180.501 61.5234C184.061 61.5009 187.635 61.4152 191.193 61.5279C189.855 57.6429 187.768 54.368 183.951 52.5336C182.841 51.9998 181.68 51.6724 180.496 51.3445ZM174.253 51.4008C169.999 53.0192 166.623 55.2685 164.707 59.5565C164.453 60.1262 164.086 60.8512 164.208 61.4827L164.468 61.5979C167.831 61.6096 171.196 61.652 174.558 61.6253C174.584 59.9727 174.847 52.6745 174.402 51.4595L174.253 51.4008Z" fill="#FEB91D"/>
<path d="M58.6304 37.6518C58.9394 37.6325 59.2486 37.6194 59.558 37.6125C59.8676 37.6057 60.1771 37.6051 60.4865 37.6108C60.7961 37.6165 61.1054 37.6285 61.4144 37.6467C61.7234 37.6651 62.0319 37.6898 62.34 37.7207C62.6481 37.7514 62.9553 37.7885 63.2616 37.8317C63.5682 37.8752 63.8737 37.9248 64.1781 37.9806C64.4828 38.0362 64.7861 38.0981 65.0881 38.1662C65.3899 38.2344 65.6904 38.3086 65.9895 38.3888C66.2885 38.4691 66.5856 38.5555 66.881 38.6479C67.1765 38.7403 67.47 38.8387 67.7613 38.9431C68.0529 39.0473 68.342 39.1575 68.6288 39.2736C68.9158 39.3896 69.2004 39.5114 69.4824 39.6391C69.7645 39.7667 70.0438 39.9 70.3204 40.0391C70.5969 40.178 70.8706 40.3225 71.1415 40.4727C71.4122 40.6228 71.6797 40.7783 71.9441 40.9393C72.2085 41.1004 72.4695 41.2667 72.7271 41.4383C77.6889 44.7747 81.1513 50.2692 82.2631 56.1171C83.6252 63.2792 81.8056 68.7012 77.8022 74.5806C78.4992 77.2742 78.9431 80.0521 79.4157 82.7924C76.6758 82.1692 73.9072 81.6358 71.1586 81.0476C68.696 81.9888 66.2888 82.9251 63.6793 83.3865C63.3126 83.4465 62.9442 83.4937 62.574 83.5283C56.1576 84.113 49.9309 82.4132 44.9583 78.2413C44.813 78.1204 44.6694 77.9978 44.5272 77.8735C44.3852 77.749 44.2448 77.6228 44.1058 77.4949C43.9667 77.3669 43.8293 77.2373 43.6935 77.106C43.5578 76.9746 43.4238 76.8416 43.2915 76.7069C43.1592 76.5721 43.0285 76.4358 42.8995 76.2978C42.7706 76.1598 42.6434 76.0202 42.5179 75.879C42.3923 75.7378 42.2685 75.5951 42.1467 75.4509C42.0248 75.3064 41.9047 75.1606 41.7865 75.0133C41.6682 74.8661 41.5519 74.7174 41.4374 74.5672C41.3228 74.4171 41.2101 74.2655 41.0995 74.1123C40.9886 73.9594 40.8798 73.8051 40.7729 73.6494C40.666 73.4936 40.5612 73.3366 40.4583 73.1783C40.3552 73.0198 40.2542 72.8601 40.1553 72.6992C40.0565 72.5384 39.9596 72.3764 39.8646 72.213C39.7697 72.0497 39.6769 71.8853 39.5862 71.7196C39.4953 71.5539 39.4065 71.3872 39.32 71.2194C39.2334 71.0515 39.149 70.8826 39.0666 70.7127C38.9842 70.5427 38.904 70.3717 38.826 70.1997C38.7478 70.0278 38.6718 69.8549 38.5979 69.6811C38.5243 69.5072 38.4527 69.3324 38.3833 69.1567C38.314 68.9811 38.2468 68.8046 38.1817 68.6272C38.1168 68.4499 38.054 68.2718 37.9935 68.0928C37.9329 67.9139 37.8747 67.7342 37.8187 67.5539C37.7627 67.3735 37.709 67.1924 37.6575 67.0108C37.6061 66.829 37.5568 66.6466 37.5097 66.4636C37.4629 66.2807 37.4183 66.0973 37.3759 65.9134C37.3336 65.7293 37.2936 65.5447 37.2558 65.3597C37.2182 65.1744 37.1828 64.9889 37.1496 64.8031C37.1166 64.6171 37.0859 64.4308 37.0576 64.244C37.0291 64.0573 37.003 63.8702 36.9793 63.6829C36.9556 63.4956 36.9342 63.3079 36.9153 63.1198C36.8961 62.9319 36.8794 62.7439 36.8651 62.5556C36.3501 56.3562 38.5478 50.0589 42.5567 45.3366C46.6153 40.5561 52.4851 38.1819 58.6304 37.6518ZM69.7914 53.4101C66.176 57.381 61.7273 61.9051 57.6464 65.3733C55.636 63.2659 53.5485 61.0676 51.1961 59.3356C50.0408 60.176 49.0767 61.1288 48.177 62.237C49.325 63.0868 50.3517 64.1427 51.396 65.116C53.5715 67.0876 55.6716 69.1422 57.8409 71.1221C62.74 66.4528 67.3633 61.4929 72.2846 56.8518C71.9609 55.2112 71.4271 54.5141 70.0479 53.5738C69.9639 53.5168 69.8773 53.4639 69.7914 53.4101Z" fill="#FEB91D"/>
<path d="M171.604 132.606C174.889 132.559 181.874 131.811 184.265 134.06C185.195 134.936 185.575 136.084 185.559 137.342C185.537 139.097 184.9 140.872 184.448 142.554C182.848 148.504 180.837 154.336 179.081 160.24C177.845 164.395 176.939 168.737 175.451 172.806C175.1 173.764 174.678 174.664 173.932 175.384C173.07 176.214 172.21 176.468 171.062 176.61C168.033 176.984 164.933 176.86 161.887 176.817C159.078 176.783 156.268 176.771 153.459 176.779L117.761 176.759C114.759 176.735 109.529 177.169 106.831 176.684C106.089 176.55 105.339 176.296 104.759 175.797C104.223 175.337 103.966 174.759 103.912 174.062C103.861 173.394 103.908 172.531 104.429 172.035C104.804 171.679 105.405 171.594 105.896 171.53C108.265 171.218 110.825 171.396 113.219 171.399C115.311 171.403 117.537 171.262 119.611 171.497C121.251 164.297 123.24 157.174 125.094 150.027C126.292 145.407 127.276 140.572 128.798 136.057C129.046 135.318 129.479 134.029 130.06 133.507C130.608 133.016 131.639 132.779 132.349 132.714C134.015 132.562 135.753 132.666 137.426 132.684L145.55 132.746L171.604 132.606Z" fill="#FEB91D"/>
<path d="M151.94 148.504C152.878 148.482 153.826 148.649 154.675 149.058C156.076 149.733 157.083 150.964 157.551 152.44C157.58 152.53 157.607 152.62 157.632 152.711C157.656 152.802 157.678 152.894 157.698 152.986C157.718 153.078 157.735 153.171 157.751 153.264C157.766 153.357 157.778 153.45 157.789 153.544C157.799 153.638 157.807 153.731 157.812 153.826C157.817 153.92 157.82 154.014 157.821 154.108C157.821 154.202 157.819 154.297 157.815 154.391C157.811 154.485 157.804 154.579 157.795 154.673C157.786 154.767 157.774 154.86 157.76 154.953C157.746 155.047 157.73 155.139 157.711 155.232C157.692 155.324 157.671 155.416 157.647 155.507C157.623 155.598 157.598 155.689 157.569 155.779C157.541 155.869 157.51 155.958 157.478 156.047C157.445 156.135 157.41 156.222 157.372 156.309C157.335 156.395 157.295 156.481 157.254 156.565C157.212 156.65 157.168 156.733 157.122 156.816C156.209 158.441 154.825 159.105 153.11 159.591C151.899 159.612 150.775 159.446 149.7 158.854C149.618 158.808 149.537 158.759 149.457 158.709C149.377 158.658 149.298 158.606 149.22 158.552C149.143 158.497 149.067 158.441 148.993 158.383C148.918 158.324 148.845 158.264 148.774 158.203C148.702 158.141 148.632 158.077 148.564 158.011C148.495 157.946 148.429 157.879 148.364 157.811C148.299 157.742 148.236 157.671 148.174 157.6C148.113 157.528 148.053 157.454 147.995 157.379C147.937 157.304 147.882 157.228 147.828 157.15C147.774 157.073 147.722 156.994 147.672 156.913C147.622 156.833 147.574 156.752 147.528 156.669C147.482 156.586 147.438 156.502 147.396 156.418C147.355 156.333 147.315 156.247 147.278 156.16C147.24 156.073 147.205 155.985 147.172 155.897C147.139 155.808 147.108 155.719 147.079 155.628C147.051 155.538 147.024 155.448 147.001 155.356C146.977 155.267 146.956 155.178 146.937 155.088C146.918 154.999 146.901 154.909 146.887 154.818C146.872 154.727 146.86 154.637 146.851 154.545C146.841 154.454 146.833 154.363 146.828 154.271C146.823 154.179 146.821 154.088 146.82 153.996C146.82 153.904 146.822 153.813 146.827 153.721C146.831 153.629 146.838 153.538 146.847 153.447C146.856 153.355 146.867 153.264 146.881 153.174C146.895 153.083 146.911 152.993 146.929 152.903C146.948 152.813 146.968 152.724 146.991 152.635C147.014 152.546 147.039 152.458 147.067 152.37C147.094 152.283 147.124 152.196 147.156 152.11C147.188 152.024 147.222 151.939 147.259 151.855C147.295 151.771 147.333 151.687 147.374 151.605C147.414 151.523 147.457 151.442 147.502 151.361C147.546 151.281 147.593 151.203 147.642 151.125C148.654 149.518 150.163 148.884 151.94 148.504Z" fill="#FEFEFE"/>
<path d="M106.788 25.4227C108.873 25.3885 110.969 25.4961 113.055 25.5041C117.705 25.492 122.355 25.5044 127.004 25.5414C128.231 26.482 129.311 27.6244 130.399 28.719C132.401 30.7336 140.059 38.1298 140.699 40.0186C141.441 42.2055 141.065 50.2852 141.056 53.1271C141.517 53.2942 141.995 53.4713 142.437 53.6842C143.351 54.1249 144.107 54.7734 144.445 55.7516C145.308 58.2439 145.301 67.3695 144.045 69.7118C143.234 71.2254 141.377 71.7213 139.853 72.1688C137.302 78.6805 134.051 83.8605 127.923 87.5488C127.278 87.9227 126.613 88.2568 125.928 88.5511C121.643 90.3899 116.44 90.2521 112.146 88.5355C106.794 86.3958 102.526 81.9102 99.829 76.9044C98.9543 75.2812 98.2684 73.5413 97.5461 71.8463C96.9072 71.7455 96.2458 71.5924 95.651 71.3356C94.5372 70.8551 93.529 69.9427 93.1025 68.7866C92.2956 66.5994 92.2709 57.4516 93.3229 55.322C94.0224 53.9057 95.5881 53.4713 96.9787 53.044C97.0382 50.0094 97.133 46.9653 97.0931 43.9307C97.0638 41.7014 96.7905 39.3616 97.0886 37.1534C97.2309 36.0975 97.5501 34.8865 98.2069 34.0362C99.2903 32.6338 101.032 32.4904 102.654 32.317C102.599 30.8617 102.384 29.2189 102.619 27.7849C102.803 26.6622 103.159 26.1666 104.071 25.5098L106.788 25.4227ZM108.285 44.6961C105.338 46.4281 103.247 48.2563 102.379 51.6758C101.92 53.4841 101.868 55.3684 101.781 57.2233C100.457 57.2205 99.1291 57.1943 97.8063 57.2299L97.8086 67.4945L101.759 67.5041C103.209 73.65 105.888 79.5198 111.443 82.9868C114.627 84.9745 118.443 85.7789 122.117 84.8885C124.518 84.3069 126.664 83.0432 128.567 81.4943C132.935 77.2401 134.458 73.3622 135.91 67.552L139.932 67.6035C139.933 64.1642 139.916 60.7249 139.88 57.2857C138.412 57.2887 136.944 57.3011 135.476 57.3227C135.478 53.9925 135.65 50.2932 133.103 47.7373C132.773 47.4066 132.4 47.1162 132.033 46.8284C126.675 49.5542 120.884 50.2675 115.106 48.4152C113.967 48.0502 112.729 47.6067 111.705 46.9832C110.68 46.3584 109.405 44.9879 108.285 44.6961Z" fill="#001F50"/>
<path d="M134.802 90.9512C136.117 91.912 136.968 93.4489 137.836 94.7957C131.658 97.8448 125.548 101.023 119.505 104.331C122.405 106.112 124.345 108.488 126.464 111.101C125.324 112.975 124.172 114.803 122.793 116.516C123.673 122.283 124.088 128.177 125.177 133.901C127.694 129.508 129.488 124.687 131.431 120.022C134.611 112.384 137.708 104.653 141.074 97.0985C143.628 98.0351 146.13 99.2902 148.606 100.426C154.133 102.962 162.428 106.291 166.577 110.612C171.63 115.874 171.288 122.499 171.119 129.28C162.844 129.153 154.555 129.253 146.278 129.229C141.699 129.215 136.985 128.835 132.422 129.243C131.204 129.352 129.921 129.557 128.864 130.208C127.86 130.826 126.927 131.821 126.432 132.896C124.739 136.577 124.138 140.879 123.132 144.795C121.329 151.812 119.402 158.768 117.787 165.834L86.9835 165.757L86.9356 148.299C86.9553 147.034 87.2841 143.849 86.4134 142.853C86.0433 142.429 85.4027 142.188 84.8521 142.157C84.2912 142.126 83.7169 142.291 83.3086 142.689C82.7876 143.196 82.709 143.929 82.6389 144.617C82.4115 146.857 82.6273 149.231 82.6355 151.488L82.6617 165.731C77.2694 166.347 71.8678 166.869 66.457 167.295C66.3593 164.169 66.4655 161.008 66.4758 157.879L66.4943 140.906L66.4769 129.55C66.4684 127.072 66.3636 124.553 66.5697 122.083C66.6111 121.543 66.6742 121.006 66.7591 120.472C66.8441 119.938 66.9505 119.408 67.0783 118.882C67.2062 118.357 67.3552 117.837 67.5253 117.323C67.6953 116.81 67.8859 116.304 68.097 115.806C71.3672 108.266 78.1159 106.204 84.8908 102.873C88.772 100.964 92.5605 98.9403 96.5907 97.3561C98.1011 100.613 99.3368 104.048 100.762 107.351C104.671 116.607 108.749 125.787 112.998 134.892C113.074 132.513 113.493 130.095 113.769 127.73C114.196 123.948 114.588 120.164 114.945 116.375C113.675 114.849 112.633 112.983 111.708 111.23C113.606 108.64 115.529 106.343 118.113 104.412C112.084 101.44 106.126 98.1783 100.226 94.9543C101.297 93.6362 102.359 92.3296 103.534 91.1021C108.395 94.4553 113.687 97.0737 118.865 99.892C124.248 97.0367 129.56 94.0564 134.802 90.9512Z" fill="#001F50"/>
</svg>
