<svg width="145" height="145" viewBox="0 0 145 145" fill="none" xmlns="http://www.w3.org/2000/svg">
<path d="M109.065 58.3737C110.273 58.3551 113.399 58.147 114.333 58.9445C114.717 59.2721 114.923 59.7695 114.965 60.2651C115.015 60.862 114.822 61.4798 114.413 61.9221C113.688 62.7077 112.471 62.5938 111.494 62.6069C110.117 62.6215 107.517 63.0174 106.428 62.0581C106.371 62.0085 106.317 61.9562 106.266 61.9012C106.215 61.8461 106.167 61.7887 106.122 61.7287C106.077 61.6688 106.035 61.6067 105.996 61.5425C105.957 61.4782 105.921 61.4122 105.889 61.3444C105.857 61.2765 105.828 61.2072 105.803 61.1364C105.778 61.0657 105.757 60.9938 105.739 60.9209C105.721 60.848 105.707 60.7744 105.697 60.7C105.686 60.6256 105.68 60.5509 105.677 60.4758C105.658 59.9669 105.822 59.4608 106.173 59.0868C106.913 58.3003 108.078 58.3965 109.065 58.3737Z" fill="#FEB81D"/>
<path d="M39.6258 71.8778C40.1003 71.8471 40.5239 71.8488 40.9608 72.0602C41.4564 72.2999 41.8242 72.8413 41.9952 73.3515C42.1555 73.8295 42.1228 74.3203 41.8851 74.7664C41.0963 76.2465 37.0702 77.4405 35.4491 77.9357C35.0054 78.0293 34.606 78.0365 34.1863 77.8432C33.6443 77.5934 33.2533 77.1104 33.0719 76.5469C32.9067 76.0334 32.9291 75.4734 33.1903 74.9958C33.3405 74.7213 33.5678 74.472 33.8309 74.3018C34.754 73.7044 38.4602 72.2461 39.6258 71.8778Z" fill="#FEB81D"/>
<path d="M35.414 58.5132C36.3643 58.4786 37.9184 58.3073 38.6839 58.9786C39.1401 59.3787 39.3402 60.0043 39.3631 60.5959C39.3865 61.2022 39.2176 61.8149 38.7882 62.259C37.9501 63.1257 35.2517 62.808 34.0871 62.7999C33.1386 62.8124 31.5398 62.8264 30.7555 62.2523C30.3236 61.9361 30.096 61.4125 30.045 60.8912C29.9887 60.3149 30.151 59.6502 30.5443 59.2131C31.3602 58.3067 34.1902 58.5627 35.414 58.5132Z" fill="#FEB81D"/>
<path d="M96.9032 83.202C97.2266 83.1813 97.6023 83.1597 97.9124 83.2676C98.824 83.585 102.611 87.3369 103.023 88.2746C103.243 88.7743 103.289 89.3822 103.065 89.889C102.778 90.5377 102.156 90.8611 101.525 91.0908C101.049 91.1499 100.653 91.075 100.224 90.8638C99.0347 90.2783 95.6567 87.0949 95.269 85.8726C95.0959 85.3272 95.1218 84.6758 95.4145 84.1748C95.7433 83.6116 96.3035 83.3685 96.9032 83.202Z" fill="#FEB81D"/>
<path d="M43.4653 30.533C43.8568 30.5032 44.2982 30.4799 44.6494 30.681C45.6917 31.2781 48.9325 34.9744 49.6027 36.0462C49.7375 36.2618 49.814 36.5007 49.8886 36.742C49.8289 37.027 49.7669 37.3058 49.6422 37.5708C49.3327 38.2287 48.8047 38.6117 48.1394 38.8653C47.7707 38.9143 47.3827 38.9779 47.0235 38.8434C45.9292 38.4338 42.4904 34.4551 41.9349 33.3244C41.7157 32.8782 41.6575 32.4397 41.8403 31.9689C42.1225 31.2422 42.7824 30.825 43.4653 30.533Z" fill="#FEB81D"/>
<path d="M110.122 43.3521C110.56 43.3944 110.923 43.5142 111.288 43.7662C111.797 44.1183 112.112 44.6695 112.203 45.278C112.273 45.7508 112.196 46.2639 111.898 46.6501C111.172 47.5924 106.331 49.4752 105.14 49.6523C104.746 49.6295 104.385 49.5481 104.046 49.3361C103.979 49.2944 103.914 49.2494 103.851 49.2012C103.788 49.1529 103.728 49.1017 103.67 49.0475C103.612 48.9934 103.557 48.9364 103.505 48.8768C103.453 48.8171 103.404 48.755 103.358 48.6906C103.312 48.6261 103.269 48.5594 103.23 48.4906C103.191 48.4219 103.155 48.3514 103.122 48.2791C103.09 48.2068 103.061 48.133 103.036 48.0579C103.011 47.9828 102.99 47.9065 102.973 47.8292C102.854 47.2788 102.951 46.7159 103.274 46.2515C103.507 45.915 103.827 45.6709 104.187 45.4822C104.776 45.1736 105.456 45.0028 106.078 44.7661C107.396 44.2642 108.726 43.5887 110.122 43.3521Z" fill="#FEB81D"/>
<path d="M47.3846 83.5565C47.7696 83.5473 48.1402 83.5705 48.5041 83.7071C49.0093 83.8969 49.53 84.3343 49.7464 84.8351C49.9538 85.3156 50.0306 85.9628 49.8255 86.4575C49.479 87.2933 44.8302 90.8971 43.8508 91.3128C43.4591 91.3148 43.0633 91.2907 42.6932 91.1524C42.1469 90.9483 41.6574 90.4649 41.4423 89.9234C41.2392 89.4124 41.2278 88.8461 41.4615 88.343C41.9021 87.3953 46.3751 83.9398 47.3846 83.5565Z" fill="#FEB81D"/>
<path d="M56.8476 21.6038C57.2758 21.559 57.7424 21.5862 58.1205 21.8145C59.1344 22.427 61.1692 27.3145 61.4565 28.596C61.5843 29.1663 61.5593 29.6547 61.2175 30.148C60.8402 30.6926 60.2183 30.8219 59.608 30.9204C59.2074 30.9599 58.7682 30.8934 58.4102 30.7048C58.2032 30.5959 58.0272 30.4581 57.8846 30.2723C57.0571 29.1939 55.5523 25.5846 55.1211 24.2201C54.9437 23.6587 54.858 23.2102 55.1575 22.6731C55.5135 22.0349 56.1842 21.7887 56.8476 21.6038Z" fill="#FEB81D"/>
<path d="M87.4788 21.8198C88.0466 21.8262 88.6639 21.9054 89.1273 22.2623C89.534 22.5757 89.74 23.0518 89.7978 23.5527C89.9346 24.7387 88.3109 29.2865 87.5462 30.2455C87.1395 30.7555 86.6292 30.9027 86.0026 30.9681C85.4598 30.9424 84.9291 30.8924 84.4409 30.628C84.0414 30.4116 83.7705 30.0673 83.6526 29.6284C83.5502 29.2477 83.5678 28.8501 83.6507 28.4675C83.8338 27.6218 84.2806 26.8144 84.6023 26.0141C85.0101 25.0002 85.3141 23.8401 85.8882 22.9068C86.2801 22.2697 86.7633 21.9934 87.4788 21.8198Z" fill="#FEB81D"/>
<path d="M71.9876 18.633C72.4887 18.5931 72.9807 18.6026 73.4471 18.8163C73.8375 18.9952 74.1507 19.3196 74.2953 19.7248C74.7246 20.9277 74.8052 26.3555 74.2626 27.4283C73.9955 27.9559 73.4307 28.1608 72.9033 28.3238C72.3364 28.4178 71.7211 28.346 71.2169 28.0556C70.7809 27.8044 70.4835 27.4319 70.3531 26.948C70.0301 25.7494 70.1087 20.3439 70.7196 19.3502C70.995 18.9021 71.5088 18.7513 71.9876 18.633Z" fill="#FEB81D"/>
<path d="M104.683 71.6575C105.415 71.5724 106.037 71.7916 106.708 72.058C107.901 72.5315 110.793 73.7275 111.739 74.4751C111.985 74.6695 112.155 74.9084 112.271 75.2C112.479 75.7233 112.453 76.3342 112.23 76.8484C111.939 77.5228 111.404 77.8533 110.749 78.1102C109.756 78.2713 108.562 77.6774 107.657 77.3008C106.252 76.716 103.726 75.8526 103.148 74.3334C102.946 73.8041 103 73.2807 103.251 72.7787C103.56 72.1626 104.061 71.8773 104.683 71.6575Z" fill="#FEB81D"/>
<path d="M101.196 30.3818C101.583 30.3693 101.955 30.4168 102.315 30.5681C102.868 30.8002 103.328 31.2641 103.528 31.8311C103.707 32.3366 103.676 32.9289 103.434 33.4096C102.948 34.3776 99.4859 37.7519 98.5391 38.4213C98.2982 38.5916 98.0409 38.6829 97.762 38.7712C97.3581 38.7613 96.987 38.7132 96.6113 38.5547C96.0493 38.3177 95.5793 37.8296 95.36 37.2599C95.184 36.8026 95.1752 36.2844 95.3918 35.8388C95.9139 34.7653 99.4024 31.4789 100.438 30.7423C100.678 30.5721 100.918 30.4734 101.196 30.3818Z" fill="#FEB81D"/>
<path d="M34.0583 43.271C34.3419 43.2512 34.6034 43.2558 34.8815 43.3231C36.2504 43.6546 41.4598 45.6836 42.0936 46.802C42.3385 47.2343 42.3303 47.7336 42.1937 48.1996C41.9659 48.976 41.4857 49.5022 40.7906 49.8863C40.3292 49.993 40.002 49.9556 39.5494 49.8188C38.4864 49.4975 34.3463 47.6604 33.4928 47.0372C33.215 46.8343 33.0052 46.6196 32.852 46.3074C32.5965 45.7871 32.6023 45.077 32.7977 44.5382C33.0251 43.9112 33.4774 43.5545 34.0583 43.271Z" fill="#FEB81D"/>
<path d="M65.8066 121.599C67.2752 121.503 68.7841 121.572 70.259 121.568C73.2001 121.541 76.1407 121.562 79.0811 121.634C79.0806 122.487 79.0946 123.515 78.4251 124.15C77.8439 124.702 77.0768 124.701 76.3285 124.701C76.1476 125.126 75.9757 125.592 75.7315 125.984C75.3229 126.639 74.7465 127.052 73.9926 127.216C72.7811 127.479 70.7682 127.397 69.7168 126.688C69.0545 126.24 68.7838 125.635 68.6426 124.877C67.8489 124.818 67.0289 124.732 66.4484 124.119C65.812 123.448 65.7782 122.47 65.8066 121.599Z" fill="#001F50"/>
<path d="M79.7521 115.725C80.9937 115.708 82.2353 115.698 83.4768 115.696L83.4727 119.352L65.2429 119.347L61.6069 119.36L61.6055 115.78C63.5613 115.718 65.5325 115.773 67.4897 115.773C71.5773 115.787 75.6648 115.771 79.7521 115.725Z" fill="#001F50"/>
<path d="M56.8333 104.115C60.4924 104.066 64.1469 104.111 67.8057 104.111L87.8522 104.06C87.8563 104.653 87.9686 107.265 87.7714 107.607C83.8727 107.576 79.974 107.572 76.0752 107.593L56.8422 107.551C56.8045 106.405 56.8016 105.26 56.8333 104.115Z" fill="#001F50"/>
<path d="M56.8652 109.897C60.658 109.814 64.4678 109.887 68.2623 109.886L87.9319 109.874L87.92 113.366C83.6201 113.4 79.3203 113.395 75.0205 113.351L56.8759 113.362L56.8652 109.897Z" fill="#001F50"/>
<path d="M70.7482 31.5346C72.1162 31.4177 73.5699 31.4769 74.9379 31.5946C75.1866 31.6156 75.435 31.6396 75.6831 31.6667C75.9312 31.6937 76.179 31.7237 76.4264 31.7569C76.6737 31.79 76.9206 31.8262 77.1671 31.8654C77.4136 31.9045 77.6596 31.9467 77.9051 31.9919C78.1506 32.0372 78.3954 32.0854 78.6398 32.1365C78.884 32.1878 79.1276 32.242 79.3706 32.2991C79.6136 32.3563 79.8558 32.4164 80.0973 32.4795C80.3387 32.5426 80.5794 32.6087 80.8193 32.6776C81.0591 32.7466 81.298 32.8185 81.5362 32.8934C81.7743 32.9682 82.0114 33.046 82.2476 33.1267C82.4838 33.2074 82.719 33.2909 82.9531 33.3772C83.1873 33.4637 83.4204 33.553 83.6523 33.6451C83.8843 33.7373 84.1151 33.8322 84.3447 33.93C84.5743 34.0277 84.8027 34.1283 85.0299 34.2317C85.2571 34.335 85.4829 34.4412 85.7075 34.5501C85.9321 34.6591 86.1553 34.7707 86.3772 34.885C86.599 34.9994 86.8194 35.1165 87.0384 35.2363C87.2573 35.3561 87.4748 35.4785 87.6908 35.6036C87.9068 35.7287 88.1212 35.8564 88.3341 35.9868C88.5469 36.1172 88.758 36.2501 88.9676 36.3856C89.1773 36.5211 89.3852 36.6592 89.5914 36.7999C89.7975 36.9404 90.002 37.0836 90.2048 37.2292C90.4075 37.3749 90.6083 37.5229 90.8074 37.6734C91.0064 37.824 91.2036 37.977 91.3989 38.1324C91.5943 38.2877 91.7877 38.4455 91.9792 38.6056C92.1706 38.7657 92.3601 38.9282 92.5476 39.093C92.7351 39.2577 92.9205 39.4247 93.1038 39.594C93.2872 39.7633 93.4685 39.9348 93.6477 40.1085C93.8269 40.2823 94.0039 40.4583 94.1788 40.6363C94.3537 40.8144 94.5264 40.9946 94.6968 41.1769C94.8673 41.3592 95.0355 41.5436 95.2015 41.73C95.3674 41.9165 95.5311 42.1049 95.6924 42.2953C99.0321 46.2788 101.315 51.4225 102.109 56.5509C103.148 63.2688 101.886 70.5867 98.0941 76.2821C96.3231 78.9418 94.1698 81.331 92.3216 83.9383C88.4843 89.3516 85.8133 95.2422 85.2273 101.898C81.6399 101.834 78.0522 101.818 74.4643 101.85C69.3389 101.879 64.2136 101.869 59.0884 101.82C58.6834 95.3378 56.1908 88.9744 52.5337 83.6415C51.2343 81.7469 49.6584 80.0781 48.3037 78.2291C48.1061 77.9538 47.9132 77.6752 47.725 77.3934C47.5368 77.1116 47.3534 76.8266 47.1749 76.5385C46.9963 76.2505 46.8227 75.9595 46.6541 75.6655C46.4854 75.3716 46.3217 75.0749 46.1632 74.7754C46.0045 74.4759 45.851 74.1738 45.7027 73.869C45.5543 73.5644 45.4111 73.2573 45.2732 72.9478C45.1352 72.6381 45.0025 72.3263 44.8751 72.0124C44.7477 71.6983 44.6256 71.3821 44.509 71.0639C44.3924 70.7458 44.2812 70.4257 44.1753 70.1037C44.0695 69.7818 43.9692 69.4582 43.8743 69.1328C43.7794 68.8074 43.6901 68.4806 43.6064 68.1522C43.5227 67.8237 43.4445 67.494 43.3719 67.1631C43.2993 66.832 43.2323 66.4998 43.171 66.1665C43.1097 65.8332 43.0541 65.4989 43.004 65.1638C42.9541 64.8286 42.9098 64.4926 42.8712 64.1559C42.8326 63.8193 42.7997 63.482 42.7725 63.1441C42.1625 55.212 44.862 47.6616 50.0258 41.665C55.2605 35.5865 62.8134 32.1224 70.7482 31.5346ZM71.1291 36.4923C69.7214 36.5982 68.3425 36.7338 66.9605 37.031C66.6437 37.1001 66.3286 37.1756 66.015 37.2575C65.7014 37.3395 65.3895 37.4277 65.0794 37.5222C64.7694 37.6167 64.4614 37.7174 64.1553 37.8244C63.8494 37.9313 63.5457 38.0444 63.2443 38.1636C62.9428 38.283 62.644 38.4083 62.3476 38.5396C62.0513 38.6709 61.7577 38.8082 61.4669 38.9514C61.1761 39.0946 60.8884 39.2436 60.6037 39.3986C60.3189 39.5534 60.0373 39.7139 59.759 39.8801C59.4808 40.0464 59.2061 40.2182 58.9348 40.3956C58.6634 40.5729 58.3957 40.7557 58.1319 40.9439C57.8679 41.1321 57.6079 41.3256 57.3518 41.5243C57.0957 41.723 56.8437 41.9268 56.5959 42.1357C56.348 42.3445 56.1045 42.5583 55.8653 42.7772C55.6261 42.9959 55.3914 43.2194 55.1612 43.4476C54.9311 43.6758 54.7056 43.9086 54.4848 44.146C54.2641 44.3834 54.0482 44.6251 53.8372 44.8712C49.4806 49.9371 47.1898 56.2343 47.6947 62.9422C48.1552 69.0598 51.0544 75.2247 55.7511 79.2257C57.9533 81.1018 60.2603 82.2136 62.7291 83.6386C62.1798 85.1836 61.6184 86.7243 61.0448 88.2604C60.7743 88.9893 60.4219 89.7389 60.2359 90.4932C60.1564 90.8163 60.0003 91.3761 60.1591 91.6796C60.208 91.7732 60.2842 91.7642 60.3777 91.7903C60.598 91.7082 60.7604 91.6228 60.9352 91.4628C61.8011 90.6694 62.554 89.665 63.3311 88.7811C64.2239 87.7657 65.1992 86.7745 66.012 85.6962L66.6243 84.9862C73.2433 86.4445 80.3099 85.4608 86.0631 81.7779C91.3775 78.3758 95.4698 72.8658 96.8169 66.6777C98.2592 60.0509 97.1264 53.3981 93.4484 47.6879C89.8182 42.0522 84.1794 38.3491 77.6559 36.9549C75.565 36.508 73.262 36.2583 71.1291 36.4923Z" fill="#FEB81D"/>
<path d="M79.4201 45.6531C79.5342 46.4469 75.1804 58.74 74.6103 60.8098L84.3083 60.915C80.711 65.226 76.9118 69.3805 73.1929 73.5867L69.256 78.0893C68.4609 78.9889 67.6741 79.9188 66.798 80.7412C66.718 80.7067 66.6935 80.6702 66.6376 80.6054C66.6057 80.2122 66.7534 79.769 66.8758 79.3972C67.2217 78.3463 67.6886 77.3199 68.0782 76.2825C69.3166 72.9852 70.6177 69.5199 71.3614 66.0798C69.4426 66.0574 67.5238 66.0493 65.6049 66.0553C64.3659 66.0574 63.1117 66.0268 61.877 66.1381C63.0399 65.0372 64.0425 63.7432 65.0807 62.5256L70.0366 56.7171L75.4509 50.3946C76.7985 48.8364 78.1981 47.3134 79.4201 45.6531Z" fill="#FEB81D"/>
<path d="M82.3122 43.26C82.8362 43.4886 83.335 43.7972 83.8153 44.1051C83.9554 44.1947 84.0944 44.286 84.2323 44.3791C84.3701 44.4722 84.5068 44.5669 84.6424 44.6634C84.7778 44.7599 84.9121 44.858 85.0452 44.9578C85.1783 45.0576 85.3102 45.159 85.4407 45.2621C85.5713 45.3651 85.7005 45.4697 85.8284 45.576C85.9564 45.6823 86.0831 45.7902 86.2083 45.8996C86.3337 46.0089 86.4577 46.1198 86.5802 46.2324C86.7027 46.3448 86.8238 46.4587 86.9435 46.5742C87.0633 46.6897 87.1816 46.8067 87.2984 46.9251C87.4153 47.0435 87.5306 47.1633 87.6445 47.2846C87.7583 47.4058 87.8706 47.5284 87.9815 47.6525C88.0923 47.7765 88.2016 47.9019 88.3093 48.0287C88.417 48.1555 88.5231 48.2836 88.6276 48.4129C88.7322 48.5423 88.8351 48.673 88.9364 48.8048C89.0377 48.9368 89.1374 49.07 89.2354 49.2044C89.3333 49.3388 89.4297 49.4744 89.5244 49.6113C89.619 49.7481 89.7118 49.886 89.803 50.025C89.8943 50.1641 89.9838 50.3043 90.0715 50.4456C90.1593 50.5869 90.2453 50.7293 90.3295 50.8728C90.4137 51.0162 90.4961 51.1606 90.5767 51.3061C90.6574 51.4517 90.7362 51.5981 90.8132 51.7455C90.8903 51.8929 90.9654 52.0413 91.0388 52.1907C91.112 52.3399 91.1835 52.4901 91.2532 52.6413C91.3227 52.7923 91.3905 52.9442 91.4564 53.0969C91.5222 53.2497 91.5861 53.4032 91.6481 53.5576C91.7101 53.7119 91.7703 53.867 91.8285 54.0229C91.8867 54.1786 91.9429 54.3351 91.9973 54.4924C92.0516 54.6496 92.1039 54.8075 92.1543 54.9661C92.2047 55.1246 92.2532 55.2837 92.2996 55.4434C92.3461 55.6031 92.3905 55.7634 92.433 55.9241C92.4755 56.085 92.516 56.2463 92.5545 56.4081C92.593 56.5699 92.6295 56.7322 92.664 56.895C92.6976 57.0561 92.7292 57.2176 92.7588 57.3795C92.7885 57.5413 92.8161 57.7036 92.8418 57.8662C92.8675 58.0288 92.8912 58.1916 92.9129 58.3547C92.9346 58.5179 92.9543 58.6812 92.9719 58.8448C92.9897 59.0084 93.0054 59.1722 93.0191 59.3363C93.0329 59.5003 93.0446 59.6644 93.0542 59.8287C93.0639 59.993 93.0716 60.1574 93.0773 60.3219C93.083 60.4864 93.0867 60.6509 93.0883 60.8155C93.09 60.98 93.0897 61.1446 93.0873 61.3091C93.085 61.4737 93.0806 61.6383 93.0742 61.8027C93.0678 61.9672 93.0595 62.1315 93.0491 62.2958C93.0387 62.4601 93.0263 62.6241 93.0119 62.788C92.9975 62.952 92.9811 63.1158 92.9627 63.2794C92.9443 63.4429 92.9239 63.6061 92.9016 63.7692C92.8792 63.9322 92.8548 64.0949 92.8284 64.2574C92.802 64.4199 92.7737 64.582 92.7434 64.7438C92.7131 64.9055 92.6808 65.0669 92.6465 65.2279C92.6123 65.3889 92.576 65.5494 92.5378 65.7095C92.4996 65.8695 92.4595 66.0291 92.4174 66.1883C92.3753 66.3473 92.3313 66.5059 92.2853 66.6639C92.2393 66.8219 92.1915 66.9794 92.1417 67.1363C92.0919 67.2932 92.0402 67.4494 91.9865 67.605C91.9329 67.7606 91.8774 67.9155 91.82 68.0697C91.7626 68.224 91.7033 68.3775 91.6422 68.5304C91.581 68.6831 91.518 68.8351 91.4531 68.9863C91.3882 69.1377 91.3214 69.2881 91.2529 69.4377C91.1844 69.5874 91.114 69.7361 91.0419 69.8839C90.9697 70.0319 90.8957 70.1789 90.8199 70.325C90.7442 70.4711 90.6666 70.6162 90.5872 70.7605C90.5079 70.9047 90.4269 71.0479 90.3441 71.1901C90.2613 71.3323 90.1768 71.4735 90.0905 71.6136C90.0042 71.7538 89.9162 71.8929 89.8265 72.0309C86.8975 76.5079 82.0927 79.8384 76.8339 80.8954C75.548 81.154 70.5517 81.7361 69.5244 81.0502C70.0993 80.1401 70.8648 79.3331 71.5721 78.5245L74.1573 75.5527L83.2796 65.0099C85.0284 63.0056 86.9141 61.108 88.4791 58.9505C84.748 58.8571 81.0083 58.9136 77.2764 58.9245C78.1238 56.447 78.9381 53.9586 79.7193 51.4594C80.6132 48.7357 81.4775 46.0025 82.3122 43.26Z" fill="#001F50"/>
<path d="M70.8273 40.8252C73.9387 40.5321 77.0336 41.0713 79.9616 42.1132C79.2291 43.2685 78.2384 44.2767 77.3383 45.3035L73.6326 49.5592C70.2191 53.4651 66.8987 57.4668 63.4466 61.3357C62.407 62.501 58.8897 66.0501 58.4132 67.287C58.3281 67.5081 58.3138 67.6721 58.411 67.895C59.4593 68.2271 67.145 67.9836 68.7976 67.9678C68.579 68.8293 68.2541 69.68 67.9687 70.522L66.4784 74.9336C65.9862 76.5821 65.4211 78.2762 64.7485 79.8596C62.7033 79.1938 60.6076 77.7517 58.9495 76.3768C58.8242 76.272 58.7003 76.1657 58.5776 76.0578C58.455 75.95 58.3337 75.8406 58.2137 75.7298C58.0938 75.619 57.9753 75.5067 57.8582 75.3929C57.7409 75.2792 57.6251 75.164 57.5108 75.0473C57.3965 74.9307 57.2836 74.8128 57.1721 74.6934C57.0607 74.574 56.9507 74.4533 56.8422 74.3312C56.7337 74.2092 56.6267 74.0858 56.5213 73.9611C56.4159 73.8363 56.312 73.7102 56.2096 73.583C56.1073 73.4557 56.0066 73.3273 55.9075 73.1976C55.8082 73.0678 55.7107 72.9368 55.6148 72.8046C55.5188 72.6724 55.4244 72.5392 55.3317 72.4047C55.2391 72.2702 55.1481 72.1346 55.0587 71.9979C54.9694 71.8612 54.8817 71.7234 54.7957 71.5846C54.7098 71.4457 54.6256 71.3058 54.5431 71.1649C54.4606 71.0239 54.3799 70.882 54.3008 70.7391C54.2218 70.5961 54.1446 70.4523 54.069 70.3075C53.9935 70.1627 53.9198 70.0169 53.848 69.8702C53.7761 69.7236 53.706 69.5761 53.6377 69.4277C53.5695 69.2794 53.5031 69.1302 53.4385 68.9802C53.3739 68.8302 53.3112 68.6795 53.2503 68.528C53.1894 68.3763 53.1304 68.2241 53.0732 68.0711C53.016 67.9181 52.9608 67.7644 52.9075 67.6101C52.8542 67.4558 52.8027 67.3008 52.7531 67.1452C52.7036 66.9895 52.656 66.8333 52.6103 66.6765C52.5646 66.5197 52.5208 66.3624 52.4789 66.2046C52.437 66.0467 52.3972 65.8884 52.3592 65.7295C52.3213 65.5706 52.2853 65.4113 52.2513 65.2516C52.2173 65.0919 52.1853 64.9317 52.1552 64.7713C52.125 64.6108 52.097 64.4499 52.0709 64.2887C52.0448 64.1274 52.0206 63.9659 51.9984 63.8041C51.9763 63.6423 51.9562 63.4803 51.9379 63.318C51.9198 63.1556 51.9037 62.9931 51.8895 62.8305C51.8753 62.6683 51.863 62.5059 51.8527 62.3434C51.8424 62.1809 51.8341 62.0183 51.8276 61.8557C51.8213 61.6929 51.817 61.5301 51.8146 61.3673C51.8122 61.2046 51.8119 61.0418 51.8135 60.8789C51.8151 60.7161 51.8187 60.5533 51.8242 60.3905C51.8298 60.2278 51.8374 60.0652 51.8469 59.9027C51.8565 59.7402 51.8681 59.5777 51.8816 59.4155C51.8951 59.2532 51.9106 59.0911 51.928 58.9292C51.9455 58.7673 51.9649 58.6057 51.9862 58.4442C52.0077 58.2828 52.0311 58.1217 52.0565 57.9609C52.0818 57.8001 52.109 57.6396 52.1383 57.4794C52.1676 57.3192 52.1988 57.1593 52.2319 56.9999C52.265 56.8405 52.3001 56.6816 52.3371 56.523C52.3742 56.3644 52.4132 56.2063 52.4541 56.0488C52.495 55.8911 52.5378 55.734 52.5825 55.5775C52.6272 55.4209 52.6738 55.2649 52.7223 55.1095C52.7708 54.954 52.8212 54.7992 52.8735 54.6451C52.9258 54.4908 52.98 54.3373 53.0361 54.1844C53.0921 54.0315 53.1501 53.8793 53.2098 53.7279C53.2696 53.5765 53.3312 53.4258 53.3946 53.2758C53.458 53.1258 53.5233 52.9766 53.5904 52.8283C53.6575 52.6799 53.7263 52.5324 53.797 52.3857C53.8677 52.239 53.9402 52.0932 54.0144 51.9483C54.0886 51.8033 54.1646 51.6594 54.2424 51.5164C54.3202 51.3733 54.3996 51.2311 54.4808 51.09C54.562 50.9489 54.6449 50.8088 54.7296 50.6697C54.8142 50.5306 54.9005 50.3925 54.9885 50.2555C55.0765 50.1186 55.1662 49.9827 55.2575 49.8479C55.3488 49.713 55.4417 49.5793 55.5363 49.4467C55.6309 49.3142 55.7271 49.1828 55.8249 49.0526C55.9227 48.9225 56.0221 48.7935 56.123 48.6656C56.2239 48.5379 56.3264 48.4114 56.4304 48.2862C56.5415 48.153 56.6542 48.0212 56.7685 47.8908C56.883 47.7603 56.9989 47.6313 57.1165 47.5038C57.2341 47.3763 57.3532 47.2502 57.4739 47.1257C57.5946 47.0011 57.7168 46.8781 57.8406 46.7566C57.9644 46.6351 58.0896 46.5151 58.2164 46.3966C58.3431 46.2782 58.4713 46.1614 58.601 46.0462C58.7306 45.931 58.8616 45.8174 58.9941 45.7055C59.1265 45.5935 59.2604 45.4832 59.3957 45.3745C59.5309 45.2659 59.6674 45.1589 59.8052 45.0537C59.9431 44.9484 60.0823 44.8449 60.2228 44.7431C60.3631 44.6413 60.5048 44.5412 60.6477 44.4429C60.7906 44.3447 60.9348 44.2482 61.0802 44.1535C61.2254 44.0588 61.3719 43.9659 61.5196 43.8748C61.6672 43.7838 61.8159 43.6946 61.9657 43.6072C62.1156 43.5199 62.2665 43.4344 62.4184 43.3508C62.5704 43.2672 62.7234 43.1855 62.8774 43.1057C63.0314 43.0259 63.1864 42.948 63.3424 42.872C63.4982 42.7961 63.6551 42.7221 63.8129 42.65C63.9707 42.578 64.1293 42.5079 64.2889 42.4397C64.4484 42.3716 64.6087 42.3055 64.7699 42.2413C64.931 42.1772 65.0929 42.1151 65.2556 42.055C65.4183 41.9948 65.5818 41.9368 65.7459 41.8808C65.9101 41.8247 66.0749 41.7707 66.2404 41.7188C66.4059 41.6668 66.572 41.6169 66.7387 41.5691C66.9054 41.5213 67.0727 41.4755 67.2405 41.4318C67.4084 41.3882 67.5767 41.3466 67.7456 41.307C67.9146 41.2676 68.084 41.2302 68.2538 41.1949C68.4237 41.1597 68.5939 41.1265 68.7645 41.0955C68.9351 41.0644 69.1061 41.0355 69.2775 41.0087C69.4489 40.9819 69.6206 40.9572 69.7925 40.9346C69.9645 40.9122 70.1367 40.8918 70.3092 40.8735C70.4818 40.8552 70.6545 40.8391 70.8273 40.8252Z" fill="#001F50"/>
</svg>
