<svg width="145" height="145" viewBox="0 0 145 145" fill="none" xmlns="http://www.w3.org/2000/svg">
<path d="M114.627 63.2865C115.043 64.8128 115.191 66.6964 115.321 68.2784C115.343 68.5466 115.363 68.8151 115.381 69.0836C115.398 69.3523 115.413 69.6211 115.426 69.8899C115.438 70.1589 115.448 70.4279 115.456 70.6969C115.464 70.966 115.469 71.2352 115.471 71.5043C115.474 71.7736 115.474 72.0427 115.472 72.3119C115.47 72.581 115.465 72.8501 115.458 73.1193C115.451 73.3884 115.441 73.6574 115.429 73.9263C115.417 74.1952 115.403 74.464 115.386 74.7327C115.369 75.0014 115.349 75.2698 115.327 75.5381C115.305 75.8064 115.281 76.0745 115.254 76.3423C115.228 76.6102 115.198 76.8778 115.167 77.1452C115.135 77.4124 115.101 77.6794 115.064 77.9461C115.028 78.2128 114.989 78.4792 114.947 78.7451C114.906 79.0111 114.862 79.2767 114.816 79.5419C114.769 79.8071 114.721 80.0718 114.67 80.3362C114.619 80.6004 114.565 80.8642 114.509 81.1276C114.453 81.3908 114.395 81.6536 114.334 81.9159C114.273 82.1781 114.21 82.4398 114.145 82.7009C114.079 82.962 114.011 83.2225 113.941 83.4823C113.871 83.7421 113.798 84.0013 113.723 84.2598C113.648 84.5184 113.571 84.7762 113.491 85.0334C113.411 85.2904 113.329 85.5468 113.245 85.8024C113.16 86.0579 113.073 86.3127 112.984 86.5668C112.895 86.8208 112.804 87.074 112.71 87.3263C112.616 87.5787 112.52 87.8302 112.422 88.0808C112.324 88.3314 112.223 88.5811 112.12 88.8298C112.018 89.0786 111.912 89.3264 111.805 89.5732C111.698 89.8201 111.588 90.0659 111.476 90.3107C111.364 90.5556 111.25 90.7994 111.134 91.0421C111.017 91.2849 110.899 91.5265 110.778 91.7671C110.657 92.0077 110.534 92.2472 110.409 92.4854C110.284 92.7238 110.157 92.961 110.027 93.197C109.86 93.501 109.689 93.8031 109.515 94.1031C109.34 94.403 109.162 94.7007 108.98 94.9963C108.798 95.2919 108.613 95.5851 108.424 95.8761C108.235 96.1671 108.042 96.4557 107.846 96.742C107.65 97.0283 107.45 97.3121 107.247 97.5936C107.044 97.8749 106.838 98.1537 106.628 98.4301C106.418 98.7065 106.204 98.9801 105.988 99.2511C105.771 99.5223 105.551 99.7907 105.328 100.056C105.105 100.322 104.878 100.585 104.649 100.845C104.419 101.105 104.186 101.363 103.95 101.617C103.714 101.871 103.475 102.123 103.233 102.371C102.991 102.62 102.746 102.866 102.497 103.108C102.249 103.351 101.998 103.59 101.744 103.827C101.49 104.063 101.233 104.296 100.973 104.526C100.714 104.756 100.451 104.983 100.186 105.207C99.9203 105.431 99.6523 105.651 99.3816 105.868C99.1108 106.085 98.8375 106.299 98.5615 106.509C98.2855 106.72 98.007 106.927 97.7259 107.13C97.4449 107.334 97.1614 107.534 96.8754 107.73C96.5894 107.927 96.3011 108.12 96.0104 108.31C95.7197 108.499 95.4267 108.685 95.1315 108.867C94.8362 109.05 94.5388 109.228 94.2392 109.403C93.9395 109.578 93.6378 109.75 93.3339 109.917C93.03 110.085 92.7241 110.249 92.4163 110.409C92.1085 110.569 91.7987 110.726 91.487 110.878C91.1753 111.031 90.8618 111.179 90.5465 111.324C90.2311 111.469 89.914 111.61 89.5952 111.747C89.2764 111.884 88.9559 112.017 88.6339 112.146C88.3118 112.276 87.9882 112.401 87.663 112.522C87.3379 112.643 87.0113 112.761 86.6833 112.874C86.3553 112.987 86.026 113.096 85.6953 113.202C85.3646 113.307 85.0326 113.408 84.6995 113.505C73.9864 116.62 61.8624 115.51 52.0511 110.116C51.7388 109.948 51.4287 109.776 51.1208 109.6C50.8128 109.424 50.5071 109.245 50.2036 109.061C49.9002 108.878 49.5991 108.691 49.3002 108.5C49.0014 108.309 48.705 108.114 48.4111 107.916C48.1171 107.718 47.8256 107.516 47.5367 107.31C47.2477 107.104 46.9614 106.895 46.6777 106.683C46.394 106.47 46.1129 106.254 45.8345 106.034C45.5562 105.814 45.2806 105.591 45.0078 105.365C44.7351 105.138 44.4652 104.908 44.1981 104.675C43.9311 104.441 43.667 104.205 43.4057 103.965C43.1445 103.725 42.8864 103.482 42.6313 103.236C42.3763 102.989 42.1242 102.74 41.8753 102.487C41.6264 102.235 41.3807 101.979 41.1381 101.72C40.8956 101.462 40.6564 101.2 40.4204 100.935C40.1844 100.671 39.9517 100.403 39.7223 100.133C39.493 99.8622 39.267 99.5889 39.0444 99.3129C38.8219 99.0368 38.6029 98.7579 38.3872 98.4764C38.1716 98.1948 37.9596 97.9107 37.751 97.6239C37.5425 97.337 37.3376 97.0476 37.1363 96.7557C36.935 96.4638 36.7373 96.1694 36.5434 95.8725C36.3495 95.5756 36.1592 95.2764 35.9727 94.9749C35.7861 94.6733 35.6034 94.3694 35.4244 94.0633C35.2454 93.7571 35.0703 93.4488 34.899 93.1383C34.7278 92.8278 34.5604 92.5152 34.3969 92.2005C34.2334 91.8859 34.0738 91.5692 33.9182 91.2505C33.7626 90.9319 33.611 90.6114 33.4633 90.2889C33.3157 89.9665 33.1721 89.6423 33.0326 89.3164C32.8931 88.9903 32.7576 88.6626 32.6262 88.3332C32.4948 88.0039 32.3675 87.6729 32.2444 87.3403C32.1212 87.0079 32.0022 86.6739 31.8874 86.3384C31.7727 86.0029 31.662 85.6659 31.5555 85.3276C31.4491 84.9894 31.347 84.6499 31.249 84.3091C31.1524 83.9747 31.06 83.6392 30.9717 83.3026C30.8834 82.9659 30.7993 82.6283 30.7192 82.2897C30.6392 81.951 30.5633 81.6113 30.4917 81.2707C30.4199 80.9302 30.3524 80.5889 30.289 80.2467C30.2258 79.9045 30.1667 79.5615 30.1118 79.2179C30.0568 78.8742 30.0061 78.5299 29.9597 78.1851C29.9131 77.8401 29.8709 77.4947 29.833 77.1488C29.7949 76.8029 29.7611 76.4565 29.7316 76.1098C29.7021 75.763 29.6769 75.416 29.6558 75.0686C29.6348 74.7212 29.618 74.3736 29.6055 74.0258C29.5931 73.678 29.5849 73.3302 29.5809 72.9822C29.5769 72.6342 29.5772 72.2861 29.5817 71.9382C29.5864 71.5902 29.5952 71.2424 29.6084 70.8946C29.6214 70.5468 29.6387 70.1993 29.6603 69.852C29.682 69.5046 29.7079 69.1575 29.7381 68.8108C29.7682 68.4641 29.8026 68.1179 29.8412 67.772C29.8798 67.4261 29.9226 67.0808 29.9697 66.736C30.0167 66.3912 30.0681 66.047 30.1237 65.7035C30.1792 65.3599 30.2389 65.017 30.3028 64.675C30.3667 64.3329 30.4348 63.9916 30.5071 63.6512C30.5794 63.3107 30.6559 62.9712 30.7365 62.6327C30.8171 62.2942 30.9019 61.9567 30.9907 61.6202C31.0796 61.2837 31.1726 60.9483 31.2698 60.6142C31.3668 60.28 31.468 59.947 31.5734 59.6153C31.6786 59.2837 31.7879 58.9533 31.9013 58.6242C32.0147 58.2953 32.1321 57.9677 32.2535 57.6415C32.3749 57.3154 32.5003 56.9908 32.6296 56.6677C32.759 56.3446 32.8923 56.0231 33.0296 55.7033C33.1668 55.3835 33.3079 55.0655 33.453 54.7492C33.598 54.4327 33.7469 54.1182 33.8997 53.8055C34.0525 53.4929 34.2091 53.1821 34.3694 52.8732C34.5297 52.5644 34.6938 52.2575 34.8618 51.9527C35.0318 51.6455 35.2056 51.3404 35.3832 51.0375C35.5606 50.7346 35.7418 50.4339 35.9266 50.1354C36.1115 49.8369 36.2999 49.5407 36.4919 49.2468C36.684 48.9529 36.8797 48.6613 37.0788 48.3723C37.2779 48.0831 37.4806 47.7964 37.6867 47.5122C37.8929 47.2281 38.1025 46.9464 38.3155 46.6673C38.5285 46.3882 38.7449 46.1118 38.9647 45.8379C39.1845 45.5641 39.4075 45.2931 39.6339 45.0247C39.8603 44.7563 40.0899 44.4907 40.3227 44.2279C40.5555 43.9652 40.7915 43.7053 41.0307 43.4482C41.2699 43.1912 41.5122 42.9371 41.7575 42.686C42.0029 42.4349 42.2514 42.1868 42.5027 41.9417C42.7541 41.6967 43.0085 41.4547 43.2658 41.2159C43.5232 40.9771 43.7834 40.7414 44.0465 40.5089C44.3096 40.2764 44.5754 40.0471 44.844 39.8211C45.1127 39.595 45.3841 39.3723 45.6582 39.1529C45.9322 38.9335 46.209 38.7175 46.4884 38.5048C46.7677 38.2921 47.0496 38.0829 47.3341 37.8771C47.6186 37.6713 47.9055 37.469 48.1948 37.2702C48.4843 37.0714 48.7761 36.8762 49.0702 36.6845C49.3644 36.4929 49.6608 36.3048 49.9595 36.1204C50.2583 35.9359 50.5592 35.7551 50.8623 35.5779C51.1655 35.4008 51.4707 35.2274 51.7781 35.0578C52.0854 34.8881 52.3948 34.7222 52.7063 34.56C53.0177 34.398 53.3311 34.2397 53.6464 34.0851C53.9617 33.9307 54.2788 33.7801 54.5976 33.6333C54.9166 33.4865 55.2374 33.3436 55.5598 33.2048C55.8822 33.0658 56.2063 32.9308 56.5321 32.7998C56.8577 32.6688 57.185 32.5417 57.5138 32.4186C57.8426 32.2955 58.1729 32.1765 58.5046 32.0615C58.8364 31.9465 59.1695 31.8356 59.5039 31.7287C59.8383 31.6219 60.174 31.5191 60.5109 31.4203C67.9258 29.2947 75.5538 29.3769 83.0365 31.0994C85.1193 31.5791 87.2861 32.1166 89.1668 33.1582C89.1984 33.1623 89.2297 33.1668 89.2613 33.1704C89.9108 33.2432 90.7526 33.0561 91.4156 32.999C92.1677 32.9343 92.8752 32.952 93.626 33.007C93.8215 33.0207 94.0168 33.037 94.2118 33.0557C94.4069 33.0744 94.6018 33.0955 94.7964 33.1191C94.9909 33.1427 95.1851 33.1688 95.3789 33.1973C95.5728 33.2258 95.7663 33.2567 95.9595 33.2902C96.1526 33.3235 96.3453 33.3593 96.5375 33.3975C96.7297 33.4357 96.9214 33.4764 97.1125 33.5194C97.3037 33.5625 97.4943 33.6079 97.6845 33.6558C97.8745 33.7036 98.0639 33.7539 98.2526 33.8064C98.4414 33.8591 98.6295 33.9141 98.8168 33.9714C99.0042 34.0288 99.1909 34.0885 99.3767 34.1505C99.5627 34.2126 99.7478 34.2769 99.9321 34.3437C100.116 34.4104 100.3 34.4795 100.482 34.5508C100.665 34.6221 100.846 34.6957 101.027 34.7716C101.208 34.8475 101.387 34.9257 101.566 35.0061C101.745 35.0865 101.923 35.1692 102.099 35.2542C102.276 35.339 102.451 35.4262 102.626 35.5156C102.8 35.6049 102.973 35.6964 103.146 35.79C103.318 35.8837 103.489 35.9796 103.658 36.0776C103.828 36.1756 103.997 36.2757 104.164 36.3779C104.331 36.4802 104.497 36.5845 104.661 36.6909C104.826 36.7973 104.989 36.9057 105.151 37.0163C105.313 37.1268 105.473 37.2393 105.632 37.3538C105.791 37.4684 105.949 37.585 106.105 37.7035C106.261 37.822 106.415 37.9425 106.568 38.065C106.721 38.1874 106.873 38.3117 107.023 38.4379C107.173 38.5642 107.321 38.6923 107.468 38.8223C107.614 38.9522 107.759 39.084 107.903 39.2176C108.046 39.3512 108.188 39.4866 108.328 39.6239C108.468 39.761 108.606 39.8999 108.742 40.0406C108.879 40.1813 109.013 40.3236 109.146 40.4677C109.279 40.6117 109.41 40.7574 109.539 40.9048C109.669 41.0521 109.796 41.2011 109.921 41.3517C113.87 46.0946 115.988 52.4561 115.425 58.6227C115.357 59.362 115.273 60.1264 115.119 60.8515C114.956 61.6208 114.624 62.502 114.627 63.2865ZM58.5281 76.1251C58.5972 80.9997 59.437 85.6523 60.4381 90.4053C68.5855 89.0265 76.5802 88.8861 84.7317 90.3935C85.6125 86.5308 86.0345 82.513 86.2327 78.5606C85.5952 78.2666 84.9131 78.0847 84.2393 77.8952C82.8477 78.836 81.5314 79.9132 80.1882 80.9231C78.2419 82.3738 76.2843 83.809 74.3152 85.2286C74.3543 82.2083 74.4066 79.1556 74.2459 76.1388C69.0067 76.0275 63.7674 76.0229 58.5281 76.1251ZM43.7071 49.8573C40.3095 54.5311 37.9245 59.1846 36.5995 64.836C36.2172 66.4668 35.8887 68.1686 35.8507 69.8463C39.4507 69.8891 43.0508 69.8999 46.651 69.8787C48.5513 69.8644 50.4516 69.8634 52.352 69.8758C52.4413 67.6065 52.573 65.302 52.8397 63.0475C53.2177 59.8511 53.8154 56.6905 54.4015 53.5276C50.8873 52.6297 46.9788 51.4159 43.7071 49.8573ZM35.9462 75.9969C36.7938 83.7087 39.5866 90.0745 44.5455 96.0256C45.6494 95.3659 46.7844 94.7649 47.9504 94.2225C49.1166 93.68 50.3075 93.1991 51.5232 92.7797C52.508 92.4354 53.4984 92.1081 54.4944 91.7979C54.0817 90.0914 53.7325 88.3718 53.4469 86.6394C53.1613 84.907 52.94 83.1665 52.783 81.4177C52.6115 79.624 52.5318 77.8263 52.3806 76.0323C46.9026 75.9513 41.4236 76.0476 35.9462 75.9969ZM104.959 76.0865C104.031 76.3209 103.263 77.0048 102.402 77.3993C99.6071 78.6797 95.469 79.7668 92.4244 79.5255C92.2481 83.5899 91.8331 87.8617 90.6657 91.7753C94.1174 92.9385 97.4008 94.2628 100.668 95.8776L100.708 95.8364C101.531 94.9748 102.234 93.9017 102.88 92.9013C105.457 88.9106 107.337 84.6959 108.368 80.0494C108.646 78.7972 108.909 77.5439 108.884 76.2551C107.575 76.2261 106.266 76.1699 104.959 76.0865ZM70.8439 95.5403C67.9112 95.6903 65.0228 95.9432 62.1184 96.3851C63.4367 100.423 66.6712 106.837 70.5485 108.767C71.5264 109.253 72.9367 109.35 73.9794 108.979C74.0336 108.959 74.0875 108.939 74.1408 108.917C77.9155 107.12 81.0766 101.548 82.4662 97.6607C82.6054 97.2713 82.7337 96.871 82.8354 96.4698C79.4632 95.7185 74.2988 95.3175 70.8439 95.5403ZM60.3569 54.71C60.0899 55.9512 59.8502 57.1977 59.6377 58.4495C59.4252 59.7013 59.2401 60.957 59.0825 62.2168C58.9247 63.4767 58.7946 64.7394 58.6922 66.0049C58.5897 67.2705 58.5148 68.5376 58.4676 69.8064C61.7875 69.8509 65.1075 69.8689 68.4276 69.8602C70.3279 69.867 72.2834 69.9643 74.176 69.8348C73.8385 68.5974 72.8541 67.4292 72.2712 66.2757C72.1175 65.9652 71.9707 65.6515 71.8308 65.3345C71.6909 65.0175 71.5581 64.6975 71.4324 64.3747C71.3066 64.0519 71.1881 63.7265 71.0767 63.3983C70.9652 63.0703 70.861 62.7399 70.7642 62.4073C70.6674 62.0746 70.5779 61.74 70.4958 61.4035C70.4137 61.0668 70.3391 60.7285 70.2719 60.3886C70.2047 60.0488 70.1451 59.7076 70.093 59.3651C70.0409 59.0225 69.9963 58.679 69.9593 58.3345C69.8684 57.44 69.8731 56.5348 69.8105 55.6373C66.6471 55.3739 63.4814 55.3929 60.3569 54.71ZM62.3067 48.6173C64.9802 49.227 67.9399 49.3995 70.6779 49.3625C72.0651 45.0574 74.2454 41.5407 77.5698 38.4565C76.1327 37.0524 74.6027 35.8522 72.5077 35.8861C70.6782 35.9159 69.3687 36.9285 68.1556 38.2054C65.421 41.0841 63.5433 44.8725 62.3067 48.6173ZM60.8271 37.7447C56.2013 39.6135 52.3425 41.6301 48.4744 44.8216C49.1005 45.0498 49.7282 45.274 50.3572 45.4942C52.3053 46.1736 54.2615 46.747 56.2334 47.3481C57.1306 45.1442 57.8985 42.9562 59.0132 40.8426C59.2409 40.411 60.8158 37.9943 60.8271 37.7447ZM55.979 97.917C53.5849 98.6778 51.2803 99.497 49.0214 100.608C50.9962 102.423 53.4021 103.855 55.7654 105.099C57.3055 105.863 58.8505 106.546 60.4625 107.144C59.5796 105.608 58.7242 104.072 57.9873 102.46C57.6021 101.618 56.4583 98.3319 56.1388 97.9252L55.979 97.917ZM88.9272 97.8806C87.8931 101.09 86.4048 104.3 84.4582 107.061C86.1925 106.376 87.9302 105.712 89.5891 104.853C91.8852 103.647 94.091 102.387 96.0382 100.655C94.4873 99.8763 92.8898 99.2091 91.2457 98.6536C90.4897 98.3918 89.6539 98.2047 88.9272 97.8806Z" fill="#001F50"/>
<path d="M89.1672 33.1586C89.1988 33.1627 89.2301 33.1672 89.2616 33.1708C89.9112 33.2435 90.753 33.0565 91.416 32.9994C92.168 32.9347 92.8756 32.9524 93.6264 33.0074C93.8219 33.0211 94.0171 33.0374 94.2122 33.0561C94.4073 33.0748 94.6021 33.0959 94.7967 33.1195C94.9913 33.1431 95.1854 33.1692 95.3792 33.1977C95.5731 33.2262 95.7667 33.2571 95.9598 33.2906C96.153 33.3239 96.3456 33.3597 96.5378 33.3979C96.73 33.4361 96.9217 33.4768 97.1129 33.5198C97.304 33.5629 97.4947 33.6083 97.6848 33.6562C97.8748 33.704 98.0642 33.7543 98.2529 33.8068C98.4417 33.8595 98.6298 33.9145 98.8172 33.9718C99.0046 34.0292 99.1912 34.0889 99.3771 34.1509C99.5631 34.2129 99.7482 34.2773 99.9324 34.3441C100.117 34.4108 100.3 34.4799 100.483 34.5512C100.665 34.6225 100.847 34.6961 101.027 34.772C101.208 34.8479 101.388 34.9261 101.567 35.0065C101.745 35.0869 101.923 35.1696 102.1 35.2546C102.276 35.3394 102.452 35.4266 102.626 35.516C102.8 35.6053 102.974 35.6967 103.146 35.7904C103.318 35.8841 103.489 35.98 103.659 36.078C103.828 36.176 103.997 36.2761 104.164 36.3783C104.331 36.4806 104.497 36.5849 104.662 36.6913C104.826 36.7976 104.989 36.9061 105.151 37.0167C105.313 37.1272 105.474 37.2397 105.632 37.3542C105.792 37.4688 105.949 37.5854 106.105 37.7038C106.261 37.8224 106.416 37.9429 106.569 38.0654C106.722 38.1878 106.873 38.3121 107.023 38.4383C107.173 38.5646 107.321 38.6927 107.468 38.8226C107.615 38.9526 107.76 39.0844 107.903 39.218C108.046 39.3516 108.188 39.487 108.328 39.6243C108.468 39.7614 108.606 39.9003 108.743 40.041C108.879 40.1816 109.014 40.324 109.147 40.4681C109.28 40.6121 109.411 40.7578 109.54 40.9052C109.669 41.0525 109.796 41.2015 109.922 41.3521C113.871 46.095 115.989 52.4565 115.425 58.6231C115.357 59.3624 115.273 60.1267 115.119 60.8519C114.956 61.6212 114.624 62.5024 114.627 63.2869C114.132 64.3851 113.742 65.5277 113.223 66.6155C111.991 69.1973 110.068 71.699 107.959 73.6357C107.007 74.5102 105.888 75.1896 104.959 76.0869C104.032 76.3213 103.264 77.0052 102.403 77.3997C99.6075 78.6801 95.4693 79.7672 92.4247 79.5259C90.3694 79.379 88.2179 79.1332 86.2331 78.561C85.5956 78.267 84.9135 78.0851 84.2396 77.8956C82.8481 78.8364 81.5318 79.9136 80.1885 80.9235C78.2423 82.3742 76.2846 83.8094 74.3156 85.229C74.3547 82.2087 74.4069 79.156 74.2462 76.1392C74.1486 74.066 74.5014 71.8901 74.1764 69.8352C73.8388 68.5978 72.8544 67.4296 72.2716 66.2761C72.1179 65.9656 71.9711 65.6518 71.8312 65.3348C71.6913 65.0178 71.5585 64.6979 71.4327 64.3751C71.307 64.0523 71.1884 63.7269 71.077 63.3987C70.9655 63.0707 70.8614 62.7403 70.7645 62.4077C70.6677 62.075 70.5783 61.7404 70.4962 61.4038C70.414 61.0672 70.3394 60.7289 70.2723 60.389C70.2051 60.0491 70.1454 59.708 70.0933 59.3655C70.0412 59.0229 69.9966 58.6794 69.9596 58.3349C69.8687 57.4404 69.8734 56.5352 69.8108 55.6377C69.7693 53.5285 70.1348 51.3983 70.6783 49.3629C72.0654 45.0578 74.2458 41.5411 77.5702 38.4569C81.3202 35.6314 84.4449 33.9605 89.1672 33.1586Z" fill="#FEB81D"/>
<path d="M92.3353 42.7192C93.1037 42.7348 93.8194 42.8574 94.4934 43.2446C95.2959 43.7055 95.8549 44.4544 96.0935 45.3462C96.1093 45.4036 96.1235 45.4614 96.1363 45.5194C96.1491 45.5776 96.1604 45.636 96.1701 45.6947C96.1798 45.7534 96.1881 45.8123 96.1949 45.8714C96.2016 45.9305 96.2067 45.9898 96.2103 46.0491C96.214 46.1085 96.2161 46.168 96.2167 46.2276C96.2173 46.287 96.2163 46.3465 96.2139 46.406C96.2114 46.4654 96.2074 46.5248 96.2018 46.584C96.1963 46.6433 96.1891 46.7023 96.1804 46.7611C96.1719 46.82 96.1618 46.8786 96.1501 46.937C96.1384 46.9953 96.1253 47.0533 96.1106 47.111C96.096 47.1687 96.0799 47.2259 96.0624 47.2828C96.0447 47.3397 96.0256 47.3961 96.0051 47.4518C95.9847 47.5077 95.9627 47.563 95.9393 47.6178C95.916 47.6725 95.8912 47.7265 95.865 47.7799C95.8388 47.8334 95.8113 47.8861 95.7824 47.9381C95.7535 47.9902 95.7233 48.0415 95.6918 48.0919C95.0683 49.0883 94.088 49.5977 92.9777 49.8371C92.1662 49.8751 91.3634 49.7544 90.6716 49.3003C90.6214 49.2667 90.572 49.2319 90.5236 49.1959C90.4751 49.1599 90.4276 49.1226 90.381 49.0842C90.3344 49.0458 90.2887 49.0062 90.2441 48.9654C90.1995 48.9247 90.156 48.883 90.1134 48.8401C90.0709 48.7972 90.0295 48.7533 89.9891 48.7083C89.9488 48.6633 89.9096 48.6174 89.8715 48.5705C89.8335 48.5236 89.7967 48.4757 89.7611 48.4269C89.7254 48.3782 89.691 48.3286 89.6579 48.2781C89.6247 48.2276 89.5929 48.1763 89.5623 48.1243C89.5317 48.0722 89.5024 48.0194 89.4745 47.9659C89.4465 47.9122 89.42 47.858 89.3948 47.8032C89.3696 47.7483 89.3457 47.6929 89.3233 47.6368C89.3008 47.5807 89.2797 47.5241 89.2601 47.467C89.2405 47.4099 89.2223 47.3523 89.2056 47.2942C89.1889 47.2362 89.1736 47.1778 89.1597 47.1189C89.1459 47.0601 89.1336 47.001 89.1227 46.9417C89.1112 46.882 89.1012 46.822 89.0927 46.7618C89.0842 46.7016 89.0773 46.6412 89.0719 46.5806C89.0665 46.5201 89.0627 46.4594 89.0603 46.3986C89.0579 46.3379 89.0571 46.2772 89.0579 46.2164C89.0586 46.1555 89.0609 46.0947 89.0647 46.0341C89.0685 45.9734 89.0738 45.9129 89.0807 45.8525C89.0876 45.792 89.096 45.7318 89.1059 45.6718C89.1159 45.6118 89.1274 45.5522 89.1403 45.4928C89.1532 45.4333 89.1677 45.3743 89.1836 45.3156C89.1996 45.2569 89.217 45.1987 89.2359 45.1409C89.2548 45.0831 89.2751 45.0259 89.2969 44.9691C89.3187 44.9123 89.3419 44.8561 89.3666 44.8005C89.3912 44.745 89.4173 44.6901 89.4447 44.6358C89.4722 44.5815 89.501 44.528 89.5311 44.4752C89.5612 44.4224 89.5927 44.3704 89.6254 44.3192C89.6583 44.2679 89.6924 44.2176 89.7277 44.1681C90.3739 43.2711 91.2776 42.8869 92.3353 42.7192Z" fill="#FEFEFE"/>
<path d="M86.9995 54.0103L96.3486 54.035L96.3726 67.6781L98.478 67.6747C98.4454 68.6228 98.4365 69.573 98.416 70.5216L96.0409 70.5197L86.9927 70.5218C86.9491 69.5094 86.9956 68.4872 87.015 67.474L89.4083 67.4678L89.4312 57.0521L87.0163 57.0867C86.9798 56.0643 87.0024 55.0336 86.9995 54.0103Z" fill="#FEFEFE"/>
</svg>
