<svg width="70" height="70" viewBox="0 0 70 70" fill="none" xmlns="http://www.w3.org/2000/svg">
<g clip-path="url(#clip0_177_2747)">
<path d="M41.4039 59.2197C42.6199 59.4422 43.8586 59.5411 45.0824 59.7157C47.9175 60.1203 52.958 61.0094 55.3649 62.5925C55.8305 62.8988 56.3941 63.3544 56.4917 63.9344C56.5448 64.25 56.4328 64.5525 56.2461 64.8043C54.9373 66.5705 49.7216 67.3892 47.6108 67.7223C47.6074 67.723 47.604 67.724 47.6005 67.7245C45.8506 67.9728 44.0945 68.1655 42.3323 68.3026C40.5702 68.4396 38.8055 68.5208 37.0381 68.546C31.735 68.6645 18.5536 68.339 14.4148 65.4801C13.9975 65.1918 13.5535 64.8018 13.4757 64.2718C13.4218 63.9041 13.5746 63.6025 13.8012 63.3243C15.8092 60.8601 25.415 59.5678 28.5769 59.2609C28.6479 59.2526 28.7436 59.2341 28.8166 59.2388C28.9958 59.2504 29.0362 59.326 29.1558 59.4496C29.9216 60.241 30.6068 61.1622 31.3243 62.0012C32.5961 63.493 33.899 64.957 35.233 66.3933C37.405 64.1074 39.35 61.611 41.4039 59.2197Z" fill="#001F50"/>
<path d="M34.4502 -0.119586C40.8205 -0.467662 47.0188 1.97964 51.753 6.19984C56.4898 10.4222 59.0515 16.5971 59.4068 22.8702C59.4296 23.3136 59.4357 23.7571 59.425 24.2008C59.4143 24.6446 59.3868 25.0874 59.3427 25.529C59.2985 25.9707 59.2378 26.4101 59.1605 26.8472C59.0832 27.2843 58.9896 27.7179 58.8795 28.1479C58.1827 30.8712 56.9926 33.4068 55.6975 35.8886C52.3298 42.3419 48.3926 47.6354 43.8625 53.259C41.2148 56.5304 38.4983 59.7435 35.713 62.8983L35.1962 63.4721C34.5001 62.7533 33.8682 61.9508 33.2165 61.1908L29.7134 57.1102C22.952 49.2042 11.8672 35.8084 11.201 25.2064C11.1888 25.0129 11.179 24.8193 11.1716 24.6256C11.1642 24.4319 11.1591 24.2382 11.1565 24.0443C11.1539 23.8505 11.1536 23.6566 11.1557 23.4628C11.1578 23.2689 11.1622 23.0751 11.1691 22.8814C11.1759 22.6878 11.1852 22.4941 11.1968 22.3006C11.2085 22.1071 11.2224 21.9138 11.2388 21.7207C11.2551 21.5275 11.2738 21.3346 11.295 21.1419C11.3161 20.9492 11.3395 20.7568 11.3653 20.5646C11.3912 20.3725 11.4193 20.1807 11.4498 19.9893C11.4804 19.7978 11.5133 19.6068 11.5485 19.4162C11.5838 19.2256 11.6213 19.0354 11.6612 18.8458C11.7011 18.6561 11.7433 18.4669 11.7878 18.2783C11.8323 18.0896 11.8792 17.9015 11.9283 17.714C11.9775 17.5266 12.029 17.3397 12.0828 17.1534C12.1365 16.9672 12.1925 16.7817 12.2508 16.5969C12.3091 16.412 12.3696 16.2279 12.4325 16.0446C12.4953 15.8612 12.5603 15.6786 12.6276 15.4968C12.695 15.3151 12.7645 15.1342 12.8362 14.9542C12.908 14.7741 12.9819 14.595 13.058 14.4167C13.1342 14.2385 13.2126 14.0613 13.293 13.8851C13.3735 13.7087 13.4562 13.5334 13.541 13.3592C13.6258 13.1849 13.7127 13.0118 13.8018 12.8397C13.8909 12.6675 13.982 12.4965 14.0753 12.3267C14.1685 12.1568 14.2638 11.9881 14.3612 11.8206C14.4586 11.653 14.558 11.4867 14.6595 11.3217C14.761 11.1566 14.8645 10.9928 14.97 10.8303C15.0755 10.6678 15.183 10.5066 15.2924 10.3467C15.4019 10.1868 15.5133 10.0283 15.6267 9.87113C15.7401 9.71402 15.8553 9.55833 15.9724 9.40406C16.0896 9.24972 16.2087 9.09689 16.3296 8.94556C16.4505 8.79415 16.5733 8.64428 16.6979 8.49596C16.8225 8.34764 16.9489 8.20086 17.0771 8.05563C21.6168 2.92258 27.6638 0.285789 34.4502 -0.119586Z" fill="#FEB81D"/>
<path d="M34.2818 7.40386C34.3738 7.3843 34.4729 7.38534 34.5667 7.38094C34.7006 7.37485 34.8345 7.37045 34.9684 7.36775C35.1023 7.36497 35.2363 7.36385 35.3703 7.36439C35.5043 7.36493 35.6382 7.36713 35.772 7.37099C35.9059 7.37485 36.0398 7.38037 36.1736 7.38754C36.3074 7.39472 36.4411 7.40355 36.5746 7.41405C36.7082 7.42447 36.8416 7.43658 36.9749 7.4504C37.1081 7.46413 37.2412 7.47953 37.3741 7.49658C37.5069 7.51364 37.6396 7.53235 37.772 7.55272C37.9044 7.5731 38.0366 7.59509 38.1685 7.6187C38.3003 7.64224 38.4319 7.66744 38.5631 7.69429C38.6944 7.72123 38.8253 7.74974 38.9558 7.77984C39.0864 7.80993 39.2165 7.84161 39.3464 7.87487C39.4761 7.90821 39.6055 7.94313 39.7344 7.97963C39.8633 8.01613 39.9917 8.05421 40.1197 8.09388C40.2476 8.13362 40.3751 8.17491 40.5021 8.21774C40.6291 8.26057 40.7555 8.30494 40.8813 8.35086C41.0071 8.39685 41.1324 8.44439 41.2572 8.49347C41.3818 8.54255 41.5059 8.59313 41.6293 8.64522C41.7528 8.69731 41.8756 8.75094 41.9977 8.80612C42.1198 8.8613 42.2412 8.91798 42.3619 8.97617C42.4826 9.03428 42.6027 9.09393 42.7219 9.15512C42.8411 9.21624 42.9596 9.27883 43.0773 9.34288C43.1951 9.40693 43.312 9.47241 43.428 9.53932C43.5441 9.6063 43.6594 9.67467 43.7738 9.74443C43.8883 9.81427 44.0018 9.8855 44.1145 9.95812C44.2271 10.0307 44.3388 10.1047 44.4496 10.18C44.5605 10.2554 44.6704 10.3322 44.7794 10.4103C44.8884 10.4883 44.9963 10.5677 45.1033 10.6485C45.2102 10.7292 45.3162 10.8113 45.4212 10.8947C45.5262 10.978 45.6301 11.0627 45.7329 11.1487C45.8358 11.2346 45.9376 11.3218 46.0383 11.4103C46.139 11.4987 46.2386 11.5884 46.3372 11.6793C46.4333 11.7677 46.5283 11.8573 46.6222 11.948C46.7162 12.0387 46.809 12.1306 46.9007 12.2236C46.9924 12.3166 47.0829 12.4107 47.1723 12.5059C47.2617 12.601 47.35 12.6973 47.4371 12.7947C47.5241 12.892 47.61 12.9904 47.6947 13.0899C47.7794 13.1893 47.8628 13.2897 47.9451 13.3912C48.0273 13.4927 48.1083 13.5951 48.188 13.6986C48.2678 13.802 48.3462 13.9065 48.4234 14.0119C48.5006 14.1172 48.5766 14.2235 48.6513 14.3307C48.7258 14.4379 48.7992 14.546 48.8712 14.655C48.9432 14.764 49.0138 14.8739 49.0832 14.9846C49.1525 15.0953 49.2205 15.2068 49.2871 15.3192C49.3537 15.4316 49.419 15.5448 49.4829 15.6587C49.5467 15.7727 49.6092 15.8874 49.6702 16.003C49.7313 16.1184 49.791 16.2346 49.8493 16.3516C49.9075 16.4685 49.9643 16.5862 50.0197 16.7046C50.0751 16.8229 50.1291 16.9418 50.1817 17.0614C50.2341 17.1811 50.2852 17.3014 50.3348 17.4222C50.3844 17.5432 50.4325 17.6647 50.4792 17.7868C50.5258 17.9088 50.5709 18.0314 50.6145 18.1545C50.6582 18.2777 50.7004 18.4013 50.7411 18.5255C50.7817 18.6498 50.8208 18.7744 50.8584 18.8995C50.8961 19.0247 50.9322 19.1503 50.9667 19.2763C51.0013 19.4023 51.0343 19.5288 51.0659 19.6556C51.0974 19.7824 51.1273 19.9096 51.1557 20.0372C51.1841 20.1647 51.211 20.2926 51.2362 20.4208C51.2616 20.549 51.2853 20.6776 51.3075 20.8064C51.3297 20.9352 51.3503 21.0642 51.3694 21.1934C51.3884 21.3228 51.4059 21.4523 51.4217 21.582C51.4376 21.7118 51.4519 21.8416 51.4647 21.9717C51.4774 22.1017 51.4886 22.2319 51.4981 22.3622C51.5078 22.4926 51.5158 22.623 51.5222 22.7536C51.5277 22.8846 51.5317 23.0157 51.534 23.1469C51.5363 23.278 51.537 23.4092 51.536 23.5404C51.5351 23.6716 51.5326 23.8027 51.5284 23.9338C51.5243 24.0649 51.5185 24.1959 51.5111 24.3269C51.5037 24.4579 51.4947 24.5887 51.4842 24.7195C51.4735 24.8502 51.4613 24.9808 51.4475 25.1112C51.4336 25.2416 51.4182 25.3719 51.4012 25.502C51.3842 25.632 51.3656 25.7618 51.3453 25.8915C51.3252 26.0211 51.3033 26.1504 51.2799 26.2794C51.2565 26.4085 51.2315 26.5372 51.2049 26.6657C51.1783 26.7941 51.1502 26.9222 51.1205 27.05C51.0908 27.1777 51.0595 27.305 51.0266 27.4321C50.9937 27.559 50.9593 27.6855 50.9234 27.8116C50.8874 27.9378 50.8498 28.0635 50.8108 28.1886C50.7717 28.3138 50.7311 28.4385 50.689 28.5628C50.6468 28.6869 50.6031 28.8106 50.5579 28.9338C50.5127 29.0569 50.466 29.1794 50.4178 29.3013C50.3696 29.4233 50.3199 29.5446 50.2687 29.6653C50.2175 29.7861 50.1649 29.9062 50.1107 30.0257C50.0565 30.1451 50.0009 30.2638 49.9438 30.3819C49.8868 30.4999 49.8283 30.6173 49.7682 30.7339C49.7083 30.8505 49.6469 30.9663 49.5841 31.0815C49.5213 31.1965 49.4571 31.3108 49.3914 31.4244C49.3258 31.5379 49.2588 31.6506 49.1904 31.7625C49.122 31.8743 49.0522 31.9853 48.9811 32.0954C48.9099 32.2055 48.8374 32.3147 48.7636 32.4231C48.6898 32.5314 48.6147 32.6389 48.5382 32.7454C48.4617 32.8518 48.3839 32.9574 48.3049 33.0619C48.2258 33.1665 48.1454 33.2701 48.0638 33.3727C47.9822 33.4753 47.8993 33.5769 47.8151 33.6774C47.7311 33.778 47.6457 33.8774 47.5591 33.9758C47.4726 34.0743 47.3848 34.1717 47.2958 34.2679C47.2074 34.3653 47.1179 34.4617 47.0271 34.557C46.9363 34.6523 46.8444 34.7464 46.7514 34.8394C46.6584 34.9324 46.5642 35.0242 46.4688 35.1149C46.3735 35.2055 46.2771 35.2951 46.1795 35.3834C46.0821 35.4717 45.9835 35.5588 45.8838 35.6447C45.7841 35.7306 45.6835 35.8152 45.5818 35.8985C45.48 35.9819 45.3772 36.0641 45.2735 36.145C45.1697 36.2258 45.065 36.3053 44.9592 36.3837C44.8535 36.4619 44.7469 36.5388 44.6393 36.6145C44.5317 36.6902 44.4232 36.7645 44.3137 36.8374C44.2043 36.9104 44.094 36.982 43.9828 37.0523C43.8716 37.1226 43.7596 37.1914 43.6467 37.2589C43.5338 37.3264 43.4201 37.3925 43.3056 37.4572C43.1911 37.5219 43.0758 37.5852 42.9598 37.647C42.8438 37.7089 42.7269 37.7693 42.6094 37.8283C42.4918 37.8872 42.3736 37.9447 42.2546 38.0008C42.1357 38.0569 42.016 38.1115 41.8958 38.1646C41.7755 38.2176 41.6545 38.2693 41.5329 38.3194C41.4114 38.3695 41.2893 38.4181 41.1664 38.4653C41.0437 38.5124 40.9204 38.558 40.7965 38.6021C40.6726 38.6462 40.5482 38.6887 40.4233 38.7297C40.2983 38.7707 40.1729 38.8102 40.047 38.8481C39.9211 38.8861 39.7948 38.9224 39.668 38.9572C39.5412 38.992 39.414 39.0253 39.2864 39.0569C39.1588 39.0886 39.0308 39.1187 38.9025 39.1472C38.7742 39.1758 38.6455 39.2027 38.5165 39.228C38.3874 39.2534 38.2581 39.2772 38.1286 39.2993C37.999 39.3214 37.8691 39.342 37.739 39.361C37.6089 39.38 37.4786 39.3973 37.3481 39.4131C37.2176 39.4288 37.0869 39.443 36.956 39.4555C36.8251 39.468 36.6941 39.4789 36.563 39.4882C36.4318 39.4975 36.3006 39.5052 36.1693 39.5112C32.2107 39.7683 28.0461 38.5707 24.9409 36.0666C24.8393 35.9854 24.7388 35.903 24.6392 35.8193C24.5397 35.7357 24.4412 35.6508 24.3437 35.5648C24.2462 35.4787 24.1498 35.3914 24.0545 35.303C23.9592 35.2145 23.865 35.1249 23.7718 35.0342C23.6786 34.9434 23.5866 34.8516 23.4958 34.7586C23.4049 34.6656 23.3151 34.5715 23.2265 34.4762C23.1379 34.3811 23.0505 34.2848 22.9642 34.1874C22.878 34.0901 22.793 33.9917 22.7091 33.8923C22.6253 33.7928 22.5427 33.6923 22.4613 33.5909C22.38 33.4895 22.2998 33.387 22.2209 33.2836C22.1421 33.1801 22.0645 33.0757 21.9881 32.9704C21.9119 32.865 21.8369 32.7588 21.7631 32.6517C21.6894 32.5445 21.6171 32.4364 21.5459 32.3275C21.4749 32.2185 21.4052 32.1087 21.3367 31.998C21.2684 31.8874 21.2014 31.7759 21.1357 31.6636C21.0701 31.5513 21.0058 31.4382 20.9428 31.3243C20.88 31.2104 20.8185 31.0958 20.7584 30.9804C20.6983 30.865 20.6396 30.7488 20.5824 30.632C20.5252 30.5152 20.4694 30.3978 20.415 30.2795C20.3606 30.1613 20.3076 30.0425 20.2562 29.923C20.2047 29.8035 20.1547 29.6834 20.1061 29.5627C20.0577 29.4419 20.0106 29.3206 19.965 29.1987C19.9195 29.0769 19.8754 28.9544 19.8329 28.8314C19.7903 28.7085 19.7492 28.585 19.7097 28.461C19.6702 28.3371 19.6321 28.2127 19.5956 28.0878C19.5591 27.9629 19.5241 27.8375 19.4907 27.7117C19.4572 27.586 19.4253 27.4599 19.395 27.3333C19.3646 27.2068 19.3358 27.0799 19.3086 26.9526C19.2813 26.8254 19.2557 26.6978 19.2315 26.5699C19.2074 26.4421 19.1848 26.3139 19.1638 26.1855C19.1428 26.0571 19.1234 25.9284 19.1056 25.7995C19.0878 25.6706 19.0715 25.5415 19.0568 25.4121C18.5664 20.8185 19.9984 16.6735 22.8661 13.12C25.761 9.53283 29.8038 7.88054 34.2818 7.40386Z" fill="#001F50"/>
<path d="M34.2061 13.017C36.9263 12.7364 39.873 13.6241 42.0126 15.3193C42.0778 15.371 42.1423 15.4236 42.2062 15.477C42.2701 15.5304 42.3333 15.5846 42.3958 15.6396C42.4583 15.6945 42.5202 15.7502 42.5814 15.8066C42.6426 15.8631 42.7031 15.9203 42.7628 15.9783C42.8226 16.0362 42.8817 16.0949 42.9401 16.1542C42.9985 16.2136 43.0561 16.2737 43.1129 16.3346C43.1699 16.3954 43.2261 16.4568 43.2815 16.5189C43.3368 16.5811 43.3914 16.644 43.4452 16.7075C43.4991 16.771 43.5522 16.8352 43.6045 16.9C43.6567 16.9648 43.7082 17.0303 43.7589 17.0963C43.8096 17.1624 43.8595 17.2291 43.9085 17.2965C43.9576 17.3638 44.0058 17.4316 44.0532 17.5001C44.1006 17.5686 44.1471 17.6377 44.1928 17.7073C44.2385 17.7769 44.2834 17.8471 44.3274 17.9178C44.3713 17.9885 44.4145 18.0598 44.4567 18.1315C44.4989 18.2033 44.5403 18.2756 44.5808 18.3485C44.6213 18.4212 44.6608 18.4945 44.6995 18.5683C44.7382 18.6421 44.776 18.7163 44.8129 18.791C44.8497 18.8657 44.8857 18.9408 44.9207 19.0164C44.9558 19.0919 44.9899 19.1679 45.023 19.2443C45.0562 19.3208 45.0885 19.3976 45.1198 19.4748C45.1511 19.5519 45.1814 19.6295 45.2109 19.7075C45.2403 19.7855 45.2687 19.8638 45.2962 19.9424C45.3237 20.021 45.3502 20.1 45.3758 20.1792C45.4014 20.2586 45.426 20.3382 45.4495 20.418C45.4732 20.4979 45.4958 20.5781 45.5175 20.6586C45.5391 20.7391 45.5598 20.8198 45.5794 20.9007C45.5992 20.9817 45.6179 21.0629 45.6355 21.1443C45.6532 21.2257 45.6699 21.3073 45.6857 21.3891C45.7014 21.4709 45.7161 21.5529 45.7297 21.6351C45.7434 21.7173 45.7561 21.7997 45.7678 21.8822C45.7796 21.9647 45.7902 22.0473 45.7999 22.1301C45.8106 22.2174 45.8204 22.3049 45.8291 22.3925C45.8377 22.4802 45.8453 22.5679 45.8518 22.6556C45.8582 22.7434 45.8636 22.8313 45.8679 22.9193C45.8723 23.0072 45.8756 23.0951 45.8778 23.1831C45.8798 23.2711 45.8809 23.3592 45.8809 23.4472C45.8809 23.5353 45.8798 23.6233 45.8775 23.7113C45.8754 23.7993 45.8721 23.8873 45.8677 23.9752C45.8633 24.0631 45.8579 24.151 45.8514 24.2388C45.8449 24.3266 45.8372 24.4143 45.8285 24.5019C45.8198 24.5895 45.81 24.677 45.7992 24.7643C45.7883 24.8517 45.7764 24.9389 45.7633 25.026C45.7503 25.1131 45.7362 25.2 45.721 25.2867C45.7059 25.3734 45.6897 25.4599 45.6724 25.5462C45.6551 25.6325 45.6368 25.7186 45.6174 25.8045C45.5979 25.8904 45.5774 25.976 45.5559 26.0613C45.5344 26.1467 45.5118 26.2318 45.4881 26.3166C45.4645 26.4013 45.4398 26.4858 45.414 26.57C45.3883 26.6542 45.3616 26.738 45.3338 26.8215C45.306 26.9051 45.2772 26.9883 45.2474 27.0711C45.2176 27.1539 45.1867 27.2363 45.1548 27.3183C45.1229 27.4004 45.09 27.482 45.0561 27.5633C45.0222 27.6445 44.9873 27.7253 44.9515 27.8057C44.9156 27.886 44.8787 27.9659 44.8409 28.0454C44.803 28.1248 44.7641 28.2038 44.7243 28.2823C44.6845 28.3608 44.6437 28.4388 44.602 28.5163C44.5602 28.5938 44.5175 28.6707 44.4739 28.7471C44.4303 28.8235 44.3857 28.8994 44.3402 28.9747C44.2947 29.0501 44.2483 29.1249 44.2009 29.199C44.1536 29.2732 44.1053 29.3467 44.0561 29.4196C44.0069 29.4926 43.9569 29.565 43.9059 29.6368C43.855 29.7085 43.8032 29.7796 43.7504 29.85C43.6977 29.9205 43.6441 29.9903 43.5897 30.0594C41.6818 32.4591 39.1289 33.5955 36.1333 33.94C35.961 33.9541 35.7884 33.9643 35.6155 33.9704C35.4428 33.9765 35.2699 33.9787 35.097 33.9768C34.924 33.9749 34.7512 33.969 34.5786 33.9591C34.406 33.9492 34.2336 33.9354 34.0617 33.9175C33.8897 33.8996 33.7182 33.8778 33.5472 33.8519C33.3761 33.8261 33.2058 33.7964 33.0362 33.7627C32.8666 33.7289 32.6979 33.6913 32.53 33.6498C32.3621 33.6083 32.1952 33.5629 32.0295 33.5136C31.8637 33.4643 31.6991 33.4113 31.5357 33.3544C31.3725 33.2975 31.2105 33.2369 31.0499 33.1724C30.8894 33.1081 30.7305 33.04 30.5732 32.9682C30.4158 32.8965 30.2601 32.8211 30.1062 32.7422C29.9523 32.6631 29.8002 32.5806 29.6501 32.4947C29.5001 32.4086 29.3521 32.3192 29.2061 32.2264C29.0601 32.1334 28.9164 32.0372 28.7748 31.9377C28.6334 31.8381 28.4943 31.7354 28.3575 31.6294C28.2921 31.5778 28.2273 31.5253 28.1631 31.4721C28.0989 31.4189 28.0354 31.3649 27.9726 31.3102C27.9098 31.2554 27.8477 31.1998 27.7862 31.1435C27.7247 31.0871 27.6639 31.0301 27.6039 30.9723C27.5438 30.9145 27.4845 30.8559 27.4259 30.7967C27.3673 30.7374 27.3094 30.6774 27.2522 30.6167C27.1951 30.5559 27.1387 30.4945 27.0831 30.4324C27.0275 30.3703 26.9726 30.3076 26.9185 30.2441C26.8644 30.1806 26.8111 30.1165 26.7586 30.0518C26.7061 29.987 26.6544 29.9215 26.6035 29.8555C26.5526 29.7895 26.5025 29.7228 26.4533 29.6556C26.404 29.5883 26.3555 29.5203 26.308 29.4518C26.2604 29.3834 26.2136 29.3143 26.1678 29.2447C26.1219 29.1751 26.0768 29.1049 26.0327 29.0342C25.9885 28.9634 25.9452 28.8921 25.9028 28.8203C25.8604 28.7485 25.8189 28.6762 25.7783 28.6033C25.7377 28.5305 25.698 28.4572 25.6591 28.3834C25.6203 28.3095 25.5824 28.2352 25.5454 28.1605C25.5084 28.0858 25.4723 28.0106 25.4371 27.935C25.402 27.8593 25.3677 27.7832 25.3345 27.7067C25.3012 27.6302 25.2689 27.5534 25.2375 27.4761C25.2061 27.3988 25.1757 27.3211 25.1462 27.2431C25.1167 27.1651 25.0882 27.0867 25.0606 27.0079C25.0331 26.9292 25.0066 26.8501 24.981 26.7707C24.9554 26.6913 24.9308 26.6116 24.9071 26.5317C24.8835 26.4516 24.8608 26.3713 24.8392 26.2908C24.8175 26.2102 24.7968 26.1294 24.7771 26.0484C24.7575 25.9673 24.7388 25.8859 24.7212 25.8044C24.7035 25.7229 24.6868 25.6412 24.6711 25.5592C24.6555 25.4772 24.6408 25.3951 24.6272 25.3129C24.6136 25.2305 24.6009 25.1481 24.5893 25.0655C24.5777 24.9829 24.5671 24.9001 24.5575 24.8172C24.5476 24.7318 24.5387 24.6462 24.5309 24.5606C24.5231 24.475 24.5164 24.3893 24.5108 24.3035C24.5051 24.2177 24.5005 24.1318 24.4971 24.0459C24.4935 23.96 24.4911 23.8741 24.4897 23.7881C24.4883 23.7021 24.4879 23.6161 24.4886 23.5301C24.4894 23.4442 24.4912 23.3582 24.4941 23.2722C24.4969 23.1863 24.5008 23.1004 24.5059 23.0146C24.5109 22.9287 24.5169 22.843 24.5241 22.7573C24.5313 22.6716 24.5395 22.586 24.5487 22.5006C24.558 22.4151 24.5683 22.3297 24.5797 22.2444C24.591 22.1592 24.6034 22.0742 24.6169 21.9893C24.6304 21.9043 24.645 21.8196 24.6606 21.7351C24.6762 21.6505 24.6928 21.5662 24.7105 21.4821C24.7282 21.3979 24.7469 21.314 24.7667 21.2303C24.7864 21.1466 24.8072 21.0632 24.8291 20.98C24.8509 20.8969 24.8738 20.814 24.8977 20.7314C24.9216 20.6488 24.9466 20.5666 24.9725 20.4846C24.9984 20.4027 25.0254 20.321 25.0534 20.2397C25.0813 20.1584 25.1103 20.0775 25.1403 19.9969C25.1702 19.9163 25.2012 19.8361 25.2332 19.7563C25.2652 19.6765 25.2981 19.5971 25.332 19.5182C25.3659 19.4391 25.4008 19.3606 25.4367 19.2825C25.4726 19.2044 25.5095 19.1267 25.5474 19.0495C25.5851 18.9723 25.6239 18.8956 25.6636 18.8194C25.7033 18.7431 25.744 18.6674 25.7856 18.5922C25.8272 18.517 25.8697 18.4423 25.9132 18.3681C25.9566 18.294 26.001 18.2204 26.0463 18.1473C26.0916 18.0743 26.1377 18.0018 26.1848 17.9299C26.2319 17.858 26.2798 17.7867 26.3287 17.716C26.3775 17.6452 26.4273 17.5751 26.4779 17.5056C26.5284 17.4362 26.5799 17.3674 26.6322 17.2991C26.6845 17.231 26.7376 17.1635 26.7916 17.0966C28.641 14.7668 31.2641 13.3536 34.2061 13.017Z" fill="#FEFEFE"/>
</g>
<defs>
<clipPath id="clip0_177_2747">
<rect width="70" height="70" fill="white"/>
</clipPath>
</defs>
</svg>
