<svg width="145" height="145" viewBox="0 0 145 145" fill="none" xmlns="http://www.w3.org/2000/svg">
<path d="M76.0548 28.5748C76.4109 28.5624 76.7671 28.555 77.1234 28.5527C78.2906 28.5424 79.6612 28.6018 80.5264 29.5572C80.863 29.9289 81.0807 30.395 81.1976 30.8936C81.5828 32.5367 81.3443 35.8297 81.3209 37.6738C83.4646 38.2216 85.7631 38.9481 87.7678 39.937C88.854 40.4728 89.6484 41.2841 90.8399 41.6333C92.9009 41.1317 94.3462 38.9131 96.0824 37.7317C96.8003 37.2433 97.6786 36.8996 98.5336 37.1247C98.8241 37.2012 99.0873 37.3234 99.3253 37.5183C100.839 38.7579 102.137 40.4505 103.486 41.8898C104.425 42.8923 106.225 44.3734 106.857 45.5599C108.27 48.2112 104.155 51.3695 103.071 53.5017C102.891 53.854 102.798 54.226 102.704 54.6108C103.171 56.2712 104.224 57.6893 104.879 59.2702C105.448 60.6439 105.714 62.1591 106.338 63.5046C106.553 63.9681 106.811 64.2689 107.176 64.604C108.992 64.6429 112.832 64.2015 114.331 65.0754C114.959 65.4415 115.456 66.0533 115.634 66.7989C116.035 68.4754 115.985 75.7039 115.746 77.5487C115.696 77.9338 115.602 78.2862 115.416 78.6234C114.052 81.0879 109.624 79.4755 107.444 80.0822C106.996 80.2068 106.69 80.4822 106.473 80.9157C106.185 81.4922 106.059 82.2511 105.888 82.8781C105.59 83.9703 105.278 85.0845 104.894 86.1462C104.409 87.4846 103.388 88.9887 103.077 90.3076C102.537 92.5931 106.34 95.1893 106.942 97.486C107.154 98.2966 106.999 99.1447 106.578 99.8522C105.91 100.974 104.234 102.406 103.314 103.393C102.218 104.569 101.187 105.992 99.9397 106.98C99.6144 107.238 99.2739 107.386 98.8752 107.465C96.5664 107.919 93.2543 104.377 91.3471 103.012C90.0945 103.538 88.9032 104.31 87.686 104.929C85.7162 105.931 83.5904 106.648 81.4678 107.178C81.4836 108.796 81.6903 111.847 81.3894 113.32C81.2799 113.856 81.0655 114.378 80.7015 114.773C80.3436 115.162 79.8674 115.381 79.373 115.491C78.3604 115.715 77.2524 115.586 76.225 115.57C75.1393 115.554 74.0525 115.56 72.9666 115.559C71.6514 115.567 70.2443 115.68 68.9402 115.523C68.174 115.431 67.3828 115.111 66.9061 114.435C66.6413 114.06 66.5039 113.613 66.4243 113.156C66.1943 111.839 66.2564 108.513 66.4078 107.145C64.236 106.704 62.1147 105.868 60.1329 104.828C58.987 104.227 57.8746 103.55 56.6925 103.031C54.8465 104.382 52.4149 107.377 50.0588 107.299C49.426 107.278 48.7475 106.983 48.2271 106.606C47.0666 105.767 46.1411 104.455 45.1715 103.378C44.4247 102.548 43.6424 101.755 42.8955 100.925C41.9594 99.8853 41.2661 98.8889 41.3229 97.3654C41.4069 95.11 44.3838 92.6703 45.889 91.2464C44.1598 88.3485 42.0555 83.3065 41.7012 79.8948C39.9328 79.8797 34.921 80.3365 33.7515 79.2593C33.1051 78.6639 33.0254 77.733 32.9889 76.8848C32.9329 75.5867 32.9835 74.2752 32.9717 72.9751C32.9537 70.995 32.7108 68.5469 33.1083 66.6376C33.179 66.2986 33.3551 65.9978 33.5814 65.7502C34.6795 64.5491 37.1912 64.9343 38.6286 64.9573C39.5995 64.9785 40.5703 64.9744 41.5411 64.9448C41.8951 62.3829 42.9691 59.511 44.1422 57.2387C44.6639 56.2282 45.3266 55.3392 45.6732 54.2332C44.8032 51.6913 41.8811 50.1822 41.2131 47.517C40.9976 46.6576 41.1476 45.7861 41.5833 45.0327C42.2705 43.844 43.394 42.9701 44.2981 41.9776C45.3245 40.851 46.2895 39.5621 47.4528 38.5969C47.9177 38.2113 48.4278 37.8892 49.008 37.7489C51.4303 37.1636 53.5627 40.0764 55.4016 41.321C55.9359 41.6826 56.5083 41.9147 57.1454 41.7774C58.3483 41.518 59.3741 40.4496 60.4917 39.9289C62.5092 38.9885 64.6675 38.384 66.8076 37.8622C66.7038 35.8767 66.3744 31.0167 67.6616 29.5594C68.0267 29.1459 68.522 28.8865 69.036 28.7565C69.9839 28.5164 71.0621 28.6189 72.0341 28.621C73.3748 28.6238 74.7149 28.6366 76.0548 28.5748ZM72.5205 43.1287C64.6223 43.9562 57.9893 47.3104 52.9079 53.9057C52.7639 54.0919 52.6221 54.2801 52.4826 54.4701C52.3429 54.6602 52.2056 54.852 52.0705 55.0457C51.9354 55.2394 51.8026 55.4348 51.672 55.632C51.5414 55.8292 51.4132 56.0281 51.2873 56.2287C51.1614 56.4293 51.0379 56.6315 50.9166 56.8354C50.7954 57.0392 50.6766 57.2446 50.5603 57.4516C50.4439 57.6586 50.33 57.8672 50.2184 58.0773C50.1069 58.2873 49.9978 58.4987 49.8912 58.7116C49.7846 58.9245 49.6805 59.1388 49.579 59.3545C49.4773 59.5702 49.3782 59.7872 49.2818 60.0054C49.1852 60.2238 49.0912 60.4433 48.9998 60.664C48.9084 60.8848 48.8196 61.1069 48.7333 61.3301C48.6471 61.5532 48.5635 61.7774 48.4826 62.0027C48.4016 62.2281 48.3233 62.4544 48.2475 62.6819C48.1718 62.9093 48.0988 63.1377 48.0284 63.3671C47.958 63.5965 47.8903 63.8268 47.8253 64.0579C47.7603 64.2891 47.698 64.5211 47.6384 64.7538C47.5787 64.9866 47.5218 65.2202 47.4677 65.4546C47.4136 65.6888 47.3622 65.9238 47.3135 66.1595C47.2649 66.3952 47.219 66.6315 47.1758 66.8684C47.1326 67.1053 47.0923 67.3427 47.0547 67.5807C47.0171 67.8186 46.9823 68.057 46.9502 68.2959C46.9182 68.5348 46.889 68.7741 46.8625 69.0137C46.8361 69.2534 46.8124 69.4934 46.7915 69.7337C46.7707 69.9739 46.7526 70.2144 46.7373 70.4552C46.7221 70.6959 46.7097 70.9369 46.7 71.178C46.6904 71.4191 46.6836 71.6603 46.6795 71.9016C46.6756 72.1429 46.6744 72.3842 46.676 72.6255C46.6776 72.8668 46.6821 73.108 46.6893 73.3491C46.6967 73.5903 46.7068 73.8314 46.7196 74.0724C46.7325 74.3133 46.7482 74.554 46.7666 74.7945C46.7852 75.035 46.8065 75.2752 46.8306 75.5152C47.5295 83.0473 51.0388 90.4428 56.5557 95.2536C56.725 95.4028 56.8959 95.5499 57.0684 95.6947C57.241 95.8396 57.4151 95.9823 57.5908 96.1227C57.7665 96.2632 57.9438 96.4014 58.1226 96.5374C58.3013 96.6734 58.4816 96.8071 58.6634 96.9384C58.8452 97.0699 59.0283 97.199 59.2129 97.3259C59.3976 97.4526 59.5836 97.577 59.7711 97.6991C59.9585 97.8212 60.1472 97.9409 60.3372 98.0583C60.5274 98.1756 60.7188 98.2905 60.9114 98.403C61.1041 98.5155 61.2979 98.6255 61.4929 98.7331C61.6881 98.8407 61.8843 98.9458 62.0817 99.0484C62.2791 99.1511 62.4777 99.2512 62.6774 99.3488C62.877 99.4464 63.0778 99.5415 63.2795 99.634C63.4813 99.7266 63.6841 99.8165 63.8879 99.9038C64.0916 99.9913 64.2963 100.076 64.502 100.158C64.7077 100.241 64.9142 100.32 65.1217 100.397C65.3291 100.474 65.5374 100.549 65.7465 100.62C65.9556 100.692 66.1654 100.761 66.376 100.828C66.5866 100.894 66.798 100.958 67.0101 101.019C67.2221 101.08 67.4348 101.139 67.6481 101.194C67.8615 101.25 68.0754 101.303 68.29 101.353C68.5045 101.404 68.7196 101.451 68.9352 101.496C69.1508 101.541 69.3669 101.583 69.5835 101.623C69.7999 101.662 70.0168 101.699 70.2342 101.733C70.4516 101.767 70.6693 101.798 70.8873 101.826C71.1053 101.855 71.3236 101.88 71.5422 101.903C71.7609 101.926 71.9797 101.946 72.1989 101.964C72.4179 101.981 72.6371 101.996 72.8565 102.008C73.0759 102.019 73.2954 102.028 73.515 102.035C73.7345 102.041 73.9541 102.045 74.1738 102.045C74.3935 102.046 74.6131 102.044 74.8328 102.039C75.0524 102.034 75.272 102.027 75.4915 102.016C75.7109 102.006 75.9302 101.993 76.1494 101.977C76.3833 101.955 76.6169 101.93 76.8503 101.902C77.0836 101.873 77.3165 101.842 77.549 101.808C77.7816 101.773 78.0138 101.736 78.2455 101.695C78.4772 101.655 78.7084 101.611 78.9392 101.564C79.1699 101.518 79.4 101.468 79.6295 101.416C79.8591 101.363 80.088 101.307 80.3163 101.248C80.5445 101.19 80.772 101.128 80.9989 101.063C81.2257 100.998 81.4517 100.93 81.6769 100.86C81.9021 100.789 82.1264 100.715 82.35 100.638C82.5735 100.562 82.7961 100.482 83.0177 100.399C83.2394 100.317 83.4601 100.232 83.6798 100.143C83.8995 100.055 84.118 99.9635 84.3355 99.8693C84.5531 99.7751 84.7696 99.678 84.9849 99.5781C85.2001 99.4782 85.4142 99.3754 85.6271 99.2699C85.84 99.1643 86.0517 99.056 86.262 98.9448C86.4723 98.8336 86.6814 98.7197 86.8891 98.603C87.0968 98.4863 87.3031 98.367 87.5081 98.2449C87.713 98.1228 87.9165 97.998 88.1186 97.8705C88.3207 97.743 88.5212 97.6128 88.7201 97.4799C88.9191 97.3471 89.1165 97.2117 89.3123 97.0737C89.5082 96.9357 89.7024 96.795 89.8951 96.6519C90.0876 96.5087 90.2785 96.363 90.4677 96.2148C90.6569 96.0666 90.8443 95.9159 91.03 95.7628C91.2157 95.6096 91.3995 95.454 91.5815 95.296C91.7636 95.138 91.9438 94.9777 92.1222 94.8149C92.3004 94.6521 92.4768 94.487 92.6514 94.3196C92.8258 94.152 92.9983 93.9823 93.1689 93.8104C93.3394 93.6383 93.5078 93.4641 93.6743 93.2876C93.8407 93.1112 94.0051 92.9326 94.1674 92.7517C94.3298 92.571 94.4899 92.3881 94.648 92.203C94.8061 92.0179 94.962 91.8308 95.1157 91.6417C95.2693 91.4525 95.4208 91.2614 95.57 91.0683C95.7117 90.8854 95.8514 90.7008 95.989 90.5144C96.1264 90.3279 96.2617 90.1396 96.3948 89.9496C96.5279 89.7596 96.6587 89.5678 96.7874 89.3742C96.916 89.1808 97.0425 88.9857 97.1667 88.7889C97.2908 88.592 97.4127 88.3936 97.5322 88.1935C97.6518 87.9935 97.769 87.792 97.8838 87.5888C97.9987 87.3858 98.1112 87.1812 98.2213 86.9752C98.3315 86.7691 98.4392 86.5616 98.5444 86.3527C98.6498 86.1438 98.7527 85.9336 98.8531 85.722C98.9536 85.5104 99.0516 85.2975 99.1471 85.0833C99.2426 84.8691 99.3357 84.6537 99.4262 84.4371C99.5167 84.2205 99.6047 84.0027 99.6902 83.7838C99.7757 83.5648 99.8586 83.3447 99.9389 83.1236C100.019 82.9025 100.097 82.6804 100.172 82.4572C100.248 82.2341 100.32 82.01 100.39 81.7849C100.46 81.5597 100.528 81.3338 100.593 81.1069C100.657 80.88 100.719 80.6523 100.779 80.4238C100.839 80.1954 100.895 79.9662 100.95 79.7361C101.004 79.5061 101.055 79.2755 101.104 79.0441C101.153 78.8128 101.199 78.5809 101.243 78.3483C101.286 78.1158 101.327 77.8827 101.365 77.649C101.403 77.4154 101.438 77.1813 101.471 76.9467C101.504 76.7122 101.534 76.4773 101.561 76.2419C101.588 76.0066 101.613 75.7709 101.634 75.5349C101.656 75.2988 101.675 75.0626 101.691 74.8261C101.708 74.5897 101.721 74.353 101.732 74.1161C101.743 73.8793 101.751 73.6423 101.756 73.4052C101.761 73.1682 101.764 72.9311 101.764 72.694C101.764 72.4569 101.761 72.2198 101.755 71.9826C101.749 71.7456 101.741 71.5087 101.73 71.2719C101.718 71.035 101.704 70.7983 101.688 70.5619C101.671 70.3254 101.652 70.0892 101.63 69.8533C101.607 69.6132 101.582 69.3734 101.554 69.134C101.526 68.8946 101.496 68.6556 101.462 68.417C101.429 68.1783 101.393 67.9402 101.354 67.7025C101.315 67.4648 101.273 67.2277 101.229 66.9911C101.184 66.7545 101.137 66.5186 101.087 66.2832C101.037 66.0479 100.985 65.8132 100.93 65.5793C100.874 65.3453 100.816 65.112 100.756 64.8797C100.695 64.6472 100.632 64.4156 100.566 64.1848C100.5 63.954 100.431 63.7241 100.36 63.4951C100.288 63.2662 100.214 63.0381 100.138 62.8111C100.061 62.584 99.982 62.358 99.9001 62.1331C99.8184 61.9081 99.7339 61.6842 99.6469 61.4614C99.5599 61.2388 99.4704 61.0172 99.3783 60.7967C99.2861 60.5764 99.1915 60.3572 99.0943 60.1393C98.9971 59.9213 98.8974 59.7047 98.7952 59.4894C98.693 59.2742 98.5884 59.0602 98.4812 58.8477C98.3741 58.6351 98.2645 58.4239 98.1525 58.2143C98.0405 58.0046 97.9261 57.7964 97.8092 57.5897C97.6925 57.3831 97.5733 57.1779 97.4516 56.9743C97.3301 56.7708 97.2062 56.569 97.0801 56.3687C96.9538 56.1683 96.8253 55.9696 96.6945 55.7728C96.5637 55.5758 96.4305 55.3806 96.2952 55.1871C96.1599 54.9937 96.0223 54.8021 95.8826 54.6122C95.7428 54.4224 95.6009 54.2344 95.4568 54.0483C95.3127 53.8622 95.1665 53.678 95.0182 53.4957C94.8697 53.3135 94.7193 53.1332 94.5668 52.9549C94.4142 52.7766 94.2597 52.6003 94.1032 52.426C93.9465 52.2518 93.7879 52.0795 93.6274 51.9094C93.4667 51.7393 93.3042 51.5713 93.1397 51.4054C92.9753 51.2396 92.809 51.0759 92.6406 50.9144C92.4724 50.753 92.3023 50.5937 92.1304 50.4367C91.9585 50.2796 91.7848 50.1249 91.6093 49.9724C86.4421 45.4592 79.4017 42.4732 72.642 43.1113C72.6014 43.1151 72.561 43.1229 72.5205 43.1287Z" fill="#FEB81D"/>
<path d="M73.0732 46.8524C74.4275 46.7118 75.8832 46.835 77.2248 47.0518C77.4269 47.0864 77.6287 47.1237 77.83 47.1636C78.0314 47.2035 78.2322 47.246 78.4326 47.2912C78.633 47.3363 78.8329 47.384 79.0321 47.4343C79.2314 47.4845 79.4301 47.5374 79.6281 47.5927C79.8262 47.6482 80.0237 47.7062 80.2205 47.7668C80.4171 47.8273 80.6131 47.8904 80.8085 47.956C81.0038 48.0218 81.1983 48.09 81.392 48.1607C81.5858 48.2314 81.7787 48.3045 81.9709 48.3802C82.1629 48.4559 82.354 48.534 82.5443 48.6146C82.7346 48.6954 82.924 48.7785 83.1124 48.8641C83.3008 48.9496 83.4882 49.0375 83.6745 49.128C83.8609 49.2184 84.0462 49.3113 84.2304 49.4066C84.4146 49.5018 84.5978 49.5994 84.7799 49.6994C84.9619 49.7993 85.1427 49.9016 85.3224 50.0063C85.5021 50.1109 85.6806 50.2179 85.8578 50.3272C86.0351 50.4366 86.2111 50.5482 86.3857 50.6621C86.5605 50.7759 86.7339 50.892 86.9059 51.0105C87.078 51.1288 87.2486 51.2494 87.4178 51.3721C87.5872 51.495 87.7551 51.6199 87.9215 51.747C88.0879 51.8742 88.2528 52.0035 88.4164 52.1349C88.5799 52.2663 88.7418 52.3998 88.9023 52.5355C89.0627 52.6711 89.2215 52.8088 89.3788 52.9485C89.536 53.0883 89.6917 53.2301 89.8457 53.3739C89.9998 53.5176 90.1523 53.6633 90.303 53.8111C90.4536 53.9588 90.6026 54.1085 90.7499 54.2601C90.8972 54.4118 91.0427 54.5652 91.1865 54.7205C91.3303 54.8759 91.4722 55.0331 91.6124 55.1922C91.7527 55.3512 91.8911 55.5121 92.0276 55.6748C92.164 55.8374 92.2987 56.0018 92.4315 56.1679C92.5642 56.3341 92.695 56.502 92.824 56.6715C92.9529 56.841 93.0798 57.0122 93.2049 57.185C93.3299 57.3578 93.453 57.5323 93.574 57.7083C96.2986 61.688 97.9861 66.5854 98.1862 71.5099C98.2246 72.4537 98.2612 73.4399 98.1149 74.3734C98.0392 74.8572 97.9229 75.602 97.5317 75.8958L97.3696 75.8587C96.576 74.9621 96.9082 71.9794 96.8895 70.7418C95.8382 69.5184 94.4171 68.5933 93.1221 67.6887C91.6284 66.6453 90.13 65.6254 88.7419 64.4243C88.6156 62.6785 88.6375 60.8964 88.6391 59.1468C88.6397 58.2274 88.6978 57.2585 88.5771 56.3469C88.5394 56.0625 88.4732 55.4756 88.2326 55.3194C87.3809 54.767 80.9583 54.9002 79.8823 55.2453C79.2694 55.4418 79.0899 55.9567 78.8112 56.5134C77.7229 55.7028 76.6443 54.878 75.5753 54.0388L74.5969 53.3779C70.9155 55.8561 67.4897 58.8111 63.9248 61.4771C61.4354 63.3318 58.9558 65.2013 56.486 67.0853C54.9013 68.277 53.2301 69.3465 51.8298 70.7893C51.9132 71.7225 52.065 75.7262 51.8782 76.3752C51.8195 76.5795 51.682 76.7853 51.4918 76.868C51.3766 76.9183 51.3244 76.8449 51.2239 76.7885C50.6556 75.8954 50.6003 74.2525 50.5371 73.2022C50.1541 66.8205 52.3506 60.2486 56.3153 55.4572C60.6063 50.2715 66.6292 47.3012 73.0732 46.8524Z" fill="#FEB81D"/>
<path d="M74.5642 57.3354C76.2407 58.0612 79.938 61.3792 81.5594 62.704L81.5661 58.3899L85.7566 58.3774L85.7616 66.1667C88.1613 68.012 90.8083 69.6654 93.0443 71.7227C92.7653 72.7835 92.5472 73.8583 92.3902 74.9472C91.2795 74.4928 90.2195 73.7811 89.1833 73.1622C89.1528 76.5689 89.1417 79.9757 89.1499 83.3826C89.1566 85.1129 89.2978 86.9494 89.1462 88.6694C89.1138 89.0379 89.0319 89.5494 88.769 89.8222C88.4675 90.1352 88.0049 90.1939 87.6048 90.2422C86.6522 90.3572 85.6325 90.2573 84.6723 90.2536L78.6531 90.2434L66.8635 90.232C65.0223 90.234 63.019 90.4452 61.1987 90.2154C60.7998 90.1651 60.3706 90.0892 60.0796 89.7633C59.7855 89.4339 59.7843 88.6299 59.7595 88.1928C59.6702 86.617 59.7692 85.0011 59.775 83.4212C59.7923 79.9274 59.7835 76.4337 59.7486 72.94C58.7604 73.5064 57.8316 74.1723 56.8203 74.6981L55.8984 71.4469C58.7553 69.4514 61.4802 67.2733 64.2504 65.1485L74.5642 57.3354ZM76.2708 66.7946C74.4656 66.8104 72.6531 66.7734 70.8491 66.8217C70.8336 69.0456 70.8339 71.2694 70.85 73.4932L72.0767 73.5665C73.8866 73.6042 75.7178 73.6156 77.5268 73.5364C77.5395 71.2867 77.5416 69.037 77.533 66.7873L76.2708 66.7946ZM79.0795 78.6402L79.077 85.3238L85.3726 85.3205C85.3557 83.0992 85.3498 80.8779 85.3547 78.6566C83.263 78.6328 81.1713 78.6273 79.0795 78.6402ZM63.5702 78.6381L63.5582 85.3311L69.8639 85.3197C69.837 83.1038 69.8743 80.8811 69.8206 78.6669C67.7428 78.6543 65.6445 78.7185 63.5702 78.6381Z" fill="#001F50"/>
</svg>
