<svg width="145" height="145" viewBox="0 0 145 145" fill="none" xmlns="http://www.w3.org/2000/svg">
<path d="M70.9525 81.1425C71.0839 81.1282 71.2156 81.1183 71.3476 81.1128C76.0723 80.9226 80.7801 82.7985 84.2093 86.0221C84.3233 86.1292 84.4359 86.2377 84.5472 86.3475C84.6586 86.4575 84.7686 86.5687 84.8772 86.6812C84.9856 86.7939 85.0928 86.9078 85.1987 87.023C85.3044 87.1383 85.4087 87.2548 85.5116 87.3725C85.6145 87.4903 85.716 87.6094 85.816 87.7297C85.9159 87.85 86.0144 87.9714 86.1114 88.0941C86.2084 88.2169 86.3039 88.3408 86.3979 88.4658C86.4919 88.5908 86.5843 88.717 86.6751 88.8444C86.766 88.9717 86.8553 89.1001 86.9429 89.2296C87.0306 89.3591 87.1166 89.4897 87.2011 89.6214C87.2856 89.7531 87.3685 89.8857 87.4497 90.0193C87.531 90.153 87.6105 90.2877 87.6884 90.4234C87.7663 90.559 87.8426 90.6955 87.9172 90.833C87.9917 90.9706 88.0645 91.109 88.1358 91.2483C88.2069 91.3875 88.2763 91.5276 88.344 91.6686C88.4118 91.8096 88.4777 91.9515 88.542 92.0942C88.6062 92.2367 88.6687 92.3801 88.7293 92.5243C88.7901 92.6684 88.849 92.8133 88.9062 92.9589C88.9632 93.1046 89.0185 93.2508 89.0721 93.3978C89.1256 93.5448 89.1774 93.6924 89.2274 93.8406C89.2773 93.9889 89.3254 94.1378 89.3717 94.2872C89.4179 94.4366 89.4623 94.5865 89.5048 94.7371C89.5475 94.8875 89.5882 95.0386 89.627 95.1901C89.6659 95.3416 89.703 95.4936 89.7381 95.6461C89.7732 95.7984 89.8064 95.9513 89.8378 96.1045C89.8692 96.2578 89.8987 96.4114 89.9262 96.5654C89.9538 96.7193 89.9795 96.8736 90.0034 97.0282C90.0271 97.1828 90.049 97.3377 90.069 97.4929C90.089 97.648 90.1072 97.8034 90.1234 97.959C90.1394 98.1145 90.1537 98.2703 90.1661 98.4262C90.1784 98.5822 90.1889 98.7383 90.1975 98.8945C90.2059 99.0507 90.2125 99.2069 90.2172 99.3632C90.4374 107.218 85.144 113.097 80.1288 118.468L72.8667 126.111L72.275 126.718L72.1726 126.638C66.9304 122.542 58.5979 113.682 55.6789 107.62C55.4545 107.155 55.25 106.682 55.0653 106.2C54.8806 105.719 54.7164 105.23 54.5726 104.734C54.4288 104.239 54.3061 103.738 54.2044 103.233C54.1025 102.727 54.022 102.218 53.9628 101.705C53.9446 101.556 53.9282 101.406 53.9136 101.256C53.8991 101.106 53.8863 100.956 53.8754 100.805C53.8646 100.655 53.8557 100.505 53.8486 100.354C53.8415 100.204 53.8362 100.053 53.8327 99.9024C53.8294 99.7518 53.8278 99.6012 53.8282 99.4505C53.8285 99.2998 53.8308 99.1491 53.8349 98.9985C53.839 98.8479 53.8449 98.6973 53.8526 98.5467C53.8604 98.3963 53.8701 98.2459 53.8817 98.0957C53.8931 97.9455 53.9065 97.7954 53.9218 97.6455C53.937 97.4956 53.9541 97.3459 53.9731 97.1963C53.992 97.0469 54.0128 96.8977 54.0354 96.7487C54.0581 96.5997 54.0827 96.451 54.109 96.3027C54.1353 96.1543 54.1635 96.0062 54.1934 95.8586C54.2234 95.711 54.2553 95.5636 54.2889 95.4167C54.3226 95.2698 54.358 95.1234 54.3952 94.9774C54.4325 94.8314 54.4716 94.6859 54.5125 94.5409C54.5534 94.3959 54.596 94.2513 54.6405 94.1073C54.6849 93.9634 54.7311 93.82 54.7792 93.6772C54.8271 93.5344 54.8768 93.3921 54.9284 93.2505C54.9799 93.1089 55.0332 92.9679 55.0882 92.8276C55.1432 92.6874 55.2 92.5478 55.2585 92.409C55.3169 92.2701 55.3771 92.132 55.4391 91.9946C55.501 91.8572 55.5645 91.7205 55.6298 91.5847C55.695 91.4489 55.762 91.3139 55.8306 91.1798C55.8993 91.0456 55.9695 90.9124 56.0414 90.7801C56.1133 90.6476 56.1868 90.5161 56.262 90.3856C56.3372 90.2549 56.4139 90.1253 56.4924 89.9966C56.5708 89.8679 56.6508 89.7402 56.7324 89.6135C56.8138 89.4868 56.8969 89.3611 56.9816 89.2365C57.0662 89.1118 57.1524 88.9882 57.2402 88.8657C57.3279 88.7432 57.4172 88.6219 57.5078 88.5016C57.5985 88.3813 57.6907 88.2621 57.7845 88.1441C61.1457 83.9183 65.6467 81.7384 70.9525 81.1425Z" fill="#FEB91D"/>
<path d="M71.4985 87.0207C72.3399 87.0145 73.1812 87.0135 74.0225 87.0177L74.0199 88.8631C75.842 88.931 77.7749 89.5319 79.4173 90.2969C78.9075 91.7881 78.4388 93.2832 77.8861 94.7607L76.3862 93.978C75.1211 93.3256 73.2691 92.4986 71.8166 92.9988C71.2744 93.1856 70.5966 93.5533 70.3516 94.0941C70.1997 94.4292 70.2101 94.8427 70.344 95.182C70.8744 96.5257 73.289 96.8437 74.5205 97.1837C75.2133 97.3749 75.8966 97.6062 76.5469 97.9143C77.8763 98.5437 79.027 99.5315 79.5144 100.961C80.0254 102.461 79.822 104.372 79.0982 105.771C78.0432 107.808 75.9979 108.556 73.9359 109.194C73.9349 110.038 73.9036 110.871 73.8515 111.713C73.102 111.694 72.3484 111.712 71.5986 111.714C71.5738 111.693 71.5444 111.676 71.524 111.651C71.2408 111.306 71.4452 109.866 71.4749 109.387C68.74 109.422 66.2791 108.812 63.9062 107.449C64.4536 106.185 65.0758 104.918 65.4989 103.608C67.5923 104.638 69.9565 105.742 72.3594 105.35C73.0127 105.243 73.5686 104.969 73.9555 104.418C74.197 104.074 74.3342 103.624 74.2359 103.206C73.8773 101.683 70.8678 101.407 69.6564 101.063C68.758 100.807 67.8443 100.443 67.0526 99.9432C65.8765 99.2002 65.0319 98.1074 64.7327 96.7328C64.3854 95.1383 64.5979 93.6061 65.5047 92.2297C66.8876 90.1302 69.2387 89.3959 71.5736 88.9048L71.4985 87.0207Z" fill="#FEFEFE"/>
<path d="M77.8351 39.2023C79.6177 39.1441 82.6994 38.8203 84.3341 39.4771C87.9437 40.9271 90.1043 49.5768 91.5016 52.9338C91.934 52.7405 92.3532 52.5119 92.7748 52.2962C92.7056 51.5937 92.4396 50.1384 92.8286 49.5331C92.957 49.3331 93.2169 49.2521 93.4363 49.1916C94.5281 48.8913 97.1634 48.8238 98.1602 49.3832C98.3069 49.5562 98.3701 49.7088 98.4174 49.9274C98.5764 50.6636 98.6441 53.0124 98.1899 53.5827C97.6053 54.3168 93.3582 54.0256 92.2382 54.099C92.4867 54.8257 92.8259 55.4997 93.2291 56.153C93.7973 57.0736 94.9764 58.2876 95.1313 59.3479C95.3193 60.6343 95.4997 70.6088 94.9622 71.1852C94.382 71.8076 93.0674 71.646 92.2823 71.6396L92.2879 73.2169C92.2956 74.25 92.4708 75.7768 91.6484 76.5532C91.4341 76.7556 91.1627 76.8826 90.8763 76.9445C89.4986 77.2423 86.4317 76.9214 84.8947 76.8718C84.7285 76.7492 84.5525 76.6106 84.4168 76.4547C83.5598 75.4699 83.8963 72.871 83.9356 71.6575C81.5452 71.5329 79.1472 71.573 76.7543 71.5762L66.5519 71.5942L60.3884 71.6138C60.4198 72.9632 60.6956 74.9216 60.2028 76.1761C60.0948 76.4513 59.9417 76.5757 59.6734 76.6885C58.3082 77.262 53.703 77.0713 52.3523 76.5161C51.7561 75.0459 51.9871 73.1479 52.0087 71.5799C51.3327 71.6115 50.6564 71.6337 49.9798 71.6465C49.6896 71.4771 49.2608 71.2277 49.1314 70.902C48.7795 70.0169 48.8384 60.0398 49.2053 59.0484C49.5595 58.0915 50.2594 57.2455 50.7986 56.3842C51.2592 55.6483 51.6337 54.8821 51.9906 54.0923C50.8339 53.9803 47.0558 54.2408 46.2702 53.7209C45.9919 53.5367 45.8883 53.2626 45.8343 52.9471C45.7016 52.1738 45.5604 50.0978 46.0059 49.4875C46.9826 48.9212 49.4821 49.0586 50.5804 49.221C50.934 49.2733 51.3664 49.3284 51.5706 49.6575C51.9157 50.2137 51.7174 51.2925 51.5687 51.9006L51.5424 52.0042C51.9096 52.2498 52.3091 52.4586 52.6921 52.6792C54.3895 49.1764 55.8229 43.3422 58.3673 40.6029C58.9564 39.9685 59.592 39.5676 60.4446 39.3821C62.1053 39.0207 64.3316 39.23 66.0616 39.2332C69.9794 39.2407 73.9205 39.3332 77.8351 39.2023Z" fill="#001F50"/>
<path d="M55.0873 59.3719C56.6285 59.3474 58.7032 59.1763 59.9993 60.1752C60.0648 60.2247 60.1276 60.2774 60.1877 60.3332C60.2477 60.3891 60.3048 60.4479 60.359 60.5096C60.4131 60.5714 60.4639 60.6357 60.5114 60.7026C60.559 60.7695 60.603 60.8387 60.6435 60.91C60.6839 60.9815 60.7206 61.0547 60.7537 61.1298C60.7867 61.205 60.8158 61.2816 60.841 61.3597C60.8662 61.4378 60.8873 61.517 60.9043 61.5974C60.9214 61.6776 60.9344 61.7585 60.9432 61.8401C60.9544 61.9313 60.9609 62.0227 60.9628 62.1144C60.9646 62.2061 60.9619 62.2977 60.9546 62.3892C60.9471 62.4807 60.9351 62.5716 60.9184 62.6618C60.9018 62.7521 60.8806 62.8413 60.855 62.9294C60.8293 63.0175 60.7993 63.1041 60.7649 63.1892C60.7303 63.2742 60.6916 63.3574 60.6487 63.4386C60.6059 63.5198 60.559 63.5985 60.5082 63.6748C60.4573 63.7512 60.4027 63.8249 60.3444 63.8958C59.696 64.6969 58.9737 64.8783 58.0041 64.9779C56.4653 65.024 54.1037 65.276 52.8529 64.2177C52.2498 63.7074 51.9775 62.9717 51.9166 62.1998C51.8574 61.4497 51.9848 60.4963 52.5282 59.9273C53.1081 59.3199 54.3061 59.4024 55.0873 59.3719Z" fill="#FEFEFE"/>
<path d="M86.2763 59.2886C87.7363 59.2268 90.5615 58.965 91.7032 59.9345C92.1748 60.3347 92.392 60.9194 92.4276 61.5252C92.4794 62.406 92.1788 63.312 91.5665 63.9538C90.8077 64.7492 89.9047 64.8916 88.8622 64.9257L88.7656 64.9342C87.2177 65.0565 85.023 65.0984 83.7895 64.0042C83.2476 63.5237 82.8943 62.8616 82.8731 62.1307C82.853 61.4402 83.1406 60.782 83.6165 60.2884C84.3707 59.5059 85.2419 59.3271 86.2763 59.2886Z" fill="#FEFEFE"/>
<path d="M63.5506 42.3227C66.8342 42.2755 70.1274 42.3747 73.4132 42.356C76.1548 42.3405 78.9271 42.1639 81.6637 42.3475C82.189 42.3828 82.6997 42.4375 83.1853 42.6578C83.6627 42.8744 84.0268 43.2049 84.3142 43.6406C85.0161 44.7045 85.3832 46.0451 85.8427 47.2279L88.1128 53.0883C85.6605 53.0841 83.2084 53.1076 80.7565 53.1591L56.0527 53.0688C56.6272 51.3348 59.1718 44.2371 60.265 43.1546C61.1237 42.304 62.4349 42.3533 63.5506 42.3227Z" fill="#FEFEFE"/>
<path d="M52.696 107.47C48.7826 102.956 44.9517 98.3728 41.2033 93.7207C39.046 90.9922 36.883 88.2872 35.0298 85.3367C30.1451 77.5599 28.0729 68.7382 28.6565 59.5988C29.403 47.9093 35.1935 37.2418 43.9214 29.5747C52.2704 22.2406 63.8804 18.6587 74.913 19.3935C86.7883 20.1843 97.5279 25.8496 105.316 34.7869C106.952 36.6654 108.382 38.7762 109.632 40.9281C114.04 48.5116 115.895 56.954 115.277 65.7023C114.389 78.2495 107.285 89.1565 99.5329 98.6404C96.989 101.752 94.2509 105.023 91.2109 107.66C92.4844 103.963 93.1043 99.7106 92.3153 95.8583C92.0934 94.3369 91.66 92.881 91.1511 91.4337C93.4305 89.5755 95.5958 87.6741 97.5384 85.4556C97.8279 85.1221 98.111 84.7834 98.3876 84.4394C98.6644 84.0953 98.9345 83.7461 99.1981 83.3918C99.4616 83.0376 99.7183 82.6784 99.9683 82.3144C100.218 81.9504 100.461 81.5819 100.697 81.2087C100.934 80.8355 101.163 80.4581 101.384 80.0764C101.606 79.6946 101.821 79.3087 102.028 78.9189C102.235 78.529 102.435 78.1353 102.628 77.7378C102.82 77.3405 103.005 76.9396 103.182 76.5351C103.36 76.1308 103.529 75.7232 103.691 75.3123C103.853 74.9016 104.007 74.4879 104.153 74.0711C104.3 73.6545 104.438 73.2353 104.569 72.8136C104.699 72.3917 104.822 71.9675 104.936 71.541C105.051 71.1146 105.157 70.6861 105.256 70.2556C105.354 69.8251 105.444 69.3929 105.526 68.959C105.608 68.5251 105.682 68.0898 105.747 67.6532C105.813 67.2165 105.87 66.7788 105.919 66.3399C106.834 57.4685 104.569 48.4279 98.8784 41.4635C93.0535 34.3345 84.9423 29.3254 75.6741 28.4091C75.3967 28.3809 75.1189 28.3561 74.8409 28.3347C74.5629 28.3132 74.2847 28.2951 74.0062 28.2805C73.7277 28.2658 73.4491 28.2545 73.1704 28.2466C72.8917 28.2387 72.6129 28.2343 72.334 28.2332C72.0552 28.2321 71.7764 28.2344 71.4976 28.2402C71.2188 28.2459 70.9401 28.255 70.6615 28.2675C70.3829 28.28 70.1046 28.2959 69.8264 28.3151C69.5483 28.3345 69.2704 28.3571 68.9927 28.3831C68.715 28.4092 68.4378 28.4387 68.1609 28.4716C67.884 28.5043 67.6075 28.5405 67.3315 28.5801C67.0555 28.6196 66.78 28.6626 66.5049 28.7089C66.2299 28.7552 65.9556 28.8047 65.6818 28.8576C65.4081 28.9106 65.135 28.967 64.8626 29.0266C64.5902 29.0862 64.3186 29.1492 64.0476 29.2153C63.7768 29.2816 63.5068 29.3512 63.2375 29.424C62.9684 29.4968 62.7002 29.5728 62.4328 29.6522C62.1655 29.7315 61.8992 29.8141 61.6339 29.9C61.3686 29.9858 61.1043 30.0749 60.8412 30.1672C60.5781 30.2595 60.3161 30.355 60.0552 30.4536C59.7944 30.5523 59.5348 30.6542 59.2765 30.7592C59.0182 30.8642 58.7612 30.9723 58.5056 31.0836C58.2498 31.1949 57.9955 31.3093 57.7426 31.4268C57.4896 31.5442 57.2382 31.6647 56.9883 31.7884C56.7383 31.9119 56.4899 32.0385 56.2431 32.1682C55.9961 32.2978 55.7508 32.4304 55.5072 32.566C55.2635 32.7017 55.0215 32.8403 54.7812 32.9818C54.541 33.1233 54.3025 33.2678 54.0658 33.4151C53.8289 33.5624 53.5939 33.7126 53.3608 33.8656C53.1278 34.0188 52.8966 34.1747 52.6673 34.3334C52.438 34.492 52.2106 34.6535 51.9852 34.8178C51.7598 34.982 51.5365 35.149 51.3152 35.3187C51.094 35.4884 50.8748 35.6607 50.6576 35.8357C43.7399 41.5184 39.0036 49.8794 38.1331 58.8338C38.1025 59.1258 38.0755 59.4183 38.0521 59.7111C38.0288 60.0038 38.009 60.2967 37.9928 60.5898C37.9768 60.8831 37.9643 61.1765 37.9554 61.47C37.9465 61.7636 37.9413 62.0572 37.9397 62.3508C37.9381 62.6444 37.9401 62.938 37.9458 63.2318C37.9514 63.5253 37.9607 63.8188 37.9736 64.1122C37.9864 64.4056 38.0029 64.6987 38.0231 64.9917C38.0432 65.2846 38.0669 65.5772 38.0943 65.8696C38.1217 66.162 38.1527 66.454 38.1873 66.7457C38.2219 67.0373 38.2601 67.3284 38.3019 67.6191C38.3436 67.9097 38.389 68.1998 38.4381 68.4894C38.487 68.7789 38.5395 69.0678 38.5955 69.356C38.6517 69.6443 38.7114 69.9319 38.7746 70.2186C38.8377 70.5053 38.9044 70.7913 38.9747 71.0764C39.0451 71.3616 39.1189 71.6458 39.1962 71.9291C39.2735 72.2124 39.3542 72.4947 39.4385 72.7759C39.5228 73.0573 39.6105 73.3375 39.7016 73.6166C39.7929 73.8957 39.8875 74.1737 39.9855 74.4504C40.0836 74.7273 40.1851 75.0028 40.29 75.277C40.3948 75.5514 40.5031 75.8244 40.6148 76.0959C40.7265 76.3676 40.8414 76.6378 40.9596 76.9065C41.078 77.1752 41.1996 77.4425 41.3245 77.7083C41.4494 77.9741 41.5776 78.2383 41.709 78.5008C41.8405 78.7633 41.9752 79.0243 42.113 79.2835C42.2509 79.5428 42.392 79.8004 42.5363 80.0561C42.6805 80.3119 42.8279 80.5659 42.9785 80.8179C43.129 81.07 43.2826 81.3202 43.4392 81.5686C43.5959 81.817 43.7557 82.0633 43.9185 82.3076C44.0813 82.552 44.2472 82.7944 44.416 83.0346C44.5848 83.2749 44.7565 83.5131 44.9311 83.7492C45.1059 83.9851 45.2834 84.2189 45.4639 84.4505C45.6444 84.6822 45.8277 84.9116 46.0138 85.1387C47.9475 87.4714 50.3805 89.5632 52.825 91.3442C52.3538 92.8305 51.8853 94.3536 51.7006 95.9076C50.9076 99.8916 51.4601 103.654 52.696 107.47Z" fill="#FEB91D"/>
<path d="M51.7006 95.9074C51.1389 95.5533 50.5862 95.1855 50.0427 94.804C49.499 94.4225 48.9651 94.0279 48.441 93.6202C47.917 93.2124 47.4032 92.7919 46.8998 92.3587C46.3965 91.9256 45.904 91.4802 45.4226 91.0227C44.9412 90.5652 44.4713 90.0962 44.013 89.6156C43.5548 89.1349 43.1087 88.6433 42.6747 88.1406C42.2406 87.6379 41.8193 87.1248 41.4106 86.6014C41.002 86.0779 40.6064 85.5447 40.224 85.0017C34.3709 76.693 32.1313 65.9495 33.8714 55.9745C35.5963 46.0865 41.3718 36.6857 49.6135 30.9134C49.8771 30.7289 50.143 30.5477 50.4111 30.3698C50.6792 30.192 50.9495 30.0175 51.2219 29.8462C51.4941 29.6749 51.7686 29.507 52.0451 29.3425C52.3216 29.1779 52.6 29.0167 52.8805 28.859C53.1609 28.7013 53.4432 28.547 53.7274 28.3962C54.0116 28.2454 54.2976 28.0981 54.5854 27.9544C54.8732 27.8106 55.1628 27.6704 55.4541 27.5338C55.7454 27.3971 56.0383 27.2639 56.3329 27.1344C56.6273 27.005 56.9233 26.8791 57.2209 26.7568C57.5185 26.6346 57.8176 26.516 58.1181 26.4011C58.4186 26.2862 58.7206 26.175 59.0239 26.0674C59.3271 25.9599 59.6316 25.8562 59.9373 25.7561C60.2431 25.6561 60.5501 25.5598 60.8582 25.4673C61.1664 25.3748 61.4757 25.2861 61.786 25.2011C62.0963 25.1163 62.4076 25.0352 62.7199 24.9579C63.0322 24.8806 63.3453 24.8071 63.6595 24.7374C63.9736 24.6678 64.2885 24.602 64.6042 24.5401C64.92 24.4782 65.2364 24.4202 65.5536 24.3661C65.8706 24.3119 66.1884 24.2617 66.5068 24.2153C66.8252 24.169 67.1441 24.1265 67.4634 24.0881C67.7828 24.0496 68.1027 24.015 68.423 23.9842C68.7432 23.9535 69.0638 23.9267 69.3846 23.9039C69.7056 23.881 70.0268 23.8622 70.3481 23.8473C70.6695 23.8324 70.991 23.8213 71.3127 23.8143C71.6343 23.8072 71.956 23.804 72.2777 23.8048C72.5995 23.8056 72.9211 23.8104 73.2427 23.8192C73.5644 23.8278 73.8858 23.8404 74.2071 23.857C74.5284 23.8736 74.8494 23.8942 75.1702 23.9186C75.491 23.943 75.8114 23.9714 76.1315 24.0038C76.4516 24.0361 76.7713 24.0723 77.0906 24.1124C77.4098 24.1525 77.7285 24.1966 78.0466 24.2445C78.3647 24.2926 78.6822 24.3445 78.9991 24.4002C79.3097 24.4571 79.6197 24.5179 79.9288 24.5825C80.2379 24.6471 80.5462 24.7154 80.8537 24.7876C81.1612 24.8596 81.4678 24.9354 81.7735 25.0151C82.0791 25.0947 82.3836 25.178 82.6872 25.2651C82.9908 25.3522 83.2932 25.443 83.5947 25.5375C83.896 25.632 84.1962 25.7301 84.4952 25.8319C84.7942 25.9338 85.0918 26.0393 85.3882 26.1484C85.6845 26.2575 85.9796 26.3702 86.2732 26.4865C86.5669 26.6029 86.859 26.7228 87.1496 26.8463C87.4404 26.9698 87.7295 27.0969 88.0171 27.2274C88.3047 27.358 88.5906 27.492 88.875 27.6297C89.1592 27.7672 89.4417 27.9082 89.7227 28.0527C90.0035 28.1972 90.2826 28.3451 90.5598 28.4965C90.837 28.6477 91.1123 28.8024 91.3857 28.9605C91.6591 29.1185 91.9306 29.2799 92.2002 29.4446C92.4697 29.6094 92.7371 29.7773 93.0025 29.9485C93.2679 30.1198 93.5311 30.2942 93.7922 30.4719C94.0534 30.6496 94.3123 30.8305 94.5689 31.0146C94.8257 31.1986 95.08 31.3858 95.3321 31.5761C95.5842 31.7662 95.834 31.9595 96.0814 32.1559C96.3287 32.3523 96.5736 32.5517 96.8162 32.7541C97.0587 32.9565 97.2987 33.1618 97.5362 33.3701C97.7736 33.5783 98.0085 33.7894 98.2408 34.0034C98.4732 34.2173 98.7028 34.4341 98.9297 34.6538C99.1568 34.8735 99.3811 35.0958 99.6026 35.3209C99.8241 35.546 100.043 35.7737 100.259 36.0042C100.475 36.2347 100.688 36.4678 100.898 36.7036C101.109 36.9392 101.316 37.1774 101.521 37.4183C101.725 37.659 101.926 37.9022 102.125 38.1478C102.323 38.3936 102.519 38.6417 102.711 38.8921C102.904 39.1426 103.093 39.3954 103.279 39.6505C103.466 39.9056 103.649 40.163 103.829 40.4226C104.008 40.6784 104.185 40.9364 104.358 41.1965C104.532 41.4567 104.702 41.719 104.869 41.9833C105.036 42.2477 105.199 42.514 105.36 42.7824C105.52 43.0507 105.677 43.3209 105.831 43.5932C105.984 43.8654 106.135 44.1395 106.282 44.4154C106.429 44.6913 106.573 44.969 106.713 45.2484C106.853 45.5279 106.99 45.809 107.123 46.0918C107.256 46.3746 107.386 46.659 107.512 46.945C107.639 47.231 107.761 47.5185 107.881 47.8075C108 48.0964 108.115 48.3868 108.228 48.6786C108.34 48.9705 108.448 49.2638 108.553 49.5583C108.658 49.8528 108.759 50.1485 108.857 50.4455C108.955 50.7424 109.049 51.0406 109.139 51.3399C109.229 51.6393 109.316 51.9396 109.399 52.241C109.482 52.5425 109.561 52.8449 109.637 53.1483C109.712 53.4517 109.784 53.7559 109.852 54.061C109.92 54.3662 109.985 54.6721 110.045 54.9788C110.106 55.2856 110.163 55.593 110.215 55.9011C110.268 56.2092 110.318 56.518 110.363 56.8273C110.409 57.1366 110.45 57.4464 110.488 57.7567C110.526 58.0671 110.56 58.3779 110.59 58.689C110.62 59.0002 110.647 59.3117 110.669 59.6235C110.692 59.9353 110.711 60.2475 110.725 60.5599C110.74 60.8721 110.751 61.1845 110.758 61.497C110.766 61.8097 110.769 62.1223 110.769 62.4349C110.768 62.7475 110.764 63.0601 110.756 63.3726C110.748 63.6852 110.736 63.9976 110.72 64.3098C110.704 64.622 110.684 64.9341 110.661 65.2458C110.637 65.5576 110.61 65.869 110.579 66.1801C110.548 66.4912 110.513 66.8019 110.474 67.1122C110.436 67.4223 110.393 67.732 110.347 68.0413C110.3 68.3504 110.25 68.659 110.196 68.967C108.074 80.7263 102.031 89.1164 92.3153 95.8581C92.0934 94.3367 91.66 92.8808 91.1512 91.4335C93.4306 89.5754 95.5959 87.674 97.5384 85.4555C97.8279 85.122 98.111 84.7833 98.3876 84.4393C98.6644 84.0951 98.9346 83.746 99.1981 83.3917C99.4616 83.0374 99.7183 82.6783 99.9683 82.3142C100.218 81.9503 100.461 81.5818 100.697 81.2086C100.934 80.8354 101.163 80.458 101.384 80.0763C101.606 79.6945 101.821 79.3086 102.028 78.9188C102.235 78.5289 102.435 78.1352 102.628 77.7377C102.82 77.3404 103.005 76.9394 103.182 76.535C103.36 76.1307 103.529 75.7231 103.691 75.3122C103.853 74.9015 104.007 74.4877 104.153 74.071C104.3 73.6544 104.438 73.2352 104.569 72.8134C104.699 72.3916 104.822 71.9674 104.936 71.5409C105.051 71.1145 105.157 70.686 105.256 70.2554C105.354 69.825 105.444 69.3928 105.526 68.9589C105.608 68.525 105.682 68.0897 105.748 67.653C105.813 67.2164 105.87 66.7786 105.919 66.3398C106.834 57.4684 104.569 48.4278 98.8784 41.4634C93.0535 34.3344 84.9423 29.3253 75.6742 28.409C75.3967 28.3808 75.119 28.356 74.8409 28.3346C74.5629 28.3131 74.2847 28.295 74.0062 28.2804C73.7277 28.2656 73.4492 28.2543 73.1705 28.2465C72.8918 28.2386 72.613 28.2341 72.334 28.2331C72.0552 28.232 71.7764 28.2343 71.4976 28.24C71.2188 28.2458 70.9401 28.2549 70.6615 28.2674C70.383 28.2799 70.1046 28.2958 69.8265 28.315C69.5483 28.3344 69.2704 28.357 68.9928 28.383C68.7151 28.4091 68.4378 28.4386 68.1609 28.4715C67.884 28.5042 67.6076 28.5404 67.3316 28.58C67.0556 28.6195 66.78 28.6624 66.5049 28.7088C66.2299 28.7551 65.9556 28.8046 65.6818 28.8575C65.4081 28.9105 65.135 28.9668 64.8626 29.0265C64.5902 29.0861 64.3186 29.149 64.0476 29.2152C63.7768 29.2815 63.5068 29.351 63.2376 29.4239C62.9684 29.4967 62.7002 29.5727 62.4329 29.6521C62.1655 29.7314 61.8992 29.814 61.6339 29.8999C61.3686 29.9857 61.1044 30.0748 60.8412 30.1671C60.5781 30.2594 60.3162 30.3548 60.0552 30.4535C59.7944 30.5522 59.5349 30.6541 59.2765 30.7591C59.0182 30.8641 58.7612 30.9722 58.5056 31.0835C58.2499 31.1948 57.9955 31.3092 57.7426 31.4267C57.4897 31.544 57.2383 31.6646 56.9884 31.7882C56.7384 31.9118 56.4899 32.0384 56.2431 32.168C55.9961 32.2977 55.7508 32.4303 55.5072 32.5659C55.2635 32.7016 55.0215 32.8402 54.7812 32.9817C54.541 33.1232 54.3025 33.2677 54.0658 33.415C53.8289 33.5623 53.594 33.7125 53.3608 33.8655C53.1278 34.0187 52.8967 34.1746 52.6674 34.3333C52.4381 34.4919 52.2107 34.6534 51.9852 34.8177C51.7598 34.9819 51.5365 35.1488 51.3152 35.3185C51.094 35.4882 50.8748 35.6606 50.6577 35.8356C43.74 41.5183 39.0036 49.8793 38.1331 58.8337C38.1025 59.1257 38.0755 59.4181 38.0521 59.711C38.0288 60.0037 38.0091 60.2966 37.9929 60.5897C37.9768 60.883 37.9643 61.1764 37.9554 61.4699C37.9465 61.7635 37.9413 62.0571 37.9397 62.3507C37.9381 62.6443 37.9402 62.9379 37.9458 63.2316C37.9514 63.5252 37.9607 63.8187 37.9736 64.1121C37.9865 64.4055 38.0029 64.6986 38.0231 64.9916C38.0432 65.2845 38.067 65.5771 38.0943 65.8695C38.1218 66.1619 38.1527 66.4539 38.1873 66.7456C38.2219 67.0371 38.2601 67.3283 38.3019 67.6189C38.3436 67.9096 38.389 68.1997 38.4381 68.4893C38.487 68.7788 38.5395 69.0677 38.5955 69.3559C38.6517 69.6442 38.7114 69.9317 38.7746 70.2185C38.8377 70.5052 38.9044 70.7912 38.9748 71.0763C39.0451 71.3615 39.1189 71.6457 39.1962 71.9289C39.2735 72.2123 39.3543 72.4946 39.4385 72.7758C39.5228 73.0571 39.6105 73.3373 39.7017 73.6164C39.7929 73.8956 39.8875 74.1736 39.9855 74.4503C40.0836 74.7271 40.1851 75.0027 40.29 75.2769C40.3949 75.5513 40.5031 75.8242 40.6149 76.0958C40.7265 76.3674 40.8414 76.6376 40.9597 76.9064C41.078 77.1751 41.1997 77.4424 41.3245 77.7082C41.4494 77.974 41.5776 78.2381 41.709 78.5007C41.8405 78.7632 41.9752 79.0241 42.113 79.2834C42.251 79.5427 42.3921 79.8002 42.5363 80.056C42.6805 80.3118 42.8279 80.5657 42.9785 80.8178C43.129 81.0699 43.2826 81.3201 43.4392 81.5685C43.596 81.8168 43.7557 82.0632 43.9185 82.3075C44.0813 82.5519 44.2472 82.7943 44.4161 83.0345C44.5848 83.2748 44.7565 83.513 44.9311 83.749C45.1059 83.985 45.2835 84.2188 45.4639 84.4504C45.6444 84.6821 45.8277 84.9115 46.0138 85.1386C47.9476 87.4713 50.3805 89.5631 52.825 91.3441C52.3538 92.8304 51.8853 94.3535 51.7006 95.9074Z" fill="#001F50"/>
</svg>
