<svg width="145" height="145" viewBox="0 0 145 145" fill="none" xmlns="http://www.w3.org/2000/svg">
<path d="M44.8545 73.224C45.8294 73.1785 46.8151 73.2057 47.7913 73.2068L47.8063 80.2528C47.8141 81.717 47.9078 83.1997 47.7889 84.6603L46.9921 84.6849C46.3726 84.7229 45.6875 84.806 45.0761 84.6813C44.785 84.6218 44.432 84.4979 44.2763 84.225C43.9157 83.5925 43.9702 74.8943 44.2146 73.8966C44.3051 73.527 44.5491 73.3993 44.8545 73.224Z" fill="#001F50"/>
<path d="M99.1846 96.4946C105.245 96.4251 111.316 96.5031 117.378 96.5041C117.348 97.4101 117.338 98.3172 117.32 99.2234C116.528 99.2937 115.716 99.2458 114.92 99.2423L111.062 99.2399C107.126 99.2652 103.19 99.2459 99.2538 99.1819C99.1799 98.2907 99.1948 97.3886 99.1846 96.4946Z" fill="#001F50"/>
<path d="M80.1931 95.5508C80.6381 95.956 81.1936 97.5001 81.5462 98.1129C82.2815 99.3912 83.2552 100.521 83.8935 101.86C84.197 102.496 84.4224 103.171 84.4792 103.877C84.576 105.08 84.2138 106.227 83.42 107.142C82.5592 108.135 81.468 108.494 80.1902 108.586C79.4571 108.529 78.7936 108.434 78.1337 108.088C77.1019 107.549 76.287 106.469 75.9685 105.355C75.9405 105.256 75.916 105.157 75.895 105.057C75.8741 104.957 75.8567 104.856 75.8429 104.755C75.8291 104.654 75.819 104.552 75.8125 104.45C75.8059 104.348 75.8031 104.246 75.8038 104.144C75.8047 104.041 75.8091 103.939 75.8171 103.837C75.8253 103.735 75.837 103.634 75.8523 103.533C75.8675 103.432 75.8865 103.331 75.909 103.231C75.9315 103.132 75.9575 103.033 75.9871 102.935C76.3838 101.597 77.3142 100.434 78.0341 99.2558C78.7844 98.0387 79.5041 96.8037 80.1931 95.5508ZM79.3961 99.0322C78.2456 100.617 76.601 102.659 76.944 104.76C77.0889 105.647 77.6346 106.437 78.3617 106.955C78.9696 107.387 79.8136 107.647 80.5588 107.513C80.6683 107.493 80.7771 107.469 80.8852 107.443C81.5231 107.133 82.0922 106.732 82.6698 106.324C81.7754 106.505 80.8729 106.455 80.0876 105.944C79.3348 105.454 78.8876 104.633 78.7194 103.767C78.334 101.781 79.5321 99.8797 79.3961 99.0322Z" fill="#FEB81D"/>
<path d="M101.421 100.359L115.312 100.338C115.324 101.097 115.323 101.856 115.308 102.615C115.259 104.543 114.782 105.727 113.385 107.053C113.268 107.143 113.148 107.229 113.025 107.311C111.18 108.552 107.67 108.575 105.551 108.157C103.985 107.849 102.552 106.949 101.674 105.603C100.884 104.392 100.731 103.042 100.716 101.628C100.713 101.255 100.679 100.845 100.757 100.481C100.967 100.344 101.175 100.371 101.421 100.359Z" fill="#001F50"/>
<path d="M50.1878 70.9034C52.1241 70.9149 54.0604 70.9147 55.9967 70.9028L55.9871 86.92C55.4678 86.9153 54.9474 86.9297 54.4282 86.9359C53.2015 86.9539 50.0803 87.1577 49.1035 86.7312C48.9095 86.6464 48.8045 86.5092 48.7374 86.3113C48.6694 86.1104 48.6443 85.8911 48.6351 85.6802C48.6101 85.0973 48.652 84.4994 48.6522 83.914L48.6506 79.5851C48.6483 77.2139 48.546 74.8066 48.6537 72.4409C48.669 72.1043 48.6726 71.5579 48.8659 71.2777C49.1245 70.9031 49.7832 70.9173 50.1878 70.9034Z" fill="#001F50"/>
<path d="M63.1755 56.1596C63.389 56.1425 63.616 56.1459 63.8287 56.1701C64.7617 56.2765 65.4478 56.9316 66.0058 57.6278C68.7096 57.6443 71.4135 57.6466 74.1173 57.6347C74.3491 57.2934 74.6362 56.9635 74.9802 56.7317C75.4825 56.3934 76.0842 56.2412 76.6814 56.3753C77.4101 56.5387 77.8405 57.0271 78.216 57.6306C81.1301 57.6512 84.0442 57.6428 86.958 57.6054C87.025 57.5206 87.0939 57.4375 87.1649 57.356C87.7189 56.7253 88.4817 56.225 89.3398 56.1824C90.0962 56.1448 90.8259 56.4506 91.3746 56.9638C91.9635 57.5146 92.3242 58.3166 92.3186 59.1256C92.3137 59.8621 92.0428 60.6272 91.4925 61.1321C90.9117 61.6654 90.0403 61.9 89.2637 61.8333C88.2564 61.7469 87.6261 61.1335 87.0201 60.3949C83.8557 60.3383 80.6913 60.3356 77.5268 60.3869L77.5294 63.2869C78.3614 63.2587 79.9986 63.0355 80.6358 63.6795C81.1511 64.2005 80.92 66.8328 80.918 67.6111C81.971 67.6124 83.0238 67.6214 84.0766 67.638C84.2621 67.7969 84.4251 67.9893 84.5916 68.1683L84.6035 71.0207C89.738 71.0584 94.8722 71.0428 100.006 70.9741C104.606 70.9233 107.702 71.6336 111.085 74.9807C113.584 77.4545 115.144 80.6352 115.451 84.146C115.579 85.611 115.517 87.0806 115.517 88.5489L115.53 95.5172C110.825 95.5731 106.119 95.5781 101.413 95.5321C101.324 94.8422 101.38 94.0771 101.381 93.38C101.379 91.9498 101.388 90.5198 101.406 89.0898C101.414 88.286 101.476 87.4335 101.299 86.6443C101.196 86.1835 100.996 85.7631 100.661 85.4261C100.615 85.3793 100.567 85.3343 100.518 85.291C100.468 85.2478 100.417 85.2064 100.364 85.167C100.311 85.1276 100.257 85.0903 100.202 85.055C100.147 85.0197 100.09 84.9865 100.032 84.9556C99.9739 84.9245 99.9148 84.8957 99.8547 84.8692C99.7945 84.8426 99.7334 84.8183 99.6714 84.7964C99.6094 84.7744 99.5467 84.7548 99.4833 84.7377C99.4198 84.7204 99.3558 84.7056 99.2912 84.6932C97.9616 84.4274 96.4499 84.6201 95.094 84.6317L88.2646 84.6408C87.1842 86.0468 86.1149 87.5094 84.7129 88.616C81.9071 90.8305 78.1402 91.8298 74.6036 91.3936C69.9225 90.8163 66.3459 88.401 63.4979 84.7425C61.9014 84.6802 60.3044 84.6573 58.7068 84.6739C58.6903 85.2273 58.7514 86.0585 58.3697 86.5078C57.9987 86.9444 57.3824 86.9185 56.8613 86.9447L56.8649 70.8613C57.204 70.8776 57.5818 70.8726 57.9123 70.9476C58.3086 71.0376 58.4807 71.2729 58.6948 71.598C58.7288 72.1239 58.7176 72.659 58.7244 73.1864C60.408 73.2507 62.074 73.2388 63.7577 73.1885C64.9071 72.063 66.0194 71.3902 67.5661 70.9492C67.5327 70.3313 67.4923 69.7099 67.499 69.091C67.5035 68.6626 67.5409 68.1323 67.8826 67.8265C68.4901 67.283 70.5699 67.5482 71.4119 67.5673L71.402 67.2749C71.3752 66.4062 71.0975 64.3577 71.749 63.7195C72.3979 63.0838 73.8119 63.2877 74.6539 63.3112C74.6823 62.3302 74.6689 61.3462 74.6686 60.3646C71.7296 60.2413 68.7889 60.2952 65.8486 60.3305C65.3808 60.8532 64.8784 61.302 64.1906 61.5115C64.1113 61.536 64.031 61.5565 63.9496 61.5729C63.8681 61.5893 63.7861 61.6017 63.7035 61.6099C63.6209 61.618 63.5381 61.622 63.455 61.6218C63.3719 61.6216 63.2891 61.6172 63.2065 61.6087C63.1239 61.6001 63.042 61.5875 62.9607 61.5706C62.8794 61.5537 62.7992 61.5328 62.72 61.5079C62.6407 61.483 62.563 61.4542 62.4866 61.4214C62.4103 61.3886 62.3359 61.3521 62.2633 61.3118C61.5568 60.9244 61.017 60.2018 60.8252 59.4213C60.6514 58.714 60.7572 57.9356 61.1629 57.3246C61.6344 56.6145 62.3742 56.3216 63.1755 56.1596ZM93.6719 73.6681C92.4442 73.6736 91.2137 73.661 89.9865 73.6882L89.9858 76.3223L96.6791 76.3184C100.638 76.2897 104.115 75.791 107.196 78.8676C109.774 81.4416 109.991 84.4006 109.982 87.8554L109.968 92.5616L109.971 93.6782L112.635 93.6857L112.626 87.9703C112.592 83.6759 112.374 80.3275 109.178 77.113C106.613 74.5331 103.599 73.6182 100.033 73.6269C97.9128 73.6512 95.7924 73.665 93.6719 73.6681ZM85.9286 75.9116C85.6029 76.0799 85.4166 76.2062 85.2958 76.5637C84.9678 77.5351 84.9345 78.6076 84.6777 79.6026C83.855 82.7901 81.6937 85.2796 78.7971 86.79C76.329 88.0772 73.3777 88.6157 70.6089 88.5145C71.2085 88.7096 71.8045 88.8818 72.4293 88.9759C76.0169 89.5494 79.3028 89.2581 82.3328 87.0594C82.4095 87.0037 82.4855 86.947 82.5609 86.8894C82.6362 86.8318 82.7108 86.7733 82.7847 86.7138C82.8586 86.6544 82.9317 86.594 83.0041 86.5327C83.0765 86.4715 83.1481 86.4093 83.2189 86.3462C83.2897 86.2832 83.3598 86.2193 83.429 86.1545C83.4982 86.0898 83.5666 86.0241 83.6342 85.9576C83.7019 85.8911 83.7687 85.8238 83.8346 85.7556C83.9005 85.6875 83.9656 85.6185 84.0299 85.5487C84.094 85.4789 84.1574 85.4083 84.2199 85.3371C84.2823 85.2657 84.3438 85.1936 84.4045 85.1207C84.4651 85.0477 84.5249 84.9741 84.5838 84.8998C84.6426 84.8254 84.7005 84.7503 84.7574 84.6745C84.8144 84.5987 84.8705 84.5222 84.9255 84.445C84.9805 84.3677 85.0346 84.2899 85.0878 84.2113C85.1409 84.1328 85.1931 84.0536 85.2442 83.9737C85.2953 83.8939 85.3454 83.8134 85.3946 83.7323C85.4438 83.6512 85.4919 83.5695 85.539 83.4872C85.5861 83.4049 85.6322 83.322 85.6772 83.2385C85.7223 83.1551 85.7663 83.0711 85.8092 82.9866C85.8522 82.902 85.8941 82.817 85.935 82.7314C85.9758 82.6458 86.0156 82.5597 86.0543 82.4732C86.093 82.3866 86.1307 82.2996 86.1672 82.2121C86.2037 82.1245 86.2392 82.0366 86.2735 81.9482C86.3079 81.8598 86.3411 81.771 86.3732 81.6818C86.4053 81.5925 86.4363 81.503 86.4663 81.413C86.4962 81.323 86.525 81.2327 86.5526 81.142C86.5803 81.0512 86.6068 80.9602 86.6322 80.8688C86.6576 80.7774 86.6819 80.6858 86.705 80.5938C86.7281 80.5019 86.7501 80.4096 86.7708 80.3171C86.7917 80.2246 86.8114 80.1318 86.8299 80.0387C86.8484 79.9458 86.8658 79.8526 86.882 79.7592C86.8981 79.6658 86.9131 79.5721 86.927 79.4783C87.0433 78.716 87.3517 76.8832 86.8675 76.2283C86.7023 76.0047 86.5097 75.9625 86.2468 75.9366C86.1409 75.9265 86.0348 75.9181 85.9286 75.9116Z" fill="#001F50"/>
<path d="M72.3822 21.7056C73.6669 22.6832 74.7796 23.8932 75.9609 24.9916L82.5391 31.0469L97.0401 44.4033C101.082 48.1457 106.097 52.3344 109.175 56.8616C112.545 61.8182 114.428 67.2591 115.683 73.0693C113.231 70.2498 109.768 68.2244 106.265 67.0218C105.244 66.6714 104.187 66.4481 103.158 66.126C102.559 65.3196 102.139 64.4076 101.62 63.5512C101.09 62.6756 100.476 61.8319 99.8704 61.0069C99.7374 60.8257 99.6026 60.6458 99.4659 60.4673C99.3293 60.2887 99.1909 60.1115 99.0507 59.9357C98.9105 59.76 98.7686 59.5856 98.6249 59.4126C98.4813 59.2397 98.336 59.0682 98.1889 58.8981C98.0418 58.7281 97.8931 58.5595 97.7427 58.3923C97.5923 58.2252 97.4402 58.0596 97.2865 57.8955C97.1328 57.7315 96.9775 57.569 96.8205 57.408C96.6635 57.247 96.5049 57.0876 96.3448 56.9298C96.1847 56.772 96.023 56.6158 95.8597 56.4613C95.6965 56.3066 95.5317 56.1536 95.3654 56.0023C95.1991 55.851 95.0314 55.7014 94.8621 55.5534C94.6928 55.4054 94.522 55.2591 94.3498 55.1146C94.1776 54.97 94.004 54.8272 93.829 54.6861C93.654 54.545 93.4775 54.4056 93.2997 54.268C93.1219 54.1304 92.9428 53.9946 92.7622 53.8606C92.5817 53.7265 92.3999 53.5943 92.2167 53.464C92.0336 53.3336 91.8491 53.205 91.6633 53.0782C91.4777 52.9516 91.2907 52.8267 91.1025 52.7037C90.9143 52.5807 90.725 52.4596 90.5344 52.3404C90.3437 52.2211 90.1518 52.1038 89.9589 51.9885C89.7659 51.873 89.5718 51.7596 89.3766 51.6481C89.1814 51.5365 88.9851 51.4269 88.7877 51.3193C88.5903 51.2117 88.3919 51.106 88.1924 51.0024C87.9928 50.8987 87.7923 50.797 87.5909 50.6974C87.3893 50.5977 87.1868 50.5 86.9833 50.4044C86.7798 50.3088 86.5755 50.2152 86.3701 50.1236C86.1647 50.032 85.9585 49.9425 85.7513 49.8551C85.5442 49.7676 85.3363 49.6822 85.1274 49.599C84.9186 49.5156 84.709 49.4344 84.4986 49.3553C84.2881 49.2761 84.0769 49.1991 83.8649 49.1242C83.6529 49.0492 83.4402 48.9764 83.2267 48.9057C83.0133 48.8351 82.7992 48.7665 82.5844 48.7001C82.3176 48.6161 82.0498 48.5354 81.781 48.4581C81.5121 48.3808 81.2424 48.3068 80.9717 48.2362C80.7011 48.1656 80.4296 48.0983 80.1572 48.0344C79.885 47.9705 79.6119 47.91 79.3381 47.8529C79.0642 47.7958 78.7897 47.742 78.5145 47.6917C78.2394 47.6414 77.9637 47.5945 77.6874 47.551C77.411 47.5074 77.1342 47.4674 76.8569 47.4309C76.5796 47.3943 76.3018 47.3611 76.0237 47.3313C75.7456 47.3016 75.4671 47.2754 75.1883 47.2526C74.9095 47.2298 74.6305 47.2104 74.3513 47.1946C74.0719 47.1786 73.7925 47.1661 73.513 47.1572C73.2334 47.1482 72.9537 47.1427 72.674 47.1407C72.3943 47.1388 72.1146 47.1402 71.8349 47.1451C71.5553 47.15 71.2757 47.1584 70.9962 47.1702C70.7167 47.1821 70.4375 47.1974 70.1583 47.2162C69.8793 47.235 69.6005 47.2572 69.3219 47.2829C69.0434 47.3086 68.7652 47.3378 68.4874 47.3704C68.2096 47.403 67.9322 47.439 67.6552 47.4785C67.3783 47.5179 67.102 47.5608 66.8261 47.6072C66.5503 47.6535 66.2751 47.7033 66.0005 47.7564C65.7259 47.8097 65.4519 47.8663 65.1786 47.9262C64.9054 47.9862 64.633 48.0495 64.3613 48.1162C64.0897 48.1829 63.819 48.2529 63.5491 48.3264C63.2791 48.3998 63.0101 48.4766 62.7421 48.5568C62.4741 48.6368 62.2071 48.7202 61.9412 48.807C61.6752 48.8937 61.4105 48.9837 61.1468 49.077C60.883 49.1704 60.6205 49.2669 60.3592 49.3667C60.0979 49.4665 59.8379 49.5695 59.5791 49.6758C59.3204 49.7821 59.063 49.8916 58.807 50.0042C58.5509 50.1168 58.2964 50.2326 58.0432 50.3516C57.79 50.4706 57.5384 50.5927 57.2883 50.7179C57.0381 50.8431 56.7896 50.9714 56.5426 51.1028C56.3065 51.2299 56.072 51.3599 55.8391 51.4926C55.6062 51.6253 55.3748 51.7609 55.1451 51.8993C54.9155 52.0376 54.6874 52.1786 54.4611 52.3224C54.2348 52.4662 54.0103 52.6127 53.7875 52.7619C53.5647 52.9111 53.3437 53.0629 53.1246 53.2174C52.9055 53.3719 52.6883 53.529 52.4728 53.6887C52.2575 53.8484 52.0441 54.0107 51.8327 54.1755C51.6212 54.3403 51.4117 54.5077 51.2042 54.6775C50.9967 54.8474 50.7914 55.0197 50.5881 55.1945C50.3848 55.3693 50.1836 55.5466 49.9846 55.7262C49.7855 55.9058 49.5887 56.0878 49.394 56.2722C49.1993 56.4566 49.0068 56.6432 48.8166 56.8321C48.6264 57.0211 48.4385 57.2123 48.2528 57.4059C48.0672 57.5994 47.884 57.7951 47.7031 57.993C47.5223 58.1908 47.3438 58.3909 47.1676 58.5931C46.9915 58.7953 46.8179 58.9996 46.6466 59.2059C46.4755 59.4123 46.3068 59.6206 46.1406 59.8309C45.9744 60.0414 45.8108 60.2538 45.6496 60.4682C45.4886 60.6824 45.3301 60.8987 45.1741 61.1168C45.0183 61.335 44.865 61.5549 44.7144 61.7767C44.5638 61.9985 44.4159 62.2222 44.2706 62.4476C44.1253 62.6729 43.9827 62.9 43.8429 63.1288C43.7032 63.3576 43.5662 63.588 43.4319 63.8201C43.2976 64.0522 43.1662 64.2858 43.0375 64.5211C42.9089 64.7563 42.7831 64.9931 42.6601 65.2313C42.5372 65.4696 42.4172 65.7093 42.2999 65.9505C42.1827 66.1916 42.0684 66.4342 41.9571 66.6781C41.8457 66.9219 41.7372 67.1671 41.6317 67.4137C41.5262 67.6602 41.4237 67.9079 41.3241 68.1568C41.2246 68.4058 41.1281 68.6559 41.0346 68.9072C40.941 69.1585 40.8505 69.4109 40.7631 69.6643C40.6756 69.9178 40.5912 70.1722 40.5098 70.4277C37.969 78.6782 38.5207 88.0122 42.6019 95.6853C42.7067 95.8792 42.8134 96.072 42.922 96.2638C43.0305 96.4556 43.1409 96.6463 43.2532 96.8358C43.3654 97.0255 43.4795 97.214 43.5954 97.4015C43.7113 97.5889 43.8291 97.7752 43.9486 97.9603C44.0681 98.1454 44.1894 98.3293 44.3126 98.5121C44.4357 98.6949 44.5606 98.8764 44.6872 99.0568C44.8139 99.2372 44.9422 99.4162 45.0723 99.5941C45.2024 99.7719 45.3342 99.9485 45.4678 100.124C45.6014 100.299 45.7366 100.473 45.8735 100.646C46.0105 100.818 46.1491 100.99 46.2894 101.16C46.4296 101.33 46.5715 101.498 46.715 101.665C46.8585 101.833 47.0037 101.999 47.1505 102.163C47.2973 102.327 47.4456 102.49 47.5955 102.652C47.7454 102.813 47.8969 102.973 48.0499 103.132C48.2029 103.29 48.3575 103.447 48.5137 103.603C48.6697 103.759 48.8273 103.913 48.9863 104.065C49.1454 104.218 49.306 104.369 49.4681 104.518C49.6301 104.667 49.7935 104.815 49.9584 104.961C50.1232 105.107 50.2895 105.252 50.4573 105.395C50.6249 105.538 50.794 105.679 50.9644 105.819C51.1349 105.959 51.3067 106.097 51.4798 106.233C51.6529 106.369 51.8273 106.504 52.003 106.637C52.1788 106.77 52.3558 106.901 52.5342 107.031C52.7124 107.16 52.8919 107.288 53.0727 107.414C53.2534 107.54 53.4355 107.664 53.6187 107.787C53.8018 107.909 53.9862 108.03 54.1718 108.149C54.3573 108.268 54.5439 108.385 54.7317 108.5C54.9195 108.616 55.1085 108.729 55.2985 108.841C55.4885 108.952 55.6796 109.062 55.8717 109.17C56.0638 109.278 56.257 109.384 56.4513 109.488C56.6455 109.592 56.8406 109.694 57.0368 109.795C57.233 109.895 57.4301 109.994 57.6283 110.09C59.4481 110.962 61.3592 111.612 63.2864 112.199C65.6933 112.768 68.0534 113.282 70.528 113.455C80.0769 114.122 89.3656 110.713 96.5424 104.463C96.6647 105.944 96.8251 107.275 97.6299 108.566C98.7618 110.383 100.591 111.146 102.597 111.62C94.583 119.179 83.6052 123.203 72.6237 123.188C72.2582 123.189 71.8927 123.185 71.5273 123.177C71.1619 123.168 70.7967 123.155 70.4316 123.138C70.0665 123.12 69.7017 123.098 69.3372 123.071C68.9726 123.045 68.6084 123.014 68.2447 122.978C67.8809 122.943 67.5176 122.903 67.1548 122.858C66.792 122.813 66.4298 122.764 66.0683 122.711C65.7067 122.657 65.3459 122.599 64.9859 122.536C64.6258 122.474 64.2665 122.406 63.908 122.335C63.5496 122.263 63.1921 122.187 62.8355 122.107C62.479 122.027 62.1235 121.942 61.769 121.853C61.4145 121.763 61.0612 121.67 60.7091 121.572C60.357 121.474 60.0061 121.371 59.6566 121.265C59.307 121.158 58.9588 121.047 58.612 120.931C58.2652 120.816 57.9198 120.696 57.576 120.572C57.2321 120.448 56.8899 120.32 56.5493 120.188C56.2086 120.055 55.8696 119.918 55.5323 119.778C55.1951 119.637 54.8596 119.492 54.5259 119.342C54.1923 119.193 53.8606 119.04 53.5308 118.882C53.2008 118.725 52.873 118.563 52.5472 118.398C52.2213 118.232 51.8976 118.062 51.5759 117.889C51.2543 117.715 50.9349 117.537 50.6177 117.356C50.3005 117.174 49.9857 116.989 49.6731 116.799C49.3604 116.61 49.0502 116.417 48.7425 116.22C48.4347 116.022 48.1294 115.821 47.8266 115.617C47.5238 115.412 47.2235 115.204 46.9259 114.991C46.6282 114.779 46.3333 114.563 46.041 114.344C45.7488 114.124 45.4593 113.901 45.1726 113.675C44.8859 113.448 44.602 113.218 44.321 112.984C44.04 112.75 43.762 112.513 43.4868 112.272C43.2117 112.032 42.9397 111.788 42.6706 111.54C42.4016 111.293 42.1356 111.042 41.8728 110.788C41.61 110.534 41.3504 110.277 41.094 110.016C40.8571 109.777 40.6231 109.536 40.392 109.291C40.1609 109.046 39.9328 108.799 39.7079 108.548C39.4828 108.298 39.2609 108.045 39.0421 107.79C38.8233 107.534 38.6076 107.275 38.3951 107.015C38.1826 106.754 37.9734 106.49 37.7674 106.224C37.5613 105.958 37.3585 105.689 37.1591 105.418C36.9596 105.147 36.7634 104.874 36.5706 104.598C36.3778 104.322 36.1884 104.044 36.0025 103.764C35.8165 103.483 35.634 103.2 35.4549 102.915C35.2758 102.63 35.1002 102.343 34.9281 102.054C34.7561 101.765 34.5877 101.474 34.4228 101.18C34.2578 100.887 34.0965 100.592 33.9388 100.294C33.7811 99.997 33.6271 99.6979 33.4767 99.3968C33.3263 99.0957 33.1796 98.7928 33.0366 98.4882C32.8937 98.1835 32.7544 97.8772 32.6189 97.5692C32.4834 97.2611 32.3517 96.9514 32.2238 96.6401C32.096 96.3288 31.972 96.016 31.8517 95.7017C31.7314 95.3874 31.615 95.0717 31.5025 94.7546C31.39 94.4374 31.2813 94.1189 31.1765 93.799C31.0718 93.4792 30.9711 93.1581 30.8742 92.8359C30.7773 92.5136 30.6843 92.1902 30.5954 91.8656C30.5064 91.5411 30.4214 91.2155 30.3404 90.8888C30.2594 90.5621 30.1824 90.2345 30.1094 89.906C30.0365 89.5775 29.9675 89.2481 29.9025 88.9179C29.8376 88.5877 29.7767 88.2568 29.7199 87.9251C29.6631 87.5934 29.6103 87.2611 29.5616 86.9281C29.5129 86.5951 29.4682 86.2615 29.4276 85.9274C29.3871 85.5933 29.3507 85.2588 29.3183 84.9239C29.2859 84.5888 29.2576 84.2535 29.2335 83.9179C29.2093 83.5822 29.1893 83.2463 29.1733 82.9102C29.1573 82.574 29.1455 82.2377 29.1378 81.9012C29.1301 81.5648 29.1265 81.2283 29.127 80.8918C29.1724 72.4156 31.1587 64.7961 35.5938 57.5546C36.0096 56.865 36.4448 56.1878 36.8992 55.5231C37.3537 54.8584 37.8268 54.2071 38.3185 53.5695C38.8101 52.9318 39.3196 52.3086 39.8468 51.7C40.3741 51.0915 40.9183 50.4985 41.4795 49.921C42.8465 48.5286 44.4442 47.398 45.9432 46.1569C47.1711 45.1402 48.3158 44.019 49.4798 42.9304L64.4016 29.0943C67.0647 26.6371 69.8054 24.2541 72.3822 21.7056ZM73.2751 26.1836C69.7397 28.1217 67.2229 32.4635 66.1387 36.2258C65.4965 38.4539 65.3497 40.8 66.5275 42.8791C66.5821 42.9769 66.639 43.0732 66.6984 43.1681C66.7578 43.263 66.8195 43.3563 66.8836 43.4481C66.9477 43.5399 67.0141 43.63 67.0827 43.7184C67.1515 43.8068 67.2223 43.8935 67.2953 43.9784C67.3683 44.0632 67.4435 44.1462 67.5207 44.2272C67.5979 44.3082 67.6771 44.3873 67.7583 44.4643C67.8395 44.5415 67.9226 44.6164 68.0075 44.6892C68.0926 44.7621 68.1794 44.8328 68.2679 44.9013C68.3565 44.9698 68.4467 45.0359 68.5385 45.0998C68.6305 45.1638 68.7239 45.2254 68.8189 45.2846C68.914 45.3438 69.0104 45.4006 69.1083 45.455C69.2061 45.5093 69.3053 45.5611 69.4058 45.6105C69.5063 45.6598 69.608 45.7066 69.7109 45.7508C69.8137 45.795 69.9175 45.8365 70.0225 45.8755C70.1275 45.9144 70.2334 45.9507 70.3401 45.9843C70.4469 46.0179 70.5545 46.0488 70.6628 46.077C71.0159 46.1711 71.3714 46.23 71.7348 46.2679C73.7871 46.3321 75.6492 45.7725 77.1631 44.3336C78.2862 43.266 79.0448 41.7396 79.0741 40.1761C79.0934 39.1524 78.7721 38.1328 78.0421 37.3988C77.4444 36.7977 76.671 36.38 76.0464 35.8033C74.2391 34.1344 73.383 31.4109 73.3351 29.0043C73.3257 28.5251 73.6162 26.5111 73.315 26.2139C73.3031 26.2021 73.2884 26.1938 73.2751 26.1836Z" fill="#FEB81D"/>
</svg>
