<svg width="395" height="427" viewBox="0 0 395 427" fill="none" xmlns="http://www.w3.org/2000/svg">
<g clip-path="url(#clip0_17_172)">
<path d="M281.243 55.2715C279.248 52.7964 277.185 50.3491 274.981 48.0576C255.253 27.5421 225.527 16.9228 197.367 16.3576C178.773 15.9839 158.452 19.6809 142.191 28.8911C132.928 34.1372 124.721 41.071 117.066 48.4128C114.976 50.7231 112.965 53.0986 111.03 55.5395C108.363 59.5037 105.8 63.5341 103.342 67.6307C86.3428 98.8641 81.6613 136.893 84.7135 171.956C85.5053 181.057 87.5084 189.931 88.5532 198.972C85.3109 208.073 82.4474 218.697 82.9005 228.39C83.112 232.925 85.298 237.327 86.475 241.672C88.8004 250.257 91.0094 258.823 93.5406 267.357C96.4627 277.21 99.6893 286.968 102.332 296.903C94.0959 298.876 85.8119 301.045 77.4792 302.56C73.5266 303.644 69.5461 304.659 65.6985 306.081C59.4991 308.66 55.3399 311.453 50.8099 316.384L50.5505 316.789C49.4621 318.456 47.8406 319.81 46.6457 321.424C43.1012 326.213 39.9582 332.13 37.7464 337.663C32.7711 350.112 30.5543 364.146 28.4312 377.304C26.3623 390.118 24.57 402.896 22.7827 415.748C21.8416 422.517 19.8656 429.221 20.0257 436.083L20.3644 436.4C18.7101 439.263 18.442 449.184 18.0333 453.083C15.4556 477.707 11.3801 512.437 17.7167 536.478C19.3918 542.836 21.7122 549.152 26.4817 553.854H65.5099H79.7389H288.632H306.455H367.625H418V425.891L379.148 425.94C371.594 425.945 363.875 426.264 356.343 425.798C355.662 424.968 355.656 424.094 355.476 423.059C355.532 420.066 355.18 417.003 354.982 414.014C354.384 411.035 354.314 407.666 353.972 404.622C353.003 395.99 349.765 360.709 344.993 354.858C347.366 345.871 349.045 337.461 348.177 328.1C347.038 315.817 340.537 306.171 331.266 298.391C331.908 297.939 332.54 297.474 333.163 296.996C333.785 296.517 334.397 296.025 334.998 295.52C335.6 295.015 336.19 294.497 336.769 293.967C337.349 293.436 337.916 292.894 338.472 292.34C339.028 291.785 339.572 291.219 340.104 290.641C340.635 290.063 341.154 289.474 341.661 288.874C342.167 288.274 342.661 287.663 343.141 287.042C343.621 286.421 344.088 285.79 344.541 285.148C344.994 284.507 345.433 283.856 345.859 283.197C346.284 282.536 346.694 281.867 347.091 281.189C347.488 280.512 347.87 279.826 348.237 279.132C348.604 278.438 348.957 277.737 349.294 277.027C349.631 276.319 349.953 275.603 350.259 274.879C350.566 274.156 350.857 273.427 351.132 272.692C351.407 271.957 351.667 271.216 351.91 270.469C352.154 269.723 352.381 268.972 352.592 268.215C359.605 243.888 351.55 222.542 331.607 207.548C324.338 202.083 314.121 197.91 310.388 189.035C307.554 182.3 309.119 168.296 309.21 160.664C309.237 152.611 308.987 144.567 308.46 136.532C306.988 111.517 302.806 90.9422 290.482 68.7782C287.657 64.1009 284.434 59.7016 281.243 55.2715Z" fill="#FEAA81"/>
<path d="M117.05 203.869C115.681 203.672 114.21 203.676 112.876 204.071C105.659 206.206 99.1012 215.658 95.9253 222.017C95.295 223.279 94.3417 225.224 94.7984 226.646C96.5514 226.235 101.529 218.663 103.116 216.616C104.565 214.704 106.204 212.803 108.07 211.287C114.504 206.058 122.898 208.202 130.397 209.062C131.982 209.243 134.469 209.777 135.741 208.766C135.776 208.193 135.93 207.948 135.537 207.47C134.216 205.866 119.838 204.269 117.05 203.869Z" fill="#2A4897"/>
<path d="M182.347 162.556C182.242 165.149 182.925 168.015 182.285 170.53C180.586 177.214 171.937 182.377 172.327 189.686C172.447 191.908 173.702 193.768 175.386 195.149C178.099 197.373 181.397 197.102 184.666 196.87C186.365 196.297 188.81 195.742 190.06 194.419C190.567 193.882 190.435 193.914 190.432 193.244C188.194 191.098 184.507 191.736 181.865 190.508C176.662 188.089 183.344 176.144 183.789 171.394C184.095 168.133 183.375 165.59 182.347 162.556Z" fill="#B36948"/>
<path d="M266.934 146.25C266.046 149.557 265.194 152.877 264.171 156.145C267.168 161.174 264.396 170.722 264.998 175.468C265.109 176.345 265.216 176.426 265.88 176.921C266.941 176.878 267.571 176.345 268.326 175.655C272.231 172.086 273.589 167.637 273.819 162.503C274.132 155.509 271.49 151.241 266.934 146.25Z" fill="#B36948"/>
<path d="M223.777 120.997C220.468 120.729 216.773 120.696 213.495 121.284C211.007 121.73 206.578 122.312 205.078 124.419C204.914 125.552 204.912 125.757 205.333 126.817C208.518 129.838 215.904 127.77 219.938 127.686C223.368 127.615 226.459 127.873 229.797 128.664C232.644 129.374 242.173 134.395 243.989 133.694C244.806 133.378 245.238 132.783 245.34 131.93C245.494 130.653 244.695 129.169 243.903 128.218C240.092 123.64 229.464 121.524 223.777 120.997Z" fill="#904D30"/>
<path d="M162.299 121.317C158.386 121.047 154.42 120.881 150.511 121.276C144.249 121.909 135.244 124.043 131.167 129.273C130.165 130.558 129.637 131.817 129.832 133.445C130.366 134.224 130.421 134.261 131.305 134.595C132.775 134.554 133.854 133.747 135.073 133.01C141.545 129.724 148.875 127.896 156.153 128.325C159.503 128.522 162.818 129.055 166.18 129.069H166.664C168.215 128.124 169.159 127.476 169.794 125.729C169.73 125.126 169.79 124.65 169.422 124.142C167.852 121.976 164.742 121.66 162.299 121.317Z" fill="#904D30"/>
<path d="M207.663 208.148C203.954 208.601 200.235 208.947 196.507 209.184C192.778 209.422 189.045 209.552 185.309 209.573C181.573 209.595 177.839 209.509 174.108 209.315C170.376 209.12 166.654 208.817 162.94 208.408C164.219 213.795 166.012 218.71 169.65 222.951C173.566 226.693 177.744 229.427 183.26 230.019C188.907 230.626 194.4 228.196 198.729 224.727C199.043 224.474 199.35 224.213 199.651 223.945C199.952 223.677 200.246 223.402 200.533 223.119C200.82 222.836 201.1 222.546 201.373 222.25C201.645 221.953 201.911 221.65 202.168 221.34C202.426 221.03 202.676 220.714 202.917 220.391C203.159 220.069 203.393 219.741 203.618 219.407C203.844 219.073 204.061 218.733 204.269 218.388C204.478 218.044 204.678 217.694 204.87 217.339C205.061 216.985 205.243 216.625 205.416 216.261C205.589 215.897 205.753 215.53 205.909 215.158C206.064 214.786 206.209 214.41 206.345 214.03C206.482 213.651 206.608 213.269 206.726 212.884C206.843 212.498 206.95 212.11 207.048 211.719C207.146 211.328 207.234 210.935 207.312 210.539C207.39 210.144 207.459 209.747 207.517 209.348C207.576 208.949 207.624 208.55 207.663 208.148Z" fill="#B36948"/>
<path d="M204.331 211.091C191.433 213.008 179.386 212.819 166.407 211.911C167.554 215.556 169.237 218.387 171.748 221.245C174.223 223.479 176.967 225.345 180.156 226.397C184.442 227.81 188.69 227.267 192.683 225.237C198.642 222.208 202.24 217.343 204.331 211.091Z" fill="#FEFEFE"/>
<path d="M167.819 157.506C168.439 155.511 167.615 152.385 166.67 150.55C164.832 146.986 161.239 144.172 157.401 143.093C152.415 141.692 146.022 142.414 141.527 144.943C140.247 145.663 139.228 146.623 138.248 147.701C136.511 146.82 134.796 145.954 133.158 144.894C133.848 146.265 134.672 147.558 134.703 149.124L134.193 149.564C132.69 149.391 131.543 148.532 130.28 147.757C131.199 149.85 133.571 151.722 133.896 153.762L133.486 154.393C131.624 154.309 130.754 152.282 129.29 152.557C129.568 153.917 130.707 155.149 131.872 155.867C133.258 156.721 134.898 157.316 136.388 157.971C136.571 160.404 137.72 162.7 139.393 164.454C142.479 167.688 147.085 169.055 151.454 169.115C156.256 169.182 161.878 167.834 165.313 164.315C167.401 162.177 167.9 160.43 167.819 157.506Z" fill="#4E2004"/>
<path d="M151.881 152.116C151.212 152.312 150.367 152.539 149.789 152.945C149.069 153.451 148.685 154.219 148.712 155.102C148.745 156.159 149.654 157.068 150.307 157.82C151.242 157.704 152.098 157.569 152.806 156.855C153.422 156.235 153.67 155.496 153.591 154.632C153.487 153.5 152.661 152.822 151.881 152.116Z" fill="#FEFEFE"/>
<path d="M150.594 145.438C145.575 146.493 141.574 147.88 138.69 152.488C137.597 154.233 136.995 156.022 136.388 157.971C136.571 160.404 137.72 162.7 139.394 164.454C142.479 167.688 147.085 169.055 151.454 169.115C156.256 169.182 161.878 167.834 165.313 164.315C167.401 162.176 167.9 160.43 167.82 157.506C166.192 152.775 164.489 149.593 160.492 146.398C162.978 150.104 165.231 153.915 164.349 158.587C164.281 158.933 164.197 159.275 164.096 159.613C163.996 159.95 163.879 160.282 163.745 160.608C163.612 160.934 163.463 161.253 163.299 161.564C163.134 161.876 162.955 162.178 162.761 162.472C162.566 162.766 162.358 163.05 162.136 163.324C161.914 163.597 161.678 163.859 161.431 164.109C161.183 164.36 160.924 164.598 160.652 164.822C160.381 165.048 160.1 165.259 159.808 165.456C159.509 165.662 159.199 165.851 158.88 166.024C158.561 166.198 158.234 166.354 157.898 166.492C157.562 166.631 157.22 166.752 156.872 166.855C156.524 166.957 156.171 167.042 155.814 167.107C155.457 167.173 155.097 167.22 154.735 167.248C154.373 167.276 154.011 167.285 153.648 167.275C153.285 167.265 152.924 167.236 152.564 167.187C152.204 167.139 151.847 167.072 151.494 166.987C149.035 166.394 146.808 164.899 145.525 162.693C143.816 159.757 143.897 155.875 144.806 152.691C145.758 149.356 147.84 147.331 150.594 145.438Z" fill="#FEFEFE"/>
<path d="M246.235 147.533C244.471 148.299 242.321 149.609 240.421 148.887C240.052 147.83 239.919 146.814 239.074 146.065C238.702 146.523 238.532 146.789 238.294 147.307L237.746 147.25C237.353 146.406 237.242 145.676 237.099 144.765C236.251 144.389 236.749 144.448 235.945 144.66C234.566 145.023 232.208 143.695 230.818 143.327C222.658 141.171 213.21 142.812 208.312 150.33C206.572 153 205.436 156.084 206.182 159.274C206.217 159.42 206.255 159.565 206.298 159.709C206.438 160.291 206.58 160.872 206.759 161.443C207.557 163.991 210.217 165.97 212.51 167.12C212.808 167.271 213.11 167.414 213.416 167.55C213.722 167.686 214.031 167.814 214.343 167.934C214.655 168.055 214.969 168.168 215.287 168.273C215.604 168.378 215.924 168.475 216.247 168.564C216.569 168.654 216.893 168.735 217.219 168.809C217.545 168.882 217.873 168.948 218.202 169.005C218.532 169.062 218.863 169.112 219.194 169.153C219.526 169.194 219.859 169.227 220.193 169.252C220.526 169.277 220.86 169.294 221.195 169.302C221.529 169.31 221.863 169.311 222.197 169.303C222.532 169.295 222.866 169.279 223.199 169.255C223.533 169.23 223.866 169.198 224.198 169.157C224.53 169.116 224.86 169.068 225.19 169.011C225.52 168.954 225.848 168.89 226.174 168.817C226.501 168.744 226.825 168.663 227.147 168.574C227.469 168.485 227.789 168.388 228.107 168.284C233.449 166.48 236.353 163.37 238.72 158.407C241.286 154.773 244.352 151.603 246.235 147.533Z" fill="#4E2004"/>
<path d="M220.123 152.584C218.733 152.604 217.76 152.524 216.672 153.529C215.956 154.19 215.867 154.76 215.774 155.68C216.237 156.738 216.362 156.889 217.293 157.573C218.343 157.641 219.418 157.71 220.354 157.126C221.232 156.578 221.292 156.119 221.538 155.197C221.347 153.989 220.929 153.485 220.123 152.584Z" fill="#FEFEFE"/>
<path d="M238.72 158.407C238.718 158.216 238.72 158.026 238.716 157.835C238.651 154.325 237.355 151.096 234.758 148.683C232.651 146.726 229.554 145.483 226.674 145.603C229.75 147.474 232.22 149.672 233.18 153.302C233.964 156.267 233.43 159.968 231.871 162.606C230.452 165.006 228.047 166.614 225.33 167.17C224.981 167.244 224.629 167.301 224.274 167.339C223.919 167.378 223.563 167.398 223.206 167.401C222.85 167.403 222.493 167.387 222.138 167.353C221.783 167.32 221.43 167.268 221.08 167.198C220.729 167.129 220.384 167.043 220.043 166.938C219.701 166.833 219.366 166.712 219.037 166.574C218.708 166.436 218.387 166.281 218.073 166.11C217.76 165.939 217.456 165.753 217.161 165.551C216.863 165.346 216.575 165.127 216.297 164.894C216.02 164.661 215.755 164.414 215.501 164.155C215.248 163.896 215.008 163.625 214.781 163.343C214.554 163.06 214.342 162.767 214.143 162.463C213.945 162.16 213.762 161.848 213.595 161.526C213.427 161.205 213.275 160.876 213.14 160.54C213.005 160.204 212.886 159.862 212.783 159.514C212.682 159.167 212.597 158.815 212.529 158.459C211.95 155.397 212.844 152.515 214.624 150.005C215.616 148.608 216.966 147.518 218.258 146.408C214.249 147.417 210.525 150.461 208.403 153.945C207.287 155.778 206.771 157.649 206.298 159.709C206.438 160.291 206.58 160.872 206.759 161.444C207.557 163.991 210.217 165.97 212.51 167.12C212.808 167.271 213.111 167.414 213.416 167.55C213.722 167.686 214.031 167.814 214.343 167.934C214.655 168.055 214.97 168.168 215.287 168.273C215.604 168.378 215.924 168.475 216.247 168.565C216.569 168.654 216.893 168.736 217.219 168.809C217.546 168.882 217.873 168.948 218.203 169.005C218.532 169.063 218.863 169.112 219.194 169.153C219.527 169.194 219.859 169.227 220.193 169.252C220.526 169.277 220.86 169.294 221.195 169.302C221.529 169.311 221.863 169.311 222.197 169.303C222.532 169.295 222.866 169.279 223.199 169.255C223.533 169.23 223.866 169.198 224.198 169.158C224.53 169.117 224.861 169.068 225.19 169.011C225.52 168.954 225.848 168.89 226.174 168.817C226.501 168.744 226.825 168.663 227.147 168.574C227.469 168.485 227.79 168.388 228.107 168.284C233.449 166.48 236.353 163.37 238.72 158.407Z" fill="#FEFEFE"/>
<path d="M113.013 155.904C111.678 155.606 110.386 155.474 109.024 155.364L108.457 155.669C103.499 158.29 91.6582 160.878 90.0325 166.586C89.8488 167.23 89.8081 167.883 89.7595 168.547C93.3862 177.963 97.574 187.155 101.196 196.575C102.229 195.415 103.317 194.242 104.574 193.321C110.74 188.801 119.074 192.825 125.825 193.757L126.251 193.813L131.031 194.525C127.346 185.616 123.46 176.797 119.371 168.066C117.509 164.069 115.759 159.355 113.013 155.904Z" fill="#405EB2"/>
<path d="M113.013 155.904C111.678 155.606 110.386 155.474 109.024 155.364L108.457 155.669C103.499 158.29 91.6582 160.878 90.0325 166.586C89.8488 167.23 89.8081 167.883 89.7595 168.547C96.6414 164.91 104.226 161.071 111.543 158.427C116.273 170.321 122.013 181.69 126.251 193.813L131.031 194.525C127.346 185.616 123.46 176.797 119.371 168.066C117.509 164.069 115.759 159.355 113.013 155.904Z" fill="#2A4897"/>
<path d="M138.877 220.298L135.89 221.137C127.223 221.527 118.732 220.162 112.08 227.197C110.099 229.293 108.406 231.954 107.217 234.572C109.566 240.405 112.306 246.073 114.715 251.883C117.666 258.993 120.307 266.66 124.106 273.366C124.76 274.52 125.685 276.232 127.027 276.689C127.208 276.751 127.401 276.776 127.587 276.82C131.43 276.495 133.503 273.564 135.998 270.962C139.917 267.7 150.041 261.01 151.897 256.916C154.269 251.68 147.508 240.697 145.383 235.513C143.166 230.446 140.809 225.488 138.877 220.298Z" fill="#405EB2"/>
<path d="M138.877 220.298L135.89 221.137C137.985 226.582 140.202 231.977 142.539 237.322C144.984 242.965 148.536 248.992 149.234 255.172C145.84 260.821 140.426 264.178 135.603 268.47C132.723 271.032 130.091 273.893 127.587 276.82C131.43 276.495 133.503 273.564 135.998 270.962C139.917 267.7 150.041 261.01 151.897 256.916C154.269 251.68 147.508 240.697 145.383 235.513C143.166 230.446 140.809 225.488 138.877 220.298Z" fill="#2A4897"/>
<path d="M157.768 245.143C154.035 241.646 149.423 238.702 145.383 235.514C147.507 240.697 154.269 251.68 151.897 256.916C150.041 261.01 139.917 267.7 135.998 270.962C136.921 275.691 137.145 280.733 137.47 285.536C137.623 287.784 137.503 290.432 138.15 292.588C138.485 292.69 138.845 292.831 139.188 292.888C142.642 292.488 146.077 292.046 149.558 292.001C153.014 292.014 154.935 291.024 157.897 289.423C163.262 287.573 168.69 283.924 173.704 281.228C185.979 274.626 198.306 268.035 210.22 260.792C213.289 258.925 219.515 253.415 222.541 252.609L222.926 240.972L222.603 241.139C210.462 247.527 195.28 261.237 180.619 256.845C175.816 255.407 161.595 248.084 157.768 245.143Z" fill="#B36948"/>
<path d="M157.768 245.143C154.035 241.646 149.423 238.702 145.383 235.514C147.508 240.697 154.269 251.68 151.897 256.916C150.041 261.01 139.917 267.7 135.998 270.962C136.921 275.691 137.145 280.733 137.471 285.536C137.623 287.784 137.503 290.432 138.15 292.588C138.485 292.69 138.845 292.831 139.188 292.888C142.642 292.488 146.078 292.046 149.559 292.001C153.014 292.014 154.935 291.024 157.897 289.423C157.592 274.671 157.927 259.902 157.768 245.143Z" fill="#904D30"/>
<path d="M102.332 296.903C94.0959 298.876 85.8119 301.045 77.4793 302.56C73.5267 303.644 69.5461 304.659 65.6986 306.081C59.4991 308.66 55.34 311.453 50.8099 316.384L50.5505 316.789C49.4621 318.456 47.8406 319.81 46.6458 321.425C43.1012 326.213 39.9583 332.13 37.7465 337.663C32.7712 350.112 30.5544 364.146 28.4312 377.304C26.3624 390.119 24.5701 402.897 22.7828 415.748C21.8416 422.517 19.8657 429.221 20.0257 436.083L20.3645 436.4C28.3969 441.705 37.5056 444.293 46.843 446.268L47.6348 446.188C51.6782 437.822 54.6718 428.85 58.1656 420.241C65.3506 402.987 72.3265 385.649 79.0936 368.228L94.0023 330.887C97.5333 322.096 101.278 313.528 104.195 304.495C103.624 301.952 103.003 299.421 102.332 296.903Z" fill="#FEFEFE"/>
<path d="M281.243 55.2715C279.248 52.7964 277.185 50.3491 274.981 48.0576C255.253 27.5421 225.527 16.9228 197.367 16.3576C178.773 15.9839 158.452 19.6809 142.191 28.8911C132.928 34.1372 124.721 41.071 117.066 48.4128C114.976 50.7231 112.965 53.0986 111.03 55.5395C108.363 59.5037 105.8 63.5341 103.342 67.6307C86.3428 98.8641 81.6613 136.893 84.7135 171.956C85.5053 181.057 87.5084 189.931 88.5532 198.972C89.2099 203.559 89.618 208.471 90.8586 212.931C93.2083 207.019 97.4082 201.652 101.196 196.574C97.574 187.155 93.3863 177.963 89.7595 168.546C89.8081 167.883 89.8488 167.229 90.0325 166.586C91.6583 160.877 103.499 158.29 108.457 155.669L109.024 155.364C110.386 155.473 111.678 155.606 113.013 155.904C113.646 153.416 128.44 126.383 130.029 124.509C136.484 116.891 144.919 110.428 152.359 103.757C160.502 96.3976 168.735 89.1399 177.058 81.9841C181.175 78.4179 185.234 74.6717 189.519 71.312C217.586 85.1945 244.745 98.0767 255.514 130.077C258.884 140.09 260.531 150.554 261.674 161.027C262.543 159.433 263.518 157.842 264.171 156.145C265.194 152.877 266.046 149.557 266.934 146.25L267.734 142.974C271.121 143.018 273.674 144.7 275.991 147.082C279.903 151.103 283.027 157.18 282.809 162.867C282.509 170.681 277.553 178.882 271.85 183.994C270.193 185.479 268.313 186.71 266.444 187.907C263.917 188.122 261.717 187.844 259.228 187.431C255.054 214.337 248.296 223.01 226.484 238.801C225.392 239.591 224.185 240.492 222.926 240.972L222.541 252.609C222.509 259.67 221.627 288.748 222.968 293.088C224.185 297.027 227.123 300.728 229.539 304.003C232.361 307.08 234.995 309.841 238.642 311.936C238.613 312.1 238.585 312.264 238.554 312.429C237.749 316.642 235.569 321.208 234.548 325.63C230.629 342.61 231.405 362.399 241.303 377.312C248.61 388.32 259.873 395.46 272.798 398.009C284.824 400.381 297.966 398.105 309.075 393.167L311.73 391.841C326.526 383.974 339.293 370.761 344.993 354.858C347.366 345.871 349.045 337.461 348.177 328.1C347.038 315.817 340.537 306.171 331.266 298.391C331.908 297.939 332.54 297.474 333.163 296.996C333.785 296.517 334.397 296.025 334.998 295.52C335.6 295.015 336.19 294.497 336.769 293.967C337.349 293.436 337.916 292.894 338.472 292.34C339.028 291.785 339.572 291.219 340.104 290.641C340.635 290.063 341.154 289.474 341.661 288.874C342.167 288.274 342.661 287.663 343.141 287.042C343.621 286.421 344.088 285.79 344.541 285.148C344.994 284.507 345.433 283.856 345.859 283.197C346.284 282.536 346.694 281.867 347.091 281.189C347.488 280.512 347.87 279.826 348.237 279.132C348.604 278.438 348.957 277.737 349.294 277.027C349.631 276.319 349.953 275.603 350.259 274.879C350.566 274.156 350.857 273.427 351.132 272.692C351.407 271.957 351.667 271.216 351.91 270.469C352.154 269.723 352.381 268.972 352.592 268.215C359.605 243.888 351.55 222.542 331.607 207.548C324.338 202.083 314.121 197.91 310.388 189.035C307.554 182.3 309.119 168.296 309.21 160.664C309.237 152.611 308.987 144.567 308.46 136.532C306.988 111.517 302.806 90.9422 290.482 68.7782C287.657 64.1009 284.434 59.7016 281.243 55.2715Z" fill="#904D30"/>
<path d="M283.487 136.871C283.666 135.418 283.851 133.956 283.92 132.493C284.747 114.935 272.749 91.7276 261.177 78.9518C245.226 61.3416 220.387 49.6726 196.65 48.5322C196.155 50.3979 195.709 52.2971 195.155 54.1449C196.549 55.2174 210.567 57.2709 213.953 58.0862C220.328 59.6217 226.767 62.5713 232.447 65.8188C249.82 75.7522 267.239 95.0323 275.637 113.269C279.16 120.918 281.293 128.785 283.487 136.871Z" fill="#B36948"/>
<path d="M193.874 43.7063C193.39 43.0933 193.482 42.9382 192.652 42.8225C189.481 42.3795 185.68 43.4155 182.54 44.0129C165.393 47.274 147.765 54.465 134.182 65.4994C115.89 80.3573 101.161 104.039 98.7396 127.706C98.4173 130.857 98.3866 134.018 98.4187 137.183C101.989 128.688 104.938 119.917 108.968 111.618C120.321 88.2378 139.114 66.4998 163.615 56.4792C172.636 52.7894 182.677 49.9063 192.41 49.3182C192.794 47.4169 193.337 45.5684 193.874 43.7063Z" fill="#B36948"/>
<path d="M222.541 252.609C219.515 253.415 213.289 258.925 210.22 260.791C198.306 268.035 185.979 274.626 173.704 281.228C168.69 283.924 163.262 287.573 157.897 289.423C154.935 291.024 153.014 292.014 149.559 292.001C146.078 292.046 142.642 292.488 139.188 292.888L138.309 293.316C137.531 296.162 137.79 299.93 137.455 302.959C136.897 307.992 135.93 312.959 135.029 317.939C131.322 338.436 128.136 359.033 124.303 379.507C122.34 389.994 120.021 400.499 117.793 410.937C111.533 440.271 105.258 470.009 95.4851 498.415C93.144 505.217 90.7357 512.341 87.7228 518.867C85.5925 523.483 81.8107 529.206 80.3964 533.85C79.6682 540.478 79.7439 547.195 79.7389 553.854H288.632H306.455H367.625H418V425.891L379.148 425.94C371.594 425.945 363.875 426.264 356.343 425.799C355.662 424.968 355.656 424.094 355.476 423.059C355.532 420.066 355.18 417.004 354.982 414.014C354.384 411.035 354.314 407.666 353.972 404.622C353.003 395.99 349.765 360.709 344.993 354.858C339.293 370.762 326.526 383.975 311.73 391.841L309.075 393.168C297.966 398.106 284.824 400.381 272.798 398.009C259.873 395.46 248.61 388.32 241.303 377.312C231.405 362.399 230.629 342.611 234.548 325.631C235.569 321.208 237.749 316.642 238.554 312.429C238.585 312.265 238.613 312.1 238.642 311.936C234.995 309.842 232.361 307.081 229.539 304.003C227.123 300.728 224.185 297.027 222.968 293.088C221.627 288.748 222.509 259.67 222.541 252.609Z" fill="#FEFEFE"/>
<path d="M311.73 391.841L309.075 393.167C309.775 395.035 309.676 397.448 309.743 399.451C310.351 417.693 304.878 444.974 299.603 462.453C296.47 472.829 291.172 483.147 289.601 493.882C288.764 499.606 288.849 505.498 288.687 511.278C288.289 525.478 288.509 539.649 288.632 553.854H306.455C303.551 539.349 301.119 524.766 299.158 510.104C297.864 501.091 296.032 490.754 296.21 481.712C297.292 476.522 300.095 471.636 301.629 466.542C308.831 442.609 315.396 416.908 311.73 391.841Z" fill="url(#paint0_linear_17_172)"/>
<path d="M222.541 252.609C219.515 253.415 213.289 258.925 210.22 260.791C198.306 268.035 185.979 274.626 173.704 281.228C168.69 283.924 163.262 287.573 157.897 289.423C154.935 291.024 153.014 292.014 149.558 292.001C150.297 297.605 154.038 302.29 158.43 305.614C171.152 315.246 188.729 316.341 203.99 314.18C213.344 312.856 221.768 309.316 229.539 304.003C227.123 300.728 224.185 297.027 222.968 293.088C221.627 288.748 222.509 259.67 222.541 252.609Z" fill="#FEAA81"/>
<path d="M354.982 414.014C354.384 411.035 354.314 407.666 353.972 404.622C353.003 395.99 349.765 360.709 344.993 354.858C339.293 370.762 326.526 383.975 311.73 391.842C315.396 416.908 308.831 442.609 301.629 466.542C300.095 471.637 297.292 476.522 296.21 481.712C314.319 485.585 341.825 483.154 357.956 473.709C358.038 461.347 357.006 448.735 356.263 436.392C355.996 431.967 355.511 427.487 355.476 423.059C355.532 420.066 355.18 417.004 354.982 414.014Z" fill="#FEFEFE"/>
</g>
<defs>
<linearGradient id="paint0_linear_17_172" x1="346.766" y1="448.895" x2="258.507" y2="504.634" gradientUnits="userSpaceOnUse">
<stop stop-color="#E5E2E4"/>
<stop offset="1" stop-color="#C2DCF8"/>
</linearGradient>
<clipPath id="clip0_17_172">
<rect width="418" height="427" fill="white" transform="matrix(-1 0 0 1 418 0)"/>
</clipPath>
</defs>
</svg>
