<svg width="658" height="567" viewBox="0 0 658 567" fill="none" xmlns="http://www.w3.org/2000/svg">
<g clip-path="url(#clip0_180_2930)">
<path d="M711.854 -42.9546H-46.4143V451.023H711.854V-42.9546Z" fill="#E0ECFE"/>
<path d="M-200.33 522.937C-180.646 498.524 -137.203 410.25 -78.1483 309.273L763.554 310.995V590.625L-229.519 578.42C-226.352 568.063 -216.079 542.467 -200.33 522.937Z" fill="#CBDFFE"/>
<path d="M332.108 73.3066H50.9548V591.699H332.108V73.3066Z" fill="#AECEFF"/>
<path d="M314.81 88.5181H68.2522V591.699H314.81V88.5181Z" fill="#90B9FD"/>
<path d="M83.7001 326.934C82.8682 321.378 86.3492 316.144 91.4755 315.242C96.6018 314.342 101.432 318.113 102.264 323.667C103.096 329.223 99.6146 334.457 94.4883 335.359C89.3622 336.261 84.5321 332.488 83.7001 326.934Z" fill="#AECEFF"/>
<path d="M93.3859 330.492H123.178C124.769 330.492 126.069 329.083 126.069 327.359C126.069 325.634 124.769 324.225 123.178 324.225H93.3859C91.795 324.225 90.4948 325.634 90.4948 327.359C90.4948 329.083 91.7987 330.492 93.3859 330.492Z" fill="#AECEFF"/>
<path d="M303.737 435.05C300.044 424.249 295.475 413.796 290.031 403.769C288.482 400.906 284.1 403.453 285.656 406.316C285.688 406.378 285.718 406.432 285.748 406.494C284.023 406.232 282.125 407.459 282.969 409.458C287.237 419.557 292.401 429.099 299.501 437.514C301.128 439.427 304.536 437.374 303.737 435.05Z" fill="#B4A887"/>
<path d="M313.276 404.455C313.261 403.714 312.996 402.958 312.369 402.31C309.435 399.299 306.973 395.886 304.89 392.188C304.75 391.941 304.595 391.749 304.434 391.571C304.123 390.321 303.132 389.37 301.545 389.711L267.056 397.168C264.355 397.754 263.961 401.298 265.477 402.694C265.06 406.964 265.525 411.186 266.856 415.316C267.041 415.905 267.352 416.328 267.707 416.646C267.862 418.119 260.669 420.797 262.496 420.636C280.925 419 298.811 413.388 312.632 409.52C315.142 408.817 314.879 405.845 313.276 404.455Z" fill="#FFAA80"/>
<path d="M417.551 609.28C464.056 608.501 511.691 616.636 557.329 607.195C558.15 583.896 558.893 538.79 557.964 515.483C557.484 503.494 556.562 491.52 554.983 479.624C553.419 467.799 551.289 456.225 551.312 444.251C551.336 430.703 552.497 417.2 550.623 403.723C550.444 402.418 549.238 402.179 548.286 402.626C548.098 401.962 547.549 401.445 546.636 401.537L491.722 406.958C474.284 408.678 456.561 409.645 439.317 412.823C437.706 413.118 437.148 434.634 438.085 435.536C434.95 448.536 434.972 452.404 429.877 474.289C424.613 496.903 419.13 526.816 413.215 549.258C410.094 561.115 407.422 594.867 405.557 606.987C405.425 607.165 405.318 607.38 405.247 607.644C405.061 608.376 405.008 609.087 405.076 609.757C409.228 609.504 413.385 609.349 417.551 609.28Z" fill="#908664"/>
<path d="M422.437 278.971C420.494 267.251 414.385 256.265 403.907 250.15C398.612 247.064 392.619 245.574 386.492 245.943C386.331 245.952 386.169 245.967 386.021 246.02C385.844 246.091 383.937 246.77 383.8 246.901C372.432 257.098 371.465 271.681 367.833 285.755C366.833 289.63 365.75 293.492 364.302 297.226C360.431 307.295 355.97 317.114 351.425 326.895C347.198 335.989 343.659 346.171 338.099 354.547C336.472 356.996 334.445 358.647 332.052 360.314C330.48 361.411 329.079 362.614 327.955 364.182C325.245 367.988 324.239 372.751 320.98 376.203C320.878 376.301 320.872 376.426 320.893 376.527C320.622 376.873 320.344 377.212 320.073 377.56C312.223 381.413 303.843 383.907 295.567 386.561C291.431 387.891 287.306 389.248 283.262 390.831C282.946 390.955 282.674 391.054 282.426 391.155C289.798 406.325 294.722 422.699 301.056 438.109C301.342 438.139 301.622 438.092 301.894 437.954C309.496 434.125 322.32 431.584 334.568 426.629C345.169 422.344 355.22 416.569 363.736 408.88C372.462 401.013 379.524 391.503 385.913 381.705C392.843 371.076 399.208 360.067 405.031 348.795C410.242 338.723 415.22 328.538 420.401 318.45C419.572 318.165 419.727 316.96 420.052 316.148C420.804 314.258 421.547 312.366 422.297 310.474C422.445 310.104 422.368 309.464 421.987 309.58C421.338 310.961 420.726 312.366 420.153 313.779C420.942 308.545 421.872 303.326 422.56 298.077C423.404 291.739 423.49 285.3 422.437 278.971ZM418.93 319.769C418.372 320.828 417.79 321.876 417.226 322.935C417.823 321.537 418.411 320.141 418.99 318.736C418.975 319.082 418.945 319.421 418.93 319.769Z" fill="white"/>
<path d="M522.02 232.612C509.67 227.593 496.506 225.2 483.421 222.947C476.763 221.796 470.063 220.769 463.282 221.1C457.063 221.409 450.915 222.683 444.993 224.545C438.162 226.697 431.611 229.624 425.239 232.85C425.099 232.921 425.054 233.035 425.061 233.159C425.007 233.213 424.977 233.29 424.977 233.391C425.17 241.589 429.414 248.793 434.423 255.038C439.929 261.9 441.4 280.706 449.554 284.303C453.371 285.987 462.274 274.591 466.487 274.415C471.024 274.222 475.647 272.871 479.983 271.621C488.54 269.143 495.144 263.969 501.432 257.856C508.942 250.545 515.833 242.616 522.082 234.201C522.199 234.046 522.151 233.892 522.044 233.8C522.089 233.623 522.113 233.445 522.121 233.26C522.315 233.106 522.315 232.728 522.02 232.612Z" fill="#FFAA80"/>
<path d="M567.867 284.875C568.031 272.615 567.234 260.672 563.369 249.486C560.364 244.585 556.353 240.253 551.103 236.632C544.361 231.985 536.578 229.021 528.726 226.828C519.978 224.388 510.019 221.285 500.86 222.189C500.224 222.251 499.744 222.537 499.397 222.921C498.499 223.093 497.747 223.763 497.839 224.959C498.219 229.839 498.636 235.112 495.377 239.179C492.333 242.979 488.006 246.067 484.382 249.302L461.423 269.789C459.566 271.449 457.77 273.225 455.818 274.776C453.022 277.001 450.297 276.004 447.796 273.874C444.459 271.026 442.329 267.057 440.448 263.174C438.311 258.758 436.467 254.218 434.78 249.609C433.339 245.666 430.638 240.167 433.085 236.231C434.882 235.29 434.586 232.023 432.148 232.148C416.692 232.966 400.548 234.888 387.918 244.151C387.261 244.639 386.579 245.101 385.859 245.487C374.276 251.656 383.25 270.708 388.507 278.676C389.754 280.566 391.156 282.357 392.565 284.134C394.446 284.975 396.048 286.356 396.964 288.272C397.946 290.332 398.883 292.417 399.79 294.501C400.223 295.366 400.617 296.262 400.951 297.187C400.981 297.273 401.005 297.357 401.035 297.443C404.443 305.703 407.216 314.172 409.212 322.934C409.639 324.801 410.305 332.977 411.52 344.064C412.015 345.823 412.534 347.569 413.092 349.266C415.408 356.4 418.372 363.185 419.951 370.549C422.685 383.303 423.12 396.342 424.096 409.312C425.985 414.591 428.113 419.256 430.522 422.937C432.689 425.701 435.709 426.272 438.962 425.924C439.132 425.632 439.349 425.353 439.597 425.115C439.604 425.1 439.612 425.082 439.619 425.067C439.983 424.457 440.472 423.972 441.083 423.609C441.717 423.238 442.406 423.053 443.143 423.053C443.877 423.053 444.567 423.238 445.202 423.609C445.512 423.785 445.784 424.002 446.032 424.249C447.858 423.686 449.631 423.107 451.243 422.737C461.059 420.467 471.149 418.167 481.293 419.271C489.772 420.188 497.174 423.963 505.164 426.534C513.767 429.307 524.523 428.751 534.587 426.573C534.542 425.972 534.587 425.362 534.796 424.853C535.208 423.817 535.727 423.029 536.671 422.419C537.601 421.826 538.769 421.771 539.816 422.011C540.791 422.235 541.759 423.038 542.254 423.88C542.362 424.056 542.448 424.273 542.532 424.49C545.793 423.478 548.889 422.335 551.692 421.122C557.198 418.729 559.251 401.075 561.185 393.687C570.547 357.921 567.387 321.661 567.867 284.875Z" fill="white"/>
<path d="M488.701 118.001C483.562 115.701 478.682 113.918 473.65 112.837C468.872 111.81 463.963 111.424 458.59 111.856C458.033 111.903 457.475 111.957 456.917 112.018C444.155 113.423 432.379 119.53 423.536 128.802C411.427 141.501 391.294 166.59 391.458 187.102C391.527 195.857 393.64 204.186 394.724 212.709C397.203 232.139 393.789 252.405 391.876 271.767C390.318 287.546 388.623 303.317 386.82 319.066C386.656 320.479 387.763 321.729 389.196 321.721C392.449 321.699 395.717 321.798 399.015 322.045C401.369 322.217 403.754 322.292 406.139 322.286C406.703 318.641 407.369 315.022 408.198 311.422C407.942 315.037 407.804 318.649 407.819 322.262C413.346 322.146 418.891 321.583 424.272 320.625C425.991 313.183 427.122 305.602 429.328 298.285C430.731 293.637 432.859 289.266 434.291 284.636C435.631 280.319 436.568 275.897 437.419 271.466C439.263 261.891 441.725 252.598 444.002 243.125C445.913 235.189 445.829 226.473 450.079 219.278C452.001 216.029 456.43 217.719 456.94 220.599C458.877 217.395 461.145 214.377 463.321 211.343C466.341 207.143 469.236 202.827 470.979 197.918C473.14 191.827 473.564 185.35 474.34 178.989C475.128 172.473 476.384 166.019 478.157 159.696C479.93 153.358 482.607 147.368 484.544 141.091C487.471 131.666 498.947 122.587 488.701 118.001Z" fill="#B46A48"/>
<path d="M447.384 225.741C446.092 220.885 446.023 215.875 446.635 210.911C446.967 208.209 447.384 205.522 447.85 202.843C447.958 202.202 448.074 201.57 448.182 200.929C448.143 201.122 448.423 199.362 448.468 198.991C448.569 198.211 448.671 197.416 448.772 196.629C441.012 193.263 438.481 182.486 437.885 174.635C437.536 170.08 437.753 165.278 438.604 160.631C435.778 162.136 433.092 163.85 430.489 165.711C426.92 168.196 422.004 167.37 418.665 164.807C417.79 166.652 417.179 168.135 416.367 170.258C415.057 173.677 417.047 165.016 417.024 165.309C416.901 166.784 420.936 155.752 413.277 170.126C402.127 191.063 402.56 254.729 402.104 272.315C401.895 280.343 402.196 288.371 402.065 296.402C401.925 304.986 400.415 313.3 397.83 321.474C397.776 321.644 397.72 321.807 397.675 321.977C398.131 322.007 398.58 322.024 399.036 322.054C401.391 322.224 403.775 322.301 406.16 322.292C406.727 318.65 407.392 315.029 408.219 311.431C407.965 315.044 407.825 318.656 407.84 322.271C413.37 322.155 418.913 321.59 424.296 320.634C426.015 313.193 427.144 305.611 429.352 298.292C430.752 293.644 432.883 289.275 434.315 284.643C435.655 280.328 436.592 275.904 437.443 271.473C439.285 261.9 447.036 243.598 449.321 234.133C450.683 228.435 445.737 231.368 447.384 225.741Z" fill="#904D30"/>
<path d="M494.124 222.227C488.796 210.424 483.965 198.427 479.605 186.238C478.745 183.837 475.802 183.814 474.486 185.188C474.107 185.334 473.728 185.574 473.388 185.96C463.429 197.192 453.302 208.263 442.988 219.177C442.803 219.371 442.663 219.573 442.546 219.781C441.06 220.382 439.991 222.058 441.066 223.825C447.154 233.831 453.069 243.936 458.806 254.142C459.573 255.508 460.904 255.77 462.05 255.392C462.972 255.74 464.049 255.648 464.969 254.767C469.917 250.051 474.859 245.332 479.805 240.616C484.344 236.286 489.167 232.141 492.993 227.146C493.411 226.604 493.572 226.065 493.566 225.563C494.333 224.736 494.703 223.518 494.124 222.227Z" fill="#FFAA80"/>
<path d="M488.525 142.427C482.594 123.961 462.802 115.369 445.047 121.606C435.013 125.134 426.905 132.399 420.959 141.199C420.888 141.3 420.828 141.4 420.772 141.508C419.736 141.578 418.784 142.211 418.473 143.569C415.492 156.801 413.185 170.342 413.262 183.96C413.331 196.319 418.512 211.088 424.645 221.972C430.08 231.624 437.443 237.049 448.253 232.457C453.38 230.279 457.49 226.319 461.516 222.537C467.037 217.356 472.558 212.168 478.071 206.981C478.691 206.402 478.939 205.738 478.947 205.097C479.085 204.858 479.21 204.595 479.294 204.279C484.281 184.184 495.291 163.525 488.525 142.427Z" fill="#FFAA80"/>
<path d="M457.29 168.984C457.165 168.814 457.018 168.69 456.863 168.575C456.546 168.297 456.12 168.173 455.678 168.243C455.284 168.274 454.89 168.42 454.556 168.698C453.457 169.594 452.807 171.215 452.682 172.573C452.156 175.584 452.311 180.787 455.594 180.046C458.838 179.305 458.767 171.014 457.29 168.984Z" fill="#2C1A19"/>
<path d="M425.333 173.654C425.256 172.411 425.155 169.2 423.993 168.644C419.578 166.537 418.294 178.657 422.035 179.815C425.303 180.826 425.441 175.445 425.333 173.654Z" fill="#2C1A19"/>
<path d="M436.491 193.263C427.051 192.9 432.45 176.21 434.005 171.007C434.27 170.111 432.876 169.733 432.611 170.621C430.862 176.472 425.278 194.274 436.491 194.707C437.428 194.745 437.428 193.302 436.491 193.263Z" fill="#DF7B53"/>
<path d="M445.209 158.562C442.344 161.835 439.991 167.316 444.382 170.473C444.761 170.744 445.125 170.118 444.746 169.848C440.788 167 443.203 161.943 445.72 159.063C446.03 158.724 445.52 158.214 445.209 158.562Z" fill="#DF7B53"/>
<path d="M467.008 159.365C463.119 158.624 459.108 158.57 455.213 159.296C452.72 159.759 447.835 160.214 446.331 162.561C444.62 165.224 447.555 166.861 449.825 166.946C453.222 167.069 456.592 166.074 459.735 164.854C461.424 164.198 463.19 163.704 464.814 162.885C465.381 162.592 469.616 159.859 467.008 159.365Z" fill="#B46A48"/>
<path d="M427.735 155.288C427.114 155.381 426.487 155.605 425.938 155.937C423.622 157.334 421.013 157.813 418.659 159.025C417.62 159.558 414.152 162.808 417.125 163.564C420.246 164.352 424.18 163.966 427.084 162.592C428.562 161.897 429.964 160.847 430.468 159.233C431.095 157.164 430.227 154.926 427.735 155.288Z" fill="#B46A48"/>
<path d="M448.719 209.884C448.354 208.787 446.278 207.305 445.791 206.912C444.49 205.869 443.018 205.128 441.409 204.897C439.263 204.588 437.103 204.534 434.951 204.495C433.58 204.472 430.567 204.217 430.567 205.877C430.567 208.486 434.091 210.54 435.849 211.374C437.025 211.937 440.254 211.891 442.46 211.76C443.988 211.667 444.77 211.821 445.86 211.505C446.573 211.304 447.898 211.188 448.494 210.733C448.779 210.517 448.826 210.216 448.719 209.884Z" fill="#DF7B53"/>
<path d="M439.673 207.352C442.732 207.645 444.25 207.723 446.704 207.622C446.31 207.298 445.961 207.043 445.797 206.912C444.498 205.87 443.027 205.129 441.415 204.897C439.27 204.588 437.109 204.534 434.957 204.496C434.438 204.488 433.679 204.442 432.945 204.488C434.345 206.781 436.243 207.028 439.673 207.352Z" fill="#E8F1FB"/>
<path d="M504.304 135.263C503.74 133.773 503.119 132.299 502.439 130.848C497.622 120.557 485.985 116.257 475.671 113.308C471.916 112.235 459 114.805 453.44 114.983C452.526 115.014 452.216 115.948 452.496 116.581H451.589C451.458 116.465 451.335 116.342 451.202 116.226C450.157 115.307 448.617 116.828 449.67 117.755C458.782 125.806 465.488 136.29 468.717 148.024C472.302 161.063 470.923 174.635 468.523 187.751C466.162 200.666 462.957 213.45 462.199 226.604C461.802 233.468 461.903 240.347 461.593 247.218C461.262 254.628 460.363 261.992 459.349 269.327C457.119 285.43 454.749 301.51 452.442 317.599C452.434 317.67 452.442 317.724 452.442 317.784C455.299 317.307 458.179 316.974 461.083 316.718C461.608 316.34 462.065 315.87 462.39 315.284C463.306 313.615 463.971 311.671 464.527 309.663C464.56 310.613 464.583 311.57 464.622 312.52C464.667 313.731 464.527 315.391 465.419 316.388C474.781 315.739 484.188 315.423 493.092 312.722C494.184 308.985 494.014 304.391 494.455 300.561C494.998 295.806 495.547 291.042 496.088 286.287C498.001 269.597 500.758 252.821 500.177 235.985C499.442 214.794 505.133 195.687 508.037 175.021C509.888 161.696 509.097 147.87 504.304 135.263Z" fill="#B46A48"/>
<path d="M474.85 157.836C472.033 149.144 471.087 139.293 466.363 131.342C465.396 129.713 464.094 127.837 462.515 126.324C462.918 125.49 463.306 124.649 463.677 123.792C463.823 123.452 463.793 123.128 463.67 122.858C463.832 122.418 463.754 121.877 463.267 121.53C447.826 110.668 428.206 127.235 419.208 139.193C413.239 147.129 409.786 156.277 406.679 165.61C405.061 170.474 403.342 175.291 401.578 180.101C399.919 184.609 398.696 189.164 400.37 193.834C400.641 194.599 401.561 194.9 402.181 194.313C403.45 193.109 404.264 191.812 404.736 190.306C409.792 174.156 417.217 162.059 429.684 152.842C435.661 148.418 455.028 138.838 456.893 137.348C457.615 136.776 458.683 137.031 459.062 137.865C474.594 172.288 464.891 201.253 464.853 208.826C464.838 211.984 487.687 199.771 490.686 201.639C493.109 203.152 475.85 173.315 476.337 171.539C477.59 166.938 476.274 162.237 474.85 157.836Z" fill="#B46A48"/>
<path d="M416.289 281.292C415.624 288.186 414.964 295.089 414.299 301.983C414.253 302.445 414.982 302.439 415.027 301.983C415.693 295.089 416.352 288.186 417.018 281.292C417.056 280.83 416.328 280.837 416.289 281.292Z" fill="#904D30"/>
<path d="M478.319 122.208C472.899 123.976 468.043 126.971 464.049 131.039C463.724 131.371 464.235 131.881 464.56 131.549C468.47 127.573 473.201 124.64 478.513 122.903C478.955 122.764 478.761 122.069 478.319 122.208Z" fill="#904D30"/>
<path d="M459.922 223.177C456.26 226.775 452.147 229.824 447.632 232.279C447.223 232.503 447.587 233.13 447.996 232.904C452.565 230.419 456.723 227.331 460.433 223.688C460.767 223.355 460.254 222.846 459.922 223.177Z" fill="#DF7B53"/>
<path d="M457.46 256.558C454.153 250.227 451.327 243.681 448.989 236.935C448.834 236.494 448.136 236.688 448.291 237.126C450.646 243.928 453.503 250.545 456.833 256.921C457.048 257.338 457.675 256.975 457.46 256.558Z" fill="#DF7B53"/>
<path d="M533.155 435.645C503.406 434.547 473.618 434.386 443.862 435.166C443.397 435.181 443.397 435.898 443.862 435.892C473.626 435.112 503.406 435.267 533.155 436.371C533.62 436.386 533.62 435.66 533.155 435.645Z" fill="#70674A"/>
<path d="M272.377 414.329C272.446 414.037 272.494 413.719 272.47 413.379C272.246 409.357 271.509 405.429 270.333 401.569C270.262 401.329 270.163 401.12 270.053 400.927C269.93 400.719 269.868 400.48 269.883 400.24C269.96 399.153 269.435 398.079 268.032 397.553C261.652 395.145 255.906 390.985 250.463 387.07C241.83 380.871 238.299 378.81 231.114 369.755C228.613 366.604 223.665 368.157 225.012 371.969C230.161 386.522 241.993 387.001 237.455 391.887C233.622 396.017 222.054 393.509 216.433 393.779C209.929 394.095 203.533 395.291 197.284 397.059C193.266 398.195 195.472 403.816 199.545 402.903C201.729 402.417 229.658 400.064 230.843 402.495C231.207 403.244 230.595 404.108 229.735 404.17C218.539 404.997 207.389 406.215 196.285 407.868C192.166 408.485 192.692 414.707 196.843 414.09C208.303 412.383 219.809 411.133 231.361 410.308C231.903 410.27 232.399 410.57 232.631 411.041L232.655 411.088C233.042 411.874 232.492 412.785 231.586 412.877C224.501 413.62 217.602 415.379 210.989 418.167C207.164 419.78 209.394 425.639 213.25 424.011C220.777 420.836 228.558 419.107 236.673 418.759C236.844 419.61 236.797 419.378 236.975 420.22C233.816 421.363 230.719 422.651 227.684 424.094C223.967 425.871 226.174 431.738 229.944 429.938C234.846 427.6 245.168 423.785 246.816 423.291C254.181 421.116 263.588 421.101 270.951 418.923C273.336 418.235 273.485 415.873 272.377 414.329Z" fill="#FFAA80"/>
<path d="M591.128 364.036C587.875 334.212 582.578 304.552 575.626 275.371C573.884 268.045 572.242 260.41 567.912 254.096C564.399 248.969 559.776 242.554 551.545 236.95C543.353 231.368 531.134 236.888 524.243 244.607C520.393 248.924 520.674 254.066 521.346 259.461C522.175 266.131 523.019 272.794 523.847 279.456C527.186 306.12 530.522 332.784 533.859 359.448C535.686 374.048 537.437 388.661 539.852 403.174C540.037 404.295 540.759 404.842 541.586 404.965C541.935 405.753 542.663 406.363 543.794 406.354C556.5 406.333 569.802 404.881 580.116 396.797C584.312 393.509 587.705 389.286 589.678 384.314C592.257 377.869 591.871 370.797 591.128 364.036Z" fill="white"/>
<path d="M371.566 377.143L330.327 374.742C329.861 374.712 329.861 375.438 330.327 375.468L371.566 377.869C372.029 377.893 372.029 377.167 371.566 377.143Z" fill="#B4A887"/>
<path d="M376.195 357.359C364.457 359.882 352.857 363.024 341.444 366.761C341.003 366.907 341.188 367.601 341.638 367.455C353.051 363.718 364.643 360.585 376.389 358.052C376.846 357.951 376.652 357.258 376.195 357.359Z" fill="#B4A887"/>
<path d="M551.289 348.789C550.948 348.771 550.593 348.896 550.274 349.227C545.063 354.701 539.798 360.135 534.626 365.655C530.716 369.832 527.069 374.256 526.016 380.023C525.977 380.246 525.986 380.463 526.025 380.648C523.569 392.645 525.381 396.142 526.255 408.377C526.356 409.752 528.192 410.407 528.959 409.103C541.401 387.789 548.107 373.545 554.055 349.607C554.503 347.822 551.778 347.058 551.289 348.789Z" fill="#B4A887"/>
<path d="M550.214 367.308C543.23 341.879 531.832 317.638 527.845 291.42C526.69 283.833 526.219 276.159 526.643 268.493C526.667 268.03 525.947 268.03 525.915 268.493C524.413 295.312 534.155 320.795 542.672 345.745C545.126 352.94 547.495 360.167 549.509 367.502C549.641 367.948 550.337 367.764 550.214 367.308Z" fill="#B4A887"/>
<path d="M250.875 402.442C246.243 400.466 242.706 396.705 241.071 391.943C240.924 391.503 240.219 391.696 240.374 392.135C242.062 397.068 245.694 401.013 250.511 403.067C250.929 403.245 251.299 402.62 250.875 402.442Z" fill="#DF7B53"/>
<path d="M562.796 336.613C562.346 336.69 561.89 336.86 561.441 337.146C553.652 342.04 543.95 341.16 536.292 346.658C529.741 351.351 523.996 357.349 521.54 365.184C518.677 374.31 509.927 379.922 502.973 386.584C499.612 389.812 505.095 394.529 508.432 391.333C511.422 388.461 514.379 385.558 517.313 382.632C512.876 388.917 509.315 395.794 506.766 403.098C505.312 407.267 511.228 410.424 513.046 406.788C513.356 406.494 513.643 406.131 513.86 405.675C518.576 395.963 524.631 387.132 531.908 379.235C532.319 379.05 532.731 378.857 533.14 378.657C531.305 387.001 529.941 395.448 529.09 403.97C528.633 408.555 535.727 410.031 536.19 405.413C537.282 394.49 539.21 383.689 541.92 373.06C542.231 372.813 542.541 372.557 542.849 372.295C543.191 378.827 544.174 385.287 545.815 391.726C546.961 396.219 553.79 393.818 552.652 389.34C550.298 380.115 549.393 370.534 550.065 361.033C550.128 360.182 549.361 356.353 550.608 352.755C550.942 351.791 551.793 351.065 552.799 350.88C558.523 349.83 565.265 344.28 568.163 341.445C571.461 338.205 566.11 333.542 562.796 336.613Z" fill="#FFAA80"/>
<path d="M550.656 351.744C546.854 354.609 542.657 356.817 538.133 358.322C537.692 358.468 537.933 359.149 538.375 359.001C542.959 357.474 547.209 355.243 551.065 352.339C551.429 352.062 551.027 351.458 550.656 351.744Z" fill="#DF7B53"/>
<path d="M524.157 373.314C522.121 375.221 520.232 377.268 518.483 379.443C518.188 379.806 518.737 380.285 519.024 379.914C520.775 377.738 522.664 375.7 524.7 373.784C525.04 373.468 524.491 372.998 524.157 373.314Z" fill="#DF7B53"/>
<path d="M541.58 259.717C533.381 272.244 530.105 287.538 532.405 302.315C532.474 302.77 533.172 302.577 533.101 302.121C530.833 287.538 534.124 272.437 542.207 260.079C542.464 259.684 541.837 259.321 541.58 259.717Z" fill="#B4A887"/>
<path d="M259.814 425.37C259.525 423.379 257.451 420.774 256.507 419.065C255.254 416.784 253.989 414.518 252.725 412.252C250.112 407.591 247.453 402.95 244.763 398.335C239.529 389.372 231.282 374.519 225.76 365.747C225.664 365.586 225.51 365.547 225.368 365.586C225.31 365.528 188.686 369.755 169.005 370.517C168.748 370.408 194.264 434.483 194.129 434.648C195.144 435.98 246.734 425.448 258.903 425.843C259.256 425.856 259.538 425.843 259.846 425.639C259.833 425.549 259.827 425.458 259.814 425.37Z" fill="white"/>
<path d="M223.109 375.577C216.171 378.127 208.763 376.883 201.549 377.311C194.424 377.736 187.288 379.34 180.254 380.47C179.841 380.534 179.929 381.174 180.342 381.11C187.566 379.946 194.919 378.266 202.247 377.921C209.325 377.586 216.557 378.672 223.365 376.172C223.748 376.026 223.498 375.438 223.109 375.577Z" fill="#24324A"/>
<path d="M226.765 381.2C213.962 382.931 201.167 384.671 188.364 386.404C187.951 386.462 188.039 387.095 188.453 387.044C201.255 385.311 214.05 383.573 226.853 381.84C227.26 381.782 227.171 381.142 226.765 381.2Z" fill="#24324A"/>
<path d="M221.443 394.808C211.37 394.254 200.557 396.305 191.203 400.322C190.917 400.446 191.172 401.112 191.454 400.994C200.719 397.016 211.462 394.985 221.442 395.528C221.758 395.545 221.755 394.828 221.443 394.808Z" fill="#24324A"/>
<path d="M229.56 409.6C219.553 409.42 208.738 411.451 199.316 415.094C199.028 415.206 199.262 415.757 199.547 415.652C208.878 412.046 219.625 410.032 229.538 410.203C229.852 410.208 229.869 409.606 229.56 409.6Z" fill="#24324A"/>
<path d="M224.028 394.419C234.076 393.77 228.903 393.813 235.303 392.299C235.574 392.146 235.254 391.537 234.986 391.683C226.161 394.335 226.092 393.594 223.956 393.731C223.64 393.751 223.717 394.438 224.028 394.419Z" fill="#24324A"/>
<path d="M232.147 409.327C242.046 408.173 236.969 408.538 243.344 406.943C243.619 406.805 243.346 406.35 243.072 406.481C234.245 409.125 234.226 408.547 232.121 408.792C231.811 408.828 231.841 409.361 232.147 409.327Z" fill="#24324A"/>
<path d="M226.379 401.254C236.327 400.261 231.218 400.523 237.602 398.953C237.876 398.812 237.587 398.307 237.316 398.442C228.489 401.088 228.454 400.459 226.338 400.669C226.027 400.699 226.072 401.284 226.379 401.254Z" fill="#24324A"/>
<path d="M223.424 402.808C218.144 402.847 214.153 404.501 208.991 405.575C204.634 406.479 201.6 408.921 195.936 408.47C195.639 408.345 195.801 407.778 196.093 407.903C199.901 408.311 200.665 407.454 203.088 406.64C205.304 405.897 207.507 405.201 209.797 404.778C214.68 403.876 218.364 402.226 223.336 402.186C223.639 402.181 223.727 402.802 223.424 402.808Z" fill="#24324A"/>
<mask id="mask0_180_2930" style="mask-type:alpha" maskUnits="userSpaceOnUse" x="220" y="362" width="55" height="67">
<path d="M220.614 373.713C218.441 370.462 226.274 363.782 230.801 362.878C232.386 363.782 238 366.4 247.779 369.65C260.004 373.713 266.794 380.483 271.548 387.931C276.302 395.379 274.264 419.078 269.51 425.847C264.756 432.619 262.039 423.815 257.966 420.431C253.89 417.046 268.831 425.847 264.077 421.786C259.323 417.722 261.361 410.953 260.682 408.921C260.004 406.889 223.331 377.775 220.614 373.713Z" fill="#C4C4C4"/>
</mask>
<g mask="url(#mask0_180_2930)">
<path d="M302.93 444.481C303.04 444.015 303.113 443.514 303.076 442.975C302.721 436.597 301.553 430.364 299.688 424.243C299.576 423.863 299.416 423.532 299.244 423.225C299.048 422.894 298.951 422.516 298.975 422.136C299.098 420.409 298.262 418.708 296.041 417.875C285.921 414.054 276.808 407.456 268.175 401.247C254.483 391.415 248.882 388.146 237.486 373.784C233.519 368.788 225.672 371.25 227.809 377.298C235.975 400.377 254.741 401.138 247.544 408.889C241.465 415.439 223.117 411.46 214.202 411.887C203.886 412.389 193.742 414.288 183.832 417.091C177.458 418.891 180.958 427.804 187.417 426.36C190.881 425.589 235.177 421.855 237.056 425.712C237.633 426.9 236.663 428.27 235.3 428.369C217.542 429.679 199.858 431.612 182.247 434.232C175.714 435.211 176.549 445.08 183.131 444.101C201.307 441.395 219.556 439.412 237.879 438.102C238.738 438.04 239.524 438.519 239.893 439.264L239.93 439.339C240.544 440.587 239.672 442.032 238.235 442.178C226.998 443.355 216.056 446.145 205.568 450.565C199.502 453.125 203.039 462.419 209.154 459.835C221.091 454.803 233.433 452.06 246.303 451.508C246.573 452.855 246.499 452.488 246.781 453.823C241.772 455.636 236.859 457.681 232.045 459.97C226.151 462.786 229.651 472.092 235.631 469.238C243.406 465.529 259.775 459.481 262.391 458.697C274.07 455.243 288.99 455.219 300.67 451.766C304.453 450.677 304.686 446.929 302.93 444.481Z" fill="#FFAA80"/>
</g>
<path d="M0 0H229V94.6743C229 99.8248 224.825 104 219.674 104H0V0Z" fill="white"/>
<g clip-path="url(#clip1_180_2930)">
<path d="M113.542 20.6044H101.817C101.686 20.6044 101.621 20.6715 101.621 20.8058C101.296 26.2452 100.318 32.1547 98.8854 36.9225V37.124C98.9506 37.1912 99.0157 37.1912 99.0808 37.1912H103.119C103.185 37.1912 103.315 37.124 103.315 37.0569C104.422 33.3635 105.334 28.5284 105.66 24.4321H109.503V36.9897C109.503 37.124 109.568 37.1912 109.698 37.1912H113.542C113.672 37.1912 113.737 37.124 113.737 36.9897V20.873C113.737 20.7387 113.672 20.6044 113.542 20.6044ZM163.112 20.6044H159.269C159.139 20.6044 159.073 20.6715 159.073 20.8058V33.2963C158.227 33.5649 157.38 33.6321 156.468 33.6321C153.927 33.6321 153.341 32.8262 153.341 29.3343V20.873C153.341 20.7387 153.276 20.6715 153.146 20.6715H149.303C149.172 20.6715 149.107 20.7387 149.107 20.873V29.8715C149.107 35.5123 150.931 37.7284 155.686 37.7284C158.357 37.7284 161.418 36.9897 163.177 36.3182C163.242 36.3182 163.307 36.1839 163.307 36.1167V20.873C163.307 20.7387 163.242 20.6044 163.112 20.6044ZM82.0143 20.6715H78.106C77.9758 20.6715 77.9106 20.7387 77.9106 20.8058C77.3244 23.2905 76.0867 27.454 74.3931 31.8189L70.4848 20.7387C70.4848 20.6715 70.3546 20.6044 70.2894 20.6044H66.3811C66.316 20.6044 66.2508 20.6715 66.1857 20.6715C66.1206 20.7387 66.1206 20.8058 66.1857 20.873L72.0482 37.3926C71.4619 38.6685 70.8757 39.743 70.3546 40.7503C69.9637 41.489 69.5729 42.2276 69.1821 43.0334C69.1169 43.1006 69.1821 43.1677 69.1821 43.235C69.2472 43.302 69.3123 43.3693 69.3775 43.3693H73.6115C73.6766 43.3693 73.7418 43.302 73.8069 43.235C74.5234 41.8247 75.4354 39.8101 76.2822 37.7955C78.7574 31.7518 80.7767 26.1109 82.2749 20.9401C82.2749 20.873 82.2749 20.8058 82.2098 20.7387C82.1446 20.6715 82.0795 20.6715 82.0143 20.6715ZM95.9542 33.3635C95.9542 33.2963 95.8891 33.2291 95.8239 33.2291H95.6285C94.7166 33.5649 92.9578 33.9007 91.7202 33.9007C89.0493 33.9007 87.8117 33.162 87.8117 28.9313C87.8117 25.5737 88.2025 23.962 91.7202 23.962C92.6973 23.962 93.6743 24.0963 94.8468 24.4992C94.9771 24.4992 95.0423 24.4992 95.1074 24.365C95.5634 23.492 96.0845 22.4847 96.6707 21.1416V20.9401C96.6707 20.873 96.6056 20.8058 96.5404 20.8058C94.9771 20.2686 93.0881 20 91.4596 20C85.8575 20 83.3823 22.6861 83.3823 28.797C83.3823 34.9751 85.8575 37.7284 91.4596 37.7284C92.8276 37.7284 95.6285 37.3926 96.9313 36.8554C97.0616 36.7882 97.0616 36.7211 97.0616 36.5868L95.9542 33.3635ZM132.367 20.6715H128.458C128.393 20.6715 128.263 20.7387 128.263 20.8058C127.677 23.2905 126.439 27.454 124.745 31.8189L120.837 20.7387C120.837 20.6715 120.707 20.6044 120.642 20.6044H116.733C116.668 20.6044 116.603 20.6715 116.538 20.6715C116.473 20.7387 116.473 20.8058 116.538 20.873L122.4 37.3926C121.814 38.6685 121.228 39.6758 120.707 40.7503C120.316 41.489 119.925 42.2276 119.534 43.0334C119.469 43.1006 119.534 43.1677 119.534 43.235C119.599 43.302 119.665 43.3693 119.73 43.3693H123.964C124.029 43.3693 124.094 43.302 124.159 43.235C124.876 41.8247 125.788 39.8101 126.634 37.7955C129.11 31.7518 131.129 26.1109 132.562 20.9401C132.562 20.873 132.562 20.8058 132.497 20.7387C132.497 20.6715 132.432 20.6715 132.367 20.6715ZM146.697 20.6044H135.363C135.233 20.6044 135.168 20.6715 135.168 20.8058V36.9897C135.168 37.124 135.233 37.1912 135.363 37.1912H139.206C139.336 37.1912 139.402 37.124 139.402 36.9897V24.4992H145.329C145.394 24.4992 145.525 24.4321 145.525 24.365C145.981 23.2905 146.437 22.0817 146.892 20.9401V20.7387C146.827 20.6715 146.762 20.6044 146.697 20.6044Z" fill="#E62249"/>
<path d="M40.3884 34.0352C37.848 34.0352 37.0663 33.2965 37.0663 28.9316C37.0663 24.2309 37.9131 23.828 40.3884 23.828C42.8636 23.828 43.7755 24.2309 43.7755 28.9316C43.7755 33.3637 42.9287 34.0352 40.3884 34.0352ZM40.3884 20.1345C34.8516 20.1345 32.702 22.5521 32.702 28.8644C32.702 35.244 34.8516 37.7286 40.3884 37.7286C45.9251 37.7286 48.1398 35.244 48.1398 28.8644C48.1398 22.6192 45.9251 20.1345 40.3884 20.1345ZM63.3822 33.3637C63.3822 33.2965 63.3171 33.2294 63.2519 33.2294H63.0565C62.1446 33.5651 60.3858 33.9009 59.1482 33.9009C56.4775 33.9009 55.2399 33.1622 55.2399 28.9316C55.2399 25.5739 55.6307 23.9623 59.1482 23.9623C60.1253 23.9623 61.1024 24.0966 62.2749 24.4995C62.34 24.4995 62.4703 24.4995 62.5354 24.3652C62.9914 23.4922 63.5125 22.4849 64.0987 21.1418V20.9404C64.0987 20.8732 64.0336 20.8061 63.9685 20.8061C62.4703 20.336 60.5813 20.0674 58.9528 20.0674C53.3509 20.0674 50.8756 22.7535 50.8756 28.8644C50.8756 35.0425 53.3509 37.7958 58.9528 37.7958C60.3207 37.7958 63.1217 37.46 64.4244 36.9228C64.5547 36.8556 64.5547 36.7885 64.5547 36.6542L63.3822 33.3637ZM31.5295 20.6046H20.1954C20.0651 20.6046 20 20.7389 20 20.8732V37.0571C20 37.1914 20.0651 37.2586 20.1954 37.2586H24.0386C24.1689 37.2586 24.234 37.1914 24.234 37.0571V24.4995H30.1616C30.2268 24.4995 30.2919 24.4323 30.357 24.3652C30.813 23.2907 31.269 22.082 31.7249 20.9404V20.7389C31.6598 20.6718 31.5947 20.6046 31.5295 20.6046Z" fill="#005CA9"/>
</g>
<path d="M27.1045 54.1533C29.4076 54.1533 31.0881 54.605 32.146 55.5083C33.2121 56.4035 33.7451 57.6893 33.7451 59.3657C33.7451 60.1226 33.619 60.8428 33.3667 61.5264C33.1226 62.2018 32.7238 62.8 32.1704 63.3208C31.617 63.8335 30.8887 64.2404 29.9854 64.5415C29.0902 64.8345 27.9915 64.981 26.6895 64.981H24.5166V72H22.4414V54.1533H27.1045ZM26.9092 55.9233H24.5166V63.1987H26.4575C27.5968 63.1987 28.5449 63.0767 29.3018 62.8325C30.0667 62.5884 30.6405 62.1937 31.0229 61.6484C31.4054 61.0951 31.5967 60.3626 31.5967 59.4512C31.5967 58.263 31.2183 57.38 30.4614 56.8022C29.7046 56.2163 28.5205 55.9233 26.9092 55.9233ZM42.3267 58.377C43.466 58.377 44.4425 58.6292 45.2563 59.1338C46.0701 59.6383 46.6927 60.3464 47.124 61.2578C47.5553 62.1611 47.771 63.2191 47.771 64.4316V65.689H38.5303C38.5547 67.2596 38.9453 68.4559 39.7021 69.2778C40.459 70.0998 41.5251 70.5107 42.9004 70.5107C43.7467 70.5107 44.4954 70.4334 45.1465 70.2788C45.7975 70.1242 46.473 69.8963 47.1729 69.5952V71.3774C46.4974 71.6785 45.826 71.8983 45.1587 72.0366C44.4995 72.175 43.7183 72.2441 42.8149 72.2441C41.5291 72.2441 40.4061 71.9837 39.4458 71.4629C38.4937 70.9339 37.7531 70.1608 37.2241 69.1436C36.6951 68.1263 36.4307 66.8812 36.4307 65.4082C36.4307 63.9678 36.6707 62.7227 37.1509 61.6729C37.6392 60.6149 38.3228 59.8011 39.2017 59.2314C40.0887 58.6618 41.1304 58.377 42.3267 58.377ZM42.3022 60.0371C41.2199 60.0371 40.3573 60.3911 39.7144 61.0991C39.0715 61.8071 38.689 62.7959 38.5669 64.0654H45.647C45.6388 63.2679 45.5127 62.568 45.2686 61.9658C45.0326 61.3555 44.6704 60.8835 44.1821 60.5498C43.6938 60.208 43.0672 60.0371 42.3022 60.0371ZM69.1577 58.6211V72H51.2134V58.6211H53.2397V70.2788H59.1602V58.6211H61.1987V70.2788H67.1313V58.6211H69.1577ZM78.4595 58.4014C80.0545 58.4014 81.2386 58.7594 82.0117 59.4756C82.7848 60.1917 83.1714 61.3351 83.1714 62.9058V72H81.6943L81.3037 70.0225H81.2061C80.8317 70.5107 80.4411 70.9217 80.0342 71.2554C79.6273 71.5809 79.1553 71.8291 78.6182 72C78.0892 72.1628 77.4382 72.2441 76.665 72.2441C75.8512 72.2441 75.127 72.1017 74.4922 71.8169C73.8656 71.5321 73.3691 71.1007 73.0029 70.5229C72.6449 69.9451 72.4658 69.2127 72.4658 68.3257C72.4658 66.991 72.9948 65.9657 74.0527 65.2495C75.1107 64.5334 76.722 64.1427 78.8867 64.0776L81.1938 63.98V63.1621C81.1938 62.0065 80.9456 61.1968 80.4492 60.7329C79.9528 60.269 79.2529 60.0371 78.3496 60.0371C77.6497 60.0371 76.9824 60.1388 76.3477 60.3423C75.7129 60.5457 75.1107 60.7858 74.541 61.0625L73.9185 59.5244C74.5207 59.2152 75.2124 58.9507 75.9937 58.731C76.7749 58.5112 77.5968 58.4014 78.4595 58.4014ZM81.1694 65.4082L79.1309 65.4937C77.4626 65.5588 76.2866 65.8314 75.603 66.3115C74.9194 66.7917 74.5776 67.4712 74.5776 68.3501C74.5776 69.1151 74.8096 69.6807 75.2734 70.0469C75.7373 70.4131 76.3517 70.5962 77.1167 70.5962C78.3049 70.5962 79.2773 70.2666 80.0342 69.6074C80.791 68.9482 81.1694 67.9595 81.1694 66.6411V65.4082ZM92.4976 58.377C93.6369 58.377 94.6134 58.6292 95.4272 59.1338C96.241 59.6383 96.8636 60.3464 97.2949 61.2578C97.7262 62.1611 97.9419 63.2191 97.9419 64.4316V65.689H88.7012C88.7256 67.2596 89.1162 68.4559 89.873 69.2778C90.6299 70.0998 91.696 70.5107 93.0713 70.5107C93.9176 70.5107 94.6663 70.4334 95.3174 70.2788C95.9684 70.1242 96.6439 69.8963 97.3438 69.5952V71.3774C96.6683 71.6785 95.9969 71.8983 95.3296 72.0366C94.6704 72.175 93.8892 72.2441 92.9858 72.2441C91.7 72.2441 90.577 71.9837 89.6167 71.4629C88.6646 70.9339 87.924 70.1608 87.395 69.1436C86.866 68.1263 86.6016 66.8812 86.6016 65.4082C86.6016 63.9678 86.8416 62.7227 87.3218 61.6729C87.8101 60.6149 88.4937 59.8011 89.3726 59.2314C90.2596 58.6618 91.3013 58.377 92.4976 58.377ZM92.4731 60.0371C91.3908 60.0371 90.5282 60.3911 89.8853 61.0991C89.2424 61.8071 88.8599 62.7959 88.7378 64.0654H95.8179C95.8097 63.2679 95.6836 62.568 95.4395 61.9658C95.2035 61.3555 94.8413 60.8835 94.353 60.5498C93.8647 60.208 93.2381 60.0371 92.4731 60.0371ZM115.508 58.6211V72H113.677V63.2842C113.677 62.9261 113.685 62.564 113.701 62.1978C113.726 61.8234 113.754 61.4491 113.787 61.0747H113.713L109.27 72H107.549L103.215 61.0747H103.142C103.167 61.4491 103.183 61.8234 103.191 62.1978C103.207 62.564 103.215 62.9505 103.215 63.3574V72H101.372V58.6211H104.094L108.416 69.5586L112.798 58.6211H115.508ZM136.846 61.978C136.846 62.8162 136.602 63.4714 136.113 63.9434C135.625 64.4072 134.994 64.7205 134.221 64.8833V64.981C135.059 65.0949 135.78 65.396 136.382 65.8843C136.992 66.3644 137.297 67.1009 137.297 68.0938C137.297 68.8587 137.114 69.5342 136.748 70.1201C136.382 70.7061 135.808 71.1659 135.027 71.4995C134.246 71.8332 133.228 72 131.975 72H126.213V58.6211H131.926C132.887 58.6211 133.733 58.731 134.465 58.9507C135.206 59.1623 135.788 59.5122 136.211 60.0005C136.634 60.4888 136.846 61.1479 136.846 61.978ZM135.186 68.0938C135.186 67.3044 134.884 66.7347 134.282 66.3848C133.688 66.0348 132.821 65.8599 131.682 65.8599H128.252V70.3521H131.731C132.854 70.3521 133.708 70.1812 134.294 69.8394C134.889 69.4894 135.186 68.9076 135.186 68.0938ZM134.783 62.21C134.783 61.5752 134.551 61.1032 134.087 60.7939C133.623 60.4766 132.862 60.3179 131.804 60.3179H128.252V64.1631H131.45C132.549 64.1631 133.379 64.0044 133.94 63.687C134.502 63.3696 134.783 62.8773 134.783 62.21ZM154.692 58.6211V72H152.861V63.2842C152.861 62.9261 152.869 62.564 152.886 62.1978C152.91 61.8234 152.939 61.4491 152.971 61.0747H152.898L148.455 72H146.733L142.4 61.0747H142.327C142.351 61.4491 142.367 61.8234 142.375 62.1978C142.392 62.564 142.4 62.9505 142.4 63.3574V72H140.557V58.6211H143.279L147.6 69.5586L151.982 58.6211H154.692ZM164.055 58.377C165.194 58.377 166.171 58.6292 166.985 59.1338C167.799 59.6383 168.421 60.3464 168.853 61.2578C169.284 62.1611 169.5 63.2191 169.5 64.4316V65.689H160.259C160.283 67.2596 160.674 68.4559 161.431 69.2778C162.188 70.0998 163.254 70.5107 164.629 70.5107C165.475 70.5107 166.224 70.4334 166.875 70.2788C167.526 70.1242 168.201 69.8963 168.901 69.5952V71.3774C168.226 71.6785 167.555 71.8983 166.887 72.0366C166.228 72.175 165.447 72.2441 164.543 72.2441C163.258 72.2441 162.135 71.9837 161.174 71.4629C160.222 70.9339 159.482 70.1608 158.953 69.1436C158.424 68.1263 158.159 66.8812 158.159 65.4082C158.159 63.9678 158.399 62.7227 158.879 61.6729C159.368 60.6149 160.051 59.8011 160.93 59.2314C161.817 58.6618 162.859 58.377 164.055 58.377ZM164.031 60.0371C162.948 60.0371 162.086 60.3911 161.443 61.0991C160.8 61.8071 160.417 62.7959 160.295 64.0654H167.375C167.367 63.2679 167.241 62.568 166.997 61.9658C166.761 61.3555 166.399 60.8835 165.911 60.5498C165.422 60.208 164.796 60.0371 164.031 60.0371ZM178.301 72.2441C177.096 72.2441 176.034 71.9959 175.115 71.4995C174.195 71.0031 173.479 70.2463 172.966 69.229C172.454 68.2118 172.197 66.93 172.197 65.3838C172.197 63.7643 172.466 62.4419 173.003 61.4165C173.548 60.383 174.297 59.618 175.249 59.1216C176.201 58.6252 177.284 58.377 178.496 58.377C179.163 58.377 179.806 58.4461 180.425 58.5845C181.051 58.7147 181.564 58.8815 181.963 59.085L181.353 60.7817C180.946 60.619 180.474 60.4725 179.937 60.3423C179.408 60.2121 178.911 60.147 178.447 60.147C177.52 60.147 176.746 60.3464 176.128 60.7451C175.518 61.1439 175.058 61.7298 174.749 62.5029C174.447 63.276 174.297 64.2282 174.297 65.3594C174.297 66.4417 174.443 67.3654 174.736 68.1304C175.037 68.8953 175.481 69.4813 176.067 69.8882C176.661 70.2869 177.402 70.4863 178.289 70.4863C178.997 70.4863 179.635 70.4131 180.205 70.2666C180.775 70.112 181.292 69.9329 181.755 69.7295V71.5361C181.308 71.764 180.807 71.939 180.254 72.061C179.709 72.1831 179.058 72.2441 178.301 72.2441ZM194.048 60.3423H189.641V72H187.639V60.3423H183.293V58.6211H194.048V60.3423ZM201.848 58.377C202.987 58.377 203.964 58.6292 204.778 59.1338C205.592 59.6383 206.214 60.3464 206.646 61.2578C207.077 62.1611 207.292 63.2191 207.292 64.4316V65.689H198.052C198.076 67.2596 198.467 68.4559 199.224 69.2778C199.98 70.0998 201.047 70.5107 202.422 70.5107C203.268 70.5107 204.017 70.4334 204.668 70.2788C205.319 70.1242 205.994 69.8963 206.694 69.5952V71.3774C206.019 71.6785 205.347 71.8983 204.68 72.0366C204.021 72.175 203.24 72.2441 202.336 72.2441C201.051 72.2441 199.928 71.9837 198.967 71.4629C198.015 70.9339 197.275 70.1608 196.746 69.1436C196.217 68.1263 195.952 66.8812 195.952 65.4082C195.952 63.9678 196.192 62.7227 196.672 61.6729C197.161 60.6149 197.844 59.8011 198.723 59.2314C199.61 58.6618 200.652 58.377 201.848 58.377ZM201.824 60.0371C200.741 60.0371 199.879 60.3911 199.236 61.0991C198.593 61.8071 198.21 62.7959 198.088 64.0654H205.168C205.16 63.2679 205.034 62.568 204.79 61.9658C204.554 61.3555 204.192 60.8835 203.704 60.5498C203.215 60.208 202.589 60.0371 201.824 60.0371Z" fill="#005CA9"/>
</g>
<defs>
<clipPath id="clip0_180_2930">
<rect width="658" height="567" fill="white"/>
</clipPath>
<clipPath id="clip1_180_2930">
<rect width="145" height="25" fill="white" transform="translate(20 20)"/>
</clipPath>
</defs>
</svg>
