<svg width="655" height="467" viewBox="0 0 655 467" fill="none" xmlns="http://www.w3.org/2000/svg">
<g clip-path="url(#clip0_82_2517)">
<path d="M0 0H192.43H201.781H460.478H468.321H469.581H474.729H654.439C654.726 0.450434 654.9 0.879708 654.946 1.41701C655.197 4.27368 655.019 7.28334 655.019 10.1545V26.1592L654.996 77.7401V276.078L655.019 324.224C655.023 327.945 655.544 339.065 654.854 341.995C654.822 342.133 654.786 342.269 654.749 342.406L654.736 343.064C655.549 346.618 655.01 351.138 655.005 354.816V376.772C655.01 405.934 655.43 435.168 654.991 464.319C654.978 465.226 655.005 466.025 654.539 466.841C654.512 466.896 654.475 466.946 654.439 467.001H640.366H638.945H629.604H604.628H562.41H557.294H548.255H449.408H442.366H396.579H264.095H216.56H210.804H93.1252H87.7961H76.7218H56.2688H25.7395H18.1574H0V0Z" fill="#AECEFE"/>
<path d="M285.611 323.334C289.028 324.666 292.018 326.821 295.489 328.066C296.332 328.839 296.831 329.826 297.398 330.805C294.146 329.165 290.823 327.626 287.898 325.436L288.651 325.849C287.718 324.823 286.455 324.448 285.611 323.334Z" fill="#CDDFFE"/>
<path d="M4.27733 361.49C4.20994 361.452 4.14126 361.416 4.07516 361.375C3.96791 361.309 3.86371 361.239 3.75745 361.171C3.428 360.962 3.09715 360.755 2.8331 360.462C0.890184 358.307 1.00935 353.715 1.28021 351.064C1.78681 346.106 4.27375 340.786 8.19379 337.625C8.14943 337.739 8.10622 337.852 8.06078 337.965C7.20991 340.074 5.56725 341.447 4.5627 343.41C1.72867 348.946 3.75398 355.642 4.27733 361.49Z" fill="#92BAFD"/>
<path d="M256.277 317.144L255.04 317.157C254.542 316.837 254.225 316.738 254.047 316.135C253.558 314.477 253.976 311.346 253.892 309.469C253.514 300.99 251.687 272.871 256.019 266.275C256.866 264.984 257.58 264.594 259.073 264.267C256.88 265.591 256.045 267.499 255.469 269.883C254.944 272.06 254.744 274.208 254.667 276.439C254.53 280.422 254.731 315.161 255.155 316.254L256.277 317.144Z" fill="#92BAFD"/>
<path d="M259.074 264.267C259.25 264.708 259.39 264.828 259.281 265.303C258.588 268.328 257.939 283.326 258.105 286.629L258.063 287.081C256.735 293.866 256.725 301.157 260.701 307.121C263.567 311.42 268.687 313.029 271.981 316.922C266.816 317.46 261.682 316.91 256.533 317.221L256.277 317.144L255.156 316.254C254.732 315.161 254.531 280.422 254.668 276.439C254.744 274.208 254.944 272.06 255.469 269.883C256.045 267.499 256.881 265.591 259.074 264.267Z" fill="#558AF7"/>
<path d="M206.338 136.033L206.857 136.032C212.431 136.384 218.036 136.007 223.615 136.195C230.795 136.438 237.977 137.003 245.167 137.227C251.936 137.438 258.747 137.245 265.521 137.279C273.975 137.321 282.702 138.02 291.123 137.587C291.175 138.431 291.172 139.319 291.292 140.154C270.127 140.516 248.924 140.253 227.756 140.249L207.316 140.248C203.743 140.247 199.919 140.533 196.392 140.069C195.696 139.598 195.662 139.246 195.35 138.482C195.42 137.878 195.38 137.58 195.832 137.127C197.497 135.455 203.951 136.169 206.338 136.033Z" fill="#92BAFD"/>
<path d="M293.71 164.222C294.201 162.876 294.631 159.638 295.517 158.724C296.38 158.719 296.681 158.918 297.288 159.565C299.176 161.574 300.383 166.879 301.736 169.582C302.31 174.204 308.115 176.97 308.994 180.141C309.185 180.828 308.983 181.623 308.845 182.304C307.771 186.884 305.008 193.076 300.799 195.617C298.739 196.86 297.049 195.649 295.216 197.593C294.619 197.919 294.068 198.239 293.409 198.417C292.322 198.71 289.926 200.519 288.193 201.145C286.881 201.022 285.568 201.728 284.135 201.501C283.784 199.935 283.917 198.232 283.981 196.635C284.313 188.382 287.064 184.218 289.986 176.96C291.51 173.176 293.003 168.565 293.657 164.556L293.71 164.222Z" fill="#904D30"/>
<path d="M48.5582 220.094C48.0366 216.664 47.5017 213.219 46.8248 209.817C45.5398 203.36 42.9918 196.351 44.3166 189.732C45.1434 185.602 48.3513 183.958 51.5651 181.807L51.5071 181.234L51.0855 181.26L51.5231 181.287C51.1841 179.824 51.1115 178.262 51.5966 176.819C52.8399 173.124 57.0047 170.906 60.3158 169.389C70.6295 164.665 84.1054 164.838 94.6234 168.828C99.6112 170.719 103.957 173.817 106.144 178.79C108.554 184.271 110.127 200.798 107.969 206.235C106.562 202.801 103.98 191.665 102.076 189.65C99.5263 189.455 95.5625 191.425 92.9607 191.974C89.657 192.671 86.0969 192.834 82.7224 192.848C79.1715 192.862 62.4945 191.219 60.7081 192.749C59.7777 193.546 59.722 195.557 59.6964 196.718C59.5781 202.056 62.2959 228.069 59.9791 230.513C57.7588 228.981 57.7118 221.984 53.7507 220.625C52.1794 220.086 50.203 220.155 48.5582 220.094Z" fill="#4A3E36"/>
<path d="M192.431 0H201.781C201.571 20.7956 201.582 41.591 201.815 62.3861C201.959 73.7884 201.982 85.191 201.885 96.5939C201.886 103.641 202.048 110.745 201.798 117.786C202.223 118.4 202.258 118.617 203.061 118.785C208.766 119.975 225.184 117.36 229.169 119.795L272.291 119.706C279.122 119.682 286.321 119.185 293.116 119.618C293.757 119.659 294.27 119.848 294.804 120.203C293.188 124.362 291.631 128.52 291.366 133.024L291.123 137.587C282.702 138.02 273.975 137.321 265.522 137.279C258.748 137.245 251.936 137.438 245.167 137.227C237.977 137.003 230.795 136.438 223.616 136.195C218.036 136.007 212.431 136.384 206.857 136.032L206.338 136.033C201.928 135.411 197.035 135.74 192.559 135.728C191.93 121.628 192.216 107.399 192.223 93.2856L192.233 33.005C192.271 21.9987 192.545 11.0085 192.431 0Z" fill="#FEFEFE"/>
<path d="M201.796 117.786C202.221 118.4 202.256 118.617 203.059 118.784C208.764 119.975 225.182 117.36 229.167 119.795C225.336 120.575 206.687 120.402 202.164 120.039C201.667 119.396 201.814 118.586 201.796 117.786Z" fill="#CDDFFE"/>
<path d="M206.855 136.032C213.3 135.194 223.922 135.788 230.742 135.772L274.064 135.495C277.587 135.503 287.839 136.392 290.607 135.123C290.962 134.961 291.243 133.461 291.364 133.023L291.121 137.587C282.7 138.02 273.973 137.321 265.52 137.279C258.746 137.245 251.934 137.438 245.165 137.227C237.975 137.003 230.794 136.437 223.614 136.195C218.034 136.007 212.429 136.384 206.855 136.032Z" fill="#AECEFE"/>
<path d="M8.19486 337.626C10.7346 335.407 17.0922 331.338 20.4765 331.388L20.8732 331.861C20.9698 333.49 20.9689 335.213 21.4223 336.788C21.9881 344.152 22.1806 353.624 25.7865 360.23C26.2636 364.133 28.2817 368.497 30.5356 371.738C30.5899 375.75 30.1992 381.602 32.0611 385.231C32.3421 387.806 32.4452 390.809 33.2558 393.265C33.6524 397.017 33.9142 400.796 34.4038 404.535C34.8516 407.955 35.5219 411.336 35.8718 414.77L37.1045 426.662C37.2492 428.202 37.2178 429.838 37.4935 431.355C37.6274 432.093 37.9165 432.661 38.3866 433.234C37.0245 436.268 40.6767 449.207 41.9274 452.758C37.0599 453.949 34.0837 456.694 30.3399 459.804C29.4186 460.899 28.573 462.048 27.8031 463.252C27.0332 464.456 26.3456 465.706 25.7402 467.001H18.1582C17.9233 459.325 17.157 449.531 15.2821 442.2C14.4603 438.391 14.0078 434.595 13.7084 430.714C13.7757 427.469 12.9771 423.952 12.551 420.737C11.545 413.145 10.4052 405.625 9.18558 398.068C8.11886 391.457 7.67538 384.827 6.77633 378.216C6.01578 372.623 4.92804 367.117 4.2784 361.49C3.75505 355.643 1.72975 348.946 4.56378 343.41C5.56833 341.447 7.21099 340.074 8.06185 337.965C8.1073 337.852 8.15051 337.739 8.19486 337.626Z" fill="#558AF7"/>
<path d="M13.707 430.714C15.1486 433.917 15.8772 436.803 15.4812 440.33L15.2807 442.199C14.4589 438.391 14.0064 434.595 13.707 430.714Z" fill="#5584EB"/>
<path d="M20.8727 331.86C20.9692 333.489 20.9684 335.213 21.4217 336.788C21.9876 344.151 22.18 353.623 25.786 360.23C26.263 364.133 28.2812 368.497 30.535 371.737C30.5894 375.75 30.1986 381.602 32.0606 385.231C32.3416 387.806 32.4446 390.809 33.2552 393.265C33.6519 397.017 33.9137 400.795 34.4033 404.535C34.851 407.955 35.5213 411.335 35.8712 414.77L37.1039 426.662C37.2486 428.202 37.2172 429.837 37.4929 431.355C37.6269 432.093 37.9159 432.661 38.3861 433.234C37.024 436.268 40.6762 449.207 41.9268 452.757C37.0593 453.949 34.0831 456.694 30.3393 459.804C27.2884 433.362 23.0543 407.245 18.715 380.991C17.0038 370.637 14.5507 346.084 9.79102 337.864C13.1409 334.692 16.8695 333.808 20.8727 331.86Z" fill="#5584EB"/>
<path d="M48.5591 220.094C50.2039 220.155 52.1803 220.086 53.7516 220.625C57.7127 221.984 57.7597 228.981 59.9801 230.513C62.2968 228.069 59.579 202.056 59.6973 196.718C59.7229 195.557 59.7786 193.546 60.709 192.75C62.4955 191.219 79.1724 192.862 82.7233 192.848C86.0979 192.834 89.6579 192.671 92.9617 191.974C95.5634 191.425 99.5272 189.455 102.077 189.65C103.981 191.666 106.563 202.801 107.97 206.235C109.047 209.626 109.211 213.755 109.693 217.303C110.665 224.468 112.363 231.977 111.853 239.222C111.615 242.612 110.775 245.911 109.222 248.945C107.001 253.286 103.173 257.171 98.4634 258.672C97.5859 258.952 95.351 259.171 94.8869 259.942C95.2322 261.808 95.2857 263.583 95.2843 265.479C95.2692 270.555 95.6196 277.931 91.7878 281.764C91.4292 282.122 91.0734 282.426 90.666 282.726L88.0291 283.37L87.5531 283.373L87.2229 283.404C87.0872 283.377 86.9511 283.352 86.8154 283.323C79.5538 281.782 65.0826 273.528 61.1174 267.248C61.1348 264.124 61.2019 261.118 61.523 258.006C62.3909 255.022 61.5152 247.357 61.349 243.887C61.127 242.372 60.9731 240.851 60.8123 239.329C58.6166 239.298 56.6996 239.238 54.6697 238.304C51.4303 236.814 48.9451 233.908 47.7328 230.578C46.3808 226.865 46.8983 223.574 48.5591 220.094Z" fill="#FEAA81"/>
<path d="M51.5918 224.955C52.1586 225.006 52.646 225.078 53.1238 225.413C55.1815 226.856 55.3674 231.713 55.7022 234.017L55.06 233.791C53.1357 232.013 52.3254 227.488 51.5918 224.955Z" fill="#B36948"/>
<path d="M100.069 212.931C100.753 212.931 101.428 213.061 102.103 213.165C102.745 213.728 103.257 214.247 103.537 215.074C104.258 217.203 103.419 219.366 102.508 221.267C101.981 221.309 101.529 221.338 101.019 221.166C100.217 220.895 99.7002 220.321 99.3928 219.544C98.5779 217.483 99.1776 214.863 100.069 212.931Z" fill="#904D30"/>
<path d="M75.4539 215.83C75.8335 215.799 76.2346 215.753 76.6146 215.778C77.3906 215.829 77.8661 216.154 78.3498 216.749C79.061 217.623 79.2953 218.82 79.2282 219.918C79.1108 221.84 78.6243 222.707 77.2294 223.95C76.33 223.947 75.2502 223.977 74.5413 223.372C73.8699 222.799 73.5154 221.704 73.4789 220.844C73.3967 218.91 74.1307 217.192 75.4539 215.83Z" fill="#904D30"/>
<path d="M97.6953 206.032C99.9869 205.94 102.926 205.909 105.081 206.755C106.305 207.235 107.827 208.072 108.292 209.393C108.578 210.203 108.603 210.58 108.286 211.356L107.71 211.3C106.499 210.896 105.249 210.429 103.992 210.2C101.886 209.816 98.4737 210.082 96.685 208.958C96.0907 208.584 96.1259 208.366 95.9902 207.725C96.3415 206.819 96.8942 206.536 97.6953 206.032Z" fill="#904D30"/>
<path d="M74.7071 209.009C76.3067 208.883 78.3233 208.616 79.8165 209.25C80.418 209.891 80.5719 209.917 80.6341 210.827C79.4182 212.571 75.8353 212.658 73.8845 213.474L73.4775 213.647C71.8656 214.182 70.0367 215.033 68.3197 214.62C67.7291 214.479 67.7633 214.409 67.4473 213.893C67.5222 213.616 67.587 213.393 67.7442 213.149C69.1798 210.92 72.2227 209.518 74.7071 209.009Z" fill="#904D30"/>
<path d="M98.6595 239.583C98.8225 239.611 99.0267 239.785 99.1674 239.876C99.039 240.418 98.8956 240.773 98.59 241.246C97.3111 243.22 95.6023 244.601 93.277 245.094C90.1203 245.762 86.8923 245.228 84.1942 243.49C83.5077 242.449 82.8842 241.366 82.2461 240.295C88.1443 241.237 92.8901 241.32 98.6595 239.583Z" fill="#FEFEFE"/>
<path d="M89.0651 218.399C92.1355 219.293 94.7039 220.764 96.6031 223.407C97.8277 225.112 98.6672 227.315 98.2278 229.426C97.7706 231.625 96.3414 232.617 94.5906 233.772C92.4721 233.861 90.4418 233.828 88.3453 233.504C87.6172 233.186 86.7658 232.881 86.1419 232.384C85.6234 231.971 85.5768 231.88 85.5156 231.238C87.7574 229.292 92.2936 231.634 94.8062 229.894C95.5722 226.733 90.25 223.583 88.8865 220.972C88.4471 220.129 88.8066 219.247 89.0651 218.399Z" fill="#F08152"/>
<path d="M63.461 246.757C67.6052 253.061 72.6474 257.681 80.2379 259.216C84.8517 260.149 89.2988 259.867 93.9249 259.261C94.2871 261.349 94.5575 263.507 95.0705 265.562C94.8827 266.546 94.8996 266.967 94.2223 267.729C91.8343 268.495 83.6344 266.121 81.3301 265.113C73.5281 261.702 66.4272 255.285 63.2422 247.259L63.461 246.757Z" fill="#B36948"/>
<path d="M153.117 232.681C150.838 230.176 145.426 226.628 144.779 223.381C144.93 222.776 144.927 222.495 145.451 222.099C146.983 220.94 150.835 221.528 152.58 221.848C157.748 222.793 162.61 225.849 165.548 230.186C165.7 229.786 165.87 229.394 166.059 229.01C167.576 225.948 170.307 223.993 173.529 222.972C175.279 222.417 177.686 221.97 179.349 222.95C179.986 223.325 180.376 223.873 180.533 224.594C181.034 226.883 179.283 229.26 178.123 231.076C179.665 230.868 181.232 230.682 182.787 230.629C188.382 230.433 194.165 232.098 198.278 236.042C201.542 239.172 202.751 243.368 202.834 247.784C202.891 250.856 202.157 252.62 200.01 254.832C198.043 255.544 195.983 255.888 194.009 256.638C195.312 260.583 195.539 265.081 195.952 269.205C197.563 285.306 198.319 301.984 196.413 318.082C195.605 322.789 194.5 328.823 190.373 331.824C186.999 334.277 182.521 333.707 178.607 333.464C178.673 336.01 178.949 338.737 178.613 341.262L178.127 341.7C169.064 338.261 145.021 338.028 135.489 340.01C135.328 336.012 135.543 331.969 135.635 327.968C127.504 320.596 120.472 297.083 118.15 286.369C117.312 282.5 116.9 278.488 116.375 274.565L116.553 274.052C113.665 270.064 113.033 258.484 113.762 253.865C114.784 247.379 117.834 241.862 123.221 237.988C131.388 232.115 143.378 231.164 153.117 232.681Z" fill="#904D30"/>
<path d="M116.553 274.052C116.772 274.232 117.029 274.376 117.212 274.593C117.637 275.096 119.027 286.081 119.523 288.029C123.01 301.702 128 316.507 136.909 327.659L141.486 327.781C139.523 328.066 137.61 328.016 135.634 327.968C127.504 320.596 120.472 297.083 118.15 286.369C117.311 282.5 116.9 278.488 116.375 274.565L116.553 274.052Z" fill="#B36948"/>
<path d="M179.501 310.144C178.805 309.695 178.168 309.199 177.6 308.594C176.033 306.926 175.194 302.462 175.258 300.215C175.299 298.735 175.379 297.293 175.617 295.828C176.099 292.868 177.184 288.453 179.888 286.683C184.772 283.487 186.709 292.911 190.27 293.815C190.912 293.504 191.081 293.246 191.281 292.549C191.976 290.116 191.558 286.575 191.588 283.99C191.646 278.98 191.968 273.948 192.169 268.94C192.296 265.745 192.105 261.992 192.79 258.875C192.995 257.942 193.382 257.344 194.01 256.638C195.313 260.583 195.54 265.081 195.953 269.205C197.564 285.306 198.32 301.984 196.414 318.082C195.606 322.789 194.501 328.823 190.374 331.824C187 334.277 182.522 333.706 178.608 333.463C178.674 336.01 178.95 338.737 178.614 341.262L178.128 341.7C169.065 338.261 145.022 338.028 135.49 340.01C135.329 336.011 135.544 331.969 135.636 327.968C137.611 328.016 139.524 328.066 141.487 327.78C152.125 327.258 163.738 327.563 174.078 324.857C176.564 320.382 178.044 315.031 179.501 310.144Z" fill="#FEAA81"/>
<path d="M180.749 289.618C181.311 289.625 181.858 289.723 182.412 289.809C182.994 290.198 183.491 290.584 183.863 291.189C185.652 294.103 185.48 303.539 184.552 306.833C184.241 307.939 184.007 308.095 183.075 308.651C182.997 308.63 182.919 308.612 182.841 308.589C182.716 308.553 182.591 308.511 182.465 308.475C181.464 308.185 180.933 307.877 180.32 307.001C177.954 303.619 177.502 297.666 178.198 293.721C178.557 291.688 179.057 290.793 180.749 289.618Z" fill="#F08152"/>
<path d="M53.5565 265.063C55.2292 262.055 58.2283 259.132 61.5229 258.006C61.2018 261.118 61.1347 264.124 61.1173 267.247C65.0825 273.528 79.5537 281.782 86.8154 283.323C86.951 283.352 87.0871 283.377 87.2228 283.404L87.553 283.373L88.029 283.37L90.6659 282.726C91.0733 282.426 91.4291 282.122 91.7877 281.764C95.6195 277.93 95.2692 270.555 95.2842 265.478C95.2856 263.583 95.2322 261.808 94.8868 259.941L96.2567 260.843C98.7789 261.237 100.591 262.913 102.078 264.909C103.274 266.514 104.511 268.863 104.619 270.885C108.097 272.165 112.729 274.265 116.377 274.565C116.902 278.488 117.313 282.5 118.151 286.369C120.473 297.083 127.505 320.596 135.636 327.968C135.544 331.969 135.329 336.011 135.49 340.01C145.023 338.028 169.065 338.261 178.128 341.7C178.781 342.745 180.322 343.58 181.205 344.552C183.749 347.347 186.142 350.322 188.456 353.309C186.285 353.318 184.103 353.272 181.946 353.56C170.916 353.527 159.889 353.891 148.86 353.942C142.688 353.97 127.58 353.125 122.351 354.499C117.078 355.884 102.232 364.97 97.3776 368.511C94.0185 370.96 90.8509 373.737 87.8833 376.645C87.5174 378.056 81.6197 386.267 80.4042 386.98C80.2804 387.052 80.1521 387.116 80.026 387.184C79.1454 389.669 77.8166 392.061 77.0858 394.583C74.4722 403.601 73.9967 414.324 74.3471 423.661C74.9591 426.91 74.4393 430.815 74.5124 434.153C74.7268 441.426 75.137 448.689 75.7429 455.941C76.012 459.599 76.1357 463.379 76.7227 467H56.2697H25.7403C26.3457 465.705 27.0333 464.456 27.8032 463.252C28.5731 462.048 29.4187 460.898 30.3399 459.804C34.0838 456.694 37.0599 453.949 41.9275 452.757C40.6768 449.207 37.0246 436.268 38.3867 433.234C37.9166 432.661 37.6275 432.093 37.4936 431.355C37.2179 429.837 37.2493 428.202 37.1046 426.662L35.8719 414.77C35.5219 411.335 34.8517 407.955 34.4039 404.535C33.9143 400.795 33.6525 397.017 33.2559 393.265C32.4453 390.809 32.3422 387.806 32.0612 385.231C30.1993 381.602 30.59 375.75 30.5357 371.737C28.2818 368.497 26.2636 364.133 25.7866 360.23C22.1807 353.623 21.9882 344.152 21.4223 336.788C21.8598 332.476 21.2886 328.091 21.2162 323.767C21.1178 317.884 21.6783 311.914 22.6572 306.118C23.2151 302.815 23.7837 299.376 25.0281 296.254C28.1555 288.41 35.6948 280.958 42.4357 276.065C44.5418 274.537 46.8466 273.275 48.9788 271.762C49.1903 271.347 49.3652 271.078 49.7073 270.752C51.5522 268.994 51.8934 266.701 53.5565 265.063Z" fill="#FEFEFE"/>
<path d="M125.033 327.157C125.292 327.227 125.461 327.261 125.71 327.392C126.128 327.614 126.373 327.982 126.474 328.426C127.132 331.331 125.659 344.231 124.736 347.207C124.474 348.048 123.908 348.859 123.433 349.596L123.24 349.823L123 349.689C124.831 342.366 122.929 334.307 125.033 327.157Z" fill="#E2ECFE"/>
<path d="M83.9534 380.77C75.3091 367.208 68.3425 351.608 62.2991 336.717C61.1316 333.84 59.6567 330.964 58.697 328.022C58.3293 326.894 58.301 325.85 58.8268 324.783L59.1506 324.748C60.7338 326.12 64.1385 336.201 65.2607 338.79C70.1984 350.09 75.4621 361.236 81.052 372.229C82.0944 374.322 83.1253 377.945 84.7463 379.454C85.7594 379.17 86.8931 377.37 87.8834 376.644C87.5175 378.056 81.6198 386.267 80.4043 386.98C80.2805 387.052 80.1522 387.115 80.0261 387.184C80.7309 384.922 82.5913 382.699 83.9534 380.77Z" fill="#E2ECFE"/>
<path d="M48.9766 271.762C49.188 271.347 49.363 271.078 49.7051 270.752C51.55 268.994 51.8912 266.702 53.5543 265.063C53.2743 265.997 52.9171 267.025 52.8463 267.998C52.5106 272.591 56.2199 279.18 58.3823 283.192C60.5505 287.215 63.8342 293.105 68.4201 294.568C70.6391 295.275 72.7777 294.623 74.7317 293.527C79.4501 290.88 82.557 286.037 87.2205 283.404L87.5508 283.373C87.9404 283.77 87.9591 283.899 88.0998 284.417C86.899 290.082 84.0945 294.956 79.3304 298.31C74.4923 298.688 69.3579 297.807 65.2173 295.156C57.9374 290.494 53.5922 277.96 51.8281 269.819C50.9046 270.512 49.9463 271.136 48.9766 271.762Z" fill="#CDDFFE"/>
<path d="M94.8852 259.941L96.255 260.843C98.7773 261.237 100.589 262.913 102.077 264.909C103.272 266.514 104.51 268.863 104.617 270.885C104.616 270.947 104.613 271.01 104.612 271.072C104.565 274.832 107.717 289.728 106.332 291.884C105.162 292.615 104.142 292.593 102.833 292.293C98.7526 291.356 94.6897 288.683 91.4494 286.124C90.3121 285.226 89.2684 284.115 88.0273 283.37L90.6643 282.726C91.0717 282.426 91.4275 282.122 91.7861 281.764C95.6179 277.93 95.2675 270.555 95.2826 265.478C95.284 263.583 95.2305 261.808 94.8852 259.941Z" fill="#FEFEFE"/>
<path d="M96.255 260.843C98.7773 261.237 100.589 262.914 102.077 264.909C103.272 266.514 104.51 268.863 104.617 270.885C104.616 270.948 104.613 271.01 104.612 271.072C104.565 274.832 107.717 289.728 106.332 291.885C105.162 292.615 104.142 292.593 102.833 292.293C98.7526 291.357 94.6897 288.684 91.4494 286.124C90.3121 285.226 89.2684 284.115 88.0273 283.371L90.6643 282.726C90.5176 283.227 90.5423 283.36 90.63 283.856C93.0668 285.991 100.63 287.195 103.868 287.892C104.382 282.859 104.596 276.464 103.722 271.482C102.839 266.443 100.321 263.677 96.255 260.843Z" fill="#CDDFFE"/>
<path d="M53.5555 265.063C55.2281 262.055 58.2273 259.132 61.5219 258.006C61.2008 261.118 61.1337 264.124 61.1163 267.247C65.0815 273.528 79.5527 281.782 86.8143 283.323C86.95 283.352 87.0861 283.377 87.2218 283.404C82.5582 286.036 79.4513 290.88 74.7329 293.527C72.7789 294.623 70.6403 295.275 68.4213 294.567C63.8354 293.105 60.5517 287.215 58.3835 283.192C56.2212 279.18 52.5118 272.591 52.8475 267.998C52.9183 267.024 53.2755 265.996 53.5555 265.063Z" fill="#FEFEFE"/>
<path d="M25.7852 360.23C29.0756 365.118 30.759 370.616 33.3957 375.815C35.5186 380.001 38.3147 383.976 40.6699 388.051C48.268 401.196 53.9968 411.782 67.0753 420.144C69.1445 421.467 71.3365 423.124 73.7893 423.589C74.088 423.645 74.051 423.635 74.3456 423.661C74.9577 426.911 74.4379 430.815 74.511 434.153C70.9194 435.716 62.1948 436.186 58.3356 435.57C52.6968 436.418 44.1734 434 38.3853 433.234C37.9151 432.661 37.6261 432.093 37.4921 431.355C37.2164 429.838 37.2478 428.202 37.1031 426.662L35.8704 414.77C35.5205 411.336 34.8502 407.955 34.4025 404.535C33.9129 400.796 33.6511 397.017 33.2544 393.265C32.4438 390.809 32.3408 387.806 32.0598 385.231C30.1978 381.602 30.5886 375.75 30.5342 371.738C28.2804 368.497 26.2622 364.133 25.7852 360.23Z" fill="#FEFEFE"/>
<path d="M32.0599 385.231C32.2367 382.257 31.6701 379.054 31.7199 376.017C32.3563 377.145 32.9414 378.237 33.4219 379.443C31.7727 381.475 33.7406 390.122 33.2546 393.265C32.444 390.809 32.3409 387.806 32.0599 385.231Z" fill="#E2ECFE"/>
<path d="M25.7852 360.23C29.0756 365.118 30.759 370.616 33.3957 375.815C35.5186 380.001 38.3147 383.976 40.6699 388.051C48.268 401.196 53.9968 411.782 67.0753 420.144C69.1445 421.467 71.3365 423.124 73.7893 423.589C74.088 423.645 74.051 423.635 74.3456 423.661C74.9577 426.911 74.4379 430.815 74.511 434.153C70.9194 435.716 62.1948 436.186 58.3356 435.57C61.971 434.624 66.0161 434.473 69.7478 434.172C67.3836 432.207 65.071 430.247 63.0558 427.911C59.3797 423.652 56.3934 418.742 53.3176 414.048C45.566 402.216 39.4947 392.29 33.4218 379.443C32.9413 378.237 32.3562 377.146 31.7198 376.017C31.67 379.054 32.2365 382.257 32.0598 385.231C30.1978 381.602 30.5886 375.75 30.5342 371.738C28.2804 368.497 26.2622 364.133 25.7852 360.23Z" fill="#CDDFFE"/>
<path d="M38.3866 433.234C44.1747 434 52.6982 436.418 58.3369 435.57C62.1961 436.186 70.9208 435.716 74.5123 434.153C74.7267 441.427 75.1369 448.689 75.7428 455.941C76.0119 459.599 76.1357 463.38 76.7226 467.001H56.2696H25.7402C26.3456 465.705 27.0332 464.456 27.8031 463.252C28.573 462.048 29.4186 460.899 30.3399 459.804C34.0837 456.694 37.0599 453.949 41.9274 452.758C40.6767 449.207 37.0245 436.268 38.3866 433.234Z" fill="#4F778E"/>
<path d="M41.9274 452.757C42.3469 453.5 42.7915 454.227 43.2611 454.94C43.7306 455.652 44.2241 456.347 44.7414 457.026C45.2588 457.704 45.7988 458.364 46.3615 459.006C46.9242 459.647 47.5082 460.267 48.1136 460.866C48.719 461.468 49.3443 462.049 49.9895 462.609C50.6348 463.165 51.2985 463.7 51.9806 464.214C52.6627 464.728 53.3615 465.217 54.0771 465.682C54.7927 466.148 55.5236 466.587 56.2696 467H25.7402C26.3456 465.705 27.0332 464.456 27.8031 463.252C28.573 462.048 29.4186 460.898 30.3399 459.804C34.0837 456.694 37.0599 453.949 41.9274 452.757Z" fill="#295EDC"/>
<path d="M308.844 182.304C308.911 182.329 308.979 182.353 309.046 182.38C310.85 183.115 312.199 184.645 313.896 185.579C318.603 188.169 326.302 187.614 331.159 185.696C331.818 185.436 332.399 185.072 332.995 184.693C333.755 184.209 333.947 183.89 334.848 184.038L335.081 184.375C338.023 188.668 339.216 194.333 345.1 195.389C346.687 195.674 348.907 195.481 349.915 196.961C350.07 197.19 350.143 197.336 350.289 197.593C353.187 198.973 356.244 200.509 358.869 202.356C358.967 202.452 359.062 202.553 359.164 202.645C359.859 203.274 365.056 205.697 366.349 206.454C380.194 214.559 379.237 218.848 380.802 233.78C381.505 240.498 382.067 247.234 382.685 253.96C382.974 257.096 382.908 261.445 383.944 264.411C384.696 273.959 385.905 283.468 386.378 293.035C386.658 298.314 387.121 301.924 383.766 306.289C382.486 307.239 381.309 308.322 380.115 309.376C378.781 310.297 377.455 311.21 376.202 312.239C375.311 312.951 374.026 313.805 373.366 314.725C366.767 318.711 361.664 325.032 354.949 328.868C354.445 327.018 354.07 324.856 353.054 323.219L352.566 322.949L352.304 323.201C350.474 320.703 348.945 319.378 346.075 318.173L345.982 316.411L344.654 317.357C342.073 318.339 338.095 317.868 335.326 317.853L313.553 317.721C310.119 317.706 306.112 317.306 302.759 317.938L302.539 318.449C301.373 318.692 299.99 318.784 299.235 319.81C299.194 319.866 299.164 319.928 299.128 319.987C297.024 322.312 295.329 324.438 295.469 327.748C295.473 327.855 295.482 327.96 295.488 328.066C292.018 326.821 289.028 324.665 285.611 323.334C282.291 320.331 276.733 318.755 272.705 316.805C271.066 313.441 267.353 311.842 264.629 309.472C257.566 303.327 258.699 295.438 258.062 287.081L258.105 286.629C259.897 279.727 259.985 267.959 260.317 260.59C260.582 254.706 261.258 248.834 261.85 242.976C262.617 235.379 263.028 227.32 265.532 220.046C266.211 218.073 267.331 216.234 268.562 214.559C271.914 209.997 276.89 207.003 281.839 204.414C283.27 203.665 287.168 202.548 288 201.427C288.068 201.336 288.128 201.239 288.192 201.144C289.925 200.519 292.321 198.709 293.408 198.417C294.067 198.239 294.617 197.919 295.214 197.593C297.048 195.649 298.738 196.86 300.798 195.616C305.007 193.076 307.77 186.884 308.844 182.304Z" fill="#FEFEFE"/>
<path d="M365.769 234.287C367.547 241.414 367.88 254.293 366.811 261.516C366.443 263.995 365.12 266.239 365.024 268.769C364.836 273.714 366.311 278.469 365.909 283.483C364.826 279.556 364.836 275.465 364.659 271.424C362.524 275.695 362.732 281.325 361.426 283.605C361.082 281.004 361.352 278.407 361.91 275.851C362.968 271.004 364.548 266.231 365.121 261.289C366.147 252.437 365.427 243.208 365.769 234.287Z" fill="#E2ECFE"/>
<path d="M279.575 232.149C280.549 242.129 279.05 252.237 280.313 262.16C280.663 264.91 284.027 271.779 283.585 273.4C282.213 271.018 281.248 268.531 280.361 265.943C279.623 273.071 277.588 293.271 278.994 299.235L278.258 298.974C276.037 296.039 279.024 270.992 279.166 265.51C279.236 262.795 278.323 260.132 278.243 257.398C277.988 248.818 278.545 240.642 279.575 232.149Z" fill="#E2ECFE"/>
<path d="M364.661 271.423C364.837 275.465 364.828 279.555 365.911 283.482C366.285 287.428 368.143 295.354 365.434 298.505C364.748 299.303 363.929 299.846 362.983 300.284L362.415 300.159C360.078 295.366 361.967 288.836 361.427 283.605C362.733 281.325 362.526 275.694 364.661 271.423Z" fill="#558AF7"/>
<path d="M278.995 299.235C277.589 293.272 279.624 273.071 280.362 265.943C281.249 268.531 282.214 271.018 283.586 273.4C284.962 279.158 285.932 285.289 284.725 291.192C284.494 292.317 283.742 293.272 283.512 294.382C283.084 296.454 283.388 298.55 282.652 300.602C282.089 300.872 281.997 300.913 281.373 300.678C280.504 300.351 279.812 299.662 278.995 299.235Z" fill="#5584EB"/>
<path d="M351.785 304.055C354.65 303.723 357.61 303.899 360.436 303.367C359.258 304.567 358.103 305.763 356.79 306.817C352.99 309.798 349.707 313.337 345.983 316.412L344.655 317.357C342.074 318.339 338.096 317.868 335.326 317.853L313.554 317.721C310.12 317.706 306.113 317.306 302.76 317.938C297.862 313.416 292.254 309.801 287.15 305.54L284.746 303.751C291.766 304.734 300.789 304.088 307.969 304.09L351.785 304.055Z" fill="#5584EB"/>
<path d="M287.15 305.541C291.78 306.418 299.02 313.684 303.107 316.653C310.365 316.712 317.622 316.677 324.878 316.55C331.114 316.487 338.595 315.875 344.655 317.357C342.074 318.339 338.097 317.868 335.327 317.853L313.554 317.721C310.12 317.706 306.113 317.306 302.76 317.938C297.862 313.416 292.254 309.801 287.15 305.541Z" fill="#92BAFD"/>
<path d="M308.844 182.304C308.911 182.329 308.979 182.353 309.046 182.38C310.851 183.115 312.199 184.645 313.896 185.579C318.603 188.169 326.303 187.614 331.159 185.696C331.818 185.436 332.4 185.072 332.995 184.693C333.756 184.209 333.948 183.89 334.848 184.038L335.082 184.375C338.023 188.668 339.216 194.333 345.1 195.389C346.687 195.674 348.908 195.481 349.915 196.961C350.071 197.19 350.144 197.336 350.289 197.593C349.275 197.137 348.352 196.756 347.25 196.539C346.928 196.705 325.527 228.903 322.847 232.77C320.838 230.452 319.161 227.556 317.386 225.043C313.281 219.234 309.277 213.474 305.375 207.522C303.145 204.12 300.887 199.824 297.974 197.027C297.024 197.136 296.138 197.354 295.215 197.593C297.048 195.649 298.739 196.86 300.799 195.616C305.007 193.076 307.77 186.884 308.844 182.304Z" fill="#FEAA81"/>
<path d="M188.457 353.309C202.242 357.443 214.526 363.001 226.144 371.543C229.798 374.315 233.544 377.47 236.45 381.035L237.242 382.884L237.838 383.6C238.948 385.759 241.019 387.493 241.975 389.576C242.33 389.848 242.714 390.219 243.118 390.403C244.087 392.09 245.248 395.542 246.613 396.742C247.96 398.158 247.778 402.378 249.888 404.476L250.209 405.358C250.855 407.238 251.456 409.113 252.496 410.822C252.88 411.654 253.013 412.361 253.991 412.637C255.572 413.082 260.901 413.374 262.233 412.729L262.625 412.86L261.636 412.826C259.033 413.377 256.311 413.343 253.66 413.44C254.967 417.872 255.996 422.469 257.534 426.817C257.781 427.864 258.104 428.941 258.207 430.012C258.743 432.069 258.682 435.157 259.592 436.963C260.831 444.388 263.604 453.346 263.571 460.803C263.841 462.869 263.97 464.925 264.097 467H216.561H210.805H93.1264H87.7973H76.7231C76.1361 463.379 76.0123 459.599 75.7433 455.941C75.1373 448.689 74.7272 441.426 74.5128 434.153C74.4397 430.815 74.9595 426.91 74.3474 423.661C73.9971 414.324 74.4726 403.601 77.0862 394.583C77.817 392.061 79.1457 389.669 80.0264 387.184C80.1525 387.116 80.2808 387.052 80.4046 386.98C81.62 386.267 87.5178 378.056 87.8836 376.645C90.8512 373.737 94.0189 370.96 97.378 368.511C102.232 364.97 117.078 355.884 122.351 354.499C127.58 353.125 142.688 353.97 148.86 353.942C159.889 353.891 170.917 353.527 181.946 353.56C184.103 353.272 186.285 353.318 188.457 353.309Z" fill="#B36948"/>
<path d="M188.456 353.309C202.241 357.443 214.525 363.001 226.144 371.543C229.797 374.315 233.543 377.47 236.45 381.035L237.242 382.884C234.113 381.875 231.611 377.29 229.022 375.237C225.966 372.815 222.7 370.125 219.409 368.039C210.287 362.257 192.636 354.461 181.945 353.56C184.102 353.272 186.284 353.318 188.456 353.309Z" fill="#908664"/>
<path d="M241.975 389.576C242.329 389.848 242.713 390.22 243.117 390.403C244.086 392.09 245.247 395.542 246.612 396.742C247.96 398.159 247.777 402.379 249.888 404.476L250.208 405.358C250.855 407.238 251.455 409.114 252.495 410.822C252.879 411.654 253.012 412.361 253.99 412.637C255.572 413.083 260.9 413.374 262.233 412.729L262.624 412.86L261.636 412.826C259.032 413.378 256.311 413.343 253.659 413.44C254.966 417.872 255.995 422.469 257.533 426.818C257.78 427.864 258.103 428.941 258.206 430.012C258.742 432.07 258.681 435.157 259.592 436.963C260.83 444.388 263.603 453.346 263.57 460.803C263.062 460.301 262.841 459.827 262.685 459.138C261.257 452.809 260.381 446.265 259.034 439.892C258.063 435.295 256.57 430.755 255.719 426.163C254.707 423.522 254.188 420.734 253.394 418.025C252.356 414.481 251.053 410.952 249.747 407.497C247.452 401.425 244.19 395.703 241.975 389.576Z" fill="#908664"/>
<path d="M376.203 312.239C377.456 311.21 378.782 310.298 380.115 309.376C381.599 309.355 382.36 309.549 383.443 310.585C384.157 311.269 384.721 312.373 384.755 313.377C384.772 313.882 384.576 314.389 384.405 314.857L384.837 315.821C386.694 317.241 393.475 316.678 396 316.351C396.296 316.314 396.59 316.268 396.884 316.215C414.442 316.431 432.032 316.359 449.583 316.707C451.302 322.1 452.933 329.528 458.409 332.283C460.492 333.331 463.164 333.852 465.434 334.392C466.955 334.739 468.572 335.007 470.056 335.479C471.719 337.661 469.7 341.315 470.723 343.838C466.521 344.56 463.415 346.24 460.898 349.76C459.628 351.531 453.653 360.472 453.602 361.735C450.651 362.862 446.927 363.793 444.339 365.593C438.204 369.129 433.606 373.827 428.916 379.051L428.15 379.756C427.387 380.504 426.564 381.219 425.999 382.133C425.109 383.44 424.031 384.782 423.295 386.173L422.785 388.822C422.5 389.316 422.203 389.794 421.983 390.32C421.114 390.919 420.429 391.4 419.802 392.272C418.684 394.387 417.511 396.49 416.497 398.657C416.209 399.287 415.776 400.011 415.592 400.671C414.554 403.356 413.629 406.232 412.343 408.801L411.771 410.712C409.606 416.503 407.846 422.502 405.533 428.223C404.685 430.812 403.606 433.517 403.641 436.276L403.26 436.737C400.965 444.205 396.784 459.612 396.579 467H264.095C263.969 464.925 263.84 462.869 263.57 460.803C263.602 453.346 260.83 444.388 259.591 436.963C258.681 435.157 258.741 432.069 258.206 430.012C258.102 428.941 257.779 427.864 257.532 426.817C255.994 422.468 254.966 417.872 253.658 413.44C256.31 413.343 259.032 413.377 261.635 412.826L262.623 412.86L262.232 412.729C260.9 413.374 255.571 413.082 253.99 412.637C253.011 412.361 252.879 411.654 252.494 410.822C251.454 409.113 250.854 407.238 250.207 405.358L249.887 404.476C247.777 402.378 247.959 398.158 246.611 396.742C245.247 395.542 244.086 392.09 243.117 390.403C242.713 390.219 242.328 389.848 241.974 389.576C241.018 387.493 238.946 385.759 237.837 383.6L237.241 382.884L236.449 381.035C233.543 377.47 229.796 374.315 226.143 371.543C214.525 363.001 202.24 357.443 188.455 353.309C186.141 350.322 183.747 347.347 181.204 344.551C180.321 343.58 178.78 342.745 178.127 341.7L178.613 341.262C178.949 338.737 178.674 336.01 178.607 333.463C182.521 333.706 186.999 334.277 190.373 331.824C194.5 328.823 195.605 322.789 196.414 318.082C203.536 318.464 249.819 319.149 253.495 317.841C254.386 317.891 255.274 317.954 256.165 317.987C265 318.312 276.56 324.651 284.612 328.372C288.773 330.295 294.808 332.252 297.918 335.658C299.781 337.698 300.997 340.228 303.663 341.353C303.93 341.466 304.193 341.582 304.462 341.691C302.39 337.936 299.863 334.306 297.398 330.805C296.831 329.825 296.332 328.839 295.489 328.066C295.483 327.961 295.474 327.855 295.47 327.749C295.33 324.438 297.024 322.312 299.128 319.987C299.164 319.929 299.195 319.866 299.235 319.81C299.991 318.784 301.374 318.693 302.54 318.449L302.76 317.938C306.112 317.306 310.12 317.706 313.554 317.721L335.326 317.853C338.096 317.868 342.073 318.339 344.655 317.357L345.983 316.411L346.075 318.173C348.945 319.378 350.475 320.703 352.304 323.201L352.566 322.949L353.055 323.219C354.071 324.856 354.446 327.018 354.95 328.868C361.665 325.032 366.768 318.711 373.366 314.725C374.026 313.805 375.311 312.951 376.203 312.239Z" fill="#E2ECFE"/>
<path d="M376.203 312.239C377.456 311.21 378.782 310.298 380.115 309.376C381.599 309.355 382.36 309.549 383.443 310.585C384.157 311.269 384.721 312.373 384.755 313.377C384.772 313.882 384.577 314.389 384.405 314.857C381.851 313.053 378.962 313.259 376.203 312.239Z" fill="#5584EB"/>
<path d="M373.368 314.725L373.216 315.644C374.808 316.258 376.547 315.089 378.023 315.799C378.207 316.454 378.127 316.538 377.892 317.189C374.514 320.261 370.288 322.448 366.413 324.836C361.06 328.136 354.061 332.603 349.242 336.594C346.129 339.171 343.672 342.721 340.914 345.678C339.283 345.795 337.667 345.937 336.031 345.829C337.599 343.48 339.443 341.514 341.542 339.631C341.02 340.5 340.444 341.382 340.001 342.293C339.734 342.846 339.516 343.402 339.713 344.008L340.29 343.967C343.23 342.019 352.247 330.134 353.674 326.755L352.306 323.201L352.568 322.949L353.056 323.219C354.073 324.856 354.448 327.018 354.951 328.868C361.667 325.032 366.769 318.711 373.368 314.725Z" fill="#AECEFE"/>
<path d="M280.054 383.084L280.179 382.894C280.532 382.346 280.791 381.836 281.043 381.236C281.372 380.452 281.794 379.975 282.399 379.393L282.746 379.47C282.527 383.534 280.449 388.276 279.342 392.256C278.128 396.62 277.083 401.036 275.779 405.374C274.296 410.306 272.555 415.16 271.044 420.083C269.996 423.494 269.231 427.044 268.036 430.401C267.632 431.54 266.969 433.747 266.033 434.537C264.655 435.7 260.005 434.199 259.711 435.703C259.656 435.988 259.732 436.399 259.757 436.692L259.59 436.963C258.68 435.157 258.74 432.069 258.205 430.012C258.101 428.941 257.778 427.864 257.531 426.817C259.499 426.834 262.042 427.095 263.908 426.426C266.867 423.711 277.365 389.887 280.054 383.084Z" fill="#AECEFE"/>
<path d="M299.13 319.987C301.166 319.172 302.392 318.936 304.515 319.815C309.125 321.724 312.715 326.394 316.901 329.147C317.881 329.819 318.581 330.366 319.254 331.379L319.363 332.082C318.918 332.479 318.864 332.596 318.231 332.547C317.597 332.498 316.943 332.2 316.35 331.981C317.582 333.478 320.888 336.538 321.345 338.262L320.942 338.863C319.14 338.95 317.877 337.426 316.441 336.5C317.942 338.633 321.044 342.042 321.248 344.678L320.92 345.117C319.533 345.038 317.964 343.412 317.524 343.692C317.391 344.722 317.422 345.833 316.637 346.587C315.673 346.832 314.949 346.472 314.123 345.988C310.461 343.844 307.943 340.31 304.955 337.387C306.319 340.489 308.044 343.521 309.157 346.715C307.318 345.24 305.93 343.513 304.463 341.691C302.391 337.936 299.865 334.306 297.399 330.805C296.833 329.825 296.333 328.839 295.49 328.066C295.484 327.961 295.475 327.855 295.471 327.749C295.331 324.438 297.025 322.312 299.13 319.987Z" fill="#FEAA81"/>
<path d="M346.076 318.173C348.947 319.378 350.476 320.703 352.305 323.201L353.673 326.755C352.246 330.134 343.23 342.019 340.29 343.967L339.713 344.008C339.515 343.402 339.733 342.846 340.001 342.293C340.443 341.382 341.02 340.5 341.542 339.631C339.442 341.514 337.598 343.48 336.031 345.829C335.542 346.355 335.17 346.425 334.5 346.561C333.808 346.267 333.825 346.325 333.542 345.635C333.618 344.955 333.745 344.527 334.157 343.973C334.866 343.018 335.425 341.981 336.01 340.948C335.948 340.997 335.886 341.045 335.823 341.093C334.101 342.393 332.294 345.473 330.424 345.997L330.149 345.659C330.228 345.14 330.307 344.624 330.432 344.113L330.522 343.755C329.041 344.711 327.902 346.568 326.592 347.82C327.707 344.136 329.885 340.843 331.737 337.493C329.721 339.271 328.633 341.46 325.854 342.175L325.699 341.759C327.185 337.974 330.72 333.635 333.205 330.393C331.815 331.407 330.346 332.548 328.758 333.235C328.103 333.519 327.607 333.832 326.918 333.566C327.092 332.885 327.384 332.436 327.82 331.891C331.292 327.544 340.645 318.804 346.076 318.173Z" fill="#FEAA81"/>
<path d="M226.145 371.543C226.333 371.377 226.734 370.919 226.943 370.839C229.46 369.87 277.319 370.403 283.742 370.619C282.709 374.848 280.75 378.78 280.057 383.084C277.368 389.887 266.869 423.711 263.91 426.426C262.045 427.096 259.501 426.834 257.534 426.818C255.996 422.469 254.967 417.872 253.66 413.44C256.312 413.343 259.033 413.378 261.637 412.826L262.625 412.86L262.233 412.729C260.901 413.374 255.573 413.083 253.991 412.637C253.013 412.361 252.88 411.654 252.496 410.822C251.456 409.114 250.855 407.238 250.209 405.358L249.889 404.476C247.778 402.379 247.961 398.159 246.613 396.742C245.248 395.542 244.087 392.09 243.118 390.403C242.714 390.22 242.33 389.848 241.976 389.576C241.019 387.493 238.948 385.759 237.838 383.6L237.243 382.884L236.451 381.035C233.544 377.471 229.798 374.316 226.145 371.543Z" fill="#FEFEFE"/>
<path d="M250.207 405.358C252.835 405.285 265.066 404.215 266.771 405.76C262.072 406.882 256.068 406.339 251.221 406.21C251.654 407.732 252.172 409.275 252.494 410.822C251.454 409.113 250.854 407.238 250.207 405.358Z" fill="#B6B194"/>
<path d="M246.611 396.742C249.54 396.653 268.753 396.221 270.024 397.116C269.449 397.787 268.75 397.912 267.9 397.981C261.877 398.469 253.426 397.939 247.227 397.719C248.428 399.87 249.493 402.02 249.887 404.476C247.777 402.378 247.959 398.159 246.611 396.742Z" fill="#B6B194"/>
<path d="M236.449 381.035C237.109 381.742 237.554 382.55 238.594 382.568C243.356 382.65 271.232 381.324 272.988 382.451L273.085 383.129C271.391 384.709 242.367 382.471 239.325 383.96L239.363 384.563C240.449 385.945 241.518 387.326 242.52 388.77C247.273 388.793 269.717 388.272 272.082 389.181C271.87 389.611 272.024 389.511 271.658 389.64C267.348 391.152 249.508 389.293 243.117 390.403C242.713 390.22 242.329 389.848 241.974 389.576C241.018 387.493 238.946 385.759 237.837 383.6L237.241 382.884L236.449 381.035Z" fill="#B6B194"/>
<path d="M359.611 376.577C366.728 373.983 377.708 372.497 385.387 370.766C396.151 368.34 407.041 365.005 417.913 363.267C421.548 367.56 426.896 373.802 428.916 379.051L428.151 379.756C427.387 380.504 426.564 381.219 425.999 382.133C425.109 383.44 424.032 384.782 423.296 386.173L422.785 388.822C422.5 389.316 422.204 389.794 421.983 390.32C421.115 390.92 420.43 391.4 419.803 392.272C418.685 394.387 417.512 396.49 416.498 398.657C416.209 399.287 415.776 400.011 415.592 400.671C414.554 403.356 413.629 406.232 412.343 408.801L411.771 410.712C409.606 416.503 407.847 422.502 405.533 428.223C404.685 430.813 403.606 433.517 403.641 436.276L403.26 436.737C401.746 435.895 396.998 436.393 395.101 436.287C394.297 435.876 393.628 435.455 393.076 434.725C389.709 430.277 387.137 425.221 384.143 420.528L360.541 383.534C360.472 382.206 360.197 380.57 361.103 379.545C360.746 378.545 360.098 377.529 359.611 376.577Z" fill="#FEFEFE"/>
<path d="M411.77 410.712C406.525 411.316 399.755 414.469 394.653 413.879L394.426 413.484C395.488 412.065 409.717 409.341 412.342 408.801L411.77 410.712Z" fill="#B6B194"/>
<path d="M416.499 398.657C416.21 399.287 415.778 400.01 415.593 400.671C410.922 401.595 406.258 402.552 401.6 403.543C397.853 404.367 390.986 407.019 387.406 406.518L387.434 405.751C388.91 404.488 413.405 399.357 416.499 398.657Z" fill="#B6B194"/>
<path d="M396.937 429.897C399.965 430.087 402.889 429.766 405.533 428.223C404.685 430.813 403.607 433.517 403.641 436.276L403.26 436.737C401.747 435.895 396.999 436.393 395.102 436.287C395.656 436.124 396.374 436.049 396.765 435.613C397.786 434.477 397.099 431.372 396.937 429.897Z" fill="#CDDFFE"/>
<path d="M423.296 386.173L422.785 388.822C422.5 389.316 422.203 389.794 421.983 390.32C421.115 390.919 420.429 391.4 419.803 392.272C418.109 391.465 391.296 398.096 386.598 399.053C385.398 399.298 383.657 399.79 382.594 399.089C384.219 397.12 416.205 391.288 420.733 390.21C421.65 388.907 422.462 387.53 423.296 386.173Z" fill="#B6B194"/>
<path d="M417.899 374.079C418.432 373.969 418.734 374.035 419.254 374.179L419.368 374.549C418.907 375.099 418.432 375.265 417.743 375.489C412.17 377.305 405.972 378.244 400.236 379.516C391.848 381.376 383.497 383.459 375.132 385.423C374.594 385.498 374.039 385.469 373.496 385.471L373.211 385.113C376.395 382.178 410.853 375.763 417.899 374.079Z" fill="#B6B194"/>
<path d="M425.998 382.133C421.916 381.693 391.133 389.693 383.961 391.184C382.073 391.577 379.858 392.467 377.943 392.102L377.727 391.65C379.492 390.156 421.874 381.067 428.149 379.756C427.386 380.504 426.563 381.219 425.998 382.133Z" fill="#B6B194"/>
<path d="M360.54 383.534C360.471 382.206 360.197 380.57 361.102 379.545C362.712 381.51 364.19 383.518 365.627 385.612C368.05 388.461 373.237 395.418 374.427 398.704C377.217 402.883 380.14 407.063 383.255 411.009C384.886 413.075 386.696 414.989 388.279 417.094C391.396 421.239 394.116 425.563 396.936 429.897C397.099 431.372 397.786 434.477 396.765 435.614C396.374 436.049 395.656 436.124 395.101 436.287C394.297 435.876 393.628 435.455 393.076 434.726C389.709 430.277 387.137 425.221 384.142 420.528L360.54 383.534Z" fill="#AECEFE"/>
<path d="M365.627 385.612C368.05 388.461 373.237 395.418 374.427 398.704C374.353 398.674 374.278 398.646 374.205 398.615C369.903 396.79 367.263 389.681 365.627 385.612Z" fill="#CDDFFE"/>
<path d="M201.781 0H460.478H468.321H469.582H474.729H654.439C654.726 0.450434 654.9 0.879708 654.946 1.41701C655.197 4.27368 655.019 7.28334 655.019 10.1545V26.1592L654.996 77.7401V276.078L655.019 324.224C655.023 327.945 655.544 339.065 654.854 341.995C654.822 342.133 654.786 342.269 654.749 342.406L654.736 343.064C655.549 346.618 655.01 351.138 655.005 354.816V376.772C655.01 405.934 655.43 435.168 654.991 464.319C654.978 465.226 655.005 466.025 654.539 466.841C654.512 466.896 654.475 466.946 654.439 467.001H640.366H638.945H629.604H604.629H562.41H557.294H548.255H449.408H442.366H396.579C396.785 459.612 400.965 444.206 403.26 436.737L403.641 436.276C403.606 433.517 404.685 430.813 405.533 428.223C407.847 422.502 409.606 416.503 411.771 410.712L412.343 408.801C413.629 406.232 414.554 403.356 415.592 400.671C415.776 400.011 416.209 399.287 416.498 398.657C417.512 396.49 418.685 394.387 419.803 392.272C420.43 391.4 421.115 390.92 421.983 390.32C422.204 389.794 422.5 389.316 422.785 388.822L423.296 386.173C424.032 384.782 425.109 383.44 425.999 382.133C426.564 381.219 427.387 380.504 428.151 379.756L428.916 379.051C433.607 373.827 438.205 369.129 444.339 365.593C446.928 363.793 450.652 362.862 453.603 361.735C453.653 360.472 459.629 351.531 460.898 349.76C463.415 346.24 466.521 344.56 470.723 343.838C469.7 341.315 471.719 337.661 470.057 335.479C468.572 335.007 466.955 334.74 465.434 334.392C463.164 333.852 460.492 333.331 458.409 332.283C452.933 329.528 451.303 322.1 449.583 316.708C432.032 316.359 414.443 316.431 396.885 316.215C396.591 316.268 396.296 316.314 396 316.351C393.476 316.678 386.695 317.242 384.838 315.821L384.405 314.857C384.577 314.389 384.772 313.882 384.755 313.377C384.721 312.373 384.157 311.269 383.443 310.585C382.36 309.549 381.599 309.355 380.115 309.376C381.31 308.323 382.487 307.239 383.767 306.289C387.122 301.924 386.659 298.314 386.379 293.036C385.906 283.468 384.697 273.96 383.945 264.411C382.909 261.445 382.975 257.096 382.686 253.961C382.068 247.234 381.506 240.498 380.802 233.781C379.238 218.848 380.195 214.559 366.349 206.454C365.057 205.697 359.86 203.274 359.165 202.645C359.063 202.553 358.968 202.452 358.87 202.356C356.245 200.51 353.188 198.973 350.29 197.594C350.144 197.336 350.071 197.19 349.916 196.961C348.908 195.481 346.688 195.675 345.101 195.39C339.217 194.333 338.024 188.668 335.082 184.375L334.849 184.038C333.948 183.89 333.756 184.209 332.996 184.693C332.4 185.072 331.819 185.436 331.159 185.696C326.303 187.615 318.603 188.17 313.896 185.579C312.2 184.645 310.851 183.115 309.047 182.38C308.98 182.353 308.912 182.329 308.845 182.304C308.983 181.623 309.185 180.828 308.994 180.14C308.114 176.97 302.31 174.204 301.736 169.582C300.383 166.879 299.175 161.574 297.288 159.565C296.681 158.917 296.38 158.719 295.517 158.724C294.631 159.638 294.201 162.876 293.71 164.222C293.457 162.433 294.171 159.951 294.493 158.147C293.218 156.702 292.116 155.32 291.149 153.651C290.213 149.943 290.468 147.986 291.975 144.473C291.622 143.061 291.483 141.595 291.292 140.154C291.172 139.319 291.175 138.431 291.123 137.587L291.365 133.024C291.63 128.52 293.188 124.362 294.803 120.203C294.269 119.848 293.756 119.659 293.116 119.618C286.321 119.185 279.121 119.682 272.291 119.706L229.168 119.795C225.183 117.36 208.765 119.975 203.06 118.785C202.257 118.617 202.223 118.4 201.798 117.786C202.048 110.745 201.885 103.641 201.885 96.5939C201.981 85.191 201.958 73.7884 201.815 62.3861C201.581 41.5906 201.57 20.7952 201.781 0Z" fill="#AECEFE"/>
<path d="M630.961 331.831L631.258 331.011C634.419 330.057 640.768 331.74 643.664 333.268C644.294 333.602 646.043 334.388 646.322 335.033C646.678 335.638 646.897 335.994 646.861 336.727C641.092 332.935 637.616 333.008 631.198 331.875L630.961 331.831Z" fill="#5584EB"/>
<path d="M383.944 264.411C386.591 263.636 389.832 264.221 392.209 265.54C395.126 267.159 397.171 269.727 398.077 272.939C399.426 277.724 398.706 287.244 397.787 292.121C398.783 300.001 396.931 308.274 396.884 316.215C396.591 316.268 396.296 316.314 396 316.351C393.476 316.678 386.694 317.242 384.837 315.821L384.405 314.857C384.576 314.389 384.772 313.882 384.755 313.377C384.721 312.373 384.157 311.269 383.443 310.585C382.36 309.549 381.599 309.355 380.115 309.376C381.31 308.323 382.486 307.239 383.767 306.289C387.122 301.925 386.658 298.314 386.379 293.036C385.906 283.468 384.697 273.96 383.944 264.411Z" fill="#558AF7"/>
<path d="M386.379 293.036C387.991 297.463 388.649 300.062 387.006 304.65C385.953 305.301 384.971 305.943 383.768 306.289C387.123 301.925 386.659 298.314 386.379 293.036Z" fill="#92BAFD"/>
<path d="M395.528 315.81C395.979 308.098 395.868 299.605 397.787 292.121C398.783 300.001 396.932 308.274 396.885 316.215C396.591 316.268 396.296 316.314 396 316.351C393.476 316.678 386.695 317.242 384.838 315.821C388.358 315.302 391.999 315.487 395.528 315.81Z" fill="#92BAFD"/>
<path d="M468.32 0H469.581H474.728C475.021 0.457264 475.208 0.901206 475.258 1.44961C475.765 7.18387 475.327 13.3367 475.322 19.1062L475.245 56.2804C475.117 76.0841 475.105 95.8873 475.208 115.69C475.226 119.767 475.875 136.688 475.144 139.519C475.053 139.875 474.884 140.16 474.701 140.475C459.881 140.586 445.061 140.559 430.241 140.394L408.016 140.527C401.037 140.503 358.815 139.593 356.09 140.8C356.442 139.056 356.305 137.212 356.827 135.519C357.163 136.016 357.081 136.131 357.707 136.259C360.093 136.746 363.504 136.105 366.019 136.025C373.81 135.778 382.022 135.271 389.792 135.733C399.134 135.025 408.83 135.533 418.21 135.591C427.707 135.65 437.409 135.334 446.877 135.795L464.657 135.726C465.812 135.526 466.968 135.403 468.133 135.281C469.43 131.98 469.014 70.3292 469.065 61.5488C469.097 55.8303 469.572 50.125 469.394 44.4063C469.832 42.1116 469.996 36.7227 469.115 34.6397C469.59 30.3899 469.119 25.6641 469.092 21.3593C469.046 14.7997 469.403 7.95483 468.845 1.43527C468.8 0.882403 468.622 0.457501 468.32 0Z" fill="#92BAFD"/>
<path d="M468.32 0H469.581C469.869 0.437296 470.051 0.866405 470.106 1.39262C470.54 5.698 470.645 29.1916 469.951 33.013C469.828 33.6882 469.544 34.1203 469.115 34.6397C469.59 30.3899 469.12 25.6641 469.092 21.3593C469.047 14.7997 469.403 7.95483 468.846 1.43526C468.8 0.882403 468.622 0.457501 468.32 0Z" fill="#CDDFFE"/>
<path d="M389.793 135.733C399.134 135.025 408.831 135.533 418.211 135.591C427.708 135.65 437.41 135.334 446.878 135.795C442.129 136.325 437.322 135.876 432.559 136.121C429.869 136.26 427.199 136.684 424.51 136.849C416.492 137.342 405.246 137.685 397.376 136.762C399.205 136.792 400.923 136.48 402.731 136.416C404.703 136.347 406.674 136.589 408.64 136.369C404.385 135.836 392.804 137.179 389.793 135.733Z" fill="#AECEFE"/>
<path d="M469.393 44.4062C470.439 48.3409 470.489 133.777 469.562 135.337C469.416 135.58 469.329 135.664 469.137 135.9L464.656 135.726C465.812 135.526 466.967 135.403 468.132 135.281C469.429 131.98 469.014 70.3292 469.064 61.5487C469.096 55.8303 469.571 50.125 469.393 44.4062Z" fill="#CDDFFE"/>
<path d="M460.478 0H468.321C468.622 0.457501 468.8 0.882403 468.846 1.43526C469.403 7.95483 469.047 14.7997 469.093 21.3593C469.12 25.6641 469.591 30.3899 469.116 34.6397C469.997 36.7227 469.833 42.1116 469.394 44.4063C469.572 50.125 469.097 55.8303 469.065 61.5488C469.015 70.3292 469.431 131.98 468.134 135.281C466.969 135.403 465.813 135.526 464.658 135.726L446.878 135.795C437.41 135.334 427.708 135.65 418.211 135.591C408.831 135.533 399.134 135.025 389.793 135.733C382.022 135.271 373.81 135.778 366.02 136.025C363.505 136.105 360.094 136.746 357.707 136.259C357.081 136.131 357.163 136.016 356.827 135.519C356.8 134.426 356.723 133.336 356.596 132.25C356.469 131.163 356.292 130.085 356.065 129.015C355.839 127.945 355.564 126.887 355.241 125.842C354.918 124.797 354.547 123.769 354.129 122.758C353.984 121.411 353.967 120.257 354.143 118.91C356.552 120.065 447.907 119.441 460.268 119.496L460.355 47.5821C460.48 31.7216 460.521 15.8609 460.478 0Z" fill="#FEFEFE"/>
<path d="M294.804 120.203C295.526 119.4 295.982 118.171 296.497 117.221C298.051 114.357 299.711 111.576 302.251 109.474C306.531 105.93 310.758 105.573 315.728 103.833C317.459 103.227 318.958 101.942 320.774 101.55C323.535 100.954 327.14 101.049 329.926 101.339C338.98 102.283 345.741 108.046 351.289 114.788C351.599 115.502 351.807 116.076 351.882 116.854C352.073 118.838 353.451 120.88 354.13 122.758C354.548 123.769 354.918 124.797 355.242 125.842C355.565 126.887 355.84 127.944 356.066 129.015C356.293 130.085 356.47 131.163 356.597 132.249C356.724 133.336 356.801 134.426 356.828 135.519C356.306 137.212 356.444 139.056 356.091 140.8C355.488 142.83 354.899 144.855 354.135 146.832C355.344 148.136 356.431 149.359 356.355 151.264C356.249 153.917 354.135 156.37 352.608 158.398C352.71 161.302 353.66 164.021 354.173 166.864C358.385 174.652 363.071 192.057 360.405 200.492C360.147 201.31 359.478 201.771 358.871 202.356C356.246 200.51 353.189 198.973 350.29 197.594C350.145 197.336 350.072 197.19 349.916 196.961C348.909 195.481 346.688 195.674 345.102 195.389C339.218 194.333 338.024 188.668 335.083 184.375L334.85 184.038C333.949 183.89 333.757 184.209 332.996 184.693C332.401 185.072 331.819 185.436 331.16 185.696C326.304 187.615 318.604 188.17 313.897 185.579C312.2 184.645 310.852 183.115 309.047 182.38C308.981 182.353 308.913 182.329 308.845 182.304C308.983 181.623 309.185 180.828 308.995 180.14C308.115 176.97 302.311 174.204 301.736 169.582C300.384 166.879 299.176 161.573 297.289 159.564C296.681 158.917 296.381 158.718 295.518 158.723C294.631 159.638 294.202 162.875 293.711 164.222C293.458 162.433 294.172 159.951 294.493 158.147C293.219 156.702 292.117 155.32 291.15 153.651C290.214 149.943 290.468 147.986 291.976 144.473C291.623 143.061 291.484 141.595 291.292 140.154C291.173 139.319 291.176 138.431 291.123 137.587L291.366 133.023C291.631 128.519 293.188 124.362 294.804 120.203Z" fill="#FEAA81"/>
<path d="M296.313 146.573L297.028 146.436C296.543 148.766 297.602 153.556 296.745 155.052C296.373 154.752 295.99 154.459 295.722 154.056C294.898 152.816 296.091 147.949 296.313 146.573Z" fill="#F08152"/>
<path d="M320.612 155.476C321.941 153.646 322.758 151.928 323.477 149.793C323.471 154.603 322.361 155.437 321.091 159.66C320.342 158.399 320.575 156.897 320.612 155.476Z" fill="#B36948"/>
<path d="M321.091 159.66C322.941 160.589 325.577 159.873 327.611 160.403L327.502 160.813C326.865 161.181 326.252 161.427 325.532 161.572C323.937 161.893 321.698 162.095 320.318 161.081C319.549 160.516 319.15 159.384 319.073 158.462C318.975 157.283 319.927 156.342 320.612 155.477C320.575 156.898 320.341 158.399 321.091 159.66Z" fill="#F08152"/>
<path d="M334.87 144.278C334.986 144.409 335.101 144.542 335.218 144.671C335.756 145.268 336.344 145.848 336.723 146.564C337.083 147.245 337.319 148.263 337.047 149.012C336.606 150.232 335.482 150.78 334.369 151.251C334.118 151.153 333.935 151.039 333.74 150.85C332.585 149.727 332.738 148.333 332.732 146.847C333.533 146.057 334.191 145.171 334.87 144.278Z" fill="#5A2707"/>
<path d="M325.868 174.583C326.445 174.431 327.834 173.874 328.325 174.113L328.548 174.868C326.782 176.569 324.39 177.748 321.892 177.699C320.136 177.665 318.687 176.975 317.511 175.682C317.27 175.418 317.322 175.251 317.283 174.907C318.969 174.297 320.091 175.627 321.715 175.491C323.167 175.345 324.473 174.999 325.868 174.583Z" fill="#F08152"/>
<path d="M334.982 141.617C336.963 141.898 339.061 142.241 340.704 143.455C341.165 144.312 341.126 144.348 340.977 145.251C340.071 145.371 336.513 143.915 335.198 143.658C333.323 143.355 329.773 143.754 328.38 142.556L328.562 142.297C330.688 141.184 332.688 141.477 334.982 141.617Z" fill="#904D30"/>
<path d="M311.94 145.494C312.712 145.665 313.423 146.026 313.984 146.586C314.638 147.238 314.924 147.901 314.907 148.829C314.878 150.268 314.137 151.157 313.185 152.151C312.705 152.14 312.176 152.144 311.708 152.025C310.911 151.822 310.493 151.232 310.113 150.561C309.929 149.422 310.197 148.63 310.521 147.556C311.153 146.986 311.491 146.51 311.839 145.729C311.874 145.651 311.907 145.572 311.94 145.494Z" fill="#5A2707"/>
<path d="M310.532 141.041C311.612 140.768 312.748 140.58 313.867 140.615C315.401 140.663 317.315 141.191 318.378 142.328L318.298 142.85C316.601 144.122 314.123 143.715 312.113 143.637C309.6 143.885 306.153 145.323 303.747 144.521L303.795 143.772C305.183 142.135 308.552 141.51 310.532 141.041Z" fill="#904D30"/>
<path d="M313.455 168.369C319.383 168.526 325.299 168.534 331.216 168.101C329.609 170.436 327.96 172.654 325.868 174.583C324.473 174.999 323.167 175.345 321.715 175.491C321.371 175.202 321.487 175.249 321.147 175.106C317.408 173.538 315.754 171.569 313.455 168.369Z" fill="#FEFEFE"/>
<path d="M301.736 169.583C306.354 176.218 311.515 182.876 319.97 184.374C324.254 185.133 329.794 184.011 333.251 181.272C335.421 179.553 336.316 177.366 339.36 176.765C339.293 176.842 339.227 176.92 339.159 176.996C337.585 178.734 334.55 179.664 334.63 182.342C334.646 182.905 334.691 183.496 334.849 184.038C333.949 183.89 333.757 184.21 332.996 184.693C332.401 185.072 331.819 185.436 331.16 185.696C326.304 187.615 318.604 188.17 313.897 185.579C312.2 184.645 310.852 183.115 309.047 182.38C308.981 182.353 308.913 182.33 308.845 182.304C308.983 181.623 309.185 180.828 308.995 180.141C308.115 176.971 302.31 174.204 301.736 169.583Z" fill="#F08152"/>
<path d="M347.227 163.262C347.284 163.195 347.342 163.129 347.398 163.062C348.689 161.507 348.739 159.437 350.891 158.746L351.733 158.902C352.291 161.236 352.424 165.206 354.172 166.864C358.383 174.652 363.069 192.057 360.404 200.492C360.146 201.31 359.477 201.771 358.869 202.356C356.245 200.51 353.188 198.973 350.289 197.594C350.144 197.336 350.071 197.19 349.915 196.961C348.908 195.481 346.687 195.674 345.1 195.389C339.216 194.333 338.023 188.668 335.082 184.375L334.848 184.038C334.689 183.496 334.645 182.904 334.629 182.342C334.549 179.664 337.584 178.734 339.157 176.995C339.226 176.92 339.292 176.842 339.359 176.765C343.672 172.328 345.384 169.218 347.227 163.262Z" fill="#904D30"/>
<path d="M294.804 120.203C295.526 119.4 295.982 118.172 296.497 117.221C298.051 114.357 299.71 111.577 302.251 109.474C306.531 105.93 310.758 105.573 315.728 103.833C317.459 103.227 318.958 101.942 320.774 101.55C323.534 100.954 327.14 101.05 329.925 101.34C338.98 102.283 345.74 108.046 351.289 114.789C351.598 115.502 351.807 116.077 351.882 116.854C352.072 118.838 353.451 120.88 354.129 122.758C354.547 123.769 354.918 124.797 355.241 125.842C355.565 126.887 355.84 127.945 356.066 129.015C356.292 130.085 356.469 131.163 356.596 132.25C356.723 133.336 356.801 134.426 356.828 135.519C356.306 137.212 356.444 139.056 356.091 140.8C355.488 142.83 354.899 144.855 354.135 146.833L351.461 146.423L349.978 146.1C348.525 142.698 330.581 129.372 326.477 126.598C324.468 125.24 322.221 123.938 319.973 123.031C318.222 122.324 316.576 121.876 314.764 122.69C309.85 124.896 301.525 135.524 297.85 140.067C297.628 142.196 297.447 144.334 297.029 146.436L296.313 146.574C295.145 145.099 293.721 144.903 291.975 144.473C291.623 143.061 291.483 141.595 291.292 140.155C291.172 139.319 291.176 138.431 291.123 137.587L291.366 133.024C291.631 128.52 293.188 124.362 294.804 120.203Z" fill="#B36948"/>
<path d="M552.869 195.456C559.807 188.988 568.979 186.679 578.347 187.024C583.605 187.218 587.3 188.97 591.338 192.179C596.44 190.877 600.806 191.59 605.369 194.285C610.951 197.583 614.66 203.271 616.222 209.487C617.684 215.309 618.296 223.914 616.875 229.766C616.227 232.439 614.856 234.959 614.372 237.659L614.897 237.971C617.725 238.282 619.762 238.774 621.635 241.103C624.366 244.494 624.764 250.517 624.193 254.644C623.704 258.175 622.201 261.526 619.255 263.664C617.51 264.928 615.4 265.383 613.285 265.556C612.198 264.808 610.846 264.12 609.581 263.718C609.179 265.338 607.786 266.355 606.415 267.175C603.698 268.803 600.733 269.428 597.655 269.929C596.271 269.755 594.804 269.969 593.402 269.865C592.091 269.767 591.776 269.205 590.968 268.266L590.858 267.092C591.388 266.019 591.539 264.96 591.301 263.794C586.267 268.361 580.654 271.207 573.976 272.568C572.208 272.928 570.167 272.921 568.486 273.484C560.319 273.319 554.367 270.561 549.845 263.588C548.721 261.854 547.73 259.527 546.109 258.219C546.049 258.169 545.981 258.123 545.921 258.075C545.127 256.28 542.72 254.807 541.559 253.147C540.413 251.498 540.76 249.317 539.869 247.642C539.061 246.109 537.202 244.993 536.192 243.539C535.489 242.525 535.251 241.338 535.535 240.133C536.293 236.935 539.961 233.746 542.656 232.17C542.898 232.104 543.322 232.023 543.551 231.888C544.268 231.459 544.446 230.669 544.592 229.883C545.013 227.605 542.806 223.651 541.587 221.714C541.733 220.069 541.468 218.381 541.642 216.706C541.87 214.511 542.578 212.508 542.916 210.364C542.925 210.3 542.934 210.236 542.943 210.172L543.249 209.243C544.935 206.531 546.547 203.874 548.434 201.288C549.699 199.55 551.197 197.951 552.353 196.141L552.869 195.456Z" fill="#904D30"/>
<path d="M548.492 219.821C548.853 219.25 549.218 218.68 549.62 218.137C553.032 213.523 563.068 210.426 568.672 209.591C570.677 209.292 573.916 209.213 575.592 210.442C572.824 210.921 570.02 211.173 567.265 211.766C564.936 210.925 559.688 213.561 557.449 214.613C554.668 215.92 551.708 217.171 549.493 219.338C549.186 219.638 548.899 219.712 548.492 219.821Z" fill="#B36948"/>
<path d="M575.592 210.443L576.611 210.897C577.799 214.66 577.872 218.882 579.219 222.55C579.913 224.449 584.335 232.57 584.202 233.761C586.642 237.76 591.588 241.676 595.759 243.634C598.76 243.419 603.606 240.702 606.159 243.077C607.041 243.896 607.054 245.547 607.036 246.673C607.027 247.166 606.876 247.495 606.657 247.926C607.283 249.345 606.735 251.539 606.145 252.943C605.2 255.214 602.875 257.088 600.573 257.894C599.052 258.426 597.435 258.328 595.854 258.257C595.009 260.332 593.301 262.694 591.301 263.794C586.267 268.361 580.653 271.207 573.975 272.568C572.208 272.928 570.166 272.921 568.485 273.485C560.318 273.319 554.367 270.561 549.845 263.588C548.721 261.854 547.73 259.527 546.108 258.219C546.049 258.169 545.98 258.123 545.921 258.075L546.373 257.29C545.455 254.479 544.048 250.926 543.879 247.994C543.683 244.56 545.638 237.046 544.615 234.438C544.679 234.365 544.743 234.294 544.802 234.218C545.757 232.966 547.013 227.168 546.853 225.588C547.629 224.232 548.826 221.333 548.493 219.821C548.899 219.712 549.187 219.639 549.493 219.338C551.708 217.171 554.668 215.92 557.45 214.613C559.688 213.562 564.936 210.925 567.266 211.766C570.02 211.173 572.824 210.921 575.592 210.443Z" fill="#FEAA81"/>
<path d="M599.289 248.852C600.294 247.684 601.285 246.225 602.948 246.078C603.089 246.065 603.231 246.063 603.373 246.055L603.765 246.496C603.491 247.806 601.655 249.284 600.568 250.075C600.76 250.815 600.554 252.195 600.285 252.912C600.002 253.652 599.595 253.853 598.924 254.196L598.334 253.883C597.585 251.762 598.531 251.063 599.17 249.204C599.211 249.087 599.248 248.969 599.289 248.852Z" fill="#B36948"/>
<path d="M557.889 241.964L558.684 242.34C558.812 242.632 558.926 242.891 558.944 243.213C559.04 244.972 557.428 247.171 556.423 248.519C557.355 249.064 558.113 249.679 558.428 250.706C557.798 251.327 557.496 251.206 556.633 251.267C556.263 250.293 554.536 248.955 553.719 248.293C555.208 247.127 556.806 243.673 557.889 241.964Z" fill="#B36948"/>
<path d="M572.765 237.493C573.363 237.476 573.966 237.489 574.569 237.491C575.464 237.89 575.958 238.415 576.401 239.3C576.748 239.995 576.803 240.939 576.533 241.67C576.182 242.621 575.812 242.788 574.971 243.243C574.336 243.16 573.765 243.025 573.199 242.715C572.601 242.387 572.125 241.797 571.943 241.134C571.577 239.777 572.098 238.635 572.765 237.493Z" fill="black"/>
<path d="M550.652 233.66C551.292 233.612 552.054 233.611 552.671 233.824C553.452 234.095 554.124 235.032 554.452 235.749C554.79 236.476 554.827 237.438 554.489 238.174C554.087 239.061 553.562 239.184 552.735 239.534C551.817 239.625 551.123 239.368 550.323 238.955C550.017 238.594 549.739 238.282 549.624 237.811C549.25 236.221 549.903 234.99 550.652 233.66Z" fill="black"/>
<path d="M550.927 225.354C551.969 225.2 553.12 224.96 554.12 225.403C554.956 225.774 555.349 226.292 555.696 227.115C555.6 227.983 555.518 228.082 555.011 228.74C553.997 229.352 553.074 229.269 551.937 229.244C550.347 229.288 548.954 229.41 547.598 228.446L547.748 227.823C548.383 227.16 549.004 226.392 549.881 226.065C550.283 225.916 550.407 225.909 550.736 225.583C550.809 225.513 550.864 225.43 550.927 225.354Z" fill="#904D30"/>
<path d="M571.198 228.868C572.76 228.611 573.984 228.553 575.446 229.291C577.355 230.257 579.621 231.787 580.333 233.89C580.1 234.846 580.155 234.951 579.342 235.584C577.095 233.531 573.107 233.45 571.084 231.024C570.787 230.175 570.942 229.712 571.198 228.868Z" fill="#904D30"/>
<path d="M555.914 255.38C557.262 255.341 558.682 255.924 560.002 256.245C564.424 257.326 567.712 257.023 572.125 256.043C572.184 256.289 572.202 256.304 572.175 256.597C572.079 257.789 570.859 259.474 569.941 260.173C569.896 260.495 569.813 260.849 569.631 261.125C568.827 262.324 566.94 263.011 565.556 263.259C563.419 263.644 560.97 263.21 559.198 261.921C556.85 260.211 556.33 258.069 555.914 255.38Z" fill="#FEFEFE"/>
<path d="M460.83 250.486C465.945 243.519 472.409 240.046 480.909 238.735C492.264 236.985 505.273 240.713 514.509 247.521C521.949 253.005 526.334 261.143 527.618 270.218C529.271 281.931 526.663 291.881 522.26 302.625C521.082 305.496 519.675 309.236 517.761 311.688C517.569 311.937 517.363 312.175 517.144 312.401C516.103 314.374 514.253 319.78 512.028 320.549C511.764 320.64 511.494 320.699 511.22 320.754C513.116 324.35 508.283 337.047 513.687 342.879L513.426 343.292C506.771 343.477 500.121 343.77 493.466 343.772C485.906 343.774 478.274 343.484 470.723 343.838C469.7 341.315 471.719 337.661 470.056 335.479C468.572 335.007 466.955 334.74 465.434 334.392C463.164 333.853 460.492 333.331 458.409 332.283C452.933 329.528 451.303 322.101 449.583 316.708C448.379 313.537 444.961 298.05 443.253 296.808C442.974 296.886 442.765 296.957 442.466 296.977C441.675 297.028 440.962 296.647 440.384 296.136C438.292 294.287 438.491 289.72 438.455 287.144L438.702 285.543C439.204 284.174 439.613 282.632 440.437 281.419C441.726 279.521 443.556 279.084 445.679 278.737C446.34 276.894 446.579 274.847 447.161 272.961C448.774 267.736 455.547 252.588 460.341 250.046L460.83 250.486Z" fill="#FEFEFE"/>
<path d="M445.679 278.737C446.34 276.894 446.579 274.847 447.161 272.961C448.774 267.736 455.547 252.587 460.341 250.045L460.83 250.486C456.066 256.485 458.761 278.402 459.281 286.569C461.35 286.536 467.553 286.014 469.106 286.768L467.069 286.92C460.734 286.857 454.414 286.902 448.08 286.58L448.419 287.933L445.826 287.923C443.861 287.83 441.936 287.779 439.971 287.884C439.429 287.713 438.952 287.415 438.455 287.144L438.702 285.542C439.204 284.174 439.613 282.631 440.437 281.418C441.726 279.521 443.556 279.084 445.679 278.737Z" fill="#FEAA81"/>
<path d="M440.467 285.933C440.757 284.105 441.127 282.041 442.763 280.901C443.388 280.466 443.91 280.426 444.647 280.481C445.611 280.927 446.176 281.478 446.567 282.483C447.018 283.641 446.909 285.103 446.915 286.328L447.798 286.5L448.08 286.58L448.419 287.933L445.826 287.923C443.861 287.83 441.936 287.78 439.971 287.884C439.429 287.713 438.952 287.416 438.455 287.144L438.702 285.543C439.282 285.662 439.908 285.743 440.467 285.933Z" fill="#CDDFFE"/>
<path d="M438.702 285.542C439.282 285.662 439.908 285.743 440.467 285.932C442.576 286.338 444.774 286.281 446.915 286.328L447.798 286.5L448.08 286.58L448.419 287.933L445.826 287.923C443.861 287.83 441.936 287.779 439.971 287.884C439.429 287.713 438.952 287.415 438.455 287.144L438.702 285.542Z" fill="#4A3E36"/>
<path d="M448.08 286.58C454.414 286.902 460.734 286.857 467.069 286.92L469.106 286.768C470.984 286.945 472.249 287.337 473.519 288.857C475.93 291.745 476.803 296.939 476.378 300.585C476.223 301.895 476.086 303.466 475.542 304.675C475.624 304.796 475.711 304.915 475.798 305.037C476.058 305.425 476.191 305.77 476.351 306.207C478.141 311.208 482.535 315.832 487.308 318.016C488.66 318.634 490.145 319.056 491.447 319.758C498.051 320.685 504.542 322.319 511.22 320.754C513.116 324.35 508.283 337.047 513.686 342.879L513.426 343.292C506.771 343.477 500.121 343.77 493.466 343.772C485.906 343.774 478.274 343.484 470.723 343.838C469.7 341.315 471.719 337.661 470.056 335.479C468.572 335.007 466.955 334.74 465.434 334.392C463.164 333.852 460.492 333.331 458.409 332.283C452.933 329.528 451.303 322.1 449.583 316.708C448.379 313.537 444.961 298.049 443.253 296.808C442.974 296.886 442.765 296.957 442.466 296.977C441.675 297.028 440.962 296.647 440.384 296.136C438.292 294.287 438.491 289.72 438.455 287.144C438.952 287.416 439.429 287.713 439.971 287.884C441.936 287.78 443.861 287.83 445.826 287.923L448.419 287.933L448.08 286.58Z" fill="#FEAA81"/>
<path d="M448.082 286.58C454.415 286.902 460.735 286.857 467.071 286.92C468.455 287.169 469.647 287.307 470.921 287.924C470.547 288.387 470.172 288.3 469.592 288.358C468.921 288.424 468.254 288.411 467.587 288.398C461.198 288.209 454.809 288.054 448.421 287.933L448.082 286.58Z" fill="#904D30"/>
<path d="M439.971 287.884C441.936 287.779 443.861 287.83 445.826 287.923C445.475 290.117 444.211 292.277 443.999 294.378C443.004 294.818 442.642 295.062 441.56 294.794C439.874 293.313 440.126 289.987 439.971 287.884Z" fill="#AECEFE"/>
<path d="M467.069 286.92L469.106 286.768C470.984 286.945 472.249 287.337 473.519 288.857C475.93 291.745 476.803 296.939 476.378 300.585C476.223 301.895 476.086 303.466 475.542 304.676C475.094 306.176 474.523 307.957 473.094 308.798C472.473 309.164 471.664 309.331 470.956 309.154C470.44 309.026 469.942 308.76 469.467 308.528L469.449 307.983C468.284 306.478 467.891 305.69 468.074 303.8C468.252 302.284 467.919 300.913 467.571 299.45C466.626 295.822 467.101 292.061 467.585 288.398C468.252 288.411 468.919 288.424 469.59 288.358C470.17 288.3 470.545 288.387 470.92 287.924C469.645 287.308 468.453 287.169 467.069 286.92Z" fill="#B36948"/>
<path d="M467.904 291.175C468.087 290.157 468.014 289.439 468.841 288.745C470.056 288.631 471.106 288.681 472.088 289.495C474.253 291.291 474.628 294.962 474.751 297.569C474.879 300.306 474.925 304.565 472.974 306.764C472.55 307.242 472.221 307.307 471.632 307.523C470.791 307.336 470.389 307.107 469.786 306.492C470.882 302.918 468.594 294.952 467.904 291.175Z" fill="#FEAA81"/>
<path d="M568.485 273.485C570.166 272.921 572.208 272.928 573.975 272.568C580.653 271.207 586.267 268.361 591.3 263.794C591.538 264.96 591.387 266.019 590.857 267.093L590.967 268.266C591.775 269.206 592.091 269.768 593.402 269.865C594.804 269.969 596.27 269.756 597.654 269.93C595.863 270.679 593.045 270.066 591.045 270.336C591.817 271.372 594.078 278.451 595.357 280.77C596.311 282.497 598.494 284.131 598.938 286.001C598.956 286.065 598.956 286.132 598.965 286.198L599.28 286.318C601.893 287.292 604.711 287.485 607.356 288.354C614.842 290.813 621.218 297.179 624.544 304.185C629.326 314.255 628.559 322.097 630.884 332.154L630.961 331.831L631.199 331.875C637.616 333.008 641.092 332.936 646.861 336.727C646.898 335.994 646.679 335.638 646.322 335.033C650.237 335.683 652.091 339.914 654.75 342.406L654.736 343.064C655.549 346.619 655.01 351.138 655.005 354.817V376.773C655.01 405.935 655.43 435.168 654.992 464.319C654.978 465.227 655.005 466.025 654.54 466.841C654.512 466.896 654.476 466.946 654.439 467.001H640.366H638.946H629.605H604.629C607.173 465.135 609.671 463.247 611.526 460.648C612.435 459.371 613.723 457.159 613.458 455.553C614.97 453.729 614.943 448.176 614.984 445.721C615.025 443.217 615.381 436.502 613.668 434.729L613.796 435.593C612.517 436.786 609.078 437.134 607.347 437.505C593.863 440.396 580.735 441.431 566.946 440.962C565.569 440.928 564.194 440.867 562.821 440.777C563.42 439.024 563.246 434.77 562.483 433.11C562.511 433.05 562.543 432.991 562.57 432.929C563.662 430.46 562.817 413.824 561.803 411.114C562.191 409.331 562.026 407.318 561.163 405.708C562.273 402.987 559.286 392.658 558.477 389.382C556.682 382.074 551.809 371.642 545.204 367.64C543.263 365.074 539.494 362.583 536.626 361.272C535.132 360.191 532.364 358.861 530.56 358.481C531.177 358.355 531.346 358.437 531.784 357.949L531.382 356.787C528.943 353.98 521.329 344.389 518.666 343.039C516.916 343.062 515.181 343.282 513.427 343.292L513.687 342.879C508.283 337.047 513.116 324.35 511.22 320.754C511.495 320.699 511.764 320.64 512.029 320.549C514.253 319.78 516.103 314.375 517.145 312.401C517.432 313.717 516.592 315.226 515.87 316.31C515.66 316.631 515.441 316.864 515.149 317.114C522.809 317.074 530.505 316.94 538.156 317.21C539.914 315.561 542.153 305.223 543.185 302.284C546.026 294.189 549.844 290.042 558.445 288.761C560.336 288.479 562.785 288.435 564.493 287.569C564.557 287.537 564.621 287.5 564.685 287.465C565.151 287.179 565.585 286.854 565.987 286.488C566.392 286.123 566.76 285.723 567.092 285.29C567.814 284.337 567.937 283.766 567.8 282.645C567.891 282.481 568.028 282.257 568.097 282.072C568.732 280.397 569.243 275.131 568.485 273.485Z" fill="#FEAA81"/>
<path d="M568.486 273.485C570.167 272.921 572.209 272.928 573.976 272.568C580.654 271.207 586.268 268.361 591.301 263.794C591.539 264.96 591.388 266.019 590.858 267.093L590.968 268.266C591.776 269.206 592.092 269.768 593.402 269.865C594.805 269.969 596.271 269.756 597.655 269.93C595.864 270.679 593.046 270.066 591.046 270.336C586.414 270.472 569.596 283.259 568.783 283.165C568.513 283.134 568.025 282.8 567.801 282.645C567.892 282.481 568.029 282.257 568.098 282.072C568.733 280.397 569.244 275.131 568.486 273.485Z" fill="#B36948"/>
<path d="M511.22 320.754C511.495 320.699 511.764 320.64 512.029 320.548C514.253 319.78 516.103 314.374 517.145 312.401C517.432 313.717 516.592 315.226 515.87 316.31C515.66 316.631 515.441 316.863 515.149 317.113C522.809 317.074 530.505 316.94 538.156 317.21C538.535 318.432 535.265 331.513 534.844 334.111C534.424 336.715 532.085 355.547 531.784 356.173C531.656 356.44 531.565 356.531 531.382 356.786C528.943 353.98 521.329 344.389 518.666 343.038C516.916 343.062 515.181 343.282 513.427 343.292L513.687 342.879C508.283 337.047 513.116 324.35 511.22 320.754Z" fill="#CDDFFE"/>
<path d="M630.961 331.831L631.199 331.875C637.616 333.008 641.092 332.935 646.861 336.727C646.898 335.994 646.679 335.638 646.322 335.033C650.237 335.683 652.091 339.914 654.75 342.406L654.736 343.064C655.549 346.618 655.01 351.138 655.005 354.816V376.772C655.01 405.934 655.43 435.168 654.992 464.319C654.978 465.227 655.005 466.025 654.54 466.841C654.512 466.896 654.476 466.946 654.439 467.001H640.366H638.946H629.605H604.629C607.173 465.135 609.672 463.247 611.526 460.648C612.435 459.371 613.723 457.159 613.458 455.553C614.97 453.729 614.943 448.176 614.984 445.721C615.025 443.216 615.381 436.502 613.668 434.729C613.7 434.652 613.737 434.576 613.764 434.496C614.463 432.187 612.43 423.257 611.407 421.113C616.203 419.203 620.538 415.805 623.74 411.793C625.891 409.1 627.266 406.202 628.143 402.878C631.898 388.675 632.537 347.624 630.884 332.154L630.961 331.831Z" fill="#558AF7"/>
<path d="M646.322 335.033C650.237 335.683 652.091 339.914 654.75 342.406L654.736 343.064L653.576 342.152C653.685 344.337 654.535 346.388 654.617 348.559C654.763 352.204 653.576 356.183 653.941 359.73C654.028 360.562 654.517 361.277 654.663 362.095C652.872 367.781 649.926 390.237 647.24 392.89C648.387 389.864 648.058 385.902 648.656 382.665C650.552 372.42 656.613 352.608 652.804 342.996C651.644 340.07 649.771 337.949 646.861 336.727C646.898 335.994 646.679 335.638 646.322 335.033Z" fill="#92BAFD"/>
<path d="M613.458 455.553C616.916 455.218 622.662 458.554 625.293 460.721C627.207 462.303 628.44 464.159 629.628 466.321L629.605 467.001H604.629C607.173 465.135 609.672 463.247 611.526 460.648C612.435 459.371 613.723 457.159 613.458 455.553Z" fill="#295EDC"/>
<path d="M654.663 362.096C654.516 361.277 654.028 360.562 653.941 359.73C653.576 356.183 654.763 352.204 654.617 348.559C654.535 346.388 653.685 344.337 653.575 342.152L654.736 343.064C655.549 346.619 655.01 351.138 655.005 354.817V376.772C655.01 405.934 655.43 435.168 654.991 464.319C654.978 465.227 655.005 466.025 654.539 466.841C654.512 466.896 654.475 466.946 654.439 467.001H640.366H638.945C639.868 464.989 640.211 458.222 639.544 456.133C640.106 454.579 641.663 438.177 641.448 436.63C642.563 434.564 642.508 428.935 642.791 426.364C643.559 419.395 644.993 412.581 645.925 405.661C645.998 405.527 646.075 405.395 646.144 405.259C647.03 403.535 647.829 394.547 647.24 392.89C649.926 390.237 652.872 367.781 654.663 362.096Z" fill="#AECEFE"/>
<path d="M641.448 436.63C642.563 434.564 642.508 428.935 642.791 426.364C643.559 419.395 644.993 412.581 645.925 405.661C646.126 406.046 646.299 406.334 646.331 406.779C646.482 408.745 643.061 436.134 642.376 437.889C642.257 438.19 642.074 438.374 641.855 438.603C642.558 440.417 642.07 449.514 641.188 451.523C641.161 451.589 641.129 451.652 641.097 451.716C641.823 453.117 641.234 464.228 640.731 466.202C640.654 466.499 640.517 466.741 640.366 467.001H638.945C639.868 464.989 640.211 458.221 639.544 456.133C640.106 454.578 641.663 438.176 641.448 436.63Z" fill="#92BAFD"/>
<path d="M513.425 343.292C515.179 343.282 516.915 343.062 518.664 343.038C521.327 344.389 528.942 353.98 531.381 356.786L531.783 357.949C531.344 358.436 531.175 358.355 530.559 358.481C532.363 358.861 535.131 360.19 536.624 361.271C539.493 362.582 543.261 365.074 545.202 367.64C551.807 371.642 556.681 382.074 558.476 389.382C559.285 392.658 562.272 402.986 561.162 405.708C562.025 407.318 562.19 409.331 561.801 411.114C562.815 413.823 563.66 430.459 562.569 432.929C562.541 432.99 562.509 433.049 562.482 433.109C563.245 434.769 563.418 439.023 562.82 440.777C564.193 440.866 565.568 440.928 566.944 440.962C580.734 441.43 593.862 440.396 607.345 437.504C609.076 437.134 612.516 436.786 613.795 435.592L613.667 434.729C615.38 436.502 615.024 443.216 614.982 445.721C614.941 448.175 614.969 453.729 613.457 455.552C613.722 457.159 612.434 459.37 611.525 460.647C609.67 463.247 607.172 465.135 604.628 467H562.409H557.293H548.254H449.407H442.365H396.578C396.784 459.612 400.964 444.205 403.259 436.736L403.64 436.275C403.605 433.517 404.684 430.812 405.532 428.222C407.846 422.502 409.605 416.503 411.77 410.712L412.342 408.801C413.628 406.231 414.553 403.356 415.591 400.671C415.775 400.01 416.208 399.287 416.497 398.657C417.511 396.49 418.684 394.387 419.802 392.272C420.429 391.4 421.114 390.919 421.982 390.32C422.203 389.794 422.5 389.315 422.784 388.821L423.295 386.173C424.031 384.782 425.108 383.44 425.998 382.133C426.563 381.219 427.386 380.504 428.15 379.756L428.915 379.051C433.606 373.827 438.204 369.129 444.338 365.593C446.927 363.793 450.651 362.861 453.602 361.735C453.652 360.472 459.628 351.531 460.897 349.759C463.414 346.24 466.52 344.56 470.722 343.838C478.273 343.484 485.905 343.774 493.465 343.771C500.12 343.77 506.77 343.476 513.425 343.292Z" fill="#B6B194"/>
<path d="M428.916 379.051C433.607 373.827 438.205 369.129 444.339 365.594C443.085 368.581 437.518 371.437 435.118 373.887C431.942 377.127 429.036 380.775 426.246 384.347C425.106 385.806 424.043 387.472 422.785 388.822L423.296 386.173C424.032 384.782 425.109 383.44 425.999 382.133C426.564 381.219 427.388 380.504 428.151 379.756L428.916 379.051Z" fill="#C5BB9D"/>
<path d="M421.983 390.32C420.793 392.861 419.467 395.325 418.322 397.889C416.515 401.935 414.899 406.163 412.688 410.009L413.171 410.918C410.074 417.72 407.73 424.819 405.156 431.826C404.638 433.235 404.705 435.26 403.641 436.276C403.607 433.517 404.686 430.813 405.533 428.223C407.847 422.502 409.606 416.503 411.771 410.712L412.343 408.801C413.63 406.232 414.554 403.356 415.592 400.671C415.777 400.011 416.209 399.287 416.498 398.657C417.512 396.49 418.685 394.387 419.803 392.272C420.43 391.4 421.115 390.92 421.983 390.32Z" fill="#C5BB9D"/>
<path d="M442.365 467.001C444.156 455.677 446.979 444.754 450.259 433.787C450.706 432.292 450.654 429.808 451.932 428.817C452.415 428.443 453.027 428.336 453.613 428.224C454.374 428.496 454.711 428.623 455.027 429.412C455.485 430.555 455.351 432.12 455.241 433.321C454.779 438.376 453.523 443.31 452.699 448.309C451.68 454.486 451.053 460.958 449.407 467.001H442.365Z" fill="#908664"/>
<path d="M548.254 467C550.022 464.123 555.886 393.555 554.594 387.662C554.534 387.408 554.438 387.153 554.338 386.913C556.677 390.348 556.859 396.246 557.289 400.31C557.992 407.037 558.787 413.728 558.892 420.504C559.024 429.064 558.344 437.528 558.248 446.067C558.193 451.336 559.006 461.263 557.791 466.024C557.691 466.426 557.522 466.663 557.293 467H548.254Z" fill="#908664"/>
<path d="M513.425 343.292C515.179 343.282 516.915 343.062 518.664 343.038C521.327 344.389 528.942 353.98 531.381 356.786L531.783 357.949C531.344 358.436 531.175 358.355 530.559 358.481C518.509 357.989 506.332 358.887 494.269 359.04C488.381 359.115 482.484 359.305 476.592 359.326C472.065 359.342 467.361 359.058 462.862 359.52C459.655 359.849 456.624 360.645 453.602 361.735C453.652 360.472 459.628 351.531 460.897 349.759C463.414 346.24 466.52 344.56 470.722 343.838C478.273 343.484 485.905 343.774 493.465 343.771C500.12 343.77 506.77 343.476 513.425 343.292Z" fill="#FEFEFE"/>
<path d="M201.781 0H460.478C460.521 15.8609 460.48 31.7216 460.355 47.5821L460.268 119.496C447.907 119.441 356.552 120.065 354.143 118.91C353.967 120.257 353.984 121.411 354.129 122.758C353.45 120.88 352.072 118.838 351.881 116.854C351.807 116.077 351.598 115.502 351.289 114.789C345.74 108.046 338.98 102.283 329.925 101.34C327.139 101.05 323.534 100.954 320.774 101.55C318.957 101.942 317.458 103.227 315.728 103.833C310.757 105.573 306.53 105.93 302.25 109.474C299.71 111.577 298.05 114.357 296.496 117.221C295.981 118.172 295.525 119.4 294.803 120.203C294.269 119.848 293.756 119.659 293.116 119.618C286.321 119.185 279.121 119.682 272.291 119.706L229.168 119.795C225.183 117.36 208.765 119.975 203.06 118.785C202.257 118.617 202.223 118.4 201.798 117.786C202.048 110.745 201.885 103.641 201.885 96.5939C201.981 85.191 201.958 73.7884 201.815 62.3861C201.581 41.5906 201.57 20.7952 201.781 0Z" fill="url(#paint0_linear_82_2517)"/>
<path d="M342.196 11.835C353.247 11.8793 364.62 12.3235 375.641 11.5923C376.014 18.1506 375.792 24.8257 375.787 31.3986L375.745 65.5537C384.519 65.0913 393.479 65.5505 402.279 65.4488C402.237 71.0296 400.908 84.522 402.289 89.1017C404.387 89.7561 427.076 89.1701 431.138 89.1405C431.562 85.005 431.426 80.8019 431.403 76.65C431.349 67.0277 430.85 57.1733 431.398 47.5765C441.048 47.4324 450.708 47.9217 460.356 47.582L460.269 119.496C447.908 119.441 356.553 120.065 354.144 118.91C353.968 120.257 353.985 121.411 354.129 122.758C353.451 120.88 352.073 118.838 351.882 116.854C351.807 116.076 351.599 115.502 351.289 114.789C352.974 112.688 352.171 107.866 351.977 105.266L351.816 105.273L351.721 108.614L351.564 108.554L351.679 109.22C350.985 103.247 351.176 97.0284 351.167 91.018L351.149 65.9122C351.156 61.7247 351.773 56.8887 351.159 52.7888C350.244 51.9058 349.025 52.0673 347.915 51.4293C347.245 50.0082 342.011 24.5481 341.784 21.5916C341.54 18.4029 342.025 15.0332 342.196 11.835Z" fill="#92BAFD"/>
</g>
<defs>
<linearGradient id="paint0_linear_82_2517" x1="304.71" y1="140.843" x2="341.806" y2="-26.1759" gradientUnits="userSpaceOnUse">
<stop stop-color="#90BAF7"/>
<stop offset="1" stop-color="#B7D3F6"/>
</linearGradient>
<clipPath id="clip0_82_2517">
<rect width="655" height="467" rx="20" fill="white"/>
</clipPath>
</defs>
</svg>
